# Blender 3.6.2
# www.blender.org
mtllib Console_Mintendo_GameDud_ADV.mtl
o Console_Mintendo_GameDud_ADV
v 0.106130 -0.004758 -0.065597
v 0.106130 0.027537 -0.065597
v 0.103059 -0.004758 0.056346
v 0.103059 0.027537 0.056346
v 0.083380 0.027537 -0.074087
v 0.030985 0.027537 -0.086478
v 0.062560 0.027537 -0.082849
v 0.030985 -0.004758 -0.086478
v 0.083380 -0.004758 -0.074087
v 0.062560 -0.004758 -0.082849
v 0.030985 0.027537 0.078009
v 0.083214 0.027537 0.065225
v 0.062511 0.027537 0.074264
v 0.083214 -0.004758 0.065225
v 0.030985 -0.004758 0.078009
v 0.062511 -0.004758 0.074264
v 0.147046 0.027537 0.030028
v 0.126473 0.027537 0.052820
v 0.140833 0.027537 0.043187
v 0.147046 -0.004758 0.030028
v 0.140833 -0.004758 0.043187
v 0.126473 -0.004758 0.052820
v 0.147046 0.027537 -0.040459
v 0.140991 0.027537 -0.053028
v 0.127063 0.027537 -0.062229
v 0.147046 -0.004758 -0.040459
v 0.127063 -0.004758 -0.062229
v 0.140991 -0.004758 -0.053028
v 0.119541 0.024819 0.055554
v 0.148699 0.024819 0.026396
v 0.134120 0.024819 0.051647
v 0.144792 0.024819 0.040975
v 0.148699 -0.002207 0.026396
v 0.119541 -0.002207 0.055554
v 0.144792 -0.002207 0.040975
v 0.134120 -0.002207 0.051647
v 0.148699 0.024819 -0.049571
v 0.124021 0.024819 -0.074249
v 0.141471 0.024819 -0.067021
v 0.124021 -0.002207 -0.074249
v 0.148699 -0.002207 -0.049571
v 0.141471 -0.002207 -0.067021
v 0.057923 0.032888 -0.052991
v 0.057923 0.032888 0.033574
v 0.057923 0.030424 0.033574
v 0.057923 0.030424 -0.052991
v 0.051639 0.023889 0.055163
v 0.068132 0.023889 0.037942
v 0.063302 0.023889 0.049824
v 0.068132 0.032888 0.037942
v 0.051639 0.032888 0.055163
v 0.063302 0.032888 0.049824
v 0.068132 0.023889 -0.053494
v 0.055825 0.023889 -0.066344
v 0.064528 0.023889 -0.062360
v 0.055825 0.032888 -0.066344
v 0.068132 0.032888 -0.053494
v 0.064528 0.032888 -0.062360
v -0.106130 -0.004758 -0.065597
v -0.106130 0.027537 -0.065597
v -0.103059 -0.004758 0.056346
v -0.103059 0.027537 0.056346
v -0.083380 0.027537 -0.074087
v -0.030985 0.027537 -0.086478
v -0.062560 0.027537 -0.082849
v -0.030985 -0.004758 -0.086478
v -0.083380 -0.004758 -0.074087
v -0.062560 -0.004758 -0.082849
v -0.030985 0.027537 0.078009
v -0.083214 0.027537 0.065225
v -0.062511 0.027537 0.074264
v -0.083214 -0.004758 0.065225
v -0.030985 -0.004758 0.078009
v -0.062511 -0.004758 0.074264
v 0.000000 0.024819 -0.080912
v -0.147046 0.027537 0.030028
v -0.126473 0.027537 0.052820
v -0.140833 0.027537 0.043187
v -0.147046 -0.004758 0.030028
v 0.000000 0.024819 0.055554
v -0.140833 -0.004758 0.043187
v -0.126473 -0.004758 0.052820
v -0.147046 0.027537 -0.040459
v -0.140991 0.027537 -0.053028
v -0.127063 0.027537 -0.062229
v -0.147046 -0.004758 -0.040459
v -0.127063 -0.004758 -0.062229
v -0.140991 -0.004758 -0.053028
v 0.000000 -0.002207 -0.080912
v 0.000000 -0.002207 0.055554
v -0.119541 0.024819 0.055554
v -0.148699 0.024819 0.026396
v -0.134120 0.024819 0.051647
v -0.144792 0.024819 0.040975
v -0.148699 -0.002207 0.026396
v -0.119541 -0.002207 0.055554
v -0.144792 -0.002207 0.040975
v -0.134120 -0.002207 0.051647
v -0.148699 0.024819 -0.049571
v -0.124021 0.024819 -0.074249
v -0.141471 0.024819 -0.067021
v -0.124021 -0.002207 -0.074249
v -0.148699 -0.002207 -0.049571
v -0.141471 -0.002207 -0.067021
v 0.000000 0.032888 -0.068752
v 0.000000 0.032888 0.057390
v -0.057923 0.032888 -0.052991
v -0.057923 0.032888 0.033574
v 0.000000 0.023889 0.057390
v 0.000000 0.023889 -0.068752
v 0.000000 0.032888 -0.052991
v 0.000000 0.032888 0.033574
v 0.000000 0.030424 0.033574
v 0.000000 0.030424 -0.052991
v -0.057923 0.030424 0.033574
v -0.057923 0.030424 -0.052991
v -0.051639 0.023889 0.055163
v -0.068132 0.023889 0.037942
v -0.063302 0.023889 0.049824
v -0.068132 0.032888 0.037942
v -0.051639 0.032888 0.055163
v -0.063302 0.032888 0.049824
v -0.068132 0.023889 -0.053494
v -0.055825 0.023889 -0.066344
v -0.064528 0.023889 -0.062360
v -0.055825 0.032888 -0.066344
v -0.068132 0.032888 -0.053494
v -0.064528 0.032888 -0.062360
v -0.105176 0.033053 -0.039464
v -0.105176 0.033053 0.004526
v -0.118628 0.033053 -0.039464
v -0.118628 0.033053 0.004526
v -0.105176 0.033053 -0.010703
v -0.105176 0.033053 -0.024235
v -0.118628 0.033053 -0.010703
v -0.118628 0.033053 -0.024235
v -0.092014 0.033053 -0.010703
v -0.092014 0.033053 -0.024235
v -0.131785 0.033053 -0.010703
v -0.131785 0.033053 -0.024235
v -0.105176 0.025538 -0.024235
v -0.105176 0.025538 -0.039464
v -0.118628 0.025538 -0.039464
v -0.118628 0.025538 -0.024235
v -0.118628 0.025538 0.004526
v -0.105176 0.025538 0.004526
v -0.105176 0.025538 -0.010703
v -0.118628 0.025538 -0.010703
v -0.092014 0.025538 -0.010703
v -0.092014 0.025538 -0.024235
v -0.131785 0.025538 -0.010703
v -0.131785 0.025538 -0.024235
v 0.125838 0.032975 -0.037443
v 0.120782 0.032975 -0.036088
v 0.117081 0.032975 -0.032387
v 0.115726 0.032975 -0.027331
v 0.117081 0.032975 -0.022275
v 0.120782 0.032975 -0.018574
v 0.125838 0.032975 -0.017219
v 0.130894 0.032975 -0.018574
v 0.134595 0.032975 -0.022275
v 0.135950 0.032975 -0.027331
v 0.134595 0.032975 -0.032387
v 0.130894 0.032975 -0.036088
v 0.120782 0.025166 -0.036088
v 0.125838 0.025166 -0.037443
v 0.117081 0.025166 -0.032387
v 0.115726 0.025166 -0.027331
v 0.117081 0.025166 -0.022275
v 0.120782 0.025166 -0.018574
v 0.125838 0.025166 -0.017219
v 0.130894 0.025166 -0.018574
v 0.134595 0.025166 -0.022275
v 0.135950 0.025166 -0.027331
v 0.134595 0.025166 -0.032387
v 0.130894 0.025166 -0.036088
v 0.099287 0.032975 -0.020646
v 0.094231 0.032975 -0.019291
v 0.090530 0.032975 -0.015590
v 0.089175 0.032975 -0.010534
v 0.090530 0.032975 -0.005478
v 0.094231 0.032975 -0.001777
v 0.099287 0.032975 -0.000422
v 0.104343 0.032975 -0.001777
v 0.108044 0.032975 -0.005478
v 0.109399 0.032975 -0.010534
v 0.108044 0.032975 -0.015590
v 0.104343 0.032975 -0.019291
v 0.094231 0.025166 -0.019291
v 0.099287 0.025166 -0.020646
v 0.090530 0.025166 -0.015590
v 0.089175 0.025166 -0.010534
v 0.090530 0.025166 -0.005478
v 0.094231 0.025166 -0.001777
v 0.099287 0.025166 -0.000422
v 0.104343 0.025166 -0.001777
v 0.108044 0.025166 -0.005478
v 0.109399 0.025166 -0.010534
v 0.108044 0.025166 -0.015590
v 0.104343 0.025166 -0.019291
vn -0.0591 -0.0000 0.9983
vn 0.0591 -0.0000 0.9983
vn 0.2555 -0.0000 -0.9668
vn 0.3688 -0.0000 -0.9295
vn 0.0572 -0.0000 -0.9984
vn -0.0572 -0.0000 -0.9984
vn -0.0000 -1.0000 -0.0000
vn 0.2812 -0.0000 0.9596
vn 0.4043 -0.0000 0.9146
vn 0.2536 -0.0000 -0.9673
vn 0.2619 -0.0000 0.9651
vn 0.3618 -0.0000 0.9323
vn 0.5571 -0.0000 0.8304
vn 0.9043 -0.0000 0.4269
vn 0.9758 -0.0000 0.2188
vn -0.0000 1.0000 -0.0000
vn 0.9749 -0.0000 -0.2226
vn 0.9009 -0.0000 -0.4340
vn 0.5512 -0.0000 -0.8344
vn 0.3632 -0.0000 -0.9317
vn 0.9808 -0.0000 -0.1951
vn 0.9914 -0.0000 0.1305
vn 0.1305 -0.0000 0.9914
vn 0.5000 -0.0000 0.8660
vn 0.7071 -0.0000 0.7071
vn 0.9659 -0.0000 0.2588
vn -0.0000 -0.0000 1.0000
vn 0.2213 -0.0000 -0.9752
vn 0.3827 -0.0000 -0.9239
vn 0.9239 -0.0000 -0.3827
vn -0.0000 -0.0000 -1.0000
vn 0.2340 -0.0000 0.9722
vn 0.9814 -0.0000 0.1919
vn 0.9814 -0.0000 -0.1919
vn -1.0000 -0.0000 -0.0000
vn 0.9264 -0.0000 0.3766
vn 0.4162 -0.0000 0.9093
vn 0.2340 -0.0000 -0.9722
vn 0.4162 -0.0000 -0.9093
vn 0.9264 -0.0000 -0.3766
vn -0.2555 -0.0000 -0.9668
vn -0.3688 -0.0000 -0.9295
vn -0.2812 -0.0000 0.9596
vn -0.4043 -0.0000 0.9146
vn -0.2536 -0.0000 -0.9673
vn -0.2619 -0.0000 0.9651
vn -0.3618 -0.0000 0.9323
vn -0.5571 -0.0000 0.8304
vn -0.9043 -0.0000 0.4269
vn -0.9758 -0.0000 0.2188
vn -0.9749 -0.0000 -0.2226
vn -0.9009 -0.0000 -0.4340
vn -0.5512 -0.0000 -0.8344
vn -0.3632 -0.0000 -0.9317
vn -0.9808 -0.0000 -0.1951
vn -0.9914 -0.0000 0.1305
vn -0.1305 -0.0000 0.9914
vn -0.5000 -0.0000 0.8660
vn -0.7071 -0.0000 0.7071
vn -0.9659 -0.0000 0.2588
vn -0.2213 -0.0000 -0.9752
vn -0.3827 -0.0000 -0.9239
vn -0.9239 -0.0000 -0.3827
vn -0.2340 -0.0000 0.9722
vn -0.9814 -0.0000 0.1919
vn -0.9814 -0.0000 -0.1919
vn 1.0000 -0.0000 -0.0000
vn -0.9264 -0.0000 0.3766
vn -0.4162 -0.0000 0.9093
vn -0.2340 -0.0000 -0.9722
vn -0.4162 -0.0000 -0.9093
vn -0.9264 -0.0000 -0.3766
vn -0.5000 -0.0000 -0.8660
vn -0.2588 -0.0000 -0.9659
vn -0.7071 -0.0000 -0.7071
vn 0.9659 -0.0000 -0.2588
vn -0.9659 -0.0000 -0.2588
vn 0.5000 -0.0000 -0.8660
vn 0.7071 -0.0000 -0.7071
vn 0.2588 -0.0000 -0.9659
vt 0.541828 0.867436
vt 0.541828 0.878989
vt 0.543324 0.876913
vt 0.543324 0.877425
vt 0.543324 0.877757
vt 0.126083 0.867076
vt 0.126083 0.867077
vt 0.543324 0.869559
vt 0.543324 0.873424
vt 0.543324 0.869024
vt 0.543324 0.878172
vt 0.543324 0.878989
vt 0.543324 0.867436
vt 0.536907 0.878989
vt 0.536907 0.867436
vt 0.538403 0.867436
vt 0.538403 0.878989
vt 0.543324 0.868253
vt 0.544370 0.869559
vt 0.540570 0.875596
vt 0.544957 0.869559
vt 0.539022 0.878989
vt 0.539815 0.878989
vt 0.539815 0.867436
vt 0.540609 0.867436
vt 0.540609 0.878989
vt 0.541828 0.868253
vt 0.543187 0.868479
vt 0.544399 0.869772
vt 0.544831 0.870353
vt 0.544957 0.871146
vt 0.544957 0.875397
vt 0.544831 0.876155
vt 0.544381 0.876710
vt 0.543192 0.877953
vt 0.541828 0.878172
vt 0.544859 0.878989
vt 0.544859 0.867436
vt 0.545617 0.867436
vt 0.545617 0.878989
vt 0.546375 0.878989
vt 0.544957 0.876913
vt 0.544344 0.876913
vt 0.545231 0.878210
vt 0.125408 0.955238
vt 0.125512 0.955443
vt 0.124487 0.958847
vt 0.124281 0.958825
vt 0.122711 0.958645
vt 0.121981 0.958565
vt 0.123440 0.954837
vt 0.123960 0.955209
vt 0.125236 0.954520
vt 0.125175 0.953858
vt 0.130664 0.955395
vt 0.130412 0.955845
vt 0.040448 0.956791
vt 0.032975 0.956791
vt 0.032975 0.951791
vt 0.040448 0.951791
vt 0.130253 0.956358
vt 0.130121 0.956449
vt 0.130133 0.959567
vt 0.130022 0.959562
vt 0.124501 0.954677
vt 0.124170 0.954139
vt 0.130767 0.956109
vt 0.130939 0.956516
vt 0.131096 0.959610
vt 0.131142 0.955770
vt 0.131466 0.956331
vt 0.131627 0.959631
vt 0.124660 0.962514
vt 0.124805 0.962335
vt 0.123203 0.962228
vt 0.122613 0.962476
vt 0.124311 0.963205
vt 0.130022 0.963329
vt 0.130182 0.963858
vt 0.124084 0.963858
vt 0.040448 0.961791
vt 0.032975 0.961791
vt 0.129975 0.962782
vt 0.129851 0.962654
vt 0.123160 0.963326
vt 0.123614 0.962874
vt 0.130683 0.962732
vt 0.130441 0.963124
vt 0.131212 0.963001
vt 0.130776 0.963553
vt 0.544957 0.871146
vt 0.543192 0.877953
vt 0.125419 0.876243
vt 0.125419 0.883005
vt 0.125419 0.862719
vt 0.125419 0.869481
vt 0.124016 0.869143
s 1
usemtl palette
f 73/1/1 15/1/2 11/2/2 69/2/1
f 1/3/3 9/4/4 5/5/4 2/3/3
f 8/1/5 66/1/6 64/2/6 6/2/5
s 0
f 89/6/7 40/6/7 42/7/7 41/6/7 33/6/7 35/7/7 36/7/7 34/6/7 90/6/7
s 1
f 3/8/8 4/8/8 12/9/9 14/10/9
f 5/5/4 9/4/4 10/11/10 7/12/10
f 7/12/10 10/13/10 8/1/5 6/2/5
f 11/14/2 15/15/2 16/16/11 13/17/11
f 13/12/11 16/18/11 14/10/9 12/9/9
f 22/19/12 18/20/12 4/8/8 3/8/8
f 18/20/12 22/19/12 21/21/13 19/22/13
f 19/23/14 21/24/14 20/25/15 17/26/15
s 0
f 69/27/16 11/27/16 13/28/16 12/10/16 4/8/16 18/29/16 19/30/16 17/31/16 23/32/16 24/33/16 25/34/16 2/3/16 5/4/16 7/35/16 6/36/16 64/36/16 65/35/16 63/4/16 60/3/16 85/34/16 84/33/16 83/32/16 76/31/16 78/30/16 77/29/16 62/8/16 70/10/16 71/28/16
s 1
f 23/37/17 26/38/17 28/39/18 24/40/18
f 24/41/19 28/42/19 27/43/20 25/44/20
f 26/38/17 23/37/17 17/26/15 20/25/15
f 25/44/20 27/43/20 1/3/3 2/3/3
f 37/6/21 30/6/22 33/6/22 41/6/21
s 0
f 75/6/16 80/6/16 29/6/16 31/7/16 32/7/16 30/6/16 37/6/16 39/7/16 38/6/16
s 1
f 29/6/23 34/6/23 36/7/24 31/7/24
f 31/7/24 36/7/24 35/7/25 32/7/25
f 32/7/26 35/7/26 33/6/22 30/6/22
f 29/6/23 80/6/27 90/6/27 34/6/23
f 40/6/28 38/6/28 39/7/29 42/7/29
f 42/7/30 39/7/30 37/6/21 41/6/21
f 75/6/31 38/6/28 40/6/28 89/6/31
s 0
f 44/45/31 45/46/31 113/47/31 112/48/31
s 1
f 106/49/27 109/50/27 47/51/32 51/52/32
f 50/53/33 48/54/33 53/55/34 57/56/34
s 0
f 114/57/16 113/58/16 45/59/16 46/60/16
f 43/61/35 46/62/35 45/46/35 44/45/35
f 111/63/27 114/64/27 46/62/27 43/61/27
s 1
f 50/53/33 52/65/36 49/66/36 48/54/33
f 52/65/37 51/52/32 47/51/32 49/66/37
s 0
f 112/48/16 106/49/16 51/52/16 52/65/16 50/53/16 57/56/16 58/67/16 56/68/16 105/69/16 111/63/16 43/61/16 44/45/16
s 1
f 56/68/38 58/67/39 55/70/39 54/71/38
f 58/67/40 57/56/34 53/55/34 55/70/40
f 56/68/38 54/71/38 110/72/31 105/69/31
f 59/3/41 60/3/41 63/5/42 67/4/42
s 0
f 89/6/7 90/6/7 96/6/7 98/7/7 97/7/7 95/6/7 103/6/7 104/7/7 102/6/7
s 1
f 61/8/43 72/10/44 70/9/44 62/8/43
f 63/5/42 65/12/45 68/11/45 67/4/42
f 65/12/45 64/2/6 66/1/6 68/13/45
f 69/2/1 71/12/46 74/13/46 73/1/1
f 71/12/46 70/9/44 72/10/44 74/18/46
f 82/19/47 61/8/43 62/8/43 77/20/47
f 77/20/47 78/22/48 81/21/48 82/19/47
f 78/23/49 76/26/50 79/25/50 81/24/49
f 83/37/51 84/40/52 88/39/52 86/38/51
f 84/41/53 85/44/54 87/43/54 88/42/53
f 86/38/51 79/25/50 76/26/50 83/37/51
f 85/44/54 60/3/41 59/3/41 87/43/54
f 99/6/55 103/6/55 95/6/56 92/6/56
s 0
f 75/6/16 100/6/16 101/7/16 99/6/16 92/6/16 94/7/16 93/7/16 91/6/16 80/6/16
s 1
f 91/6/57 93/7/58 98/7/58 96/6/57
f 93/7/58 94/7/59 97/7/59 98/7/58
f 94/7/60 92/6/56 95/6/56 97/7/60
f 91/6/57 96/6/57 90/6/27 80/6/27
f 102/6/61 104/7/62 101/7/62 100/6/61
f 104/7/63 103/6/55 99/6/55 101/7/63
f 75/6/31 89/6/31 102/6/61 100/6/61
s 0
f 108/73/31 112/48/31 113/47/31 115/74/31
s 1
f 106/49/27 121/75/64 117/76/64 109/50/27
f 120/77/65 127/78/66 123/79/66 118/80/65
s 0
f 114/57/16 116/81/16 115/82/16 113/58/16
f 107/83/67 108/73/67 115/74/67 116/84/67
f 111/63/27 107/83/27 116/84/27 114/64/27
s 1
f 120/77/65 118/80/65 119/85/68 122/86/68
f 122/86/69 119/85/69 117/76/64 121/75/64
s 0
f 112/48/16 108/73/16 107/83/16 111/63/16 105/69/16 126/87/16 128/88/16 127/78/16 120/77/16 122/86/16 121/75/16 106/49/16
s 1
f 126/87/70 124/89/70 125/90/71 128/88/71
f 128/88/72 125/90/72 123/79/66 127/78/66
f 126/87/70 105/69/31 110/72/31 124/89/70
s 0
f 15/27/7 73/27/7 74/28/7 72/10/7 61/8/7 82/29/7 81/30/7 79/91/7 86/32/7 88/33/7 87/34/7 59/3/7 67/4/7 68/92/7 66/36/7 8/36/7 10/92/7 9/4/7 1/3/7 27/34/7 28/33/7 26/32/7 20/91/7 21/30/7 22/29/7 3/8/7 14/10/7 16/28/7
f 136/93/16 134/93/16 129/94/16 131/94/16
f 132/95/16 130/95/16 133/96/16 135/96/16
f 135/96/16 133/96/16 134/93/16 136/93/16
f 135/96/16 136/93/16 140/93/16 139/96/16
f 134/93/16 133/96/16 137/96/16 138/93/16
f 135/96/35 148/96/35 145/95/35 132/95/35
f 136/93/31 144/93/31 152/93/31 140/93/31
f 132/95/27 145/95/27 146/95/27 130/95/27
f 137/96/67 149/96/67 150/93/67 138/93/67
f 134/93/67 141/93/67 142/94/67 129/94/67
f 138/93/31 150/93/31 141/93/31 134/93/31
f 130/95/67 146/95/67 147/96/67 133/96/67
f 140/93/35 152/93/35 151/96/35 139/96/35
f 129/94/31 142/94/31 143/94/31 131/94/31
f 133/96/27 147/96/27 149/96/27 137/96/27
f 139/96/27 151/96/27 148/96/27 135/96/27
f 131/94/35 143/94/35 144/93/35 136/93/35
f 154/97/16 155/97/16 156/97/16 157/97/16 158/97/16 159/97/16 160/97/16 161/97/16 162/97/16 163/97/16 164/97/16 153/97/16
s 1
f 159/97/27 158/97/58 170/97/58 171/97/27
f 160/97/24 159/97/27 171/97/27 172/97/24
f 161/97/25 160/97/24 172/97/24 173/97/25
f 154/97/73 153/97/74 166/97/74 165/97/73
f 162/97/67 161/97/26 173/97/26 174/97/67
f 155/97/75 154/97/73 165/97/73 167/97/75
f 163/97/76 162/97/67 174/97/67 175/97/76
f 156/97/77 155/97/77 167/97/77 168/97/77
f 164/97/78 163/97/79 175/97/79 176/97/78
f 157/97/60 156/97/60 168/97/60 169/97/60
f 153/97/80 164/97/78 176/97/78 166/97/80
f 158/97/58 157/97/59 169/97/59 170/97/58
s 0
f 178/97/16 179/97/16 180/97/16 181/97/16 182/97/16 183/97/16 184/97/16 185/97/16 186/97/16 187/97/16 188/97/16 177/97/16
s 1
f 183/97/27 182/97/58 194/97/58 195/97/27
f 184/97/24 183/97/27 195/97/27 196/97/24
f 185/97/25 184/97/24 196/97/24 197/97/25
f 178/97/73 177/97/74 190/97/74 189/97/73
f 186/97/67 185/97/26 197/97/26 198/97/67
f 179/97/75 178/97/73 189/97/73 191/97/75
f 187/97/76 186/97/67 198/97/67 199/97/76
f 180/97/35 179/97/77 191/97/77 192/97/35
f 188/97/78 187/97/79 199/97/79 200/97/78
f 181/97/60 180/97/35 192/97/35 193/97/60
f 177/97/80 188/97/78 200/97/78 190/97/80
f 182/97/58 181/97/59 193/97/59 194/97/58
