# Blender 3.6.2
# www.blender.org
mtllib Console_PolyStation_3.mtl
o Console_PolyStation_3
v 0.263626 0.024791 0.238329
v 0.263626 0.024791 -0.236463
v 0.263626 0.009965 -0.166468
v 0.263626 0.009965 0.157234
v 0.263626 -0.000972 -0.096740
v 0.263626 -0.006029 -0.009754
v 0.263626 -0.000972 0.076449
v -0.263626 0.024791 0.238329
v -0.263626 0.024791 -0.236463
v 0.263626 0.048701 0.238329
v -0.263626 0.009965 -0.166468
v -0.263626 0.009965 0.157234
v -0.263626 -0.000972 -0.096740
v -0.263626 -0.006029 -0.009754
v -0.263626 -0.000972 0.076449
v 0.263626 0.048701 -0.236463
v 0.263626 0.048701 0.157234
v 0.263626 0.048701 0.076449
v 0.263626 0.048701 -0.009754
v 0.263626 0.048701 -0.096740
v 0.263626 0.048701 -0.166468
v -0.263626 0.048701 0.238329
v -0.263626 0.048701 -0.236463
v -0.263626 0.048701 0.157234
v -0.263626 0.048701 0.076449
v -0.263626 0.048701 -0.009754
v -0.263626 0.048701 -0.096740
v -0.263626 0.048701 -0.166468
v 0.263626 0.074761 -0.236463
v 0.263626 0.089587 -0.166468
v 0.263626 0.089587 0.157234
v 0.263626 0.100524 -0.096740
v 0.263626 0.105581 -0.009754
v 0.263626 0.100524 0.076449
v -0.263626 0.074761 0.238329
v -0.263626 0.074761 -0.236463
v 0.015621 0.050851 0.238329
v 0.258894 0.058964 0.189568
v 0.041446 0.066964 0.189568
v -0.263626 0.089587 -0.166468
v -0.263626 0.089587 0.157234
v -0.263626 0.100524 -0.096740
v -0.263626 0.105581 -0.009754
v -0.263626 0.100524 0.076449
v 0.025415 0.082712 0.194841
v 0.017882 0.081197 0.203127
v 0.015621 0.079150 0.214320
v 0.258894 0.066964 0.189568
v 0.015622 0.074761 0.238329
v 0.041446 0.058964 0.189568
v 0.025415 0.050851 0.194841
v 0.017882 0.050851 0.203127
v 0.015621 0.050851 0.214320
v 0.000000 0.074761 -0.236463
v 0.000000 0.089587 -0.166468
v 0.000000 0.100524 -0.096740
v 0.000000 0.105581 -0.009754
v 0.000000 0.100524 0.076449
v 0.000000 0.089587 0.157234
v -0.000001 0.074761 0.238329
v 0.263626 0.050851 -0.236463
v 0.263626 0.050851 0.157234
v 0.263626 0.050851 0.076449
v 0.263626 0.050851 -0.009754
v 0.263626 0.050851 -0.096740
v 0.263626 0.050851 -0.166468
v -0.263626 0.050851 0.238329
v -0.263626 0.050851 -0.236463
v -0.263626 0.050851 0.157234
v -0.263626 0.050851 0.076449
v -0.263626 0.050851 -0.009754
v -0.263626 0.050851 -0.096740
v -0.263626 0.050851 -0.166468
v 0.000000 0.050851 -0.236463
v -0.000000 0.050851 0.238329
v -0.263626 0.084645 0.184266
v -0.263626 0.079703 0.211297
v -0.000000 0.084645 0.184266
v -0.000001 0.079703 0.211297
v -0.263626 0.050851 0.184266
v -0.263626 0.050851 0.211297
v 0.031385 0.089587 -0.166468
v 0.031385 0.074761 -0.236463
v 0.031385 0.100524 -0.096740
v 0.031385 0.105581 -0.009754
v 0.031385 0.100524 0.076449
v 0.031385 0.089587 0.157234
v 0.031385 0.050851 -0.236463
v 0.263626 0.084247 0.186441
v 0.012158 0.074761 0.238329
v 0.012158 0.050851 0.238329
v 0.263626 0.050851 0.186441
v 0.013250 0.079234 0.213861
v 0.015168 0.081720 0.200265
v 0.023732 0.083167 0.192351
v 0.036199 0.084247 0.186441
v 0.240945 0.047444 0.204110
v 0.247385 0.047444 0.206203
v 0.251365 0.047444 0.211680
v 0.251365 0.047444 0.218451
v 0.247385 0.047444 0.223929
v 0.240945 0.047444 0.226021
v 0.234506 0.047444 0.223929
v 0.230526 0.047444 0.218451
v 0.230526 0.047444 0.211680
v 0.234506 0.047444 0.206203
v 0.127894 0.047444 0.204110
v 0.134334 0.047444 0.206203
v 0.138314 0.047444 0.211680
v 0.138314 0.047444 0.218451
v 0.134334 0.047444 0.223929
v 0.127894 0.047444 0.226021
v 0.121455 0.047444 0.223929
v 0.117475 0.047444 0.218451
v 0.117475 0.047444 0.211680
v 0.121455 0.047444 0.206203
v 0.120608 0.048701 0.225095
v 0.116104 0.048701 0.218897
v 0.127894 0.048701 0.227463
v 0.135181 0.048701 0.225095
v 0.116104 0.048701 0.211235
v 0.127894 0.048701 0.202669
v 0.120608 0.048701 0.205036
v 0.229155 0.048701 0.218897
v 0.139685 0.048701 0.211235
v 0.229155 0.048701 0.211235
v 0.139685 0.048701 0.218897
v 0.135181 0.048701 0.205036
v 0.240945 0.048701 0.227463
v 0.233658 0.048701 0.225095
v 0.233658 0.048701 0.205036
v 0.248232 0.048701 0.205036
v 0.252736 0.048701 0.211235
v 0.252736 0.048701 0.218897
v 0.248232 0.048701 0.225095
v 0.240945 0.048701 0.202669
v 0.240945 0.047444 0.202669
v 0.248232 0.047444 0.205036
v 0.252736 0.047444 0.211235
v 0.252736 0.047444 0.218897
v 0.233658 0.047444 0.225095
v 0.229155 0.047444 0.218897
v 0.229155 0.047444 0.211235
v 0.233658 0.047444 0.205036
v 0.127894 0.047444 0.202669
v 0.135181 0.047444 0.205036
v 0.139685 0.047444 0.211235
v 0.139685 0.047444 0.218897
v 0.135181 0.047444 0.225095
v 0.127894 0.047444 0.227463
v 0.120608 0.047444 0.225095
v 0.116104 0.047444 0.218897
v 0.248232 0.047444 0.225095
v 0.240945 0.047444 0.227463
v 0.116104 0.047444 0.211235
v 0.120608 0.047444 0.205036
v 0.240945 0.049012 0.204110
v 0.247385 0.049012 0.206203
v 0.251365 0.049012 0.211680
v 0.251365 0.049012 0.218451
v 0.234506 0.049012 0.223929
v 0.230526 0.049012 0.218451
v 0.230526 0.049012 0.211680
v 0.234506 0.049012 0.206203
v 0.127894 0.049012 0.204110
v 0.134334 0.049012 0.206203
v 0.138314 0.049012 0.211680
v 0.138314 0.049012 0.218451
v 0.134334 0.049012 0.223929
v 0.127894 0.049012 0.226021
v 0.121455 0.049012 0.223929
v 0.117475 0.049012 0.218451
v 0.247385 0.049012 0.223929
v 0.240945 0.049012 0.226021
v 0.117475 0.049012 0.211680
v 0.121455 0.049012 0.206203
v 0.036715 0.083676 0.189568
v 0.263626 0.083676 0.189568
v 0.036715 0.050851 0.189568
v 0.263626 0.050851 0.189568
v 0.041446 0.066964 0.183967
v 0.258894 0.066964 0.183967
v 0.041446 0.058964 0.183967
v 0.258894 0.058964 0.183967
vn -0.0000 -0.0000 1.0000
vn 1.0000 -0.0000 -0.0000
vn -0.0000 -0.9943 -0.1066
vn -0.0000 -0.9835 -0.1811
vn -0.0000 -1.0000 0.0003
vn -0.0000 -0.9953 0.0964
vn -0.0000 -0.9876 0.1570
vn -0.0000 -0.9783 -0.2072
vn -1.0000 -0.0000 -0.0000
vn -0.0000 -0.0000 -1.0000
vn -0.0000 1.0000 -0.0000
vn -0.0000 0.9837 0.1798
vn -0.0000 0.9876 0.1570
vn -0.0000 0.9835 -0.1811
vn -0.0000 0.9783 -0.2072
vn -0.0000 0.9943 -0.1066
vn -0.0000 1.0000 0.0003
vn -0.0000 0.9953 0.0964
vn 0.2111 -0.0000 0.9775
vn 0.5819 -0.0000 0.8133
vn 0.5930 -0.0000 0.8052
vn 0.2166 -0.0000 0.9763
vn 0.9938 -0.0000 0.1108
vn 0.9950 -0.0000 0.0995
vn 0.9802 -0.0000 0.1980
vn 0.7400 -0.0000 0.6727
vn -0.0000 -0.9837 0.1798
vn -0.0000 -1.0000 -0.0000
vn -0.3090 -0.0000 0.9511
vn -0.8090 -0.0000 0.5878
vn -0.8090 -0.0000 -0.5878
vn -0.3090 -0.0000 -0.9511
vn 0.3090 -0.0000 -0.9511
vn 0.8090 -0.0000 -0.5878
vn 0.8090 -0.0000 0.5878
vn 0.3090 -0.0000 0.9511
vt 0.799869 0.961893
vt 0.799869 0.962011
vt 0.799869 0.957600
vt 0.801913 0.962011
vt 0.800594 0.962011
vt 0.800594 0.957600
vt 0.801913 0.957600
vt 0.799869 0.963352
vt 0.799869 0.964478
vt 0.799869 0.960669
vt 0.795658 0.962011
vt 0.795658 0.957600
vt 0.796791 0.957929
vt 0.796791 0.962011
vt 0.798126 0.958590
vt 0.798126 0.962011
vt 0.799462 0.957929
vt 0.799462 0.962011
vt 0.799869 0.959543
vt 0.799869 0.965798
vt 0.794339 0.957600
vt 0.794339 0.962011
vt 0.799067 0.961916
vt 0.798830 0.961923
vt 0.798431 0.961931
vt 0.798476 0.961928
vt 0.799309 0.961909
vt 0.798430 0.961934
vt 0.798658 0.961927
vt 0.799022 0.961917
vt 0.799368 0.961907
vt 0.799262 0.961910
vt 0.798468 0.961926
vt 0.798409 0.961927
vt 0.798331 0.961929
vt 0.798269 0.961932
vt 0.798243 0.961935
vt 0.798254 0.961937
vt 0.798296 0.961936
vt 0.798360 0.961934
vt 0.798592 0.961930
vt 0.798425 0.961935
vt 0.794339 0.961893
vt 0.799869 0.959103
vt 0.799869 0.966422
vt 0.795183 0.966422
vt 0.795132 0.966422
vt 0.795132 0.961925
vt 0.795183 0.961933
vt 0.799869 0.959017
vt 0.799869 0.958931
vt 0.209803 0.965958
vt 0.799869 0.958614
vt 0.799869 0.958224
vt 0.799869 0.958796
vt 0.799869 0.958972
vt 0.799869 0.958843
vt 0.799869 0.961919
vt 0.799462 0.966092
vt 0.800594 0.966422
vt 0.798126 0.965431
vt 0.796791 0.966092
vt 0.795658 0.966422
vt 0.794779 0.966422
vt 0.794779 0.962011
vt 0.794339 0.966422
vt 0.801913 0.966422
vt 0.795219 0.962011
vt 0.795219 0.966422
vt 0.799869 0.958663
vt 0.799869 0.958622
vt 0.799869 0.959068
vt 0.212861 0.959017
vt 0.212861 0.958931
vt 0.212861 0.958796
vt 0.212861 0.958614
vt 0.212861 0.958224
vt 0.212861 0.961919
vt 0.212861 0.962011
vt 0.207771 0.962011
vt 0.208211 0.962011
vt 0.208651 0.962011
vt 0.209783 0.962011
vt 0.211119 0.962011
vt 0.212454 0.962011
vt 0.213587 0.962011
vt 0.214906 0.962011
vt 0.208176 0.961933
vt 0.208125 0.961925
vt 0.803640 0.964799
vt 0.803640 0.959174
vt 0.802919 0.959174
vt 0.802919 0.964799
vt 0.802197 0.959174
vt 0.802197 0.964799
vt 0.801475 0.959174
vt 0.801475 0.964799
vt 0.800754 0.959174
vt 0.800754 0.964799
vt 0.800032 0.959174
vt 0.800032 0.964799
vt 0.799311 0.959174
vt 0.799311 0.964799
vt 0.798589 0.959174
vt 0.798589 0.964799
vt 0.797868 0.959174
vt 0.797868 0.964799
vt 0.797146 0.959174
vt 0.797146 0.964799
vt 0.796425 0.959174
vt 0.796425 0.964799
vt 0.798371 0.957010
vt 0.799028 0.957010
vt 0.799697 0.957010
vt 0.797301 0.958813
vt 0.802042 0.958813
vt 0.802919 0.958813
vt 0.796425 0.958813
vt 0.801956 0.958813
vt 0.801333 0.958813
vt 0.801475 0.958813
vt 0.802197 0.958813
vt 0.799336 0.958813
vt 0.798667 0.958813
vt 0.798589 0.958813
vt 0.799311 0.958813
vt 0.798010 0.958813
vt 0.797387 0.958813
vt 0.797146 0.958813
vt 0.797868 0.958813
vt 0.801956 0.958813
vt 0.800676 0.958813
vt 0.800007 0.958813
vt 0.800032 0.958813
vt 0.800754 0.958813
vt 0.799336 0.958813
vt 0.800676 0.958813
vt 0.798010 0.958813
vt 0.797387 0.958813
vt 0.215561 0.874458
vt 0.217591 0.874457
vt 0.219516 0.874457
vt 0.219780 0.874458
vt 0.205140 0.874457
vt 0.205405 0.874457
vt 0.207329 0.874457
vt 0.209359 0.874457
vt 0.211423 0.874457
vt 0.213497 0.874457
vt 0.215561 0.874457
vt 0.219516 0.874457
vt 0.219780 0.874457
vt 0.205405 0.874457
vt 0.207329 0.874458
vt 0.211423 0.874457
vt 0.800368 0.957010
vt 0.801037 0.957010
vt 0.797748 0.957010
vt 0.797662 0.957010
vt 0.802317 0.957010
vt 0.802403 0.957010
vt 0.802403 0.957010
vt 0.801694 0.957010
vt 0.127126 0.957691
s 1
usemtl palette
f 10/1/1 22/2/1 8/3/1 1/3/1
f 16/4/2 21/5/2 3/6/2 2/7/2
f 5/8/3 13/8/3 11/9/4 3/9/4
f 6/2/5 14/2/5 13/8/3 5/8/3
f 7/10/6 15/10/6 14/2/5 6/2/5
f 17/11/2 4/12/2 7/13/2 18/14/2
f 18/14/2 7/13/2 6/15/2 19/16/2
f 19/16/2 6/15/2 5/17/2 20/18/2
f 20/18/2 5/17/2 3/6/2 21/5/2
f 4/19/7 12/19/7 15/10/6 7/10/6
f 3/9/4 11/9/4 9/20/8 2/20/8
f 23/4/9 9/7/9 11/6/9 28/5/9
f 24/11/9 12/12/9 8/21/9 22/22/9
f 24/11/9 25/14/9 15/13/9 12/12/9
f 25/14/9 26/16/9 14/15/9 15/13/9
f 26/16/9 27/18/9 13/17/9 14/15/9
f 27/18/9 28/5/9 11/6/9 13/17/9
f 2/3/10 9/3/10 23/2/10 16/2/10
f 124/23/11 126/24/11 125/25/11 127/26/11
f 135/27/11 10/1/11 17/11/11 132/28/11 133/29/11 134/30/11
f 132/28/11 17/11/11 18/14/11 19/16/11 20/18/11 21/5/11 16/4/11 23/2/11 28/5/11 27/18/11 26/16/11 25/14/11 24/11/11 22/22/11 10/1/11 135/27/11 129/31/11 130/32/11 124/23/11 127/26/11 120/33/11 119/34/11 117/35/11 118/36/11 121/37/11 123/38/11 122/39/11 128/40/11 125/25/11 126/24/11 131/41/11 136/42/11
f 17/11/2 10/43/2 1/21/2 4/12/2
f 76/44/12 78/44/12 59/19/13 41/19/13
f 82/9/14 30/9/14 29/20/15 83/20/15
f 74/2/10 68/2/10 36/45/10 54/45/10
f 89/46/2 178/47/2 180/48/2 92/49/2
f 82/9/14 84/8/16 32/8/16 30/9/14
f 84/8/16 85/2/17 33/2/17 32/8/16
f 85/2/17 86/10/18 34/10/18 33/2/17
f 86/10/18 87/19/13 31/19/13 34/10/18
f 67/2/1 75/2/1 60/45/1 35/45/1
f 177/50/19 45/51/20 51/51/21 179/50/22
f 38/52/9 48/52/9 182/52/9 184/52/9
f 47/53/23 49/54/2 37/54/2 53/53/24
f 46/55/25 47/53/23 53/53/24 52/55/25
f 45/51/20 46/55/26 52/55/26 51/51/21
f 44/10/18 41/19/13 59/19/13 58/10/18
f 43/2/17 44/10/18 58/10/18 57/2/17
f 42/8/16 43/2/17 57/2/17 56/8/16
f 40/9/14 42/8/16 56/8/16 55/9/14
f 88/2/10 74/2/10 54/45/10 83/45/10
f 40/9/14 55/9/14 54/20/15 36/20/15
f 95/56/12 94/57/12 46/55/12 45/51/12
f 90/45/1 91/58/1 37/1/1 49/45/1
f 42/59/9 40/60/9 73/5/9 72/18/9
f 43/61/9 42/59/9 72/18/9 71/16/9
f 44/62/9 43/61/9 71/16/9 70/14/9
f 41/63/9 44/62/9 70/14/9 69/11/9
f 77/64/9 81/65/9 67/22/9 35/66/9
f 36/67/9 68/4/9 73/5/9 40/60/9
f 32/59/2 65/18/2 66/5/2 30/60/2
f 33/61/2 64/16/2 65/18/2 32/59/2
f 34/62/2 63/14/2 64/16/2 33/61/2
f 31/63/2 62/11/2 63/14/2 34/62/2
f 29/67/2 30/60/2 66/5/2 61/4/2
f 41/63/9 69/11/9 80/68/9 76/69/9
f 76/69/9 80/68/9 81/65/9 77/64/9
f 35/54/12 60/54/12 79/70/12 77/70/12
f 77/70/12 79/70/12 78/44/12 76/44/12
f 61/2/10 88/2/10 83/45/10 29/45/10
f 93/71/12 79/70/12 60/54/12 90/54/12
f 94/57/12 78/44/12 79/70/12 93/71/12
f 95/56/12 96/72/12 87/19/13 59/19/13
f 58/10/18 59/19/13 87/19/13 86/10/18
f 57/2/17 58/10/18 86/10/18 85/2/17
f 56/8/16 57/2/17 85/2/17 84/8/16
f 55/9/14 56/8/16 84/8/16 82/9/14
f 55/9/14 82/9/14 83/20/15 54/20/15
f 96/72/12 177/50/12 178/50/12 89/72/12
f 1/54/27 8/54/27 12/19/7 4/19/7
f 87/19/13 96/72/12 89/72/12 31/19/13
f 45/51/12 177/50/12 96/72/12 95/56/12
f 46/55/12 94/57/12 93/71/12 47/53/12
f 47/53/12 93/71/12 90/54/12 49/54/12
f 60/45/1 75/2/1 91/58/1 90/45/1
f 59/19/13 78/44/12 94/57/12 95/56/12
f 31/63/2 89/46/2 92/49/2 62/11/2
f 179/73/28 51/74/28 52/75/28 53/76/28 37/77/28 91/78/28 75/79/28 67/79/28 81/80/28 80/81/28 69/82/28 70/83/28 71/84/28 72/85/28 73/86/28 68/87/28 74/79/28 88/79/28 61/79/28 66/86/28 65/85/28 64/84/28 63/83/28 62/82/28 92/88/28 180/89/28
f 136/90/29 137/91/29 138/92/29 132/93/29
f 138/92/30 139/94/30 133/95/30 132/93/30
f 139/94/9 140/96/9 134/97/9 133/95/9
f 140/96/31 153/98/31 135/99/31 134/97/31
f 153/98/32 154/100/32 129/101/32 135/99/32
f 154/100/33 141/102/33 130/103/33 129/101/33
f 130/103/34 141/102/34 142/104/34 124/105/34
f 124/105/2 142/104/2 143/106/2 126/107/2
f 126/107/35 143/106/35 144/108/35 131/109/35
f 131/109/36 144/108/36 137/110/36 136/111/36
f 122/90/29 145/91/29 146/92/29 128/93/29
f 146/92/30 147/94/30 125/95/30 128/93/30
f 147/94/9 148/96/9 127/97/9 125/95/9
f 148/96/31 149/98/31 120/99/31 127/97/31
f 149/98/32 150/100/32 119/101/32 120/99/32
f 150/100/33 151/102/33 117/103/33 119/101/33
f 117/103/34 151/102/34 152/104/34 118/105/34
f 118/105/2 152/104/2 155/106/2 121/107/2
f 121/107/35 155/106/35 156/108/35 123/109/35
f 123/109/36 156/108/36 145/110/36 122/111/36
f 115/112/9 114/113/9 172/113/9 175/112/9
f 104/113/30 103/114/30 161/114/30 162/113/30
f 97/115/11 98/116/11 138/117/11 137/118/11
f 99/119/11 100/120/11 140/121/11 139/122/11
f 103/123/11 104/124/11 142/125/11 141/126/11
f 105/127/11 106/128/11 144/129/11 143/130/11
f 107/115/11 108/116/11 146/117/11 145/118/11
f 109/131/11 110/120/11 148/121/11 147/122/11
f 111/132/11 112/133/11 150/134/11 149/135/11
f 113/136/11 114/124/11 152/125/11 151/126/11
f 112/133/11 113/136/11 151/126/11 150/134/11
f 106/128/11 97/115/11 137/118/11 144/129/11
f 101/137/11 102/133/11 154/134/11 153/135/11
f 98/116/11 99/119/11 139/122/11 138/117/11
f 100/120/11 101/137/11 153/135/11 140/121/11
f 102/133/11 103/123/11 141/126/11 154/134/11
f 104/124/11 105/127/11 143/130/11 142/125/11
f 108/116/11 109/131/11 147/122/11 146/117/11
f 110/120/11 111/132/11 149/135/11 148/121/11
f 114/124/11 115/138/11 155/130/11 152/125/11
f 116/139/11 107/115/11 145/118/11 156/129/11
f 115/138/11 116/139/11 156/129/11 155/130/11
f 173/140/11 160/141/11 159/142/11 158/143/11 157/144/11 164/145/11 163/146/11 162/147/11 161/148/11 174/149/11
f 169/150/11 168/141/11 167/151/11 166/152/11 165/144/11 176/153/11 175/154/11 172/147/11 171/155/11 170/149/11
f 102/156/36 101/157/36 173/157/36 174/156/36
f 106/158/31 105/112/31 163/112/31 164/158/31
f 107/159/32 116/158/32 176/158/32 165/159/32
f 99/160/34 98/161/34 158/161/34 159/160/34
f 108/162/33 107/159/33 165/159/33 166/162/33
f 116/158/31 115/112/31 175/112/31 176/158/31
f 101/157/35 100/163/35 160/163/35 173/157/35
f 110/163/2 109/160/2 167/160/2 168/163/2
f 103/114/29 102/156/29 174/156/29 161/114/29
f 112/156/36 111/157/36 169/157/36 170/156/36
f 105/112/9 104/113/9 162/113/9 163/112/9
f 114/113/30 113/114/30 171/114/30 172/113/30
f 98/161/33 97/159/33 157/159/33 158/161/33
f 109/160/34 108/162/34 166/162/34 167/160/34
f 113/114/29 112/156/29 170/156/29 171/114/29
f 100/163/2 99/160/2 159/160/2 160/163/2
f 111/157/35 110/163/35 168/163/35 169/157/35
f 97/159/32 106/158/32 164/158/32 157/159/32
f 39/50/1 48/50/1 178/50/1 177/50/19
f 50/50/1 39/50/1 177/50/19 179/50/22
f 48/50/1 38/50/1 180/50/1 178/50/1
f 38/50/1 50/50/1 179/50/22 180/50/1
f 182/164/1 181/164/1 183/164/1 184/164/1
f 48/52/28 39/52/28 181/52/28 182/52/28
f 50/52/11 38/52/11 184/52/11 183/52/11
f 39/52/2 50/52/2 183/52/2 181/52/2
