# Blender 3.6.2
# www.blender.org
mtllib Console_Mintendo_DX_Top.mtl
o Console_Mintendo_DX_Top
v 0.080735 -0.003628 0.122757
v 0.078638 -0.003628 0.124853
v 0.080121 -0.003628 0.124239
v 0.078638 -0.003628 0.020851
v 0.080735 -0.003628 0.022948
v 0.080121 -0.003628 0.021465
v 0.133507 0.003727 0.139442
v 0.141015 0.003727 0.131934
v 0.138816 0.003727 0.137243
v 0.141015 0.003727 0.012292
v 0.133507 0.003727 0.004784
v 0.138816 0.003727 0.006983
v 0.138026 -0.004855 -0.004276
v 0.138026 0.004954 -0.004276
v 0.138027 -0.004855 0.005710
v 0.138027 0.004954 0.005710
v 0.138026 -0.007302 0.000717
v 0.138026 0.007401 0.000717
v 0.138026 0.000049 -0.006768
v 0.138027 0.000049 0.008201
v 0.138816 -0.003628 0.137243
v 0.141015 -0.003628 0.131934
v 0.133507 -0.003628 0.139442
v 0.141015 -0.003628 0.012292
v 0.138816 -0.003628 0.006983
v 0.133507 -0.003628 0.004784
v 0.077393 -0.001432 0.121252
v 0.077441 -0.001432 0.024453
v 0.080121 -0.001433 0.124239
v 0.080735 -0.001433 0.122757
v 0.078638 -0.001433 0.124853
v 0.080735 -0.001433 0.022948
v 0.080121 -0.001433 0.021465
v 0.078638 -0.001433 0.020851
v -0.080735 -0.003628 0.122757
v -0.078638 -0.003628 0.124853
v -0.080121 -0.003628 0.124239
v -0.078638 -0.003628 0.020851
v -0.080735 -0.003628 0.022948
v -0.080121 -0.003628 0.021465
v -0.133507 0.003727 0.139442
v -0.141015 0.003727 0.131934
v -0.138816 0.003727 0.137243
v -0.141015 0.003727 0.012292
v -0.133507 0.003727 0.004784
v -0.138816 0.003727 0.006983
v -0.138026 -0.004855 -0.004276
v -0.138026 0.004954 -0.004276
v -0.138027 -0.004855 0.005710
v -0.138027 0.004954 0.005710
v -0.138026 -0.007302 0.000717
v -0.138026 0.007401 0.000717
v -0.138026 0.000049 -0.006768
v -0.138027 0.000049 0.008201
v -0.138816 -0.003628 0.137243
v -0.141015 -0.003628 0.131934
v -0.133507 -0.003628 0.139442
v -0.141015 -0.003628 0.012292
v -0.138816 -0.003628 0.006983
v -0.133507 -0.003628 0.004784
v -0.077393 -0.001432 0.121252
v -0.077441 -0.001432 0.024453
v -0.080121 -0.001433 0.124239
v -0.080735 -0.001433 0.122757
v -0.078638 -0.001433 0.124853
v -0.080735 -0.001433 0.022948
v -0.080121 -0.001433 0.021465
v -0.078638 -0.001433 0.020851
vn -0.0000 -1.0000 -0.0000
vn 0.9808 -0.0000 -0.1951
vn 0.9808 -0.0000 0.1951
vn -0.0000 -0.0000 1.0000
vn 0.7071 -0.0000 0.7071
vn 0.1951 -0.0000 0.9808
vn 0.7071 -0.0000 -0.7071
vn 0.3827 -0.0000 -0.9239
vn -0.0000 1.0000 -0.0000
vn -0.0000 0.7121 0.7020
vn -0.0000 0.4529 0.8915
vn -0.0000 0.7121 -0.7020
vn -0.0000 0.8979 -0.4401
vn -0.0000 0.4529 -0.8916
vn 1.0000 -0.0000 -0.0000
vn -0.0000 -0.7121 -0.7020
vn -0.0000 -0.8979 -0.4401
vn -0.0000 0.8979 0.4401
vn -0.0000 -0.8979 0.4401
vn -0.0000 -0.7121 0.7020
vn -0.0000 -0.4529 0.8915
vn -0.0000 -0.0000 -1.0000
vn -0.9239 -0.0000 0.3827
vn -0.9239 -0.0000 -0.3827
vn -0.3827 -0.0000 0.9239
vn -0.3827 -0.0000 -0.9239
vn -1.0000 -0.0000 -0.0000
vn -0.0001 -1.0000 -0.0000
vn -0.0000 -1.0000 0.0001
vn -0.9808 -0.0000 -0.1951
vn -0.9808 -0.0000 0.1951
vn -0.7071 -0.0000 0.7071
vn -0.1951 -0.0000 0.9808
vn -0.7071 -0.0000 -0.7071
vn 0.9239 -0.0000 0.3827
vn 0.9239 -0.0000 -0.3827
vn 0.3827 -0.0000 0.9239
vn 0.0001 -1.0000 -0.0000
vn -0.0000 -0.4529 -0.8916
vt 0.048163 0.953935
vt 0.048119 0.964053
vt 0.797033 0.792190
vt 0.792436 0.792190
vt 0.792436 0.786187
vt 0.797033 0.786187
vt 0.795773 0.791527
vt 0.792158 0.792190
vt 0.792158 0.786187
vt 0.795920 0.786187
vt 0.795920 0.792190
vt 0.795794 0.792190
vt 0.795794 0.786187
vt 0.797312 0.786187
vt 0.797312 0.792190
vt 0.795794 0.786612
vt 0.795883 0.786693
vt 0.795920 0.786890
vt 0.795920 0.791487
vt 0.795883 0.791684
vt 0.795794 0.791766
vt 0.795794 0.789189
vt 0.795714 0.792190
vt 0.795754 0.792190
vt 0.795714 0.789189
vt 0.795754 0.786187
vt 0.795714 0.786187
vt 0.795773 0.786850
vt 0.795802 0.786877
vt 0.795814 0.786942
vt 0.795814 0.791435
vt 0.795802 0.791501
vt 0.133671 0.957181
vt 0.133612 0.957487
vt 0.133576 0.957421
vt 0.133750 0.957357
vt 0.133727 0.957232
vt 0.133585 0.957468
vt 0.133585 0.965805
vt 0.133727 0.966041
vt 0.133750 0.965917
vt 0.133612 0.965786
vt 0.133671 0.966092
vt 0.133576 0.965853
s 0
usemtl palette
f 27/1/1 61/1/1 62/2/1 28/2/1
s 1
f 10/3/2 8/4/3 22/5/3 24/6/2
s 0
f 34/7/4 68/7/4 38/7/4 4/7/4
s 1
f 22/5/3 8/4/3 9/8/5 21/9/5
f 21/10/5 9/11/5 7/12/6 23/13/6
f 10/3/2 24/6/2 25/14/7 12/15/7
f 12/11/7 25/10/7 26/13/8 11/12/8
s 0
f 41/16/9 7/16/9 9/17/9 8/18/9 10/19/9 12/20/9 11/21/9 45/21/9 46/20/9 44/19/9 42/18/9 43/17/9
s 1
f 16/12/10 50/12/10 54/22/11 20/22/11
f 14/23/12 48/23/12 52/24/13 18/24/13
f 19/25/14 53/25/14 48/23/12 14/23/12
f 18/24/15 16/12/15 20/22/15 15/13/15 17/26/15 13/27/15 19/25/15 14/23/15
f 47/27/16 13/27/16 17/26/17 51/26/17
f 18/24/18 52/24/18 50/12/10 16/12/10
f 51/26/19 17/26/19 15/13/20 49/13/20
f 20/22/21 54/22/21 49/13/20 15/13/20
s 0
f 23/16/1 57/16/1 36/28/1 2/28/1
f 3/29/1 1/30/1 22/18/1 21/17/1
f 2/28/1 3/29/1 21/17/1 23/16/1
f 5/31/1 6/32/1 25/20/1 24/19/1
f 6/32/1 4/7/1 26/21/1 25/20/1
f 38/7/1 60/21/1 26/21/1 4/7/1
f 36/28/22 65/28/22 31/28/22 2/28/22
f 1/30/1 5/31/1 24/19/1 22/18/1
f 6/32/23 5/31/23 32/31/23 33/32/23
f 1/30/24 3/29/24 29/29/24 30/30/24
f 31/33/1 65/33/1 61/34/1 27/34/1
f 4/7/25 6/32/25 33/32/25 34/7/25
f 3/29/26 2/28/26 31/28/26 29/29/26
f 5/31/27 1/30/27 30/30/27 32/31/27
f 27/35/1 30/36/1 29/37/1
f 27/38/1 29/37/1 31/33/1
f 28/39/28 33/40/28 32/41/28
f 28/42/29 34/43/29 33/40/29
f 62/42/29 68/43/29 34/43/29 28/42/29
f 27/35/28 28/44/28 32/41/28 30/36/28
s 1
f 44/3/30 58/6/30 56/5/31 42/4/31
f 56/5/31 55/9/32 43/8/32 42/4/31
f 55/10/32 57/13/33 41/12/33 43/11/32
f 44/3/30 46/15/34 59/14/34 58/6/30
f 46/11/34 45/12/26 60/13/26 59/10/34
f 52/24/27 48/23/27 53/25/27 47/27/27 51/26/27 49/13/27 54/22/27 50/12/27
s 0
f 37/29/1 55/17/1 56/18/1 35/30/1
f 36/28/1 57/16/1 55/17/1 37/29/1
f 39/31/1 58/19/1 59/20/1 40/32/1
f 40/32/1 59/20/1 60/21/1 38/7/1
f 35/30/1 56/18/1 58/19/1 39/31/1
f 40/32/35 67/32/35 66/31/35 39/31/35
f 35/30/36 64/30/36 63/29/36 37/29/36
f 38/7/37 68/7/37 67/32/37 40/32/37
f 37/29/8 63/29/8 65/28/8 36/28/8
f 39/31/15 66/31/15 64/30/15 35/30/15
f 61/35/1 63/37/1 64/36/1
f 61/38/1 65/33/1 63/37/1
f 62/39/38 66/41/38 67/40/38
f 62/42/29 67/40/29 68/43/29
f 61/35/38 64/36/38 66/41/38 62/44/38
s 1
f 57/13/33 23/13/6 7/12/6 41/12/33
f 13/27/16 47/27/16 53/25/39 19/25/39
