# Blender 3.6.2
# www.blender.org
mtllib Console_Mintendo_ZNEZ.mtl
o Console_Mintendo_ZNEZ
v 0.175516 0.011961 0.171389
v 0.175516 0.011961 -0.185139
v 0.191547 0.112473 0.191375
v 0.191547 0.112473 -0.205124
v 0.193510 0.061833 0.195078
v 0.193510 0.061833 -0.208828
v 0.186361 0.011961 0.182234
v 0.186361 0.011961 -0.195984
v 0.173201 -0.002988 0.167148
v 0.173201 -0.002988 -0.180898
v 0.046653 0.105751 -0.037722
v 0.125327 0.105751 -0.037722
v 0.125327 0.105751 0.182485
v 0.046653 0.105751 0.182485
v 0.046653 0.062235 0.185668
v 0.126060 0.062235 0.185668
v 0.123389 0.019379 0.174631
v 0.046653 0.019379 0.174631
v 0.123389 0.021420 0.187615
v 0.046653 0.021420 0.187615
v 0.121609 0.083134 0.197460
v 0.125327 0.115451 -0.034933
v 0.046653 0.115451 -0.034933
v 0.050829 0.083134 0.197460
v 0.050829 0.067949 0.198395
v 0.121825 0.067949 0.198395
v 0.186361 0.011961 -0.006875
v 0.191547 0.112473 -0.006875
v 0.193510 0.061833 -0.006875
v 0.175516 0.011961 -0.006875
v 0.173201 -0.002988 -0.006875
v 0.186361 0.011961 -0.106310
v 0.191547 0.112473 -0.106310
v 0.193510 0.061833 -0.106310
v 0.175516 0.011961 -0.106310
v 0.173201 -0.002988 -0.106310
v 0.191547 0.135340 -0.006875
v 0.191547 0.135340 -0.106310
v 0.191547 0.139803 -0.081763
v 0.191547 0.139905 -0.033144
v 0.046653 0.115451 0.195469
v 0.125327 0.115451 0.195469
v 0.046653 0.063781 0.198652
v 0.126060 0.063781 0.198652
v 0.127595 0.119299 0.030651
v 0.044385 0.119299 0.030651
v 0.044385 0.119299 0.073213
v 0.127595 0.119299 0.073213
v 0.127595 0.106716 0.073213
v 0.127595 0.106716 0.030651
v 0.044385 0.106716 0.030651
v 0.044385 0.106716 0.073213
v 0.064719 0.113432 0.114850
v 0.064719 0.113432 0.018679
v 0.064719 0.110100 0.114850
v 0.064719 0.110100 0.018679
v -0.175516 0.011961 0.171389
v -0.175516 0.011961 -0.185139
v -0.191547 0.112473 0.191375
v -0.191547 0.112473 -0.205124
v -0.193510 0.061833 0.195078
v -0.193510 0.061833 -0.208828
v -0.186361 0.011961 0.182234
v -0.186361 0.011961 -0.195984
v -0.173201 -0.002988 0.167148
v -0.173201 -0.002988 -0.180898
v -0.046653 0.105751 -0.037722
v -0.125327 0.105751 -0.037722
v -0.125327 0.105751 0.182485
v -0.046653 0.105751 0.182485
v -0.046653 0.062235 0.185668
v -0.126060 0.062235 0.185668
v -0.123389 0.019379 0.174631
v -0.046653 0.019379 0.174631
v -0.123389 0.021420 0.187615
v -0.046653 0.021420 0.187615
v -0.121609 0.083134 0.197460
v -0.125327 0.115451 -0.034933
v -0.046653 0.115451 -0.034933
v -0.050829 0.083134 0.197460
v -0.050829 0.067949 0.198395
v -0.121825 0.067949 0.198395
v -0.186361 0.011961 -0.006875
v -0.191547 0.112473 -0.006875
v -0.193510 0.061833 -0.006875
v -0.175516 0.011961 -0.006875
v -0.173201 -0.002988 -0.006875
v -0.186361 0.011961 -0.106310
v -0.191547 0.112473 -0.106310
v -0.193510 0.061833 -0.106310
v -0.175516 0.011961 -0.106310
v -0.173201 -0.002988 -0.106310
v -0.191547 0.135340 -0.006875
v -0.191547 0.135340 -0.106310
v -0.191547 0.139803 -0.081763
v -0.191547 0.139905 -0.033144
v -0.046653 0.115451 0.195469
v -0.125327 0.115451 0.195469
v -0.046653 0.063781 0.198652
v -0.126060 0.063781 0.198652
v -0.127595 0.119299 0.030651
v -0.044385 0.119299 0.030651
v -0.044385 0.119299 0.073213
v -0.127595 0.119299 0.073213
v -0.127595 0.106716 0.073213
v -0.127595 0.106716 0.030651
v -0.044385 0.106716 0.030651
v -0.044385 0.106716 0.073213
v -0.064719 0.113432 0.114850
v -0.064719 0.113432 0.018679
v -0.064719 0.110100 0.114850
v -0.064719 0.110100 0.018679
vn -0.0000 -0.0839 0.9965
vn -0.0000 0.0729 0.9973
vn 0.9987 -0.0518 -0.0000
vn 0.9989 -0.0461 -0.0000
vn 0.9899 -0.1419 -0.0000
vn -0.0000 -1.0000 -0.0000
vn -0.0000 -0.2729 0.9620
vn -0.0000 -0.2494 -0.9684
vn -0.0000 -0.0839 -0.9965
vn -0.0000 0.0729 -0.9973
vn -0.0000 -0.2494 0.9684
vn 0.9997 0.0258 -0.0000
vn 0.9992 0.0387 -0.0000
vn -0.0000 -0.2729 -0.9620
vn 0.9882 -0.1530 -0.0000
vn -0.0000 1.0000 -0.0000
vn -0.0000 0.0615 0.9981
vn -0.0000 -0.2521 0.9677
vn -0.0000 -0.0941 0.9956
vn -0.0000 -0.0965 0.9953
vn 1.0000 0.0069 -0.0030
vn 1.0000 -0.0000 -0.0000
vn 1.0000 0.0091 -0.0039
vn 0.9979 -0.0649 0.0090
vn 0.9996 -0.0298 0.0022
vn 0.9998 -0.0189 0.0001
vn -1.0000 -0.0000 -0.0000
vn -0.0000 -0.9879 0.1553
vn -0.0000 -0.0000 1.0000
vn -0.0000 0.9959 -0.0908
vn -0.0000 0.9964 0.0849
vn -0.0000 -0.0000 -1.0000
vn -0.0000 0.9839 -0.1789
vn -0.0000 0.9852 0.1712
vn -0.9987 -0.0518 -0.0000
vn -0.9899 -0.1419 -0.0000
vn -0.9989 -0.0461 -0.0000
vn -0.9997 0.0258 -0.0000
vn -0.9992 0.0387 -0.0000
vn -0.9882 -0.1530 -0.0000
vn -1.0000 0.0069 -0.0030
vn -1.0000 0.0091 -0.0039
vn -0.9979 -0.0649 0.0090
vn -0.9998 -0.0189 0.0001
vn -0.9996 -0.0298 0.0022
vt 0.874819 0.790754
vt 0.874819 0.796124
vt 0.958980 0.796750
vt 0.953484 0.796750
vt 0.953484 0.790349
vt 0.958980 0.790349
vt 0.874819 0.786144
vt 0.874595 0.786409
vt 0.045868 0.949494
vt 0.961508 0.790349
vt 0.961508 0.796750
vt 0.872697 0.796124
vt 0.868087 0.796124
vt 0.868087 0.790754
vt 0.872697 0.790754
vt 0.874595 0.795100
vt 0.874819 0.795365
vt 0.045868 0.963540
vt 0.045868 0.968222
vt 0.874595 0.792927
vt 0.874819 0.793060
vt 0.045868 0.958858
vt 0.870576 0.795365
vt 0.870576 0.786144
vt 0.138755 0.957190
vt 0.138753 0.966173
vt 0.117153 0.966173
vt 0.117151 0.957190
vt 0.874819 0.785385
vt 0.870576 0.790754
vt 0.870576 0.785385
vt 0.956963 0.788008
vt 0.956963 0.798999
vt 0.956963 0.787103
vt 0.956963 0.793504
vt 0.956963 0.799905
vt 0.951906 0.798999
vt 0.951906 0.788008
vt 0.951906 0.787103
vt 0.951906 0.793504
vt 0.951906 0.799905
vt 0.045868 0.963540
vt 0.874595 0.790754
vt 0.875002 0.796124
vt 0.875002 0.790754
vt 0.961727 0.796750
vt 0.961727 0.790349
vt 0.964475 0.796750
vt 0.964475 0.790349
vt 0.877308 0.796124
vt 0.877308 0.790754
vt 0.874327 0.796124
vt 0.873413 0.796124
vt 0.874819 0.792384
vt 0.874819 0.791470
vt 0.870800 0.792766
vt 0.874595 0.792766
vt 0.870576 0.796124
vt 0.870800 0.791188
vt 0.874595 0.791188
vt 0.552056 0.957145
vt 0.552056 0.970906
vt 0.545724 0.970906
vt 0.545724 0.957145
vt 0.960210 0.788008
vt 0.960210 0.793504
s 1
usemtl palette
f 61/1/1 5/1/1 3/2/2 59/2/2
f 29/3/3 5/4/4 7/5/5 27/6/5
f 7/7/6 63/7/6 57/8/6 1/8/6
f 57/9/7 65/9/7 9/9/7 1/9/7
f 8/10/8 64/10/8 62/11/9 6/11/9
f 6/1/9 62/1/9 60/2/10 4/2/10
f 63/10/11 7/10/11 5/11/1 61/11/1
f 28/12/12 3/13/13 5/14/4 29/15/3
f 58/16/6 64/17/6 8/17/6 2/16/6
f 36/18/6 92/18/6 66/19/6 10/19/6
f 35/20/6 2/16/6 8/17/6 32/21/6
f 10/19/14 66/19/14 58/19/14 2/19/14
f 30/22/15 1/9/15 9/9/15 31/22/15
f 59/7/16 3/7/16 28/1/16 84/1/16
f 42/7/16 22/17/16 23/23/16 41/24/16
f 26/25/17 21/26/17 24/27/17 25/28/17
f 19/29/18 44/1/19 43/30/20 20/31/18
f 13/32/21 12/33/22 22/33/22 42/32/23
f 17/34/24 16/35/25 44/35/26 19/34/24
f 16/35/25 13/36/21 42/36/23 44/35/26
f 11/37/27 14/38/27 41/38/27 23/37/27
f 18/39/28 17/34/28 19/34/28 20/39/28
f 15/40/27 18/39/27 20/39/27 43/40/27
f 14/41/27 15/40/27 43/40/27 41/41/27
f 35/42/15 30/22/15 31/22/15 36/18/15
f 31/22/6 87/22/6 92/18/6 36/18/6
f 1/8/6 30/43/6 27/1/6 7/7/6
f 33/44/12 28/12/12 29/15/3 34/45/3
f 34/46/3 29/3/3 27/6/5 32/47/5
f 9/9/6 65/9/6 87/22/6 31/22/6
f 6/48/4 34/46/3 32/47/5 8/49/5
f 4/50/13 33/44/12 34/45/3 6/51/4
f 2/19/15 35/42/15 36/18/15 10/19/15
f 37/1/29 93/1/29 84/1/29 28/1/29
f 30/43/6 35/20/6 32/21/6 27/1/6
f 28/12/12 33/44/12 38/44/22 39/52/22 40/53/22 37/12/22
f 39/54/30 95/54/30 96/55/31 40/55/31
f 89/21/32 94/21/32 38/21/32 33/21/32
f 38/21/33 94/21/33 95/54/30 39/54/30
f 93/1/34 37/1/34 40/55/31 96/55/31
f 24/56/17 21/57/17 42/2/17 41/58/17
f 25/59/17 24/56/17 41/58/17 43/30/20
f 21/57/17 26/60/17 44/1/19 42/2/17
f 26/60/17 25/59/17 43/30/20 44/1/19
f 48/61/16 45/62/16 46/63/16 47/64/16
f 47/64/29 52/64/29 49/61/29 48/61/29
f 48/61/22 49/61/22 50/62/22 45/62/22
f 46/63/27 51/63/27 52/64/27 47/64/27
f 45/62/32 50/62/32 51/63/32 46/63/32
f 53/65/29 109/65/29 111/65/29 55/65/29
f 110/66/32 54/66/32 56/66/32 112/66/32
f 53/65/22 55/65/22 56/66/22 54/66/22
f 85/3/35 83/6/36 63/5/36 61/4/37
f 84/12/38 85/15/35 61/14/37 59/13/39
f 91/20/6 88/21/6 64/17/6 58/16/6
f 86/22/40 87/22/40 65/9/40 57/9/40
f 98/7/16 97/24/16 79/23/16 78/17/16
f 82/25/17 81/28/17 80/27/17 77/26/17
f 75/29/18 76/31/18 99/30/20 100/1/19
f 69/32/41 98/32/42 78/33/27 68/33/27
f 73/34/43 75/34/43 100/35/44 72/35/45
f 72/35/45 100/35/44 98/36/42 69/36/41
f 67/37/22 79/37/22 97/38/22 70/38/22
f 74/39/28 76/39/28 75/34/28 73/34/28
f 71/40/22 99/40/22 76/39/22 74/39/22
f 70/41/22 97/41/22 99/40/22 71/40/22
f 91/42/40 92/18/40 87/22/40 86/22/40
f 57/8/6 63/7/6 83/1/6 86/43/6
f 89/44/38 90/45/35 85/15/35 84/12/38
f 90/46/35 88/47/36 83/6/36 85/3/35
f 62/48/37 64/49/36 88/47/36 90/46/35
f 60/50/39 62/51/37 90/45/35 89/44/38
f 58/19/40 66/19/40 92/18/40 91/42/40
f 86/43/6 83/1/6 88/21/6 91/20/6
f 84/12/38 93/12/27 96/53/27 95/52/27 94/44/27 89/44/38
f 80/56/17 97/58/17 98/2/17 77/57/17
f 81/59/17 99/30/20 97/58/17 80/56/17
f 77/57/17 98/2/17 100/1/19 82/60/17
f 82/60/17 100/1/19 99/30/20 81/59/17
f 104/61/16 103/64/16 102/63/16 101/62/16
f 103/64/29 104/61/29 105/61/29 108/64/29
f 104/61/27 101/62/27 106/62/27 105/61/27
f 102/63/22 103/64/22 108/64/22 107/63/22
f 101/62/32 102/63/32 107/63/32 106/62/32
f 109/65/27 110/66/27 112/66/27 111/65/27
f 89/21/16 33/21/16 4/17/16 60/17/16
f 109/65/16 53/65/16 54/66/16 110/66/16
