# Blender 3.6.2
# www.blender.org
mtllib Console_PolyStation_4.mtl
o Console_PolyStation_4
v -0.023104 0.448185 0.231908
v 0.013611 0.448185 0.217097
v -0.012477 0.010288 0.228000
v -0.023104 0.010288 0.231908
v -0.012477 0.448185 -0.185556
v 0.013611 0.448185 -0.196458
v 0.024239 0.448185 -0.199819
v -0.023104 0.010288 -0.181647
v -0.012477 0.010288 -0.185556
v -0.023104 0.448185 -0.181647
v 0.024239 0.448185 0.213736
v 0.013611 0.010288 0.217097
v 0.013611 0.010288 -0.196458
v 0.024239 0.010288 -0.199819
v 0.024239 0.010288 0.213736
v -0.012477 0.448185 0.228000
v -0.022050 0.045525 0.235881
v -0.013531 0.020911 0.235881
v -0.022050 0.020911 0.235881
v -0.013531 0.045525 0.235881
v -0.013531 0.045525 0.217126
v -0.022050 0.045525 0.217126
v -0.022050 0.020911 0.217126
v -0.013531 0.020911 0.217126
v -0.022050 0.082760 0.235881
v -0.013531 0.058147 0.235881
v -0.022050 0.058147 0.235881
v -0.013531 0.082760 0.235881
v -0.013531 0.082760 0.217126
v -0.022050 0.082760 0.217126
v -0.022050 0.058147 0.217126
v -0.013531 0.058147 0.217126
v -0.012477 0.460831 0.234150
v -0.012477 0.456930 0.238292
v -0.012477 0.457805 0.235830
v 0.024239 0.460831 0.219823
v 0.024239 0.456930 0.224029
v 0.024239 0.457805 0.221566
v 0.024239 0.001543 0.224029
v 0.024239 -0.002358 0.219823
v 0.024239 0.000668 0.221566
v 0.013611 -0.002358 0.224841
v 0.013611 0.001543 0.228983
v 0.013611 0.000485 0.226311
v -0.023104 0.460831 -0.187758
v -0.023104 0.456930 -0.191940
v -0.023104 0.457805 -0.189477
v 0.024239 -0.002358 -0.207500
v 0.024239 0.001543 -0.211706
v 0.024239 0.000485 -0.209034
v 0.013611 0.001543 -0.206751
v 0.013611 -0.002358 -0.202609
v 0.013611 0.000668 -0.204288
v -0.012477 -0.002358 -0.193300
v -0.012477 0.001543 -0.197442
v -0.012477 0.000485 -0.194770
v -0.023104 0.001543 -0.191940
v -0.023104 -0.002358 -0.187758
v -0.023104 0.000668 -0.189477
v -0.057061 0.456930 -0.178824
v -0.057061 0.460831 -0.174642
v -0.057061 -0.002358 -0.174642
v -0.057061 0.001543 -0.178824
v 0.058196 0.460831 -0.221164
v 0.058196 0.456930 -0.225369
v 0.058196 0.001543 -0.225369
v 0.058196 -0.002358 -0.221164
v 0.058196 -0.002358 0.206160
v 0.058196 0.001543 0.210366
v 0.058196 0.456930 0.210366
v 0.058196 0.460831 0.206160
v -0.057061 0.001543 0.256910
v -0.057061 -0.002358 0.252728
v -0.057061 0.460831 0.252728
v -0.057061 0.456930 0.256910
v 0.013611 0.456930 0.228983
v 0.013611 0.460831 0.224841
v 0.013611 0.457988 0.226311
v 0.013611 0.460831 -0.202609
v 0.013611 0.456930 -0.206751
v 0.013611 0.457805 -0.204288
v -0.023104 -0.002358 0.239612
v -0.023104 0.001543 0.243795
v -0.023104 0.000485 0.241123
v -0.012477 0.456930 -0.197442
v -0.012477 0.460831 -0.193300
v -0.012477 0.457988 -0.194770
v -0.023104 0.456930 0.243795
v -0.023104 0.460831 0.239612
v -0.023104 0.457988 0.241123
v 0.024239 0.456930 -0.211706
v 0.024239 0.460831 -0.207500
v 0.024239 0.457988 -0.209034
v -0.012477 0.001543 0.238292
v -0.012477 -0.002358 0.234150
v -0.012477 0.000668 0.235830
v -0.021062 0.429755 0.235886
v -0.014519 0.221623 0.233479
v -0.021062 0.221623 0.235886
v -0.014519 0.429755 0.233479
v -0.014519 0.429755 0.204672
v -0.021062 0.429755 0.207079
v -0.021062 0.221623 0.207079
v -0.014519 0.221623 0.204673
vn -0.0000 -1.0000 -0.0000
vn 0.3015 -0.0000 0.9535
vn 0.3452 -0.0000 0.9385
vn -1.0000 -0.0000 -0.0000
vn -0.0000 1.0000 -0.0000
vn 1.0000 -0.0000 -0.0000
vn -0.3452 -0.0000 -0.9385
vn -0.3015 -0.0000 -0.9535
vn 0.1530 -0.8903 0.4288
vn -0.1049 -0.9501 -0.2939
vn -0.1530 -0.8903 -0.4288
vn 0.1049 -0.9501 0.2939
vn -0.3361 -0.0000 -0.9418
vn 0.3379 -0.3469 0.8749
vn 0.3282 -0.4124 0.8498
vn 0.3603 -0.0000 0.9328
vn 0.1134 0.9527 0.2819
vn 0.1732 0.8859 0.4304
vn 0.1105 0.9518 0.2861
vn 0.1661 0.8874 0.4300
vn -0.3399 -0.4135 -0.8447
vn -0.3399 0.4135 -0.8447
vn -0.3503 0.3454 -0.8706
vn -0.3503 -0.3454 -0.8706
vn -0.3282 -0.4124 -0.8498
vn -0.3282 0.4124 -0.8498
vn -0.3379 0.3469 -0.8749
vn -0.3379 -0.3469 -0.8749
vn 0.1049 0.9501 0.2939
vn -0.1530 0.8903 -0.4288
vn -0.1049 0.9501 -0.2939
vn 0.1530 0.8903 0.4288
vn 0.3733 -0.0000 0.9277
vn 0.1732 -0.8859 0.4304
vn 0.1134 -0.9527 0.2819
vn -0.0000 -0.0000 1.0000
vn -0.2640 0.7071 -0.6560
vn -0.2376 -0.7071 -0.6660
vn -0.2548 -0.7071 -0.6596
vn 0.2376 0.7071 0.6660
vn 0.2639 0.7071 0.6560
vn 0.2376 -0.7071 0.6660
vn 0.2548 -0.7071 0.6596
vn -0.2376 0.7071 -0.6660
vn -0.2640 -0.7071 -0.6560
vn -0.2548 0.7071 -0.6596
vn 0.2640 -0.7071 0.6560
vn 0.2548 0.7071 0.6596
vn 0.3361 -0.0000 0.9418
vt 0.879065 0.955766
vt 0.879065 0.955766
vt 0.879065 0.967703
vt 0.208493 0.972543
vt 0.208493 0.972543
vt 0.208493 0.972543
vt 0.208493 0.953515
vt 0.208493 0.953675
vt 0.208493 0.972383
vt 0.208493 0.972543
vt 0.885548 0.955766
vt 0.885548 0.955866
vt 0.885548 0.967602
vt 0.885548 0.967703
vt 0.885548 0.955766
vt 0.208493 0.972543
vt 0.208493 0.953515
vt 0.208493 0.953515
vt 0.208493 0.953515
vt 0.208493 0.953675
vt 0.127232 0.448234
vt 0.127232 0.448234
vt 0.127232 0.467262
vt 0.127232 0.467262
vt 0.045206 0.953515
vt 0.045206 0.953515
vt 0.045206 0.972543
vt 0.045206 0.972543
vt 0.885548 0.967625
vt 0.885548 0.955839
vt 0.885548 0.967630
vt 0.885548 0.955839
vt 0.129950 0.953515
vt 0.129950 0.953515
vt 0.129950 0.972543
vt 0.129950 0.972543
s 1
usemtl palette
f 4/1/1 8/1/1 9/1/1 3/1/1
f 12/1/1 13/1/1 14/1/1 15/2/1
f 12/1/2 15/2/2 11/3/2 2/3/2
f 4/1/3 3/1/3 16/3/3 1/3/3
f 16/4/4 35/5/4 33/5/4 86/5/4 87/6/4 5/6/4
f 11/3/5 7/3/5 6/3/5 2/3/5
f 8/7/6 59/7/6 57/8/6 46/9/6 47/10/6 10/5/6
f 68/11/6 67/11/6 66/12/6 65/13/6 64/14/6 71/14/6 70/13/6 69/12/6
f 8/1/7 10/3/7 5/3/7 9/1/7
f 13/1/8 6/3/8 7/3/8 14/1/8
f 6/5/6 81/5/6 79/5/6 77/5/6 78/5/6 2/5/6
f 95/11/9 54/11/10 52/15/11 42/15/12
f 7/5/4 93/16/4 91/9/4 49/8/4 50/7/4 14/7/4
f 3/17/4 96/18/4 94/8/4 34/9/4 35/5/4 16/4/4
f 13/7/6 53/19/6 51/20/6 80/9/6 81/10/6 6/5/6
f 4/7/6 84/7/6 82/7/6 58/17/6 59/7/6 8/7/6
f 2/5/6 78/16/6 76/9/6 43/20/6 44/7/6 12/7/6
f 15/19/4 41/7/4 39/8/4 37/9/4 38/10/4 11/5/4
f 16/3/5 5/3/5 10/3/5 1/3/5
f 55/12/13 85/13/13 80/13/13 51/12/13
f 72/12/14 83/12/15 88/13/16 75/13/16
f 71/14/17 64/14/5 92/14/5 36/14/18
f 1/6/6 90/5/6 88/9/6 83/8/6 84/7/6 4/7/6
f 74/14/4 61/14/4 60/13/4 63/12/4 62/11/4 73/11/4 72/12/4 75/13/4
f 9/17/4 56/18/4 54/7/4 95/7/4 96/18/4 3/17/4
f 89/14/19 45/14/5 61/14/5 74/14/20
f 14/7/4 50/7/4 48/7/4 40/7/4 41/7/4 15/19/4
f 10/5/6 47/5/6 45/5/6 89/4/6 90/10/6 1/6/6
f 49/12/21 91/13/22 65/13/23 66/12/24
f 63/12/25 60/13/26 46/13/27 57/12/28
f 12/7/6 44/19/6 42/19/6 52/19/6 53/19/6 13/7/6
f 5/6/4 87/16/4 85/9/4 55/8/4 56/7/4 9/17/4
f 11/5/4 38/5/4 36/5/4 92/5/4 93/5/4 7/5/4
f 77/14/29 79/14/30 86/14/31 33/14/32
f 39/12/33 69/12/33 70/13/33 37/13/33
f 40/11/34 48/11/1 67/11/1 68/11/35
f 73/11/1 62/11/1 58/11/1 82/11/1
f 19/21/36 18/22/36 20/23/36 17/24/36
f 20/23/6 18/22/6 24/22/6 21/23/6
f 18/22/1 19/21/1 23/21/1 24/22/1
f 19/21/4 17/24/4 22/24/4 23/21/4
f 17/24/5 20/23/5 21/23/5 22/24/5
f 27/25/36 26/26/36 28/27/36 25/28/36
f 28/27/6 26/26/6 32/26/6 29/27/6
f 26/26/1 27/25/1 31/25/1 32/26/1
f 27/25/4 25/28/4 30/28/4 31/25/4
f 25/28/5 28/27/5 29/27/5 30/28/5
f 33/14/4 35/29/4 34/13/4
f 36/14/4 38/29/4 37/13/4
f 39/11/4 41/11/4 40/11/4
f 42/15/6 44/30/6 43/12/6
f 45/14/6 47/29/6 46/13/6
f 48/11/4 50/11/4 49/11/4
f 51/15/6 53/15/6 52/15/6
f 54/11/4 56/11/4 55/11/4
f 57/11/6 59/11/6 58/11/6
f 76/13/6 78/31/6 77/14/6
f 79/14/6 81/29/6 80/13/6
f 82/11/6 84/32/6 83/12/6
f 85/14/4 87/14/4 86/14/4
f 88/14/6 90/14/6 89/14/6
f 91/13/4 93/31/4 92/14/4
f 94/11/4 96/11/4 95/11/4
f 64/14/37 65/13/23 91/13/22 92/14/37
f 54/11/10 55/12/38 51/12/38 52/15/11
f 62/11/39 63/12/25 57/12/28 58/11/39
f 76/13/40 77/14/29 33/14/32 34/13/40
f 70/13/41 71/14/17 36/14/18 37/13/41
f 94/12/42 95/11/9 42/15/12 43/12/42
f 72/12/14 73/11/43 82/11/43 83/12/15
f 79/14/30 80/13/44 85/13/44 86/14/31
f 48/11/45 49/12/21 66/12/24 67/11/45
f 45/14/46 46/13/27 60/13/26 61/14/46
f 39/12/47 40/11/34 68/11/35 69/12/47
f 88/13/48 89/14/19 74/14/20 75/13/48
f 94/12/49 43/12/49 76/13/49 34/13/49
f 99/33/3 98/34/3 100/35/3 97/36/3
f 99/33/4 97/36/4 102/36/4 103/33/4
f 97/36/5 100/35/5 101/35/5 102/36/5
f 100/35/6 98/34/6 104/34/6 101/35/6
f 98/34/1 99/33/1 103/33/1 104/34/1
