# Blender 3.6.2
# www.blender.org
mtllib Console_Mintendo_Wee_Controller.mtl
o Console_Mintendo_Wee_Controller
v 0.030301 0.028388 -0.114065
v 0.023059 0.028388 -0.122344
v 0.028180 0.028388 -0.119919
v 0.023059 0.028388 0.117305
v 0.030301 0.028388 0.109026
v 0.028180 0.028388 0.114880
v -0.030300 0.028388 0.109026
v -0.023058 0.028388 0.117305
v -0.028179 0.028388 0.114880
v -0.023058 0.028388 -0.122344
v -0.030300 0.028388 -0.114065
v -0.028179 0.028388 -0.119919
v 0.023059 0.000000 -0.122344
v 0.030301 0.000000 -0.114065
v 0.028180 0.000000 -0.119919
v -0.030300 0.000000 -0.114065
v -0.023058 0.000000 -0.122344
v -0.028179 0.000000 -0.119919
v 0.030301 0.000000 0.109026
v 0.023059 0.000000 0.117305
v 0.028180 0.000000 0.114880
v -0.023058 0.000000 0.117305
v -0.030300 0.000000 0.109026
v -0.028179 0.000000 0.114880
v -0.004289 0.027944 -0.051922
v -0.007428 0.027944 -0.048783
v -0.008577 0.027944 -0.044495
v -0.007428 0.027944 -0.040207
v -0.004289 0.027944 -0.037067
v -0.000000 0.027944 -0.035918
v 0.004288 0.027944 -0.037067
v 0.007427 0.027944 -0.040207
v 0.008576 0.027944 -0.044495
v 0.007427 0.027944 -0.048783
v -0.000000 0.027944 -0.053071
v 0.004288 0.027944 -0.051922
v -0.000000 0.030459 -0.053071
v 0.004288 0.030459 -0.051922
v 0.007427 0.030459 -0.048783
v 0.008576 0.030459 -0.044495
v 0.007427 0.030459 -0.040207
v 0.004288 0.030459 -0.037067
v -0.000000 0.030459 -0.035918
v -0.004289 0.030459 -0.037067
v -0.007428 0.030459 -0.040207
v -0.008577 0.030459 -0.044495
v -0.007428 0.030459 -0.048783
v -0.004289 0.030459 -0.051922
v -0.004787 0.027944 -0.104145
v 0.004787 0.027944 -0.104145
v 0.004787 0.027944 -0.075421
v -0.004787 0.027944 -0.075421
v -0.004787 0.031871 -0.075421
v 0.004787 0.031871 -0.075421
v 0.004787 0.031871 -0.104145
v -0.004787 0.031871 -0.104145
v -0.014362 0.031871 -0.094571
v -0.014362 0.031871 -0.084996
v 0.014362 0.031871 -0.084996
v 0.014362 0.031871 -0.094571
v -0.004787 0.030737 -0.084996
v -0.004787 0.030737 -0.094571
v 0.004787 0.030737 -0.084996
v 0.004787 0.030737 -0.094571
v -0.004787 0.027944 -0.094571
v 0.004787 0.027944 -0.094571
v -0.014362 0.027944 -0.094571
v -0.014362 0.027944 -0.084996
v 0.014362 0.027944 -0.084996
v 0.014362 0.027944 -0.094571
v -0.004787 0.027944 -0.084996
v 0.004787 0.027944 -0.084996
v 0.000303 0.025920 0.053364
v 0.000303 0.030459 0.053364
v 0.004322 0.025920 0.054827
v 0.004322 0.030459 0.054827
v 0.006461 0.025920 0.058531
v 0.006461 0.030459 0.058531
v 0.005718 0.025920 0.062743
v 0.005718 0.030459 0.062743
v 0.002442 0.025920 0.065492
v 0.002442 0.030459 0.065492
v -0.001835 0.025920 0.065492
v -0.001835 0.030459 0.065492
v -0.005112 0.025920 0.062743
v -0.005112 0.030459 0.062743
v -0.005855 0.025920 0.058531
v -0.005855 0.030459 0.058531
v -0.003716 0.025920 0.054827
v -0.003716 0.030459 0.054827
v 0.000303 0.025920 0.075304
v 0.000303 0.030459 0.075304
v 0.004322 0.025920 0.076767
v 0.004322 0.030459 0.076767
v 0.006461 0.025920 0.080471
v 0.006461 0.030459 0.080471
v 0.005718 0.025920 0.084684
v 0.005718 0.030459 0.084684
v 0.002442 0.025920 0.087433
v 0.002442 0.030459 0.087433
v -0.001835 0.025920 0.087433
v -0.001835 0.030459 0.087433
v -0.005112 0.025920 0.084684
v -0.005112 0.030459 0.084684
v -0.005855 0.025920 0.080471
v -0.005855 0.030459 0.080471
v -0.003716 0.025920 0.076767
v -0.003716 0.030459 0.076767
v -0.019310 0.025202 -0.117679
v -0.019310 0.030589 -0.117679
v -0.015774 0.025202 -0.116392
v -0.015774 0.030589 -0.116392
v -0.013892 0.025202 -0.113133
v -0.013892 0.030589 -0.113133
v -0.014546 0.025202 -0.109427
v -0.014546 0.030589 -0.109427
v -0.017429 0.025202 -0.107008
v -0.017429 0.030589 -0.107008
v -0.021192 0.025202 -0.107008
v -0.021192 0.030589 -0.107008
v -0.024075 0.025202 -0.109427
v -0.024075 0.030589 -0.109427
v -0.024728 0.025202 -0.113133
v -0.024728 0.030589 -0.113133
v -0.022846 0.025202 -0.116392
v -0.022846 0.030589 -0.116392
v 0.000025 0.025202 -0.013575
v 0.000025 0.030589 -0.013575
v 0.003561 0.025202 -0.012287
v 0.003561 0.030589 -0.012287
v 0.005443 0.025202 -0.009028
v 0.005443 0.030589 -0.009028
v 0.004789 0.025202 -0.005322
v 0.004789 0.030589 -0.005322
v 0.001907 0.025202 -0.002903
v 0.001907 0.030589 -0.002903
v -0.001857 0.025202 -0.002903
v -0.001857 0.030589 -0.002903
v -0.004739 0.025202 -0.005322
v -0.004739 0.030589 -0.005322
v -0.005393 0.025202 -0.009028
v -0.005393 0.030589 -0.009028
v -0.003511 0.025202 -0.012287
v -0.003511 0.030589 -0.012287
vn -0.9849 -0.0000 -0.1729
vn -0.9849 -0.0000 0.1729
vn -0.0000 -1.0000 -0.0000
vn -0.2193 -0.0000 0.9756
vn 0.2193 -0.0000 0.9756
vn -0.0000 1.0000 -0.0000
vn 0.2193 -0.0000 -0.9756
vn -0.2193 -0.0000 -0.9756
vn -0.7398 -0.0000 -0.6729
vn 0.7398 -0.0000 -0.6729
vn 0.9849 -0.0000 -0.1729
vn 0.7398 -0.0000 0.6729
vn 0.9849 -0.0000 0.1729
vn -0.7398 -0.0000 0.6729
vn 0.8660 -0.0000 0.5000
vn 1.0000 -0.0000 -0.0000
vn -0.5000 -0.0000 0.8660
vn -0.0000 -0.0000 1.0000
vn -0.8660 -0.0000 -0.5000
vn -1.0000 -0.0000 -0.0000
vn 0.5000 -0.0000 0.8660
vn -0.8660 -0.0000 0.5000
vn 0.8660 -0.0000 -0.5000
vn 0.5000 -0.0000 -0.8660
vn -0.0000 -0.0000 -1.0000
vn -0.5000 -0.0000 -0.8660
vn 0.0393 0.9985 0.0393
vn -0.0393 0.9985 0.0393
vn -0.0000 0.9931 0.1176
vn -0.0000 0.9931 -0.1176
vn -0.0393 0.9985 -0.0393
vn 0.0393 0.9985 -0.0393
vn 0.1176 0.9931 -0.0000
vn -0.1176 0.9931 -0.0000
vn 0.6428 -0.0000 -0.7660
vn 0.9848 -0.0000 -0.1736
vn 0.3420 -0.0000 0.9397
vn -0.3420 -0.0000 0.9397
vn -0.9848 -0.0000 -0.1736
vn -0.6428 -0.0000 -0.7660
vt 0.787023 0.790910
vt 0.787023 0.788353
vt 0.787351 0.788258
vt 0.787055 0.788267
vt 0.787055 0.790995
vt 0.787351 0.791004
vt 0.789441 0.791004
vt 0.789737 0.790995
vt 0.789769 0.790910
vt 0.789769 0.788353
vt 0.789737 0.788267
vt 0.789441 0.788258
vt 0.213854 0.875553
vt 0.214195 0.875754
vt 0.211870 0.872391
vt 0.212456 0.872921
vt 0.211833 0.875575
vt 0.211878 0.874829
vt 0.213305 0.874734
vt 0.211676 0.873129
vt 0.214359 0.875822
vt 0.213859 0.875841
vt 0.212271 0.875825
vt 0.211747 0.875762
vt 0.787526 0.791247
vt 0.786746 0.791239
vt 0.786489 0.791208
vt 0.786531 0.791117
vt 0.786554 0.790750
vt 0.786454 0.789915
vt 0.786550 0.789553
vt 0.786837 0.789813
vt 0.787254 0.790704
vt 0.787524 0.791106
vt 0.787691 0.791204
vt 0.787772 0.791238
vt 0.787115 0.790364
vt 0.788030 0.790364
vt 0.788030 0.791279
vt 0.787115 0.791279
vt 0.787115 0.788533
vt 0.788030 0.788533
vt 0.788030 0.789448
vt 0.787115 0.789448
vt 0.786199 0.789448
vt 0.786199 0.790364
vt 0.788946 0.789448
vt 0.788946 0.790364
vt 0.214047 0.876465
vt 0.212182 0.876465
vt 0.212182 0.872737
vt 0.212182 0.870873
vt 0.212182 0.874601
vt 0.210318 0.874601
vt 0.210318 0.872737
vt 0.214046 0.872737
vt 0.215911 0.872737
vt 0.214047 0.870873
vt 0.214046 0.874601
vt 0.215911 0.874601
vt 0.213953 0.871153
vt 0.213953 0.876745
vt 0.213332 0.876745
vt 0.213332 0.871153
vt 0.212711 0.876745
vt 0.212711 0.871153
vt 0.212089 0.876745
vt 0.212089 0.871153
vt 0.211468 0.876745
vt 0.211468 0.871153
vt 0.210846 0.876745
vt 0.210846 0.871153
vt 0.210225 0.876745
vt 0.210225 0.871153
vt 0.209604 0.876745
vt 0.209604 0.871153
vt 0.208982 0.876745
vt 0.208982 0.871153
vt 0.208361 0.876745
vt 0.208361 0.871153
vt 0.786749 0.790592
vt 0.787054 0.790592
vt 0.787359 0.790592
vt 0.787664 0.790592
vt 0.787969 0.790592
vt 0.788274 0.790592
vt 0.788579 0.790592
vt 0.788885 0.790592
vt 0.789190 0.790592
vt 0.211886 0.538377
vt 0.211886 0.543970
vt 0.211265 0.543970
vt 0.211265 0.538377
vt 0.210644 0.543970
vt 0.210644 0.538377
vt 0.210022 0.543970
vt 0.210022 0.538377
vt 0.209401 0.543970
vt 0.209401 0.538377
vt 0.208779 0.543970
vt 0.208779 0.538377
vt 0.208158 0.543970
vt 0.208158 0.538377
vt 0.207537 0.543970
vt 0.207537 0.538377
vt 0.206915 0.543970
vt 0.206915 0.538377
vt 0.206294 0.543970
vt 0.206294 0.538377
vt 0.211926 0.547802
vt 0.208506 0.548406
vt 0.205499 0.546669
vt 0.204311 0.543406
vt 0.205499 0.540142
vt 0.208506 0.538406
vt 0.211926 0.539008
vt 0.214159 0.541669
vt 0.214159 0.545142
vt 0.127142 0.459834
vt 0.127142 0.465426
vt 0.126521 0.465426
vt 0.126521 0.459834
vt 0.125900 0.465426
vt 0.125900 0.459834
vt 0.125278 0.465426
vt 0.125278 0.459834
vt 0.124657 0.465426
vt 0.124657 0.459834
vt 0.124035 0.465426
vt 0.124035 0.459834
vt 0.123414 0.465426
vt 0.123414 0.459834
vt 0.122793 0.465426
vt 0.122793 0.459834
vt 0.122171 0.465426
vt 0.122171 0.459834
vt 0.121550 0.465426
vt 0.121550 0.459834
vt 0.127182 0.465125
vt 0.123762 0.465728
vt 0.120754 0.463992
vt 0.119567 0.460728
vt 0.120754 0.457465
vt 0.123762 0.455728
vt 0.127182 0.456331
vt 0.129415 0.458992
vt 0.129415 0.462465
s 1
usemtl palette
f 16/1/1 23/2/2 7/2/2 11/1/1
f 22/3/3 24/4/3 23/2/3 16/1/3 18/5/3 17/6/3 13/7/3 15/8/3 14/9/3 19/10/3 21/11/3 20/12/3
f 22/3/4 20/12/5 4/12/5 8/3/4
f 7/2/6 9/4/6 8/3/6 4/12/6 6/11/6 5/10/6 1/9/6 3/8/6 2/7/6 10/6/6 12/5/6 11/1/6
f 13/7/7 17/6/8 10/6/8 2/7/7
f 16/1/1 11/1/1 12/5/9 18/5/9
f 18/5/9 12/5/9 10/6/8 17/6/8
f 13/7/7 2/7/7 3/8/10 15/8/10
f 15/8/10 3/8/10 1/9/11 14/9/11
f 4/12/5 20/12/5 21/11/12 6/11/12
f 6/11/12 21/11/12 19/10/13 5/10/13
f 7/2/2 23/2/2 24/4/14 9/4/14
f 9/4/14 24/4/14 22/3/4 8/3/4
f 19/10/13 14/9/11 1/9/11 5/10/13
f 41/13/15 32/13/15 33/14/16 40/14/16
f 44/15/17 29/15/17 30/16/18 43/16/18
f 47/17/19 26/17/19 27/18/20 46/18/20
f 43/16/18 30/16/18 31/19/21 42/19/21
f 46/18/20 27/18/20 28/20/22 45/20/22
f 39/21/23 34/21/23 36/22/24 38/22/24
f 37/23/25 35/23/25 25/24/26 48/24/26
f 42/19/21 31/19/21 32/13/15 41/13/15
f 45/20/22 28/20/22 29/15/17 44/15/17
f 38/22/24 36/22/24 35/23/25 37/23/25
f 48/24/26 25/24/26 26/17/19 47/17/19
f 40/14/16 33/14/16 34/21/23 39/21/23
f 38/25/6 37/26/6 48/27/6 47/28/6 46/29/6 45/30/6 44/31/6 43/32/6 42/33/6 41/34/6 40/35/6 39/36/6
f 62/37/27 64/38/28 55/39/29 56/40/29
f 53/41/30 54/42/30 63/43/31 61/44/32
f 61/44/32 63/43/31 64/38/28 62/37/27
f 58/45/33 61/44/32 62/37/27 57/46/33
f 63/43/31 59/47/34 60/48/34 64/38/28
f 55/49/25 50/49/25 49/50/25 56/50/25
f 61/51/20 71/51/20 52/52/20 53/52/20
f 62/53/25 65/53/25 67/54/25 57/54/25
f 57/54/20 67/54/20 68/55/20 58/55/20
f 56/50/20 49/50/20 65/53/20 62/53/20
f 63/56/18 72/56/18 69/57/18 59/57/18
f 53/52/18 52/52/18 51/58/18 54/58/18
f 64/59/16 66/59/16 50/49/16 55/49/16
f 54/58/16 51/58/16 72/56/16 63/56/16
f 60/60/25 70/60/25 66/59/25 64/59/25
f 59/57/16 69/57/16 70/60/16 60/60/16
f 58/55/18 68/55/18 71/51/18 61/51/18
f 73/61/25 74/62/25 76/63/35 75/64/35
f 75/64/35 76/63/35 78/65/36 77/66/36
f 77/66/36 78/65/36 80/67/15 79/68/15
f 79/68/15 80/67/15 82/69/37 81/70/37
f 81/70/37 82/69/37 84/71/38 83/72/38
f 83/72/38 84/71/38 86/73/22 85/74/22
f 85/74/22 86/73/22 88/75/39 87/76/39
f 87/76/39 88/75/39 90/77/40 89/78/40
f 89/78/40 90/77/40 74/79/25 73/80/25
f 74/81/6 90/82/6 88/83/6 86/84/6 84/85/6 82/86/6 80/87/6 78/88/6 76/89/6
f 91/61/25 92/62/25 94/63/35 93/64/35
f 93/64/35 94/63/35 96/65/36 95/66/36
f 95/66/36 96/65/36 98/67/15 97/68/15
f 97/68/15 98/67/15 100/69/37 99/70/37
f 99/70/37 100/69/37 102/71/38 101/72/38
f 101/72/38 102/71/38 104/73/22 103/74/22
f 103/74/22 104/73/22 106/75/39 105/76/39
f 105/76/39 106/75/39 108/77/40 107/78/40
f 107/78/40 108/77/40 92/79/25 91/80/25
f 92/81/6 108/82/6 106/83/6 104/84/6 102/85/6 100/86/6 98/87/6 96/88/6 94/89/6
f 109/90/25 110/91/25 112/92/35 111/93/35
f 111/93/35 112/92/35 114/94/36 113/95/36
f 113/95/36 114/94/36 116/96/15 115/97/15
f 115/97/15 116/96/15 118/98/37 117/99/37
f 117/99/37 118/98/37 120/100/38 119/101/38
f 119/101/38 120/100/38 122/102/22 121/103/22
f 121/103/22 122/102/22 124/104/39 123/105/39
f 123/105/39 124/104/39 126/106/40 125/107/40
f 125/107/40 126/106/40 110/108/25 109/109/25
f 110/110/6 126/111/6 124/112/6 122/113/6 120/114/6 118/115/6 116/116/6 114/117/6 112/118/6
f 127/119/25 128/120/25 130/121/35 129/122/35
f 129/122/35 130/121/35 132/123/36 131/124/36
f 131/124/36 132/123/36 134/125/15 133/126/15
f 133/126/15 134/125/15 136/127/37 135/128/37
f 135/128/37 136/127/37 138/129/38 137/130/38
f 137/130/38 138/129/38 140/131/22 139/132/22
f 139/132/22 140/131/22 142/133/39 141/134/39
f 141/134/39 142/133/39 144/135/40 143/136/40
f 143/136/40 144/135/40 128/137/25 127/138/25
f 128/139/6 144/140/6 142/141/6 140/142/6 138/143/6 136/144/6 134/145/6 132/146/6 130/147/6
