# Blender 3.6.2
# www.blender.org
mtllib Console_Zbox_720.mtl
o Console_Zbox_720
v 0.060591 -0.003923 -0.217317
v 0.073740 -0.003923 -0.204195
v 0.063559 0.464405 -0.204189
v 0.050415 0.464405 -0.217317
v 0.060791 0.382370 -0.197033
v 0.047648 0.382370 -0.210160
v 0.044429 0.147484 -0.209810
v 0.057571 0.147484 -0.196684
v 0.050802 0.071781 -0.214730
v 0.063948 0.071781 -0.201607
v 0.044148 0.290812 -0.204670
v 0.057288 0.290812 -0.191543
v 0.056195 0.224780 -0.193330
v 0.030024 0.450142 0.178479
v 0.034426 0.443535 0.178479
v 0.043055 0.224780 -0.206458
v 0.012560 0.192248 0.205549
v 0.033139 0.448207 0.178479
v 0.034242 0.226980 0.178479
v 0.029848 0.187710 0.201883
v 0.034436 0.170588 0.202037
v 0.029829 0.220373 0.178479
v 0.017313 0.140933 0.202303
v 0.032948 0.222308 0.178479
v 0.022209 0.220373 0.178479
v 0.012560 0.149182 0.205935
v 0.017793 0.226980 0.178479
v -0.016933 0.140933 0.202303
v 0.019090 0.222308 0.178479
v -0.024713 0.170715 0.205742
v 0.017512 0.443535 0.178479
v 0.073735 -0.003923 0.198103
v 0.066496 -0.003923 0.205319
v 0.021911 0.450142 0.178479
v 0.018797 0.448207 0.178479
v 0.071615 -0.003923 0.203206
v 0.056323 0.464405 0.202719
v 0.063559 0.464405 0.195503
v 0.061440 0.464405 0.200606
v 0.053557 0.382370 0.202719
v 0.060793 0.382370 0.195503
v 0.058674 0.382370 0.200606
v 0.048966 0.226980 0.203266
v 0.056200 0.224780 0.196051
v 0.054081 0.224780 0.201153
v 0.057293 0.290812 0.195504
v 0.050059 0.290812 0.202719
v 0.055174 0.290812 0.200606
v 0.057574 0.147484 0.198103
v 0.050338 0.147484 0.205319
v 0.055454 0.147484 0.203205
v 0.063946 0.071781 0.198103
v 0.056709 0.071781 0.205319
v 0.061826 0.071781 0.203206
v 0.048064 0.470358 -0.208618
v 0.057638 0.470358 -0.195957
v 0.056094 0.470358 0.194191
v 0.052367 0.470358 0.196230
v 0.057638 0.470358 0.189270
v -0.060591 -0.003923 -0.217317
v -0.073740 -0.003923 -0.204195
v -0.063559 0.464405 -0.204189
v -0.050415 0.464405 -0.217317
v -0.060791 0.382370 -0.197033
v -0.047648 0.382370 -0.210160
v -0.044429 0.147484 -0.209810
v -0.057571 0.147484 -0.196684
v -0.050802 0.071781 -0.214730
v -0.063948 0.071781 -0.201607
v -0.044148 0.290812 -0.204670
v -0.057288 0.290812 -0.191543
v -0.056195 0.224780 -0.193330
v -0.043055 0.224780 -0.206458
v 0.000014 0.204832 0.201729
v 0.000014 0.195576 0.205519
v -0.017286 0.200244 0.201771
v -0.012600 0.192231 0.205549
v -0.029821 0.187710 0.201883
v -0.021623 0.183209 0.205630
v -0.034409 0.170588 0.202037
v -0.029821 0.153467 0.202191
v -0.021623 0.158222 0.205854
v -0.012600 0.149200 0.205935
v 0.000014 0.136345 0.202344
v 0.000014 0.145855 0.205965
v 0.029495 0.153467 0.202191
v 0.021345 0.158221 0.205854
v 0.024693 0.170715 0.205742
v 0.021345 0.183209 0.205630
v 0.016960 0.200244 0.201771
v -0.073735 -0.003923 0.198103
v -0.066496 -0.003923 0.205319
v -0.071615 -0.003923 0.203206
v -0.056323 0.464405 0.202719
v -0.063559 0.464405 0.195503
v -0.061440 0.464405 0.200606
v -0.053557 0.382370 0.202719
v -0.060793 0.382370 0.195503
v -0.058674 0.382370 0.200606
v -0.048966 0.226980 0.203266
v -0.056200 0.224780 0.196051
v -0.054081 0.224780 0.201153
v -0.057293 0.290812 0.195504
v -0.050059 0.290812 0.202719
v -0.055174 0.290812 0.200606
v -0.057574 0.147484 0.198103
v -0.050338 0.147484 0.205319
v -0.055454 0.147484 0.203205
v -0.063946 0.071781 0.198103
v -0.056709 0.071781 0.205319
v -0.061826 0.071781 0.203206
v -0.048064 0.470358 -0.208618
v -0.057638 0.470358 -0.195957
v -0.056094 0.470358 0.194191
v -0.052367 0.470358 0.196230
v -0.057638 0.470358 0.189270
v -0.036014 0.122561 0.211600
v -0.042608 0.119312 0.211600
v -0.040682 0.121609 0.211600
v -0.042188 0.012822 0.211600
v -0.035568 0.009573 0.211600
v -0.040244 0.010525 0.211600
v -0.017254 0.119312 0.211600
v -0.023853 0.122561 0.211600
v -0.019183 0.121609 0.211600
v -0.024145 0.009573 0.211600
v -0.017529 0.012822 0.211600
v -0.019470 0.010525 0.211600
v -0.023853 0.122561 0.203224
v -0.017254 0.119312 0.203224
v -0.019183 0.121609 0.203224
v -0.017529 0.012822 0.203224
v -0.024145 0.009573 0.203224
v -0.019470 0.010525 0.203224
v -0.035568 0.009573 0.203224
v -0.042188 0.012822 0.203224
v -0.040244 0.010525 0.203224
v -0.042608 0.119312 0.203224
v -0.036014 0.122561 0.203224
v -0.040682 0.121609 0.203224
v 0.000014 0.204958 0.207279
v 0.017313 0.200371 0.207320
v 0.017313 0.141060 0.207853
v 0.000014 0.136472 0.207894
v -0.017286 0.200371 0.207320
v -0.029821 0.187837 0.207433
v -0.029821 0.153594 0.207740
v -0.017286 0.141060 0.207853
v 0.029495 0.153594 0.207740
v 0.034083 0.170715 0.207587
v 0.029495 0.187837 0.207433
v -0.034056 0.170715 0.207587
v 0.017710 0.290812 0.202719
v 0.034297 0.290812 0.202719
v 0.034374 0.382370 0.202719
v 0.017591 0.382370 0.202719
v 0.017793 0.226980 0.203248
v 0.034242 0.226980 0.203248
v 0.022209 0.220373 0.203383
v 0.019090 0.222308 0.203332
v 0.029829 0.220373 0.203383
v 0.032948 0.222308 0.203332
v 0.034426 0.443535 0.202719
v 0.033139 0.448207 0.202719
v 0.017512 0.443535 0.202719
v 0.018797 0.448207 0.202719
v 0.030024 0.450142 0.202719
v 0.021911 0.450142 0.202719
v 0.017592 0.382370 0.178479
v 0.034372 0.382370 0.178479
v 0.017719 0.290812 0.178479
v 0.034290 0.290812 0.178479
v 0.028636 0.447010 0.199255
v 0.031522 0.440584 0.199255
v 0.030678 0.445128 0.199255
v 0.031402 0.229949 0.199255
v 0.028508 0.223523 0.199255
v 0.030553 0.225405 0.199255
v 0.023512 0.223523 0.199255
v 0.020617 0.229949 0.199255
v 0.021467 0.225405 0.199255
v 0.020433 0.440584 0.199255
v 0.023317 0.447010 0.199255
v 0.021275 0.445128 0.199255
v 0.023512 0.223523 0.173064
v 0.021467 0.225405 0.173064
v 0.028636 0.447010 0.173064
v 0.030678 0.445128 0.173064
v 0.028508 0.223523 0.173064
v 0.030553 0.225405 0.173064
v 0.023317 0.447010 0.173064
v 0.021275 0.445128 0.173064
v 0.031522 0.440584 0.173064
v 0.031402 0.229949 0.173064
v 0.020617 0.229949 0.173064
v 0.020433 0.440584 0.173064
vn 0.9803 -0.0331 0.1947
vn 0.9801 -0.0353 0.1954
vn 0.9994 -0.0359 -0.0000
vn 0.9994 -0.0337 -0.0000
vn -0.2097 0.0271 0.9774
vn 0.2097 0.0271 0.9774
vn 0.1918 0.0202 0.9812
vn -0.1918 0.0202 0.9812
vn -0.0000 1.0000 -0.0000
vn 0.9804 -0.0261 0.1952
vn 0.9996 -0.0275 -0.0000
vn 0.9752 0.1043 0.1951
vn 0.9735 0.1259 0.1911
vn 0.9917 0.1283 -0.0000
vn 0.9943 0.1068 -0.0000
vn 0.9808 0.0040 0.1948
vn 1.0000 0.0010 -0.0000
vn -0.0000 0.0352 -0.9994
vn -0.0000 -0.0172 -0.9999
vn 0.6308 0.7623 0.1449
vn 0.5279 0.8080 -0.2615
vn 0.6237 0.7694 -0.1377
vn 0.6716 0.7372 0.0743
vn -0.1918 0.0223 0.9812
vn 0.1918 0.0223 0.9812
vn -0.0000 -0.0000 1.0000
vn -0.1949 -0.0070 0.9808
vn -0.1935 -0.0012 0.9811
vn 0.0001 0.0042 1.0000
vn -0.0003 0.0042 1.0000
vn 0.1934 -0.0012 0.9811
vn 0.1949 -0.0070 0.9808
vn -0.0000 0.0485 -0.9988
vn -0.0000 0.0544 -0.9985
vn -0.1940 0.0152 0.9809
vn 0.0001 0.0179 0.9998
vn 0.1939 0.0152 0.9809
vn -0.0003 0.0179 0.9998
vn -0.0000 0.0260 0.9997
vn 0.9789 0.0527 0.1977
vn 0.9986 0.0520 -0.0000
vn -0.0000 -0.0737 -0.9973
vn 0.7022 0.1100 -0.7034
vn 0.7018 0.1148 -0.7031
vn 0.7022 0.1097 -0.7034
vn 0.7041 -0.0852 -0.7050
vn 0.7046 -0.0771 -0.7054
vn 0.7046 -0.0774 -0.7054
vn 0.7047 0.0741 -0.7056
vn 0.7047 0.0742 -0.7056
vn 0.7064 -0.0311 -0.7071
vn 0.7065 0.0251 -0.7072
vn 0.7065 0.0256 -0.7072
vn 0.7064 -0.0308 -0.7071
vn -0.1996 0.8484 -0.4904
vn -0.2355 0.8484 -0.4741
vn 0.2355 0.8484 -0.4741
vn 0.1996 0.8484 -0.4904
vn 0.0013 0.9996 -0.0271
vn 0.2587 0.9655 -0.0303
vn 0.7071 0.7070 -0.0162
vn 0.9643 0.2589 0.0555
vn 0.9628 -0.2676 0.0368
vn 0.8679 -0.4960 0.0273
vn 0.8660 -0.4993 0.0271
vn 0.7171 -0.6968 0.0159
vn 0.2563 -0.9663 0.0221
vn -0.0013 -0.9998 0.0186
vn -0.5057 -0.8627 0.0036
vn -0.4882 -0.8727 0.0044
vn -0.7021 -0.7121 -0.0061
vn -0.9678 -0.2490 0.0365
vn -0.9995 0.0025 0.0318
vn -0.9995 -0.0019 0.0319
vn -0.9680 0.2496 0.0251
vn 0.0563 -0.0890 0.9944
vn 0.0985 -0.0467 0.9940
vn 0.1121 0.0089 0.9937
vn 0.0984 0.0644 0.9931
vn 0.0562 0.1065 0.9927
vn -0.0000 0.1214 0.9926
vn -0.0570 0.1063 0.9927
vn -0.0978 0.0644 0.9931
vn -0.1128 0.0089 0.9936
vn -0.0979 -0.0467 0.9941
vn -0.0571 -0.0888 0.9944
vn -0.0000 -0.1040 0.9946
vn -0.0000 0.0341 -0.9994
vn 0.1986 -0.0067 0.9801
vn 0.3818 -0.0137 0.9242
vn 0.3817 -0.0129 0.9242
vn 0.9231 -0.0311 0.3834
vn 0.9230 -0.0332 0.3834
vn 0.3812 0.0493 0.9232
vn 0.3814 0.0412 0.9235
vn 0.9191 0.0975 0.3818
vn 0.9169 0.1186 0.3810
vn 0.3844 0.0315 0.9226
vn 0.9223 0.0519 0.3830
vn 0.3854 0.0196 0.9226
vn 0.3820 -0.0068 0.9242
vn 0.9233 -0.0236 0.3834
vn 0.9235 0.0074 0.3835
vn -0.0000 -0.0869 -0.9962
vn 0.1132 0.7707 0.6271
vn -0.1132 0.7707 0.6271
vn -0.1550 0.7800 0.6063
vn 0.1550 0.7800 0.6063
vn 0.4241 0.8116 0.4018
vn 0.4470 0.8106 0.3784
vn -0.1986 -0.0067 0.9801
vn -0.9803 -0.0331 0.1947
vn -0.9994 -0.0337 -0.0000
vn -0.9994 -0.0359 -0.0000
vn -0.9801 -0.0353 0.1954
vn -0.9996 -0.0275 -0.0000
vn -0.9804 -0.0261 0.1952
vn -0.9752 0.1043 0.1951
vn -0.9943 0.1068 -0.0000
vn -0.9917 0.1283 -0.0000
vn -0.9735 0.1259 0.1911
vn -1.0000 0.0010 -0.0000
vn -0.9808 0.0040 0.1948
vn -0.6308 0.7623 0.1449
vn -0.6716 0.7372 0.0743
vn -0.6237 0.7694 -0.1377
vn -0.5279 0.8080 -0.2615
vn -0.9986 0.0520 -0.0000
vn -0.9789 0.0527 0.1977
vn -0.7022 0.1100 -0.7034
vn -0.7022 0.1097 -0.7034
vn -0.7018 0.1148 -0.7031
vn -0.7041 -0.0852 -0.7050
vn -0.7046 -0.0774 -0.7054
vn -0.7046 -0.0771 -0.7054
vn -0.7047 0.0741 -0.7056
vn -0.7047 0.0742 -0.7056
vn -0.7064 -0.0311 -0.7071
vn -0.7064 -0.0308 -0.7071
vn -0.7065 0.0256 -0.7072
vn -0.7065 0.0251 -0.7072
vn -0.2563 0.9663 -0.0221
vn -0.7071 0.7070 -0.0162
vn -0.3817 -0.0129 0.9242
vn -0.3818 -0.0137 0.9242
vn -0.9231 -0.0311 0.3834
vn -0.9230 -0.0332 0.3834
vn -0.3814 0.0412 0.9235
vn -0.3812 0.0493 0.9232
vn -0.9191 0.0975 0.3818
vn -0.9169 0.1186 0.3810
vn -0.3844 0.0315 0.9226
vn -0.9223 0.0519 0.3830
vn -0.3820 -0.0068 0.9242
vn -0.3854 0.0196 0.9226
vn -0.9233 -0.0236 0.3834
vn -0.9235 0.0074 0.3835
vn -0.4241 0.8116 0.4018
vn -0.4470 0.8106 0.3784
vn -0.0000 -1.0000 -0.0000
vn 0.1002 -0.9950 -0.0000
vn -0.1002 -0.9950 -0.0000
vn 1.0000 -0.0026 -0.0000
vn -1.0000 -0.0039 -0.0000
vn -0.1994 -0.9799 -0.0000
vn -0.7633 -0.6460 -0.0000
vn 0.1995 -0.9799 -0.0000
vn 0.7639 -0.6454 -0.0000
vn 0.1003 0.9950 -0.0000
vn 0.1997 0.9799 -0.0000
vn 0.7658 0.6431 -0.0000
vn -0.7663 0.6425 -0.0000
vn -0.1997 0.9798 -0.0000
vn -0.1004 0.9949 -0.0000
vn -0.0973 -0.1574 0.9827
vn -0.0000 -0.1844 0.9829
vn -0.0000 0.2014 0.9795
vn -0.0970 0.1746 0.9799
vn 0.0963 -0.1584 0.9827
vn 0.1676 -0.0857 0.9821
vn 0.1673 0.1033 0.9805
vn 0.0960 0.1756 0.9798
vn -0.1678 0.1041 0.9803
vn -0.1928 0.0089 0.9812
vn -0.1681 -0.0866 0.9820
vn 0.1937 0.0088 0.9810
vn -0.9910 -0.1336 -0.0000
vn -1.0000 0.0009 0.0001
vn 0.9906 0.1367 0.0001
vn 0.9908 0.1356 0.0001
vn 1.0000 0.0013 0.0002
vn 0.5272 0.8497 -0.0000
vn 0.9636 0.2675 -0.0000
vn -0.5273 0.8497 -0.0000
vn -0.9907 0.1363 0.0001
vn -0.9908 0.1352 0.0001
vn -0.9637 0.2671 -0.0000
vn -0.5277 -0.8494 -0.0000
vn -0.9641 -0.2656 -0.0000
vn 0.9911 -0.1332 -0.0000
vn 0.9911 -0.1331 -0.0000
vn 0.9642 -0.2652 -0.0000
vn 0.5278 -0.8494 -0.0000
vn 1.0000 0.0013 0.0001
vn -1.0000 0.0008 0.0002
vn -0.9957 -0.0928 -0.0000
vn -0.9829 -0.1839 -0.0000
vn 0.6773 -0.7357 -0.0000
vn -0.9958 0.0911 -0.0000
vn -0.9832 0.1823 -0.0000
vn -0.6778 0.7353 -0.0000
vn 0.9957 -0.0925 -0.0000
vn 0.9958 0.0914 -0.0000
vn 0.9832 0.1826 -0.0000
vn -0.6772 -0.7358 -0.0000
vn 0.9830 -0.1837 -0.0000
vn 0.6777 0.7353 -0.0000
vt 0.796105 0.965920
vt 0.796107 0.964767
vt 0.800896 0.964767
vt 0.800898 0.965939
vt 0.799094 0.960077
vt 0.799010 0.961249
vt 0.799228 0.960516
vt 0.799095 0.960491
vt 0.799289 0.960576
vt 0.799694 0.965370
vt 0.799281 0.965524
vt 0.796107 0.964761
vt 0.796109 0.963996
vt 0.800891 0.963996
vt 0.796105 0.961249
vt 0.796105 0.960102
vt 0.800898 0.960077
vt 0.800898 0.961249
vt 0.796109 0.963994
vt 0.796108 0.963330
vt 0.800892 0.963330
vt 0.963141 0.959617
vt 0.963153 0.960426
vt 0.798941 0.962422
vt 0.798990 0.964767
vt 0.798938 0.963996
vt 0.798938 0.963996
vt 0.963220 0.957090
vt 0.963156 0.958514
vt 0.798924 0.963330
vt 0.798925 0.963352
vt 0.798925 0.963301
vt 0.798925 0.963278
vt 0.796106 0.962424
vt 0.800896 0.962422
vt 0.963202 0.961363
vt 0.963686 0.960240
vt 0.963686 0.958816
vt 0.963874 0.958847
vt 0.963874 0.960240
vt 0.963686 0.965937
vt 0.963683 0.964513
vt 0.963874 0.964513
vt 0.963874 0.965914
vt 0.963684 0.961664
vt 0.963874 0.960261
vt 0.963874 0.961664
vt 0.963678 0.963576
vt 0.963678 0.962767
vt 0.963874 0.962767
vt 0.963874 0.963574
vt 0.963874 0.961667
vt 0.963874 0.963576
vt 0.963874 0.964506
vt 0.799281 0.965939
vt 0.796106 0.962422
vt 0.796105 0.961266
vt 0.802027 0.960346
vt 0.802027 0.965141
vt 0.801628 0.965141
vt 0.801628 0.960346
vt 0.801228 0.965141
vt 0.801228 0.960346
vt 0.800829 0.965141
vt 0.800829 0.960346
vt 0.800429 0.965141
vt 0.800429 0.960346
vt 0.800030 0.965141
vt 0.800030 0.960346
vt 0.799630 0.965141
vt 0.799630 0.960346
vt 0.799231 0.965141
vt 0.799231 0.960346
vt 0.798831 0.965141
vt 0.798831 0.960346
vt 0.798431 0.965141
vt 0.798431 0.960346
vt 0.798032 0.965141
vt 0.798032 0.960346
vt 0.114986 0.711536
vt 0.116623 0.711535
vt 0.119065 0.711535
vt 0.121678 0.711535
vt 0.124383 0.711536
vt 0.127158 0.711535
vt 0.129901 0.711535
vt 0.132477 0.711535
vt 0.134881 0.711536
vt 0.136495 0.711536
vt 0.133348 0.711536
vt 0.118225 0.711536
vt 0.963297 0.955666
vt 0.799095 0.965939
vt 0.799203 0.964767
vt 0.799281 0.965935
vt 0.796020 0.965916
vt 0.796020 0.964767
vt 0.799281 0.960081
vt 0.799218 0.961249
vt 0.796020 0.961249
vt 0.796020 0.960107
vt 0.799218 0.961254
vt 0.799165 0.962422
vt 0.796020 0.962422
vt 0.796020 0.961271
vt 0.799153 0.963330
vt 0.799163 0.963996
vt 0.796020 0.963994
vt 0.796020 0.963330
vt 0.799165 0.962423
vt 0.796020 0.962425
vt 0.799203 0.964765
vt 0.796020 0.964760
vt 0.796020 0.963996
vt 0.963297 0.962787
vt 0.799068 0.965641
vt 0.799074 0.965708
vt 0.799076 0.965735
vt 0.799076 0.965735
vt 0.799074 0.965708
vt 0.801053 0.965920
vt 0.799094 0.960491
vt 0.799228 0.960516
vt 0.799288 0.960576
vt 0.799694 0.965370
vt 0.799281 0.965524
vt 0.207943 0.961662
vt 0.211483 0.961662
vt 0.796227 0.965917
vt 0.797353 0.965925
vt 0.799650 0.965934
vt 0.800776 0.965935
vt 0.800898 0.965905
vt 0.800896 0.964800
vt 0.800770 0.964770
vt 0.799611 0.964767
vt 0.797391 0.964767
vt 0.796232 0.964770
vt 0.796107 0.964800
vt 0.796105 0.965887
vt 0.205893 0.963448
vt 0.205896 0.961715
vt 0.213530 0.961715
vt 0.213534 0.963477
vt 0.213330 0.961667
vt 0.213530 0.961662
vt 0.205896 0.961662
vt 0.206096 0.961667
vt 0.207882 0.963508
vt 0.206087 0.963496
vt 0.205893 0.963501
vt 0.213339 0.963525
vt 0.213534 0.963531
vt 0.211544 0.963523
vt 0.798527 0.965141
vt 0.800334 0.965141
vt 0.797233 0.965141
vt 0.799923 0.965141
vt 0.799595 0.965141
vt 0.798141 0.965141
vt 0.797632 0.965141
vt 0.798336 0.965141
vt 0.799263 0.965141
vt 0.798940 0.965141
vt 0.800518 0.965141
vt 0.800230 0.965141
vt 0.800710 0.965141
vt 0.798628 0.965141
vt 0.207943 0.961662
vt 0.211483 0.961662
vt 0.205894 0.962935
vt 0.205894 0.962958
vt 0.213531 0.962179
vt 0.213531 0.962234
vt 0.213417 0.961665
vt 0.213477 0.961692
vt 0.206010 0.961665
vt 0.207882 0.963508
vt 0.206000 0.963498
vt 0.213426 0.963527
vt 0.213533 0.962977
vt 0.213533 0.962979
vt 0.205895 0.962163
vt 0.205895 0.962225
s 1
usemtl palette
f 38/1/1 41/2/2 5/3/3 3/4/4
f 92/5/5 33/5/6 53/6/7 110/6/8
f 114/7/9 115/8/9 58/8/9 57/7/9 59/9/9 56/10/9 55/11/9 112/11/9 113/10/9 116/9/9
f 41/12/2 46/13/10 12/14/11 5/3/3
f 52/15/12 32/16/13 2/17/14 10/18/15
f 46/19/10 44/20/16 13/21/17 12/14/11
f 16/22/18 73/22/18 70/23/19 11/23/19
f 38/1/20 3/4/21 56/4/22 59/1/23
f 107/24/24 110/6/8 53/6/7 50/24/25
f 156/25/26 97/25/27 104/26/28 153/27/29
f 154/26/30 47/26/31 40/25/32 155/25/26
f 9/28/33 68/28/33 66/29/34 7/29/34
f 153/27/29 104/26/28 100/30/35 157/31/36
f 43/30/37 47/26/31 154/26/30 158/30/38
f 7/29/34 66/29/34 73/22/18 16/22/18
f 157/30/36 100/30/35 107/24/24 50/24/25 43/30/37 158/30/38 162/32/39 161/33/39 159/33/39 160/32/39
f 44/20/16 49/34/40 8/35/41 13/21/17
f 11/23/19 70/23/19 65/36/42 6/36/42
f 10/37/43 2/38/44 1/39/44 9/40/45
f 3/41/46 5/42/47 6/43/48 4/44/46
f 8/45/49 10/37/43 9/46/45 7/47/50
f 12/48/51 13/49/52 16/50/53 11/51/54
f 7/52/50 16/50/53 13/49/52 8/45/49
f 11/53/54 6/54/48 5/42/47 12/48/51
f 63/55/55 112/55/56 55/55/57 4/55/58
f 49/56/40 52/57/12 10/18/15 8/35/41
f 74/58/59 141/59/59 142/60/60 90/61/60
f 90/61/61 142/60/61 151/62/61 20/63/61
f 20/63/62 151/62/62 150/64/62 21/65/62
f 21/65/63 150/64/63 149/66/64 86/67/65
f 86/67/65 149/66/64 143/68/66 23/69/66
f 23/69/67 143/68/67 144/70/68 84/71/68
f 84/71/68 144/70/68 148/72/69 28/73/70
f 28/73/70 148/72/69 147/74/71 81/75/71
f 81/75/72 147/74/72 152/76/73 80/77/74
f 80/77/74 152/76/73 146/78/75 78/79/75
f 77/80/76 79/81/77 30/82/78 82/83/79 83/84/80 85/85/81 26/86/82 87/87/83 88/88/84 89/89/85 17/90/86 75/91/87
f 1/92/88 60/92/88 68/28/33 9/28/33
f 37/93/89 40/25/32 42/94/90 39/95/91
f 39/96/92 42/97/93 41/2/2 38/1/1
f 53/6/7 33/5/6 36/98/94 54/99/95
f 54/100/96 36/101/97 32/16/13 52/15/12
f 50/24/25 53/6/7 54/102/95 51/103/98
f 51/104/99 54/105/96 52/57/12 49/56/40
f 47/26/31 43/30/37 45/106/100 48/107/101
f 48/108/102 45/109/103 44/20/16 46/19/10
f 43/30/37 50/24/25 51/110/98 45/106/100
f 45/109/103 51/111/99 49/34/40 44/20/16
f 40/25/32 47/26/31 48/107/101 42/112/90
f 42/113/93 48/114/102 46/13/10 41/12/2
f 6/36/42 65/36/42 63/115/104 4/115/104
f 58/93/105 115/93/106 94/93/107 37/93/108
f 39/96/109 38/1/20 59/1/23 57/96/110
f 40/25/32 37/93/89 94/93/111 97/25/27 156/25/26 165/116/26 166/117/26 168/118/26 167/119/26 164/120/26 163/116/26 155/25/26
f 37/93/108 39/95/109 57/95/110 58/93/105
f 3/4/21 4/121/58 55/121/57 56/4/22
f 95/1/112 62/4/113 64/3/114 98/2/115
f 98/12/115 64/3/114 71/14/116 103/13/117
f 109/15/118 69/18/119 61/17/120 91/16/121
f 103/19/117 71/14/116 72/21/122 101/20/123
f 95/1/124 116/1/125 113/4/126 62/4/127
f 101/20/123 72/21/122 67/35/128 106/34/129
f 69/37/130 68/40/131 60/39/132 61/38/132
f 62/41/133 63/44/133 65/43/134 64/42/135
f 67/45/136 66/47/137 68/46/131 69/37/130
f 71/48/138 70/51/139 73/50/140 72/49/141
f 66/52/137 67/45/136 72/49/141 73/50/140
f 70/53/139 71/48/138 64/42/135 65/54/134
f 106/56/129 67/35/128 69/18/119 109/57/118
f 74/58/59 76/61/142 145/60/142 141/59/59
f 76/61/143 78/63/143 146/62/143 145/60/143
f 94/93/111 96/95/144 99/94/145 97/25/27
f 96/96/146 95/1/112 98/2/115 99/97/147
f 110/6/8 111/99/148 93/98/149 92/5/5
f 111/100/150 109/15/118 91/16/121 93/101/151
f 107/24/24 108/103/152 111/102/148 110/6/8
f 108/104/153 106/56/129 109/57/118 111/105/150
f 104/26/28 105/107/154 102/106/155 100/30/35
f 105/108/156 103/19/117 101/20/123 102/109/157
f 100/30/35 102/106/155 108/110/152 107/24/24
f 102/109/157 101/20/123 106/34/129 108/111/153
f 97/25/27 99/112/145 105/107/154 104/26/28
f 99/113/147 98/12/115 103/13/117 105/114/156
f 96/96/158 114/96/159 116/1/125 95/1/124
f 94/93/107 115/93/106 114/95/159 96/95/158
f 62/4/127 113/4/126 112/121/56 63/121/55
f 92/122/160 93/123/160 91/124/160 61/125/160 60/126/160 1/126/160 2/125/160 32/124/160 36/123/160 33/122/160
f 126/127/161 121/128/162 135/128/162 133/127/161
f 125/129/26 124/130/26 117/131/26 119/132/26 118/133/26 120/134/26 122/135/26 121/136/26 126/137/26 128/138/26 127/139/26 123/140/26
f 123/141/163 127/142/163 132/142/163 130/141/163
f 120/143/164 118/144/164 138/144/164 136/143/164
f 135/128/162 121/128/162 122/145/165 137/146/165
f 137/146/166 122/145/166 120/143/166 136/143/166
f 126/127/161 133/127/161 134/147/167 128/148/167
f 128/148/168 134/147/168 132/142/168 127/142/168
f 129/149/169 124/149/169 125/150/170 131/151/170
f 131/151/171 125/150/171 123/141/171 130/141/171
f 138/144/172 118/144/172 119/152/172 140/153/172
f 140/153/173 119/152/173 117/154/174 139/154/174
f 117/154/174 124/149/169 129/149/169 139/154/174
f 75/155/87 17/156/86 142/60/175 141/157/176
f 26/158/82 85/159/81 144/70/177 143/68/178
f 77/160/76 75/155/87 141/157/176 145/161/179
f 79/162/77 77/160/76 145/161/179 146/78/180
f 83/163/80 82/164/79 147/74/181 148/72/182
f 85/159/81 83/163/80 148/72/182 144/70/177
f 88/165/84 87/166/83 149/66/183 150/64/184
f 89/167/85 88/165/84 150/64/184 151/62/185
f 17/156/86 89/167/85 151/62/185 142/60/175
f 87/166/83 26/158/82 143/68/178 149/66/183
f 82/164/79 30/168/78 152/76/186 147/74/181
f 30/168/78 79/162/77 146/78/180 152/76/186
f 161/169/9 22/127/9 25/128/9 159/170/9
f 163/141/187 15/141/187 170/171/188 155/172/188
f 157/143/189 27/143/190 171/173/191 153/174/191
f 159/170/192 25/128/192 29/146/192 160/175/192
f 29/146/193 27/143/190 157/176/189 160/175/193
f 162/177/194 24/147/194 22/127/194 161/169/194
f 158/142/195 19/142/196 24/147/197 162/177/197
f 167/178/198 14/149/198 18/151/198 164/179/198
f 164/179/199 18/151/199 15/141/187 163/141/187
f 165/144/200 31/144/201 35/153/202 166/180/202
f 166/180/203 35/153/203 34/154/203 168/154/203
f 168/154/160 34/154/160 14/149/160 167/178/160
f 14/149/26 34/154/26 35/153/26 31/144/26 169/181/26 170/171/26 15/141/26 18/151/26
f 174/141/26 175/151/26 173/149/26 183/154/26 184/153/26 182/144/26 180/143/26 181/146/26 179/128/26 177/127/26 178/147/26 176/142/26
f 156/182/204 169/181/204 31/144/201 165/144/200
f 155/172/188 170/171/188 172/183/205 154/184/205
f 170/171/26 169/181/26 171/173/26 172/183/26
f 153/174/191 171/173/191 169/181/204 156/182/204
f 172/183/26 171/173/26 27/143/26 29/146/26 25/128/26 22/127/26 24/147/26 19/142/26
f 154/184/205 172/183/205 19/142/196 158/142/195
f 180/143/206 195/143/206 186/146/207 181/146/207
f 177/127/208 189/127/208 190/147/208 178/147/208
f 182/144/209 196/144/209 195/143/206 180/143/206
f 179/128/160 185/128/160 189/127/160 177/127/160
f 184/153/210 192/153/210 196/144/209 182/144/209
f 173/149/9 187/149/9 191/154/9 183/154/9
f 183/154/211 191/154/211 192/153/211 184/153/211
f 176/142/212 194/142/212 193/141/213 174/141/213
f 174/141/213 193/141/213 188/151/214 175/151/214
f 181/146/215 186/146/215 185/128/215 179/128/215
f 178/147/216 190/147/216 194/142/212 176/142/212
f 175/151/217 188/151/217 187/149/217 173/149/217
