# Blender 3.6.2
# www.blender.org
mtllib Desk_Mechanical_Base.mtl
o Desk_Mechanical_Base
v 1.060067 0.000000 0.261670
v 1.060067 0.000000 -0.261670
v 1.157413 0.000000 0.261670
v 1.157413 0.000000 -0.261670
v 1.060067 0.091611 0.220871
v 1.060067 0.050812 0.261670
v 1.060067 0.050812 -0.261670
v 1.060067 0.091611 -0.220871
v 1.157413 0.050812 0.261670
v 1.157413 0.091611 0.220871
v 1.157413 0.091611 -0.220871
v 1.157413 0.050812 -0.261670
v 1.089929 0.081573 0.061491
v 1.089929 0.586300 0.061491
v 1.089929 0.081573 -0.063840
v 1.089929 0.586300 -0.063840
v 1.127548 0.081573 0.061491
v 1.127548 0.586300 0.061491
v 1.127548 0.586300 -0.063840
v 1.127548 0.081573 -0.063840
v 1.060067 0.043627 -0.181817
v 1.157413 0.043627 -0.181817
v 1.060067 0.043627 0.181817
v 1.157413 0.043627 0.181817
v 1.060067 0.000000 -0.181817
v 1.157413 0.000000 -0.181817
v 1.157413 0.000000 0.181817
v 1.060067 0.000000 0.181817
v -1.060067 0.000000 0.261670
v -1.060067 0.000000 -0.261670
v -1.157413 0.000000 0.261670
v -1.157413 0.000000 -0.261670
v -1.060067 0.091611 0.220871
v -1.060067 0.050812 0.261670
v -1.060067 0.050812 -0.261670
v -1.060067 0.091611 -0.220871
v -1.157413 0.050812 0.261670
v -1.157413 0.091611 0.220871
v -1.157413 0.091611 -0.220871
v -1.157413 0.050812 -0.261670
v -1.089929 0.081573 0.061491
v -1.089929 0.586300 0.061491
v -1.089929 0.081573 -0.063840
v -1.089929 0.586300 -0.063840
v -1.127548 0.081573 0.061491
v -1.127548 0.586300 0.061491
v -1.127548 0.586300 -0.063840
v -1.127548 0.081573 -0.063840
v -1.060067 0.043627 -0.181817
v -1.157413 0.043627 -0.181817
v -1.060067 0.043627 0.181817
v -1.157413 0.043627 0.181817
v -1.060067 0.000000 -0.181817
v -1.157413 0.000000 -0.181817
v -1.157413 0.000000 0.181817
v -1.060067 0.000000 0.181817
vn -0.0000 -0.0000 1.0000
vn -0.0000 -1.0000 -0.0000
vn 1.0000 -0.0000 -0.0000
vn -0.0000 -0.0000 -1.0000
vn -0.0000 1.0000 -0.0000
vn -0.0000 0.7071 0.7071
vn -0.0000 0.7071 -0.7071
vn -1.0000 -0.0000 -0.0000
vt 0.715818 0.961024
vt 0.715818 0.961024
vt 0.715817 0.961024
vt 0.715818 0.961025
vt 0.715817 0.961024
vt 0.715818 0.961214
s 0
usemtl palette
f 6/1/1 1/1/1 3/1/1 9/1/1
f 2/1/2 4/1/2 26/2/2 25/2/2
f 9/1/3 3/1/3 27/2/3 24/3/3 22/4/3 26/2/3 4/1/3 12/1/3 11/1/3 10/1/3
f 12/1/4 4/1/4 2/1/4 7/1/4
f 8/1/5 5/1/5 10/1/5 11/1/5
f 5/1/6 6/1/6 9/1/6 10/1/6
f 11/1/7 12/1/7 7/1/7 8/1/7
f 7/1/8 2/1/8 25/2/8 21/5/8 23/4/8 28/2/8 1/1/8 6/1/8 5/1/8 8/1/8
f 13/1/8 14/6/8 16/6/8 15/1/8
f 17/1/3 20/1/3 19/6/3 18/6/3
f 13/1/1 17/1/1 18/6/1 14/6/1
f 16/6/4 19/6/4 20/1/4 15/1/4
f 16/6/5 14/6/5 18/6/5 19/6/5
f 24/3/4 27/2/4 28/2/4 23/4/4
f 23/4/2 21/5/2 22/4/2 24/3/2
f 28/2/2 27/2/2 3/1/2 1/1/2
f 21/5/1 25/2/1 26/2/1 22/4/1
f 34/1/1 37/1/1 31/1/1 29/1/1
f 30/1/2 53/2/2 54/2/2 32/1/2
f 37/1/8 38/1/8 39/1/8 40/1/8 32/1/8 54/2/8 50/4/8 52/3/8 55/2/8 31/1/8
f 40/1/4 35/1/4 30/1/4 32/1/4
f 36/1/5 39/1/5 38/1/5 33/1/5
f 33/1/6 38/1/6 37/1/6 34/1/6
f 39/1/7 36/1/7 35/1/7 40/1/7
f 35/1/3 36/1/3 33/1/3 34/1/3 29/1/3 56/2/3 51/4/3 49/5/3 53/2/3 30/1/3
f 41/1/3 43/1/3 44/6/3 42/6/3
f 45/1/8 46/6/8 47/6/8 48/1/8
f 41/1/1 42/6/1 46/6/1 45/1/1
f 44/6/4 43/1/4 48/1/4 47/6/4
f 44/6/5 47/6/5 46/6/5 42/6/5
f 52/3/4 51/4/4 56/2/4 55/2/4
f 51/4/2 52/3/2 50/4/2 49/5/2
f 56/2/2 29/1/2 31/1/2 55/2/2
f 49/5/1 50/4/1 54/2/1 53/2/1
