# Blender 3.6.2
# www.blender.org
mtllib Desk_Mechanical_Top.mtl
o Desk_Mechanical_Top
v 1.176559 0.458898 -0.372652
v 1.176559 0.458898 0.499965
v 1.097095 -0.093081 0.054244
v 1.097095 0.420268 0.054244
v 1.097095 -0.093081 -0.056592
v 1.097095 0.420268 -0.056592
v 1.176559 0.403228 -0.372652
v 1.120381 -0.093081 0.054244
v 1.120381 0.420268 0.054244
v 1.120381 0.420268 -0.056592
v 1.120381 -0.093081 -0.056592
v 1.176559 0.423827 0.499965
v 1.176559 0.403228 0.274532
v -1.176559 0.458898 -0.372652
v -1.176559 0.458898 0.499965
v -1.097095 -0.093081 0.054244
v -1.097095 0.420268 0.054244
v -1.097095 -0.093081 -0.056592
v -1.097095 0.420268 -0.056592
v -1.176559 0.403228 -0.372652
v -1.120381 -0.093081 0.054244
v -1.120381 0.420268 0.054244
v -1.120381 0.420268 -0.056592
v -1.120381 -0.093081 -0.056592
v -1.176559 0.423827 0.499965
v -1.176559 0.403228 0.274532
v 1.199333 0.400639 0.446207
v 1.199333 0.445309 0.446207
v 1.199333 0.445309 0.367670
v 1.199333 0.386489 0.367670
v 1.157092 0.400639 0.446207
v 1.157092 0.445309 0.446207
v 1.112974 0.445309 0.367670
v 1.112974 0.386489 0.367670
v 1.190263 0.408956 0.398368
v 1.204249 0.418781 0.415455
v 1.190263 0.408956 0.415455
v 1.190263 0.418781 0.415455
v 1.190263 0.418781 0.398368
v 1.204249 0.418781 0.398368
v 1.204249 0.408956 0.415455
v 1.204249 0.408956 0.398368
v 1.204249 0.425269 0.398368
v 1.204249 0.425269 0.415455
v 1.204249 0.435093 0.398368
v 1.190263 0.435093 0.398368
v 1.190263 0.435093 0.415455
v 1.190263 0.425269 0.415455
v 1.204249 0.435093 0.415455
v 1.190263 0.425269 0.398368
vn -1.0000 -0.0000 -0.0000
vn -0.0000 -0.0000 -1.0000
vn -0.0000 -0.9959 0.0910
vn -0.0000 -0.0000 1.0000
vn 1.0000 -0.0000 -0.0000
vn -0.0000 -1.0000 -0.0000
vn -0.0000 1.0000 -0.0000
vn -0.8719 -0.0000 0.4898
vn -0.0000 -0.9842 0.1773
vt 0.714177 0.878998
vt 0.714177 0.879188
vt 0.714124 0.878850
vt 0.713966 0.878850
vt 0.713970 0.878850
vt 0.205713 0.961675
vt 0.205713 0.961865
vt 0.209846 0.552613
s 0
usemtl palette
f 3/1/1 4/2/1 6/2/1 5/1/1
f 7/3/2 20/3/2 14/3/2 1/3/2
f 25/4/3 26/5/3 13/5/3 12/4/3
f 15/4/4 25/4/4 12/4/4 2/4/4
f 8/1/5 11/1/5 10/2/5 9/2/5
f 3/1/4 8/1/4 9/2/4 4/2/4
f 6/2/2 10/2/2 11/1/2 5/1/2
f 26/5/6 20/3/6 7/3/6 13/5/6
f 1/3/5 2/4/5 12/4/5 13/5/5 7/3/5
f 16/1/5 18/1/5 19/2/5 17/2/5
f 21/1/1 22/2/1 23/2/1 24/1/1
f 16/1/4 17/2/4 22/2/4 21/1/4
f 19/2/2 18/1/2 24/1/2 23/2/2
f 14/3/1 20/3/1 26/5/1 25/4/1 15/4/1
f 15/4/7 2/4/7 1/3/7 14/3/7
f 27/6/5 30/6/5 29/7/5 28/7/5
f 31/6/8 32/7/8 33/7/8 34/6/8
f 27/6/9 31/6/9 34/6/9 30/6/9
f 28/7/4 32/7/4 31/6/4 27/6/4
f 30/6/2 34/6/2 33/7/2 29/7/2
f 29/7/7 33/7/7 32/7/7 28/7/7
f 45/8/2 43/8/2 50/8/2 46/8/2
f 37/8/6 35/8/6 42/8/6 41/8/6
f 49/8/5 44/8/5 43/8/5 45/8/5
f 38/8/7 36/8/7 40/8/7 39/8/7
f 47/8/7 49/8/7 45/8/7 46/8/7
f 48/8/6 50/8/6 43/8/6 44/8/6
f 40/8/2 42/8/2 35/8/2 39/8/2
f 36/8/5 41/8/5 42/8/5 40/8/5
f 47/8/4 48/8/4 44/8/4 49/8/4
f 38/8/4 37/8/4 41/8/4 36/8/4
