# Blender 3.6.2
# www.blender.org
mtllib Desk_Lamp.mtl
o Desk_Lamp
v -0.008500 0.012533 -0.007152
v 0.008500 0.012533 -0.007152
v -0.008500 0.419842 0.007150
v 0.008500 0.419842 0.007150
v -0.008500 0.012533 0.007154
v 0.008500 0.012533 0.007154
v -0.000000 0.000000 -0.068748
v -0.034374 0.000000 -0.059538
v -0.059537 0.000000 -0.034374
v -0.068748 0.000000 -0.000000
v -0.059537 0.000000 0.034374
v -0.034374 0.000000 0.059537
v -0.000000 0.000000 0.068748
v 0.034374 0.000000 0.059537
v 0.059537 0.000000 0.034374
v 0.068748 0.000000 -0.000000
v 0.059537 0.000000 -0.034374
v 0.034374 0.000000 -0.059538
v -0.038294 0.019185 -0.066327
v -0.000000 0.019185 -0.076588
v -0.066327 0.019185 -0.038294
v -0.076587 0.019185 -0.000000
v -0.066327 0.019185 0.038293
v -0.038294 0.019185 0.066326
v -0.000000 0.019185 0.076587
v 0.038294 0.019185 0.066326
v 0.066327 0.019185 0.038293
v 0.076587 0.019185 -0.000000
v 0.066327 0.019185 -0.038294
v 0.038294 0.019185 -0.066327
v 0.014110 0.065256 0.001444
v -0.014110 0.065256 0.001444
v 0.014110 0.479109 0.001439
v -0.014110 0.479109 0.001439
v -0.014110 0.479109 0.018115
v -0.004857 0.479109 0.027368
v -0.011400 0.479109 0.024658
v -0.004857 0.065256 0.027373
v -0.014110 0.065256 0.018119
v -0.011400 0.065256 0.024662
v 0.014110 0.065256 0.018119
v 0.004857 0.065256 0.027373
v 0.011400 0.065256 0.024662
v 0.004857 0.479109 0.027368
v 0.014110 0.479109 0.018115
v 0.011400 0.479109 0.024658
v -0.008500 0.420113 -0.003732
v -0.008500 0.416777 -0.007152
v 0.008500 0.416777 -0.007152
v 0.008500 0.420113 -0.003732
vn -1.0000 -0.0000 -0.0000
vn -0.0000 -0.0000 1.0000
vn 1.0000 -0.0000 -0.0000
vn -0.0000 -0.0000 -1.0000
vn -0.0000 -1.0000 -0.0000
vn -0.0000 1.0000 -0.0000
vn 0.8985 -0.3671 -0.2407
vn 0.2407 -0.3671 0.8985
vn -0.8985 -0.3671 0.2407
vn 0.6577 -0.3672 -0.6577
vn -0.2407 -0.3672 -0.8985
vn 0.6577 -0.3671 0.6577
vn -0.6577 -0.3671 0.6577
vn 0.2407 -0.3672 -0.8985
vn -0.6577 -0.3672 -0.6577
vn 0.8985 -0.3671 0.2407
vn -0.2407 -0.3671 0.8985
vn -0.8985 -0.3671 -0.2407
vn -0.9239 -0.0000 0.3827
vn -0.3827 -0.0000 0.9239
vn 0.3827 -0.0000 0.9239
vn 0.9239 -0.0000 0.3827
vn -0.0000 0.7158 -0.6983
vn -0.0000 0.9997 0.0249
vt 0.876014 0.960941
vt 0.876045 0.960868
vt 0.876047 0.952310
vt 0.875832 0.952265
vt 0.875915 0.960939
vt 0.876049 0.952124
vt 0.876049 0.960938
vt 0.875846 0.952264
vt 0.875916 0.960867
vt 0.875948 0.960941
vt 0.879197 0.960784
vt 0.876877 0.962124
vt 0.874197 0.962124
vt 0.871877 0.960784
vt 0.870537 0.958463
vt 0.870537 0.955784
vt 0.871877 0.953463
vt 0.874197 0.952124
vt 0.876877 0.952124
vt 0.879197 0.953463
vt 0.880537 0.955784
vt 0.880537 0.958463
vt 0.876049 0.952124
vt 0.876042 0.952128
vt 0.875978 0.952170
vt 0.875903 0.952218
vt 0.875839 0.952260
vt 0.876049 0.960938
vt 0.876005 0.960938
vt 0.875959 0.960938
vt 0.875903 0.952218
vt 0.875915 0.960939
vt 0.875920 0.960939
vt 0.876045 0.960938
vt 0.875959 0.960938
vt 0.876005 0.960938
vt 0.876014 0.960941
s 0
usemtl palette
f 47/1/1 48/2/1 1/3/1 5/4/1 3/5/1
f 6/6/2 4/7/2 3/5/2 5/4/2
f 2/8/3 49/9/3 50/10/3 4/7/3 6/6/3
f 2/8/4 1/3/4 48/2/4 49/9/4
f 8/11/5 7/12/5 18/13/5 17/14/5 16/15/5 15/16/5 14/17/5 13/18/5 12/19/5 11/20/5 10/21/5 9/22/5
f 19/11/6 21/22/6 22/21/6 23/20/6 24/19/6 25/18/6 26/17/6 27/16/6 28/15/6 29/14/6 30/13/6 20/12/6
f 17/14/7 29/14/7 28/15/7 16/15/7
f 14/17/8 26/17/8 25/18/8 13/18/8
f 11/20/9 23/20/9 22/21/9 10/21/9
f 18/13/10 30/13/10 29/14/10 17/14/10
f 8/11/11 19/11/11 20/12/11 7/12/11
f 15/16/12 27/16/12 26/17/12 14/17/12
f 12/19/13 24/19/13 23/20/13 11/20/13
f 7/12/14 20/12/14 30/13/14 18/13/14
f 9/22/15 21/22/15 19/11/15 8/11/15
f 16/15/16 28/15/16 27/16/16 15/16/16
f 13/18/17 25/18/17 24/19/17 12/19/17
f 10/21/18 22/21/18 21/22/18 9/22/18
f 47/37/23 50/10/23 49/9/23 48/2/23
f 50/10/24 47/37/24 3/5/24 4/7/24
usemtl light
f 31/6/4 32/4/4 34/5/4 33/7/4
f 32/4/5 31/6/5 41/23/5 43/24/5 42/25/5 38/26/5 40/27/5 39/4/5
f 31/6/3 33/7/3 45/28/3 41/23/3
f 42/25/2 44/29/2 36/30/2 38/31/2
f 34/5/1 32/4/1 39/4/1 35/32/1
f 35/32/19 39/4/19 40/27/19 37/33/19
f 37/33/20 40/27/20 38/31/20 36/30/20
f 44/29/21 42/25/21 43/24/21 46/34/21
f 46/34/22 43/24/22 41/23/22 45/28/22
f 33/7/6 34/5/6 35/5/6 37/33/6 36/35/6 44/36/6 46/34/6 45/28/6
