# Blender 3.6.2
# www.blender.org
mtllib Drawer_Mini_2_Base.mtl
o Drawer_Mini_2_Base
v 0.213441 0.000000 -0.201612
v 0.213441 0.000000 0.201612
v 0.179819 0.000000 -0.201612
v 0.179819 0.000000 0.201612
v 0.000000 0.047862 0.241830
v 0.000000 0.025985 -0.241830
v 0.243693 0.047862 0.241830
v 0.265570 0.025985 -0.241830
v 0.000000 0.215253 0.241830
v 0.243693 0.215253 0.241830
v 0.265570 0.252421 -0.241830
v 0.000000 0.252421 -0.241830
v 0.000000 0.025985 0.241830
v 0.265570 0.025985 0.241830
v 0.000000 0.252421 0.241830
v 0.265570 0.252421 0.241830
v 0.000000 0.215253 -0.207724
v 0.000000 0.047862 -0.207724
v 0.243693 0.047862 -0.207724
v 0.243693 0.215253 -0.207724
v 0.213441 0.027996 -0.201612
v 0.213441 0.027996 0.201612
v 0.179819 0.027996 -0.201612
v 0.179819 0.027996 0.201612
v -0.213441 0.000000 -0.201612
v -0.213441 0.000000 0.201612
v -0.179819 0.000000 -0.201612
v -0.179819 0.000000 0.201612
v -0.243693 0.047862 0.241830
v -0.265570 0.025985 -0.241830
v -0.243693 0.215253 0.241830
v -0.265570 0.252421 -0.241830
v -0.265570 0.025985 0.241830
v -0.265570 0.252421 0.241830
v -0.243693 0.047862 -0.207724
v -0.243693 0.215253 -0.207724
v -0.213441 0.027996 -0.201612
v -0.213441 0.027996 0.201612
v -0.179819 0.027996 -0.201612
v -0.179819 0.027996 0.201612
vn -0.0000 -1.0000 -0.0000
vn -0.0000 1.0000 -0.0000
vn 1.0000 -0.0000 -0.0000
vn -0.0000 -0.0000 -1.0000
vn -1.0000 -0.0000 -0.0000
vn -0.0000 -0.0000 1.0000
vt 0.212108 0.961914
vt 0.454993 0.876606
s 0
usemtl palette
f 3/1/1 1/1/1 2/1/1 4/1/1
f 6/2/1 8/2/1 14/2/1 13/2/1
f 12/2/2 15/2/2 16/2/2 11/2/2
f 14/2/3 8/2/3 11/2/3 16/2/3
f 8/2/4 6/2/4 12/2/4 11/2/4
f 7/2/5 10/2/5 20/2/5 19/2/5
f 7/2/6 5/2/6 13/2/6 14/2/6
f 9/2/6 10/2/6 16/2/6 15/2/6
f 10/2/6 7/2/6 14/2/6 16/2/6
f 18/2/6 19/2/6 20/2/6 17/2/6
f 5/2/2 7/2/2 19/2/2 18/2/2
f 10/2/1 9/2/1 17/2/1 20/2/1
f 3/1/5 4/1/5 24/1/5 23/1/5
f 2/1/3 1/1/3 21/1/3 22/1/3
f 4/1/6 2/1/6 22/1/6 24/1/6
f 1/1/4 3/1/4 23/1/4 21/1/4
f 27/1/1 28/1/1 26/1/1 25/1/1
f 6/2/1 13/2/1 33/2/1 30/2/1
f 12/2/2 32/2/2 34/2/2 15/2/2
f 33/2/5 34/2/5 32/2/5 30/2/5
f 30/2/4 32/2/4 12/2/4 6/2/4
f 29/2/3 35/2/3 36/2/3 31/2/3
f 29/2/6 33/2/6 13/2/6 5/2/6
f 9/2/6 15/2/6 34/2/6 31/2/6
f 31/2/6 34/2/6 33/2/6 29/2/6
f 18/2/6 17/2/6 36/2/6 35/2/6
f 5/2/2 18/2/2 35/2/2 29/2/2
f 31/2/1 36/2/1 17/2/1 9/2/1
f 27/1/3 39/1/3 40/1/3 28/1/3
f 26/1/5 38/1/5 37/1/5 25/1/5
f 28/1/6 40/1/6 38/1/6 26/1/6
f 25/1/4 37/1/4 39/1/4 27/1/4
