# Blender 3.6.2
# www.blender.org
mtllib Drawer_Mini_1.mtl
o Drawer_Mini_1
v 0.219421 0.114212 -0.190343
v 0.000000 0.114212 -0.190343
v 0.219421 0.114212 0.190343
v 0.000000 0.114212 0.190343
v 0.000000 -0.128832 0.206504
v 0.235581 -0.128832 0.206504
v 0.000000 -0.128832 -0.206504
v 0.235581 -0.128832 -0.206504
v 0.235581 0.114212 -0.206504
v 0.235581 0.114212 0.206504
v 0.000000 0.114212 0.206504
v 0.000000 0.114212 -0.206504
v 0.000000 -0.095246 0.190343
v 0.000000 -0.095246 -0.190343
v 0.219421 -0.095246 -0.190343
v 0.219421 -0.095246 0.190343
v 0.000000 -0.027706 0.236843
v 0.078699 -0.027706 0.236843
v 0.078699 0.010913 0.236843
v 0.000000 0.010913 0.236843
v 0.000000 -0.027706 0.198123
v 0.000000 0.010913 0.198123
v 0.106924 0.010913 0.198123
v 0.106924 -0.027706 0.198123
v -0.219421 0.114212 -0.190343
v -0.219421 0.114212 0.190343
v -0.235581 -0.128832 0.206504
v -0.235581 -0.128832 -0.206504
v -0.235581 0.114212 -0.206504
v -0.235581 0.114212 0.206504
v -0.219421 -0.095246 -0.190343
v -0.219421 -0.095246 0.190343
v -0.078699 -0.027706 0.236843
v -0.078699 0.010913 0.236843
v -0.106924 0.010913 0.198123
v -0.106924 -0.027706 0.198123
vn -0.0000 -0.0000 -1.0000
vn 1.0000 -0.0000 -0.0000
vn -0.0000 -0.0000 1.0000
vn -0.0000 -1.0000 -0.0000
vn -0.0000 1.0000 -0.0000
vn -1.0000 -0.0000 -0.0000
vn 0.8081 -0.0000 0.5891
vn -0.8081 -0.0000 0.5891
vt 0.454993 0.876606
vt 0.212108 0.958632
s 0
usemtl palette
f 8/1/1 7/1/1 12/1/1 9/1/1
f 6/1/2 8/1/2 9/1/2 10/1/2
f 4/1/1 3/1/1 16/1/1 13/1/1
f 5/1/3 6/1/3 10/1/3 11/1/3
f 5/1/4 7/1/4 8/1/4 6/1/4
f 1/1/5 3/1/5 10/1/5 9/1/5
f 3/1/5 4/1/5 11/1/5 10/1/5
f 2/1/5 1/1/5 9/1/5 12/1/5
f 13/1/5 16/1/5 15/1/5 14/1/5
f 1/1/3 2/1/3 14/1/3 15/1/3
f 3/1/6 1/1/6 15/1/6 16/1/6
f 17/2/3 18/2/3 19/2/3 20/2/3
f 19/2/5 23/2/5 22/2/5 20/2/5
f 17/2/4 21/2/4 24/2/4 18/2/4
f 18/2/7 24/2/7 23/2/7 19/2/7
f 28/1/1 29/1/1 12/1/1 7/1/1
f 27/1/6 30/1/6 29/1/6 28/1/6
f 4/1/1 13/1/1 32/1/1 26/1/1
f 5/1/3 11/1/3 30/1/3 27/1/3
f 5/1/4 27/1/4 28/1/4 7/1/4
f 25/1/5 29/1/5 30/1/5 26/1/5
f 26/1/5 30/1/5 11/1/5 4/1/5
f 2/1/5 12/1/5 29/1/5 25/1/5
f 13/1/5 14/1/5 31/1/5 32/1/5
f 25/1/3 31/1/3 14/1/3 2/1/3
f 26/1/2 32/1/2 31/1/2 25/1/2
f 17/2/3 20/2/3 34/2/3 33/2/3
f 34/2/5 20/2/5 22/2/5 35/2/5
f 17/2/4 33/2/4 36/2/4 21/2/4
f 33/2/8 34/2/8 35/2/8 36/2/8
