# Blender 3.6.2
# www.blender.org
mtllib Expositor_1x1_Glass.mtl
o Expositor_1x1_Glass
v 0.328097 0.019543 0.195114
v 0.328097 0.798780 0.195114
v 0.342554 0.798780 0.195114
v 0.342554 0.019543 0.195114
v 0.328097 0.019543 -0.175642
v 0.342554 0.019543 -0.191666
v 0.328097 0.798780 -0.175642
v 0.342554 0.798780 -0.191666
v -0.328097 0.019543 0.195114
v -0.328097 0.798780 0.195114
v -0.342554 0.798780 0.195114
v -0.342554 0.019543 0.195114
v -0.328097 0.019543 -0.175642
v -0.342554 0.019543 -0.191666
v -0.328097 0.798780 -0.175642
v -0.342554 0.798780 -0.191666
v 0.000000 0.019543 -0.191666
v 0.000000 0.019543 -0.175642
v 0.000000 0.798780 -0.175642
v 0.000000 0.798780 -0.191666
vn -0.0000 -0.0000 -1.0000
vn -1.0000 -0.0000 -0.0000
vn -0.0000 -0.0000 1.0000
vn 1.0000 -0.0000 -0.0000
vt 0.705315 0.881564
vt 0.705242 0.873448
vt 0.705242 0.881564
s 0
usemtl glass
f 8/1/1 6/2/1 17/2/1 20/1/1
f 1/2/2 2/1/2 7/1/2 5/3/2
f 5/3/3 7/1/3 19/1/3 18/3/3
f 6/2/4 8/1/4 3/1/4 4/2/4
f 16/1/1 20/1/1 17/2/1 14/2/1
f 9/2/4 13/3/4 15/1/4 10/1/4
f 13/3/3 18/3/3 19/1/3 15/1/3
f 14/2/2 12/2/2 11/1/2 16/1/2
