# Blender 3.6.2
# www.blender.org
mtllib Expositor_1x1_A.mtl
o Expositor_1x1_A
v 0.368716 0.830535 -0.225285
v 0.368716 -0.001885 -0.225285
v 0.368716 0.798780 0.250096
v 0.368716 0.029870 0.250096
v 0.368716 0.830535 0.250096
v 0.368716 -0.001885 0.250096
v 0.368716 0.798780 -0.225285
v 0.368716 0.029870 -0.225285
v 0.345306 0.019543 0.195114
v 0.345306 0.809106 0.226190
v 0.345306 0.019543 0.226190
v 0.345306 0.809106 0.195114
v 0.322715 0.019543 0.226190
v 0.322715 0.019543 0.195114
v 0.322715 0.809106 0.226190
v 0.322715 0.809106 0.195114
v 0.345306 0.019543 -0.203060
v 0.345306 0.809106 -0.171985
v 0.345306 0.019543 -0.171985
v 0.345306 0.809106 -0.203060
v 0.322715 0.019543 -0.171985
v 0.322715 0.019543 -0.203060
v 0.322715 0.809106 -0.171985
v 0.322715 0.809106 -0.203060
v 0.368716 0.398566 -0.225285
v 0.368716 0.416098 0.250096
v 0.368716 0.398566 0.250096
v 0.368716 0.416098 -0.225285
v -0.368716 0.830535 -0.225285
v -0.368716 -0.001885 -0.225285
v 0.000000 0.830535 -0.225285
v 0.000000 0.029870 0.250096
v 0.000000 0.798780 0.250096
v 0.000000 -0.001885 -0.225285
v -0.368716 0.798780 0.250096
v -0.368716 0.029870 0.250096
v -0.368716 0.830535 0.250096
v -0.368716 -0.001885 0.250096
v 0.000000 -0.001885 0.250096
v 0.000000 0.830535 0.250096
v 0.000000 0.798780 -0.225285
v 0.000000 0.029870 -0.225285
v -0.368716 0.798780 -0.225285
v -0.368716 0.029870 -0.225285
v -0.345306 0.019543 0.195114
v -0.345306 0.809106 0.226190
v -0.345306 0.019543 0.226190
v -0.345306 0.809106 0.195114
v -0.322715 0.019543 0.226190
v -0.322715 0.019543 0.195114
v -0.322715 0.809106 0.226190
v -0.322715 0.809106 0.195114
v -0.345306 0.019543 -0.203060
v -0.345306 0.809106 -0.171985
v -0.345306 0.019543 -0.171985
v -0.345306 0.809106 -0.203060
v -0.322715 0.019543 -0.171985
v -0.322715 0.019543 -0.203060
v -0.322715 0.809106 -0.171985
v -0.322715 0.809106 -0.203060
v -0.368716 0.398566 -0.225285
v 0.000000 0.416098 0.250096
v 0.000000 0.398566 -0.225285
v -0.368716 0.416098 0.250096
v -0.368716 0.398566 0.250096
v 0.000000 0.398566 0.250096
v 0.000000 0.416098 -0.225285
v -0.368716 0.416098 -0.225285
vn -0.0000 -1.0000 -0.0000
vn -0.0000 -0.0000 -1.0000
vn -0.0000 1.0000 -0.0000
vn 1.0000 -0.0000 -0.0000
vn -0.0000 -0.0000 1.0000
vn -1.0000 -0.0000 -0.0000
vt 0.701184 0.873448
vt 0.705242 0.873448
vt 0.705242 0.881564
vt 0.701184 0.881564
vt 0.717415 0.873448
vt 0.713358 0.873448
vt 0.713284 0.881564
vt 0.716728 0.881564
vt 0.717415 0.881564
vt 0.713358 0.881564
vt 0.705315 0.881564
vt 0.701871 0.881564
s 0
usemtl palette
f 34/1/1 2/2/1 6/3/1 39/4/1
f 31/5/2 1/6/2 7/7/2 41/8/2
f 1/6/3 31/5/3 40/9/3 5/10/3
f 3/7/1 33/8/1 41/8/1 7/7/1
f 5/10/4 3/7/4 7/7/4 1/6/4
f 4/11/5 32/12/5 39/4/5 6/3/5
f 33/8/5 3/7/5 5/10/5 40/9/5
f 6/3/4 2/2/4 8/11/4 4/11/4
f 32/12/3 4/11/3 8/11/3 42/12/3
f 2/2/2 34/1/2 42/12/2 8/11/2
f 11/3/4 9/2/4 12/11/4 10/11/4
f 13/3/6 15/11/6 16/11/6 14/2/6
f 9/2/2 14/2/2 16/11/2 12/11/2
f 10/11/5 15/11/5 13/3/5 11/3/5
f 21/3/6 23/11/6 24/11/6 22/2/6
f 19/3/4 17/2/4 20/11/4 18/11/4
f 17/2/2 22/2/2 24/11/2 20/11/2
f 18/11/5 23/11/5 21/3/5 19/3/5
f 63/1/1 25/2/1 27/3/1 66/4/1
f 26/11/5 62/12/5 66/4/5 27/3/5
f 27/3/4 25/2/4 28/11/4 26/11/4
f 62/12/3 26/11/3 28/11/3 67/12/3
f 25/2/2 63/1/2 67/12/2 28/11/2
f 34/1/1 39/4/1 38/3/1 30/2/1
f 31/5/2 41/8/2 43/7/2 29/6/2
f 29/6/3 37/10/3 40/9/3 31/5/3
f 35/7/1 43/7/1 41/8/1 33/8/1
f 37/10/6 29/6/6 43/7/6 35/7/6
f 36/11/5 38/3/5 39/4/5 32/12/5
f 33/8/5 40/9/5 37/10/5 35/7/5
f 38/3/6 36/11/6 44/11/6 30/2/6
f 32/12/3 42/12/3 44/11/3 36/11/3
f 30/2/2 44/11/2 42/12/2 34/1/2
f 47/3/6 46/11/6 48/11/6 45/2/6
f 49/3/4 50/2/4 52/11/4 51/11/4
f 45/2/2 48/11/2 52/11/2 50/2/2
f 46/11/5 47/3/5 49/3/5 51/11/5
f 57/3/4 58/2/4 60/11/4 59/11/4
f 55/3/6 54/11/6 56/11/6 53/2/6
f 53/2/2 56/11/2 60/11/2 58/2/2
f 54/11/5 55/3/5 57/3/5 59/11/5
f 63/1/1 66/4/1 65/3/1 61/2/1
f 64/11/5 65/3/5 66/4/5 62/12/5
f 65/3/6 64/11/6 68/11/6 61/2/6
f 62/12/3 67/12/3 68/11/3 64/11/3
f 61/2/2 68/11/2 67/12/2 63/1/2
