# Blender 3.6.2
# www.blender.org
mtllib Expositor_1x1_C.mtl
o Expositor_1x1_C
v 0.355630 -0.001885 -0.203060
v 0.333336 0.798780 -0.171985
v 0.333336 0.043283 -0.171985
v 0.355629 0.830535 -0.203060
v 0.344175 0.398566 -0.187825
v 0.344175 0.416098 0.236431
v 0.344175 0.398566 0.236431
v 0.344175 0.416098 -0.187825
v 0.355629 0.830535 -0.171985
v 0.355630 -0.001885 -0.171985
v 0.355629 0.830535 0.250096
v 0.355630 -0.001885 0.250096
v 0.333336 0.798780 0.250096
v 0.333336 0.043283 0.250096
v 0.008406 0.815082 0.223060
v 0.008406 0.028253 0.223060
v 0.008406 0.815082 -0.187825
v 0.008406 0.028253 -0.187825
v -0.355630 -0.001885 -0.203060
v -0.333336 0.798780 -0.171985
v -0.333336 0.043283 -0.171985
v -0.355629 0.830535 -0.203060
v 0.000000 -0.001885 -0.171985
v 0.000000 -0.001885 -0.203060
v 0.000000 0.798780 -0.171985
v 0.000000 0.830535 -0.203060
v -0.344175 0.398566 -0.187825
v 0.000000 0.416098 0.236431
v 0.000000 0.398566 -0.187825
v -0.344175 0.416098 0.236431
v -0.344175 0.398566 0.236431
v 0.000000 0.398566 0.236431
v 0.000000 0.416098 -0.187825
v -0.344175 0.416098 -0.187825
v -0.355629 0.830535 -0.171985
v -0.355630 -0.001885 -0.171985
v 0.000000 0.043283 -0.171985
v 0.000000 0.830535 -0.171985
v -0.355629 0.830535 0.250096
v -0.355630 -0.001885 0.250096
v 0.000000 -0.001885 0.250096
v 0.000000 0.830535 0.250096
v -0.333336 0.798780 0.250096
v -0.333336 0.043283 0.250096
v 0.000000 0.043283 0.250096
v 0.000000 0.798780 0.250096
v -0.008406 0.815082 0.223060
v -0.008406 0.028253 0.223060
v 0.000000 0.028253 0.223060
v 0.000000 0.815082 0.223060
v -0.008406 0.815082 -0.187825
v -0.008406 0.028253 -0.187825
vn -0.0000 1.0000 -0.0000
vn 1.0000 -0.0000 -0.0000
vn -0.0000 -0.0000 -1.0000
vn -0.0000 -0.0000 1.0000
vn -0.0000 -1.0000 -0.0000
vn -1.0000 -0.0000 -0.0000
vt 0.705315 0.881564
vt 0.705242 0.881564
vt 0.705242 0.873448
vt 0.705311 0.881564
vt 0.705246 0.881564
vt 0.705246 0.881564
vt 0.701184 0.873448
vt 0.701184 0.881564
vt 0.701871 0.881564
s 0
usemtl palette
f 38/1/1 9/1/1 4/1/1 26/1/1
f 10/2/2 1/3/2 4/1/2 9/1/2
f 1/3/3 24/3/3 26/1/3 4/1/3
f 2/4/4 25/4/4 37/5/4 3/6/4
f 29/7/5 5/3/5 7/2/5 32/8/5
f 6/1/4 28/9/4 32/8/4 7/2/4
f 28/9/1 6/1/1 8/1/1 33/9/1
f 10/2/5 23/2/5 24/3/5 1/3/5
f 23/2/5 10/2/5 12/2/5 41/2/5
f 10/2/2 9/1/2 11/1/2 12/2/2
f 3/6/1 37/5/1 45/5/1 14/6/1
f 13/4/4 14/6/4 12/2/4 11/1/4
f 14/6/4 45/5/4 41/2/4 12/2/4
f 46/4/4 13/4/4 11/1/4 42/1/4
f 25/4/5 2/4/5 13/4/5 46/4/5
f 2/4/6 3/6/6 14/6/6 13/4/6
f 9/1/1 38/1/1 42/1/1 11/1/1
f 16/1/4 15/9/4 50/8/4 49/2/4
f 15/9/2 16/1/2 18/1/2 17/9/2
f 38/1/1 26/1/1 22/1/1 35/1/1
f 36/2/6 35/1/6 22/1/6 19/3/6
f 19/3/3 22/1/3 26/1/3 24/3/3
f 20/4/4 21/6/4 37/5/4 25/4/4
f 29/7/5 32/8/5 31/2/5 27/3/5
f 30/1/4 31/2/4 32/8/4 28/9/4
f 28/9/1 33/9/1 34/1/1 30/1/1
f 36/2/5 19/3/5 24/3/5 23/2/5
f 23/2/5 41/2/5 40/2/5 36/2/5
f 36/2/6 40/2/6 39/1/6 35/1/6
f 21/6/1 44/6/1 45/5/1 37/5/1
f 43/4/4 39/1/4 40/2/4 44/6/4
f 44/6/4 40/2/4 41/2/4 45/5/4
f 46/4/4 42/1/4 39/1/4 43/4/4
f 25/4/5 46/4/5 43/4/5 20/4/5
f 20/4/2 43/4/2 44/6/2 21/6/2
f 35/1/1 39/1/1 42/1/1 38/1/1
f 48/1/4 49/2/4 50/8/4 47/9/4
f 47/9/6 51/9/6 52/1/6 48/1/6
