# Blender 3.6.2
# www.blender.org
mtllib Expositor_Door_1.mtl
o Expositor_Door_1
v -0.000891 0.798780 -0.013703
v 0.661073 0.798780 -0.013703
v 0.661073 0.029870 -0.013703
v -0.000891 0.029870 -0.013703
v 0.602491 0.630090 0.059893
v 0.602491 0.630090 0.004865
v 0.638838 0.630090 0.059893
v 0.638838 0.630090 0.004865
v 0.602491 0.221783 0.059893
v 0.602491 0.221783 0.004865
v 0.638838 0.221783 0.059893
v 0.638838 0.221783 0.004865
v 0.003641 0.034373 0.013704
v -0.000891 0.029870 0.012072
v 0.661073 0.029870 0.012072
v 0.656541 0.034373 0.013704
v -0.000891 0.798780 0.012072
v 0.003641 0.794276 0.013704
v 0.656541 0.794276 0.013704
v 0.661073 0.798780 0.012072
vn -0.0000 -0.0000 -1.0000
vn -1.0000 -0.0000 -0.0000
vn -0.0000 1.0000 -0.0000
vn -0.0000 -0.0000 1.0000
vn 1.0000 -0.0000 -0.0000
vn -0.0000 -1.0000 -0.0000
vn -0.0000 -0.3407 0.9402
vn -0.0000 0.3407 0.9402
vn 0.3388 -0.0000 0.9409
vn -0.3388 -0.0000 0.9409
vt 0.705315 0.881564
vt 0.705242 0.881564
vt 0.701184 0.881564
vt 0.701871 0.881564
vt 0.705290 0.881564
vt 0.701892 0.881564
vt 0.701216 0.881564
vt 0.705214 0.881564
vt 0.626342 0.956462
vt 0.628842 0.956462
vt 0.628842 0.958962
vt 0.626342 0.958962
vt 0.626342 0.961462
vt 0.628842 0.961462
vt 0.628842 0.963962
vt 0.626342 0.963962
vt 0.628842 0.966462
vt 0.626342 0.966462
vt 0.623842 0.961462
vt 0.623842 0.963962
vt 0.631342 0.961462
vt 0.631342 0.963962
vt 0.705242 0.881564
s 0
usemtl palette
f 2/1/1 3/2/1 4/3/1 1/4/1
f 1/4/2 4/3/2 14/3/2 17/4/2
f 2/1/3 1/4/3 17/4/3 20/1/3
f 19/5/4 18/6/4 13/7/4 16/8/4
f 3/2/5 2/1/5 20/1/5 15/2/5
f 5/9/4 9/10/4 11/11/4 7/12/4
f 6/13/3 5/14/3 7/15/3 8/16/3
f 10/16/2 9/15/2 5/17/2 6/18/2
f 12/19/6 11/13/6 9/16/6 10/20/6
f 8/14/5 7/21/5 11/22/5 12/15/5
f 14/3/7 15/23/7 16/8/7 13/7/7
f 18/6/8 19/5/8 20/1/8 17/4/8
f 19/5/9 16/8/9 15/2/9 20/1/9
f 13/7/10 18/6/10 17/4/10 14/3/10
f 4/3/6 3/2/6 15/23/6 14/3/6
