# Blender 3.6.2
# www.blender.org
mtllib Expositor_Glass_Door_2.mtl
o Expositor_Glass_Door_2
v -0.000891 0.798780 -0.013703
v 0.661073 0.798780 -0.013703
v 0.661073 0.029870 -0.013703
v -0.000891 0.029870 -0.013703
v -0.000891 0.029870 0.013704
v 0.661073 0.029870 0.013704
v -0.000891 0.798780 0.013704
v 0.661073 0.798780 0.013704
v 0.599800 0.584979 0.053311
v 0.599800 0.584979 0.008622
v 0.637767 0.584979 0.053311
v 0.637767 0.584979 0.008622
v 0.599800 0.387440 0.031473
v 0.599800 0.387440 0.008622
v 0.637767 0.387440 0.031473
v 0.637767 0.387440 0.008622
vn -0.0000 -0.0000 -1.0000
vn -0.0000 -0.0000 1.0000
vn -0.0000 1.0000 -0.0000
vn 1.0000 -0.0000 -0.0000
vn -0.0000 -1.0000 -0.0000
vn -1.0000 -0.0000 -0.0000
vn -0.0000 -0.1099 0.9939
vt 0.705315 0.881564
vt 0.705242 0.881564
vt 0.701184 0.881564
vt 0.701871 0.881564
vt 0.707839 0.877515
vt 0.708693 0.877515
vt 0.708693 0.878369
vt 0.707839 0.878369
vt 0.707839 0.879224
vt 0.708693 0.879224
vt 0.708693 0.880078
vt 0.707839 0.880078
vt 0.708693 0.880933
vt 0.707839 0.880933
vt 0.706984 0.879224
vt 0.706984 0.880078
vt 0.709548 0.879224
vt 0.709548 0.880078
s 0
usemtl palette
f 9/5/7 13/6/7 15/7/7 11/8/7
f 10/9/3 9/10/3 11/11/3 12/12/3
f 14/12/6 13/11/6 9/13/6 10/14/6
f 16/15/5 15/9/5 13/12/5 14/16/5
f 12/10/4 11/17/4 15/18/4 16/11/4
f 12/10/1 16/11/1 14/16/1 10/14/1
usemtl glass
f 2/1/1 3/2/1 4/3/1 1/4/1
f 8/1/2 7/4/2 5/3/2 6/2/2
f 2/1/3 1/4/3 7/4/3 8/1/3
f 3/2/4 2/1/4 8/1/4 6/2/4
f 4/3/5 3/2/5 6/2/5 5/3/5
f 1/4/6 4/3/6 5/3/6 7/4/6
