# Blender 3.6.2
# www.blender.org
mtllib Game_Case.mtl
o Game_Case
v -0.108067 0.014638 0.149929
v -0.105802 0.014638 0.152194
v -0.105802 0.016902 0.149929
v 0.105802 0.014638 0.152194
v 0.108067 0.006903 0.103239
v 0.105802 0.016902 0.149929
v -0.108067 0.014638 -0.149929
v -0.105802 0.016902 -0.149929
v -0.105802 0.014638 -0.152194
v 0.108067 0.006903 -0.103239
v 0.105802 0.014638 -0.152194
v 0.105802 0.016902 -0.149929
v -0.108067 -0.014638 -0.149929
v -0.105802 -0.014638 -0.152194
v -0.105802 -0.016902 -0.149929
v -0.108067 -0.014638 0.149929
v -0.105802 -0.016902 0.149929
v -0.105802 -0.014638 0.152194
v 0.105802 -0.014638 0.152194
v 0.105802 -0.016902 0.149929
v 0.108067 -0.006903 0.103239
v 0.108067 -0.006903 -0.103239
v 0.105802 -0.016902 -0.149929
v 0.105802 -0.014638 -0.152194
v 0.108067 0.014638 0.149929
v 0.108067 0.014638 -0.149929
v 0.108067 -0.014638 -0.149929
v 0.108067 -0.014638 0.149929
v 0.104088 0.003247 0.095735
v 0.104088 0.003247 -0.095735
v 0.104088 -0.003247 -0.095735
v 0.104088 -0.003247 0.095735
vn -0.0000 -0.0000 1.0000
vn -0.0000 1.0000 -0.0000
vn -0.0000 -1.0000 -0.0000
vn 0.8835 -0.0000 -0.4684
vn -0.0000 -0.0000 -1.0000
vn -0.5774 0.5774 0.5773
vn 0.5774 0.5774 0.5773
vn -0.5774 0.5774 -0.5773
vn 0.5774 0.5774 -0.5773
vn -0.5774 -0.5774 -0.5773
vn -0.5774 -0.5774 0.5773
vn 0.5774 -0.5774 0.5773
vn 0.5774 -0.5774 -0.5773
vn -0.7071 0.7071 -0.0000
vn -0.0000 0.7071 0.7071
vn 0.7071 0.7071 -0.0000
vn -0.0000 0.7071 -0.7071
vn -0.7071 -0.7071 -0.0000
vn -0.0000 -0.7071 0.7071
vn 0.7071 -0.7071 -0.0000
vn -0.0000 -0.7071 -0.7071
vn -0.7071 -0.0000 0.7071
vn -0.7071 -0.0000 -0.7071
vn 0.7071 -0.0000 -0.7071
vn 0.7071 -0.0000 0.7071
vn -1.0000 -0.0000 -0.0000
vn 1.0000 -0.0000 -0.0000
vn 0.6766 0.7363 -0.0000
vn 0.8835 -0.0000 0.4684
vn 0.6766 -0.7363 -0.0000
vt 0.709821 0.879761
vt 0.709821 0.874873
vt 0.446024 0.683038
vt 0.446024 0.991991
vt 0.008214 0.991991
vt 0.008214 0.683038
vt 0.446024 0.630942
vt 0.008214 0.630942
vt 0.008214 0.321988
vt 0.446024 0.321988
vt 0.709985 0.874821
vt 0.714814 0.874873
vt 0.714814 0.879761
vt 0.709821 0.879813
vt 0.709858 0.874821
vt 0.709858 0.874873
vt 0.714776 0.879813
vt 0.714776 0.879761
vt 0.714776 0.874821
vt 0.714776 0.874873
vt 0.714814 0.879813
vt 0.709858 0.879813
vt 0.709858 0.879761
vt 0.008214 0.678362
vt 0.446024 0.678362
vt 0.446024 0.635617
vt 0.008214 0.635617
vt 0.714649 0.874820
vt 0.714650 0.874821
s 0
usemtl palette
f 2/1/1 18/1/1 19/2/1 4/2/1
f 5/11/4 21/11/4 32/11/4 29/11/4
f 11/12/5 24/12/5 14/13/5 9/13/5
f 1/14/6 2/1/6 3/1/6
f 4/2/7 25/15/7 6/16/7
f 7/17/8 8/18/8 9/13/8
f 26/19/9 11/12/9 12/20/9
f 13/21/10 14/13/10 15/13/10
f 16/22/11 17/23/11 18/1/11
f 19/2/12 20/16/12 28/15/12
f 27/19/13 23/20/13 24/12/13
f 2/1/15 4/2/15 6/16/15 3/23/15
f 25/15/16 26/19/16 12/20/16 6/16/16
f 11/12/17 9/13/17 8/18/17 12/20/17
f 17/23/19 20/16/19 19/2/19 18/1/19
f 20/16/20 23/20/20 27/19/20 28/15/20
f 23/20/21 15/18/21 14/13/21 24/12/21
f 1/14/22 16/14/22 18/1/22 2/1/22
f 13/21/23 7/21/23 9/13/23 14/13/23
f 24/12/24 11/12/24 26/19/24 27/19/24
f 4/2/25 19/2/25 28/15/25 25/15/25
f 5/11/27 10/28/27 26/19/27 25/15/27
f 22/29/27 21/11/27 28/15/27 27/19/27
f 10/28/27 22/29/27 27/19/27 26/19/27
f 21/11/27 5/11/27 25/15/27 28/15/27
f 29/11/27 32/11/27 31/29/27 30/28/27
f 21/11/28 22/29/28 31/29/28 32/11/28
f 22/29/29 10/28/29 30/28/29 31/29/29
f 10/28/30 5/11/30 29/11/30 30/28/30
usemtl games_textures
f 3/3/2 6/4/2 12/5/2 8/6/2
f 17/7/3 15/8/3 23/9/3 20/10/3
f 7/24/14 1/25/14 3/3/14 8/6/14
f 15/8/18 17/7/18 16/26/18 13/27/18
f 7/24/26 13/27/26 16/26/26 1/25/26
