# Blender 3.6.2
# www.blender.org
mtllib Game_Cartrigde_ZNEZ.mtl
o Game_Cartrigde_ZNEZ
v 0.048432 0.039835 0.010944
v 0.064202 0.000000 -0.006377
v 0.080878 0.091568 0.008483
v 0.080878 0.000678 0.008483
v 0.080878 0.091568 -0.005886
v 0.080878 0.000678 -0.005886
v 0.065681 0.000678 -0.005886
v 0.065681 0.000678 0.008483
v 0.065681 0.091568 0.008483
v 0.065681 0.091568 -0.005886
v 0.064202 0.000000 0.001299
v 0.066172 0.095212 0.001299
v 0.048432 0.088641 0.010944
v 0.066172 0.093666 0.009336
v 0.066172 0.093666 -0.006739
v 0.066172 0.091719 -0.008347
v -0.048432 0.039835 0.010944
v -0.064202 0.000000 -0.006377
v -0.080878 0.091568 0.008483
v -0.080878 0.000678 0.008483
v -0.080878 0.091568 -0.005886
v -0.080878 0.000678 -0.005886
v -0.065681 0.000678 -0.005886
v -0.065681 0.000678 0.008483
v -0.065681 0.091568 0.008483
v -0.065681 0.091568 -0.005886
v -0.064202 0.000000 0.001299
v -0.066172 0.095212 0.001299
v -0.048432 0.088641 0.010944
v -0.066172 0.093666 0.009336
v -0.066172 0.093666 -0.006739
v -0.066172 0.091719 -0.008347
v 0.066172 0.091719 0.010944
v 0.064202 0.000000 0.008974
v -0.064202 0.000000 0.008974
v -0.066172 0.091719 0.010944
v 0.066172 0.000000 0.001299
v 0.066172 0.000000 0.010944
v 0.066172 0.000000 -0.008347
v -0.066172 0.000000 0.001299
v -0.066172 0.000000 0.010944
v -0.066172 0.000000 -0.008347
v 0.048432 0.091719 0.010944
v 0.048432 0.093666 0.009336
v -0.048432 0.091719 0.010944
v -0.048432 0.093666 0.009336
v 0.048432 0.095212 0.001299
v -0.048432 0.095212 0.001299
vn 1.0000 -0.0000 -0.0000
vn -0.0000 -0.0000 1.0000
vn -0.0000 -1.0000 -0.0000
vn -0.0000 1.0000 -0.0000
vn -0.0000 -0.0000 -1.0000
vn -0.0000 0.9820 0.1889
vn -0.0000 0.6368 -0.7710
vn -0.0000 0.6368 0.7710
vn -0.0000 0.9820 -0.1889
vn -1.0000 -0.0000 -0.0000
vt 0.798558 0.706486
vt 0.798558 0.706486
vt 0.458739 0.224148
vt 0.773638 0.224149
vt 0.773638 0.382814
vt 0.458739 0.382814
vt 0.635454 0.869636
vt 0.207120 0.957657
vt 0.207120 0.957657
vt 0.773638 0.392822
vt 0.458739 0.392822
vt 0.458739 0.401030
vt 0.773638 0.401030
vt 0.773638 0.427639
vt 0.458739 0.427639
s 0
usemtl palette
f 12/1/1 14/1/1 33/1/1 38/2/1 37/2/1
f 15/1/1 12/1/1 37/2/1 39/2/1 16/1/1
f 18/7/3 2/7/3 11/7/3 27/7/3
f 5/1/1 3/1/1 4/2/1 6/2/1
f 3/1/4 5/1/4 10/1/4 9/1/4
f 6/2/3 4/2/3 8/2/3 7/2/3
f 5/1/5 6/2/5 7/2/5 10/1/5
f 4/2/2 3/1/2 9/1/2 8/2/2
f 14/1/6 12/1/6 47/1/6 44/1/6
f 31/1/7 15/1/7 16/1/7 32/1/7
f 36/1/8 45/1/8 46/1/8 30/1/8
f 12/1/9 15/1/9 31/1/9 28/1/9 48/1/9 47/1/9
f 42/2/5 32/1/5 16/1/5 39/2/5
f 28/1/10 40/2/10 41/2/10 36/1/10 30/1/10
f 31/1/10 32/1/10 42/2/10 40/2/10 28/1/10
f 21/1/10 22/2/10 20/2/10 19/1/10
f 19/1/4 25/1/4 26/1/4 21/1/4
f 22/2/3 23/2/3 24/2/3 20/2/3
f 21/1/5 26/1/5 23/2/5 22/2/5
f 20/2/2 24/2/2 25/1/2 19/1/2
f 27/8/3 11/9/3 34/8/3 35/8/3
f 1/2/2 38/2/2 33/1/2 13/1/2
f 17/2/2 41/2/2 38/2/2 1/2/2
f 13/1/2 33/1/2 43/1/2
f 29/1/2 36/1/2 41/2/2 17/2/2
f 11/2/3 37/2/3 38/2/3 34/1/3
f 2/1/3 39/2/3 37/2/3 11/2/3
f 35/1/3 41/2/3 40/2/3 27/1/3
f 18/1/3 42/2/3 39/2/3 2/1/3
f 34/1/3 38/2/3 41/2/3 35/1/3
f 27/1/3 40/2/3 42/2/3 18/1/3
f 44/1/8 43/1/8 33/1/8 14/1/8
f 29/1/2 45/1/2 36/1/2
f 46/1/6 48/1/6 28/1/6 30/1/6
usemtl games_textures
f 17/3/2 1/4/2 13/5/2 29/6/2
f 43/10/2 45/11/2 29/6/2 13/5/2
f 46/12/8 45/11/8 43/10/8 44/13/8
f 44/13/6 47/14/6 48/15/6 46/12/6
