# Blender 3.6.2
# www.blender.org
mtllib Game_Cartrigde_DZ.mtl
o Game_Cartrigde_DZ
v -0.027698 -0.025160 -0.000814
v 0.027698 -0.025160 -0.000814
v -0.027698 0.030237 -0.000814
v 0.027698 0.030237 -0.000814
v -0.030983 0.033015 -0.010218
v -0.033015 0.030983 -0.010218
v -0.033015 -0.030983 -0.010218
v -0.030983 -0.033015 -0.010218
v 0.030983 -0.033015 -0.010218
v 0.033015 -0.030983 -0.010218
v 0.033015 0.030983 -0.010218
v 0.030983 0.033015 -0.010218
v -0.033015 0.030983 -0.000814
v -0.030983 0.033015 -0.000814
v -0.031578 0.031578 -0.000814
v -0.030983 -0.033015 -0.000814
v -0.033015 -0.030983 -0.000814
v -0.031578 -0.031578 -0.000814
v 0.033015 -0.030983 -0.000814
v 0.030983 -0.033015 -0.000814
v 0.031578 -0.031578 -0.000814
v 0.030983 0.033015 -0.000814
v 0.033015 0.030983 -0.000814
v 0.031578 0.031578 -0.000814
vn -0.0000 -0.0000 1.0000
vn -0.0000 1.0000 -0.0000
vn -0.0000 -1.0000 -0.0000
vn 1.0000 -0.0000 -0.0000
vn -0.0000 -0.0000 -1.0000
vn -0.7071 0.7071 -0.0000
vn 0.7071 0.7071 -0.0000
vn 0.7071 -0.7071 -0.0000
vn -0.7071 -0.7071 -0.0000
vn -1.0000 -0.0000 -0.0000
vt 0.185002 0.157839
vt 0.335140 0.157839
vt 0.335140 0.307976
vt 0.185002 0.307976
vt 0.793057 0.878790
vt 0.793057 0.878790
vt 0.783673 0.878790
vt 0.201037 0.958542
vt 0.210421 0.958542
vt 0.210421 0.958542
vt 0.793365 0.869098
vt 0.793365 0.878482
vt 0.784170 0.877985
vt 0.783583 0.878572
vt 0.783365 0.878482
vt 0.783365 0.869098
vt 0.783583 0.869008
vt 0.784170 0.869595
vt 0.793057 0.868790
vt 0.783673 0.868790
vt 0.792560 0.877985
vt 0.793147 0.878572
vt 0.792560 0.869595
vt 0.793147 0.869008
vt 0.793057 0.868790
vt 0.783365 0.878790
vt 0.783365 0.868790
vt 0.793365 0.868790
vt 0.793365 0.878790
s 0
usemtl palette
f 22/5/2 12/6/2 5/7/2 14/7/2
f 16/8/3 8/8/3 9/9/3 20/10/3
f 19/11/4 10/11/4 11/12/4 23/12/4
f 3/13/1 15/14/1 13/15/1 17/16/1 18/17/1 1/18/1
f 7/16/5 6/15/5 5/7/5 12/5/5 11/12/5 10/11/5 9/19/5 8/20/5
f 4/21/1 24/22/1 22/6/1 14/7/1 15/14/1 3/13/1
f 2/23/1 21/24/1 19/11/1 23/12/1 24/22/1 4/21/1
f 1/18/1 18/17/1 16/20/1 20/25/1 21/24/1 2/23/1
f 13/15/1 15/14/1 14/26/1
f 16/20/1 18/17/1 17/27/1
f 19/11/1 21/24/1 20/28/1
f 22/5/1 24/22/1 23/29/1
f 13/15/6 14/7/6 5/7/6 6/15/6
f 11/12/7 12/6/7 22/5/7 23/12/7
f 19/11/8 20/19/8 9/25/8 10/11/8
f 7/16/9 8/20/9 16/20/9 17/16/9
f 13/15/10 6/15/10 7/16/10 17/16/10
usemtl games_textures
f 1/1/1 2/2/1 4/3/1 3/4/1
