# Blender 3.6.2
# www.blender.org
mtllib Gaming_Chair_Arms_2.mtl
o Gaming_Chair_Arms_2
v 0.332909 0.267419 -0.011341
v 0.326778 0.267453 -0.017032
v 0.327275 0.267243 0.018941
v 0.335833 0.437903 0.013559
v 0.329861 0.437870 0.019412
v 0.329364 0.438080 -0.016560
v 0.316524 0.267269 0.014708
v 0.323759 0.437870 0.019494
v 0.319111 0.437895 0.015180
v 0.318735 0.438054 -0.012040
v 0.333246 0.267277 0.013087
v 0.335496 0.438046 -0.010869
v 0.321173 0.267243 0.019023
v 0.320676 0.267453 -0.016950
v 0.316148 0.267427 -0.012512
v 0.323263 0.438080 -0.016478
v 0.365013 0.457129 -0.088269
v 0.364198 0.453045 -0.091446
v 0.365043 0.457129 0.103102
v 0.364229 0.453046 0.106285
v 0.301470 0.457129 0.103102
v 0.291205 0.453045 0.106285
v 0.301470 0.457129 -0.088269
v 0.291205 0.452890 -0.091446
v 0.361580 0.443770 0.103946
v 0.357771 0.430423 0.086832
v 0.359676 0.437102 0.100423
v 0.358282 0.432217 0.094159
v 0.293260 0.430425 0.086832
v 0.292048 0.443770 0.103946
v 0.293097 0.432217 0.094159
v 0.292654 0.437102 0.100423
v 0.357745 0.430293 -0.081336
v 0.358955 0.434529 -0.086785
v 0.292874 0.434529 -0.086785
v 0.293260 0.430293 -0.081336
v -0.332909 0.267419 -0.011341
v -0.326778 0.267453 -0.017032
v -0.327275 0.267243 0.018941
v -0.335833 0.437903 0.013559
v -0.329861 0.437870 0.019412
v -0.329364 0.438080 -0.016560
v -0.316524 0.267269 0.014708
v -0.323759 0.437870 0.019494
v -0.319111 0.437895 0.015180
v -0.318735 0.438054 -0.012040
v -0.333246 0.267277 0.013087
v -0.335496 0.438046 -0.010869
v -0.321173 0.267243 0.019023
v -0.320676 0.267453 -0.016950
v -0.316148 0.267427 -0.012512
v -0.323263 0.438080 -0.016478
v -0.365013 0.457129 -0.088269
v -0.364198 0.453045 -0.091446
v -0.365043 0.457129 0.103102
v -0.364229 0.453046 0.106285
v -0.301470 0.457129 0.103102
v -0.291205 0.453045 0.106285
v -0.301470 0.457129 -0.088269
v -0.291205 0.452890 -0.091446
v -0.361580 0.443770 0.103946
v -0.357771 0.430423 0.086832
v -0.359676 0.437102 0.100423
v -0.358282 0.432217 0.094159
v -0.293260 0.430425 0.086832
v -0.292048 0.443770 0.103946
v -0.293097 0.432217 0.094159
v -0.292654 0.437102 0.100423
v -0.357745 0.430293 -0.081336
v -0.358955 0.434529 -0.086785
v -0.292874 0.434529 -0.086785
v -0.293260 0.430293 -0.081336
vn 0.0134 -0.0030 0.9999
vn -0.0134 0.0030 -0.9999
vn 0.7000 -0.0126 0.7141
vn 0.6802 -0.0083 -0.7329
vn 0.9998 -0.0151 -0.0139
vn -0.6802 0.0083 0.7329
vn -0.7000 0.0126 -0.7141
vn -0.9998 0.0151 0.0139
vn -0.0000 -1.0000 0.0008
vn -0.0000 1.0000 -0.0000
vn -0.9959 -0.0905 0.0001
vn -0.3757 0.9267 -0.0004
vn 0.9807 -0.1956 -0.0002
vn -0.0007 0.6074 -0.7944
vn -0.0000 0.6148 0.7887
vn 0.9618 -0.2737 -0.0000
vn -0.0000 -0.4672 0.8842
vn -0.0000 -0.7886 0.6149
vn -0.0000 -0.9713 0.2377
vn -0.0000 -0.2445 0.9696
vn -0.0000 -0.7895 -0.6137
vn 0.0003 -0.2451 -0.9695
vn -0.0134 -0.0030 0.9999
vn 0.0134 0.0030 -0.9999
vn -0.7000 -0.0126 0.7141
vn -0.6802 -0.0083 -0.7329
vn -0.9998 -0.0151 -0.0139
vn 0.6802 0.0083 0.7329
vn 0.7000 0.0126 -0.7141
vn 0.9998 0.0151 0.0139
vn 0.9959 -0.0905 0.0001
vn 0.3757 0.9267 -0.0004
vn -0.9807 -0.1956 -0.0002
vn 0.0007 0.6074 -0.7944
vn -0.9618 -0.2737 -0.0000
vn -0.0003 -0.2451 -0.9695
vt 0.212464 0.963572
vt 0.212464 0.964281
vt 0.212464 0.963685
vt 0.212464 0.964167
vt 0.212464 0.963658
vt 0.212464 0.964194
vt 0.212464 0.963835
vt 0.212464 0.963870
vt 0.212464 0.963833
vt 0.212464 0.963870
vt 0.212464 0.963870
vt 0.212464 0.963870
vt 0.212464 0.963833
vt 0.212464 0.963832
vt 0.212464 0.963832
vt 0.212464 0.963871
s 0
usemtl palette
f 3/1/1 5/1/1 8/1/1 13/1/1
f 14/2/2 16/2/2 6/2/2 2/2/2
f 4/3/3 5/1/3 3/1/3 11/3/3
f 1/4/4 2/2/4 6/2/4 12/4/4
f 1/4/5 12/4/5 4/3/5 11/3/5
f 7/5/6 13/1/6 8/1/6 9/5/6
f 14/2/7 15/6/7 10/6/7 16/2/7
f 7/5/8 9/5/8 10/6/8 15/6/8
f 29/7/9 36/8/9 33/8/9 26/7/9
f 21/9/10 19/9/10 17/10/10 23/11/10
f 24/12/11 35/12/11 36/8/11 29/7/11 31/13/11 32/14/11 30/15/11 22/15/11
f 21/9/12 23/11/12 24/12/12 22/15/12
f 17/10/13 19/9/13 20/15/13 18/16/13
f 23/11/14 17/10/14 18/16/14 24/12/14
f 19/9/15 21/9/15 22/15/15 20/15/15
f 20/15/16 25/15/16 27/14/16 28/13/16 26/7/16 33/8/16 34/16/16 18/16/16
f 25/15/17 30/15/17 32/14/17 27/14/17
f 27/14/18 32/14/18 31/13/18 28/13/18
f 28/13/19 31/13/19 29/7/19 26/7/19
f 22/15/20 30/15/20 25/15/20 20/15/20
f 35/12/21 34/16/21 33/8/21 36/8/21
f 18/16/22 34/16/22 35/12/22 24/12/22
f 39/1/23 49/1/23 44/1/23 41/1/23
f 50/2/24 38/2/24 42/2/24 52/2/24
f 40/3/25 47/3/25 39/1/25 41/1/25
f 37/4/26 48/4/26 42/2/26 38/2/26
f 37/4/27 47/3/27 40/3/27 48/4/27
f 43/5/28 45/5/28 44/1/28 49/1/28
f 50/2/29 52/2/29 46/6/29 51/6/29
f 43/5/30 51/6/30 46/6/30 45/5/30
f 65/7/9 62/7/9 69/8/9 72/8/9
f 57/9/10 59/11/10 53/10/10 55/9/10
f 60/12/31 58/15/31 66/15/31 68/14/31 67/13/31 65/7/31 72/8/31 71/12/31
f 57/9/32 58/15/32 60/12/32 59/11/32
f 53/10/33 54/16/33 56/15/33 55/9/33
f 59/11/34 60/12/34 54/16/34 53/10/34
f 55/9/15 56/15/15 58/15/15 57/9/15
f 56/15/35 54/16/35 70/16/35 69/8/35 62/7/35 64/13/35 63/14/35 61/15/35
f 61/15/17 63/14/17 68/14/17 66/15/17
f 63/14/18 64/13/18 67/13/18 68/14/18
f 64/13/19 62/7/19 65/7/19 67/13/19
f 58/15/20 56/15/20 61/15/20 66/15/20
f 71/12/21 72/8/21 69/8/21 70/16/21
f 54/16/36 60/12/36 71/12/36 70/16/36
