# Blender 3.6.2
# www.blender.org
mtllib Gaming_Chair_Base_Bottom_2.mtl
o Gaming_Chair_Base_Bottom_2
v 0.016447 0.500390 0.015467
v 0.022972 0.500390 -0.000286
v 0.016447 0.500390 -0.016039
v 0.029845 0.500390 0.028625
v 0.041821 0.500390 -0.000287
v 0.029845 0.500390 -0.029198
v 0.029845 0.372047 0.028625
v 0.041821 0.372047 -0.000287
v 0.029845 0.372047 -0.029198
v 0.027554 0.184101 0.026939
v 0.038634 0.184101 0.000191
v 0.027554 0.184101 -0.026557
v -0.000000 0.500390 0.021993
v -0.016447 0.500390 0.015467
v -0.022972 0.500390 -0.000286
v -0.016447 0.500390 -0.016039
v 0.000000 0.500390 -0.022564
v -0.000000 0.500390 0.040600
v -0.029845 0.500390 0.028625
v -0.041821 0.500390 -0.000287
v -0.029845 0.500390 -0.029198
v 0.000000 0.500390 -0.041173
v -0.000000 0.372047 0.040600
v -0.029845 0.372047 0.028625
v -0.041821 0.372047 -0.000287
v -0.029845 0.372047 -0.029198
v 0.000000 0.372047 -0.041173
v -0.000000 0.184101 0.038073
v -0.027554 0.184101 0.026939
v -0.038634 0.184101 0.000191
v -0.027554 0.184101 -0.026557
v 0.000000 0.184101 -0.037691
v 0.005974 0.108016 -0.353725
v 0.005975 0.108016 -0.364470
v 0.005974 0.072816 -0.353725
v 0.005975 0.072816 -0.364470
v 0.000000 0.108016 -0.353725
v -0.005974 0.108016 -0.353725
v -0.005974 0.108016 -0.364470
v 0.000000 0.072816 -0.353725
v -0.005974 0.072816 -0.353725
v -0.005974 0.072816 -0.364470
v 0.338257 0.108016 -0.103626
v 0.348477 0.108016 -0.106946
v 0.338257 0.072816 -0.103626
v 0.348477 0.072816 -0.106946
v 0.336411 0.108016 -0.109308
v 0.334565 0.108016 -0.114990
v 0.344785 0.108016 -0.118310
v 0.336411 0.072816 -0.109308
v 0.334565 0.072816 -0.114990
v 0.344785 0.072816 -0.118310
v -0.005201 0.199404 0.026762
v 0.206987 0.096141 0.303686
v 0.203080 0.108016 0.289679
v 0.209396 0.108016 0.298372
v 0.203080 0.072816 0.289679
v 0.209396 0.072816 0.298372
v 0.032908 0.199404 -0.000926
v 0.224861 0.096141 0.290699
v 0.207913 0.108016 0.286167
v 0.212747 0.108016 0.282655
v 0.219063 0.108016 0.291349
v 0.207913 0.072816 0.286167
v 0.212747 0.072816 0.282655
v 0.219063 0.072816 0.291349
v -0.212747 0.108016 0.282655
v -0.219063 0.108016 0.291348
v -0.212747 0.072816 0.282655
v -0.219063 0.072816 0.291348
v -0.207914 0.108016 0.286167
v -0.203080 0.108016 0.289678
v -0.209396 0.108016 0.298372
v -0.207914 0.072816 0.286167
v -0.203080 0.072816 0.289678
v -0.209396 0.072816 0.298372
v -0.334565 0.108016 -0.114990
v -0.344784 0.108016 -0.118311
v -0.334565 0.072816 -0.114990
v -0.344784 0.072816 -0.118311
v -0.336411 0.108016 -0.109308
v -0.338257 0.108016 -0.103626
v -0.348477 0.108016 -0.106947
v -0.336411 0.072816 -0.109308
v -0.338257 0.072816 -0.103626
v -0.348477 0.072816 -0.106947
v -0.005201 0.227882 0.026762
v -0.001722 0.232321 0.024235
v 0.207976 0.121207 0.297909
v 0.206987 0.115449 0.303686
v 0.029427 0.232294 0.001604
v 0.032908 0.227850 -0.000926
v 0.219128 0.121207 0.289807
v 0.224861 0.115450 0.290699
v 0.023845 0.199404 0.013216
v 0.352785 0.096141 -0.103012
v 0.009289 0.199404 -0.031584
v 0.345957 0.096141 -0.124025
v 0.023845 0.227882 0.013216
v 0.022517 0.232321 0.009126
v 0.347597 0.121207 -0.105738
v 0.352785 0.115449 -0.103012
v 0.010619 0.232294 -0.027491
v 0.009289 0.227850 -0.031584
v 0.343337 0.121207 -0.118848
v 0.345957 0.115450 -0.124025
v 0.019938 0.199404 -0.018594
v 0.011047 0.096141 -0.367351
v -0.027168 0.199404 -0.018594
v -0.011048 0.096141 -0.367351
v 0.019938 0.227882 -0.018594
v 0.015638 0.232321 -0.018594
v 0.006851 0.121207 -0.363259
v 0.011047 0.115449 -0.367351
v -0.022864 0.232294 -0.018594
v -0.027168 0.227850 -0.018594
v -0.006934 0.121207 -0.363259
v -0.011048 0.115450 -0.367351
v -0.011523 0.199404 -0.024708
v -0.345958 0.096141 -0.124024
v -0.026079 0.199404 0.020092
v -0.352785 0.096141 -0.103010
v -0.011523 0.227882 -0.024708
v -0.012852 0.232321 -0.020618
v -0.343363 0.121207 -0.118768
v -0.345958 0.115449 -0.124024
v -0.024750 0.232294 0.015999
v -0.026079 0.227850 0.020092
v -0.347623 0.121207 -0.105659
v -0.352785 0.115450 -0.103010
v -0.027060 0.199404 0.003324
v -0.224860 0.096141 0.290700
v 0.011050 0.199404 0.031012
v -0.206985 0.096141 0.303687
v -0.027060 0.227882 0.003324
v -0.023581 0.232321 0.005851
v -0.219060 0.121207 0.289856
v -0.224860 0.115449 0.290700
v 0.007568 0.232294 0.028482
v 0.011050 0.227850 0.031012
v -0.207909 0.121207 0.297958
v -0.206985 0.115450 0.303687
v 0.044151 0.368085 0.043263
v 0.041105 0.372047 0.040146
v 0.061992 0.368085 0.000191
v 0.057690 0.372047 0.000089
v 0.044151 0.368085 -0.042881
v 0.041093 0.372047 -0.039956
v -0.000000 0.372047 0.056760
v -0.000000 0.368085 0.061104
v -0.041105 0.372047 0.040146
v -0.044151 0.368085 0.043263
v -0.057690 0.372047 0.000089
v -0.061992 0.368085 0.000191
v -0.041093 0.372047 -0.039956
v -0.044151 0.368085 -0.042881
v 0.000000 0.368085 -0.060722
v 0.000000 0.372047 -0.056557
v 0.044151 0.184101 0.043263
v -0.000000 0.184101 0.061104
v 0.061992 0.184101 0.000191
v 0.044151 0.184101 -0.042881
v 0.000000 0.184101 -0.060722
v -0.044151 0.184101 0.043263
v -0.061992 0.184101 0.000191
v -0.044151 0.184101 -0.042881
v -0.000000 0.167627 0.038073
v 0.000000 0.167627 -0.037691
v 0.027554 0.167627 0.026939
v 0.038634 0.167627 0.000191
v 0.027554 0.167627 -0.026557
v -0.027554 0.167627 0.026939
v -0.038634 0.167627 0.000191
v -0.027554 0.167627 -0.026557
vn -0.0000 1.0000 -0.0000
vn 0.7032 -0.0000 -0.7110
vn -0.0000 -0.0000 -1.0000
vn 0.7032 -0.0000 0.7110
vn 1.0000 -0.0000 -0.0000
vn -0.0000 -0.0000 1.0000
vn 0.7040 -0.0000 -0.7102
vn 0.7040 -0.0000 0.7102
vn -0.7032 -0.0000 -0.7110
vn -0.7032 -0.0000 0.7110
vn -1.0000 -0.0000 -0.0000
vn -0.7040 -0.0000 -0.7102
vn -0.7040 -0.0000 0.7102
vn 0.9511 -0.0000 -0.3090
vn -0.9511 -0.0000 0.3090
vn 0.3090 -0.0000 0.9511
vn -0.3090 -0.0000 -0.9511
vn 0.5878 -0.0000 0.8090
vn -0.1669 -0.9589 -0.2297
vn -0.5878 -0.0000 -0.8090
vn -0.8090 -0.0000 0.5878
vn 0.8090 -0.0000 -0.5878
vn 0.5705 0.2410 0.7852
vn 0.5703 0.2422 0.7849
vn -0.5878 -0.0000 0.8090
vn 0.5878 -0.0000 -0.8090
vn -0.8090 -0.0000 -0.5878
vn 0.8090 -0.0000 0.5878
vn -0.9511 -0.0000 -0.3090
vn 0.9511 -0.0000 0.3090
vn 0.3090 -0.0000 -0.9511
vn -0.3090 -0.0000 0.9511
vn 0.8228 0.4244 -0.3780
vn 0.8516 0.2218 -0.4750
vn 0.8353 -0.0000 -0.5498
vn 0.4656 0.8843 0.0344
vn -0.1121 0.8878 0.4463
vn 0.0582 0.8033 0.5927
vn 0.5459 0.8017 0.2433
vn -0.6253 0.4276 0.6528
vn -0.7288 0.2209 0.6481
vn -0.7938 -0.0000 0.6082
vn -0.2700 -0.9589 0.0877
vn 0.9230 0.2410 -0.2999
vn 0.9227 0.2422 -0.2998
vn -0.1052 0.4244 -0.8993
vn -0.1886 0.2218 -0.9567
vn -0.2648 -0.0000 -0.9643
vn 0.1766 0.8843 -0.4321
vn 0.3899 0.8878 0.2446
vn 0.5817 0.8033 0.1278
vn 0.4001 0.8017 -0.4440
vn 0.4276 0.4276 0.7964
vn 0.3912 0.2209 0.8934
vn 0.3332 -0.0000 0.9429
vn -0.0000 -0.9589 0.2839
vn -0.0000 0.2410 -0.9705
vn -0.0000 0.2422 -0.9702
vn -0.8878 0.4244 -0.1778
vn -0.9682 0.2218 -0.1162
vn -0.9989 -0.0000 -0.0462
vn -0.3564 0.8843 -0.3015
vn 0.3531 0.8878 -0.2952
vn 0.3013 0.8033 -0.5138
vn -0.2986 0.8017 -0.5177
vn 0.8896 0.4276 -0.1605
vn 0.9706 0.2209 -0.0960
vn 0.9997 -0.0000 -0.0255
vn 0.2700 -0.9589 0.0877
vn -0.9230 0.2410 -0.2999
vn -0.9227 0.2422 -0.2998
vn -0.4435 0.4244 0.7894
vn -0.4097 0.2218 0.8849
vn -0.3526 -0.0000 0.9358
vn -0.3969 0.8843 0.2458
vn -0.1717 0.8878 -0.4270
vn -0.3955 0.8033 -0.4453
vn -0.5847 0.8017 0.1240
vn 0.1222 0.4276 -0.8957
vn 0.2087 0.2209 -0.9527
vn 0.2847 -0.0000 -0.9586
vn 0.1669 -0.9589 -0.2297
vn -0.5705 0.2410 0.7852
vn -0.5703 0.2422 0.7849
vn 0.6137 0.4244 0.6657
vn 0.7149 0.2218 0.6631
vn 0.7810 -0.0000 0.6245
vn 0.1111 0.8843 0.4534
vn -0.4591 0.8878 0.0313
vn -0.5457 0.8033 0.2385
vn -0.0627 0.8017 0.5944
vn -0.8141 0.4276 -0.3930
vn -0.8416 0.2209 -0.4929
vn -0.8237 -0.0000 -0.5670
vn 0.4743 0.7401 0.4768
vn -0.0000 0.7391 0.6736
vn 0.4730 0.7401 0.4781
vn 0.6773 0.7357 -0.0039
vn 0.6773 0.7357 0.0024
vn 0.4782 0.7298 -0.4886
vn 0.4832 0.7299 -0.4836
vn -0.0000 0.7244 -0.6893
vn -0.4730 0.7401 0.4781
vn -0.4743 0.7401 0.4768
vn -0.6773 0.7357 0.0024
vn -0.6773 0.7357 -0.0039
vn -0.4832 0.7299 -0.4836
vn -0.4782 0.7298 -0.4886
vn -0.0000 -1.0000 -0.0000
vt 0.209021 0.961887
vt 0.208255 0.961887
vt 0.210554 0.961887
vt 0.209787 0.961887
vt 0.211320 0.961887
vt 0.208834 0.962245
vt 0.208834 0.962245
vt 0.208068 0.962245
vt 0.210367 0.962245
vt 0.210367 0.962245
vt 0.209601 0.962245
vt 0.211133 0.962245
vt 0.209601 0.962245
vt 0.208068 0.962245
vt 0.208268 0.962245
vt 0.208892 0.962245
vt 0.210309 0.962245
vt 0.047809 0.965017
vt 0.063443 0.965017
vt 0.211878 0.968685
vt 0.211133 0.962245
vt 0.210933 0.962245
s 1
usemtl palette
f 3/1/1 6/1/1 22/2/1 17/2/1
f 1/3/1 4/3/1 5/4/1 2/4/1
f 13/5/1 18/5/1 4/3/1 1/3/1
f 2/4/1 5/4/1 6/1/1 3/1/1
f 6/1/2 9/1/2 27/2/3 22/2/3
f 4/3/4 7/3/4 8/4/5 5/4/5
f 5/4/5 8/4/5 9/1/2 6/1/2
f 18/5/6 23/5/6 7/3/4 4/3/4
f 147/6/7 162/7/7 163/8/3 157/8/3
f 143/9/8 159/10/8 161/11/5 145/11/5
f 23/12/1 24/10/1 151/10/1 149/12/1
f 23/12/1 149/12/1 144/10/1 7/10/1
f 8/11/1 146/11/1 148/7/1 9/7/1
f 7/10/1 144/10/1 146/13/1 8/11/1
f 9/7/1 148/7/1 158/14/1 27/8/1
f 145/13/5 161/11/5 162/7/7 147/7/7
f 32/15/3 12/16/7 171/16/7 168/15/3
f 16/1/1 17/2/1 22/2/1 21/1/1
f 14/3/1 15/4/1 20/4/1 19/3/1
f 13/5/1 14/3/1 19/3/1 18/5/1
f 15/4/1 16/1/1 21/1/1 20/4/1
f 21/1/9 22/2/3 27/2/3 26/1/9
f 19/3/10 20/4/11 25/4/11 24/3/10
f 20/4/11 21/1/9 26/1/9 25/4/11
f 18/5/6 19/3/10 24/3/10 23/5/6
f 156/7/12 157/14/3 163/8/3 166/7/12
f 150/12/6 152/9/13 164/10/13 160/12/6
f 154/11/11 156/6/12 166/7/12 165/11/11
f 25/11/1 26/7/1 155/7/1 153/11/1
f 152/10/13 154/13/11 165/11/11 164/10/13
f 26/7/1 27/8/1 158/8/1 155/6/1
f 24/10/1 25/11/1 153/11/1 151/10/1
f 29/17/13 30/11/11 173/11/11 172/17/13
f 39/18/3 34/18/3 36/18/3 42/18/3
f 37/19/6 40/19/6 35/18/6 33/18/6
f 33/18/5 35/18/5 36/18/5 34/18/5
f 37/19/6 38/18/6 41/18/6 40/19/6
f 38/18/11 39/18/11 42/18/11 41/18/11
f 49/18/14 44/18/14 46/18/14 52/18/14
f 47/19/15 50/19/15 45/18/15 43/18/15
f 43/18/16 45/18/16 46/18/16 44/18/16
f 47/19/15 48/18/15 51/18/15 50/19/15
f 48/18/17 49/18/17 52/18/17 51/18/17
f 63/18/18 56/18/18 58/18/18 66/18/18
f 54/20/19 53/20/19 59/20/19 60/20/19
f 61/19/20 64/19/20 57/18/20 55/18/20
f 55/18/21 57/18/21 58/18/21 56/18/21
f 61/19/20 62/18/20 65/18/20 64/19/20
f 62/18/22 63/18/22 66/18/22 65/18/22
f 90/20/23 54/20/18 60/20/18 94/20/24
f 73/18/25 68/18/25 70/18/25 76/18/25
f 71/19/26 74/19/26 69/18/26 67/18/26
f 67/18/27 69/18/27 70/18/27 68/18/27
f 71/19/26 72/18/26 75/18/26 74/19/26
f 72/18/28 73/18/28 76/18/28 75/18/28
f 83/18/29 78/18/29 80/18/29 86/18/29
f 81/19/30 84/19/30 79/18/30 77/18/30
f 77/18/31 79/18/31 80/18/31 78/18/31
f 81/19/30 82/18/30 85/18/30 84/19/30
f 82/18/32 83/18/32 86/18/32 85/18/32
f 92/20/33 94/20/34 60/20/35 59/20/35
f 91/20/36 88/20/37 89/20/38 93/20/39
f 89/20/38 88/20/37 87/20/40 90/20/41
f 94/20/34 92/20/33 91/20/36 93/20/39
f 93/20/39 89/20/38 90/20/23 94/20/24
f 53/20/42 54/20/42 90/20/41 87/20/40
f 96/20/43 95/20/43 97/20/43 98/20/43
f 102/20/44 96/20/14 98/20/14 106/20/45
f 104/20/46 106/20/47 98/20/48 97/20/48
f 103/20/49 100/20/50 101/20/51 105/20/52
f 101/20/51 100/20/50 99/20/53 102/20/54
f 106/20/47 104/20/46 103/20/49 105/20/52
f 105/20/52 101/20/51 102/20/44 106/20/45
f 95/20/55 96/20/55 102/20/54 99/20/53
f 108/20/56 107/20/56 109/20/56 110/20/56
f 114/20/57 108/20/3 110/20/3 118/20/58
f 116/20/59 118/20/60 110/20/61 109/20/61
f 115/20/62 112/20/63 113/20/64 117/20/65
f 113/20/64 112/20/63 111/20/66 114/20/67
f 118/20/60 116/20/59 115/20/62 117/20/65
f 117/20/65 113/20/64 114/20/57 118/20/58
f 107/20/68 108/20/68 114/20/67 111/20/66
f 120/20/69 119/20/69 121/20/69 122/20/69
f 126/20/70 120/20/29 122/20/29 130/20/71
f 128/20/72 130/20/73 122/20/74 121/20/74
f 127/20/75 124/20/76 125/20/77 129/20/78
f 125/20/77 124/20/76 123/20/79 126/20/80
f 130/20/73 128/20/72 127/20/75 129/20/78
f 129/20/78 125/20/77 126/20/70 130/20/71
f 119/20/81 120/20/81 126/20/80 123/20/79
f 132/20/82 131/20/82 133/20/82 134/20/82
f 138/20/83 132/20/25 134/20/25 142/20/84
f 140/20/85 142/20/86 134/20/87 133/20/87
f 139/20/88 136/20/89 137/20/90 141/20/91
f 137/20/90 136/20/89 135/20/92 138/20/93
f 142/20/86 140/20/85 139/20/88 141/20/91
f 141/20/91 137/20/90 138/20/83 142/20/84
f 131/20/94 132/20/94 138/20/93 135/20/92
f 144/10/95 149/12/96 150/21/96 143/10/97
f 146/13/98 144/10/95 143/9/97 145/11/99
f 148/7/100 146/11/98 145/13/99 147/7/101
f 158/14/102 148/7/100 147/6/101 157/8/102
f 152/9/103 150/12/96 149/12/96 151/10/104
f 154/13/105 152/10/103 151/10/104 153/11/106
f 156/6/107 154/11/105 153/11/106 155/7/108
f 157/14/102 156/7/107 155/6/108 158/8/102
f 150/21/6 160/12/6 159/10/8 143/10/8
f 28/22/109 10/17/109 159/10/109 160/12/109
f 10/17/109 11/11/109 161/11/109 159/10/109
f 11/11/109 12/16/109 162/7/109 161/11/109
f 12/16/109 32/15/109 163/8/109 162/7/109
f 29/17/109 28/22/109 160/12/109 164/10/109
f 30/11/109 29/17/109 164/10/109 165/11/109
f 31/16/109 30/11/109 165/11/109 166/7/109
f 32/15/109 31/16/109 166/7/109 163/8/109
f 169/17/109 167/22/109 168/15/109 171/16/109 170/11/109
f 172/17/109 173/11/109 174/16/109 168/15/109 167/22/109
f 11/11/5 10/17/8 169/17/8 170/11/5
f 30/11/11 31/16/12 174/16/12 173/11/11
f 28/22/6 29/17/13 172/17/13 167/22/6
f 12/16/7 11/11/5 170/11/5 171/16/7
f 10/17/8 28/22/6 167/22/6 169/17/8
f 31/16/12 32/15/3 168/15/3 174/16/12
