# Blender 3.6.2
# www.blender.org
mtllib Gaming_Chair_Arms_Base_1.mtl
o Gaming_Chair_Arms_Base_1
v 0.264041 0.010028 0.023549
v 0.286693 0.016340 0.025266
v 0.285784 0.016726 -0.023296
v 0.263140 0.010340 -0.021833
v 0.295569 0.027318 0.028119
v 0.294545 0.027611 -0.025997
v 0.305015 0.064984 0.025109
v 0.304115 0.065152 -0.023087
v 0.306671 -0.008395 -0.013180
v 0.299614 0.000107 -0.023512
v 0.300594 -0.000264 0.025050
v 0.307347 -0.008598 0.014497
v 0.273048 -0.016828 0.012434
v 0.270328 -0.008123 0.023403
v 0.269351 -0.007822 -0.021978
v 0.272438 -0.016656 -0.011157
v 0.330609 0.017745 -0.017425
v 0.318795 0.020955 -0.026279
v 0.319800 0.020669 0.027838
v 0.331285 0.017552 0.018709
v 0.323194 0.062849 -0.023304
v 0.332685 0.061776 -0.016325
v 0.333315 0.061660 0.017730
v 0.324126 0.062679 0.024892
v 0.301279 0.065421 0.028986
v 0.300235 0.065615 -0.026877
v 0.336457 0.061333 -0.018299
v 0.324419 0.062709 -0.027152
v 0.325447 0.062518 0.028711
v 0.337158 0.061203 0.019582
v 0.313006 0.297242 0.025292
v 0.312097 0.297357 -0.022903
v 0.340814 0.295637 -0.016142
v 0.331278 0.296160 -0.023120
v 0.332218 0.296044 0.025075
v 0.341450 0.295557 0.017913
v -0.264041 0.010028 0.023549
v -0.286693 0.016340 0.025266
v -0.285784 0.016726 -0.023296
v -0.263140 0.010340 -0.021833
v 0.000000 0.011927 0.023476
v 0.000000 0.012221 -0.021905
v -0.295569 0.027318 0.028119
v -0.294545 0.027611 -0.025997
v -0.305015 0.064984 0.025109
v -0.304115 0.065152 -0.023087
v 0.000000 -0.015628 -0.011157
v 0.000000 -0.006622 -0.022002
v 0.000000 -0.006925 0.023379
v 0.000000 -0.015802 0.012435
v -0.306671 -0.008395 -0.013180
v -0.299614 0.000107 -0.023512
v -0.300594 -0.000264 0.025050
v -0.307347 -0.008598 0.014497
v -0.273048 -0.016828 0.012434
v -0.270328 -0.008123 0.023403
v -0.269351 -0.007822 -0.021978
v -0.272438 -0.016656 -0.011157
v -0.330609 0.017745 -0.017425
v -0.318795 0.020955 -0.026279
v -0.319800 0.020669 0.027838
v -0.331285 0.017552 0.018709
v -0.323194 0.062849 -0.023304
v -0.332685 0.061776 -0.016325
v -0.333315 0.061660 0.017730
v -0.324126 0.062679 0.024892
v -0.301279 0.065421 0.028986
v -0.300235 0.065615 -0.026877
v -0.336457 0.061333 -0.018299
v -0.324419 0.062709 -0.027152
v -0.325447 0.062518 0.028711
v -0.337158 0.061203 0.019582
v -0.313006 0.297242 0.025292
v -0.312097 0.297357 -0.022903
v -0.340814 0.295637 -0.016142
v -0.331278 0.296160 -0.023120
v -0.332218 0.296044 0.025075
v -0.341450 0.295557 0.017913
vn 0.5196 -0.8543 -0.0173
vn 0.9113 -0.4111 -0.0203
vn 0.9119 -0.4100 -0.0203
vn 0.5251 -0.8509 -0.0174
vn -0.0292 -0.0081 -0.9995
vn -0.0000 0.0066 -1.0000
vn -0.0226 -0.0048 -0.9997
vn -0.0418 -0.0562 -0.9975
vn -0.0654 -0.0665 -0.9956
vn -0.0632 -0.0590 -0.9963
vn -0.0483 -0.0651 -0.9967
vn -0.0154 -0.0198 -0.9997
vn -0.1338 0.9910 0.0096
vn -0.1375 0.9905 0.0097
vn -0.2700 0.9628 0.0124
vn -0.0000 1.0000 0.0066
vn -0.7783 0.6277 0.0188
vn -0.9236 0.3827 0.0197
vn -0.9229 0.3845 0.0197
vn -0.9888 0.1481 0.0192
vn -0.0573 -0.0861 0.9946
vn -0.0226 -0.0656 0.9976
vn -0.0297 -0.0760 0.9967
vn -0.0566 -0.0787 0.9953
vn -0.0000 -0.0066 1.0000
vn -0.0301 -0.0263 0.9992
vn -0.0233 -0.0218 0.9995
vn 0.0070 -0.0228 0.9997
vn 0.1162 -0.9932 -0.0102
vn 0.1200 -0.9927 -0.0103
vn 0.6126 -0.0219 0.7901
vn 0.9909 -0.1331 -0.0190
vn 0.0682 -0.7649 0.6405
vn 0.0773 -0.7626 0.6422
vn 0.3103 -0.6410 0.7020
vn 0.3019 -0.6471 0.7001
vn 0.2917 -0.6346 -0.7157
vn 0.3021 -0.6267 -0.7183
vn 0.0779 -0.7515 -0.6551
vn 0.0665 -0.7548 -0.6526
vn -0.0000 -0.7722 -0.6354
vn -0.0000 -0.7802 0.6256
vn 0.5178 -0.3225 -0.7924
vn 0.5270 -0.2960 -0.7966
vn 0.5475 -0.3040 0.7796
vn 0.5383 -0.3299 0.7755
vn 0.5816 -0.0947 -0.8080
vn 0.6040 -0.0975 0.7910
vn -0.0000 -1.0000 -0.0073
vn 0.1184 0.9930 0.0016
vn 0.1184 0.9930 0.0009
vn 0.1168 0.9932 -0.0005
vn 0.1157 0.9933 -0.0002
vn 0.1158 0.9933 0.0027
vn 0.1168 0.9931 0.0030
vn 0.0598 0.9982 0.0012
vn -0.9992 0.0343 0.0189
vn 0.0112 -0.0012 0.9999
vn 0.9992 -0.0347 -0.0187
vn 0.5903 -0.0199 -0.8070
vn -0.0112 0.0012 -0.9999
vn -0.5196 -0.8543 -0.0173
vn -0.5251 -0.8509 -0.0174
vn -0.9119 -0.4100 -0.0203
vn -0.9113 -0.4111 -0.0203
vn 0.0292 -0.0081 -0.9995
vn 0.0226 -0.0048 -0.9997
vn 0.0418 -0.0562 -0.9975
vn 0.0483 -0.0651 -0.9967
vn 0.0632 -0.0590 -0.9963
vn 0.0654 -0.0665 -0.9956
vn 0.0154 -0.0198 -0.9997
vn 0.1338 0.9910 0.0096
vn 0.2700 0.9628 0.0124
vn 0.1375 0.9905 0.0097
vn 0.7783 0.6277 0.0188
vn 0.9229 0.3845 0.0197
vn 0.9236 0.3827 0.0197
vn 0.9888 0.1481 0.0192
vn 0.0573 -0.0861 0.9946
vn 0.0566 -0.0787 0.9953
vn 0.0297 -0.0760 0.9967
vn 0.0226 -0.0656 0.9976
vn 0.0233 -0.0218 0.9995
vn 0.0301 -0.0263 0.9992
vn -0.0070 -0.0228 0.9997
vn -0.1162 -0.9932 -0.0102
vn -0.1200 -0.9927 -0.0103
vn -0.6126 -0.0219 0.7901
vn -0.9909 -0.1331 -0.0190
vn -0.0682 -0.7649 0.6405
vn -0.3019 -0.6471 0.7001
vn -0.3103 -0.6410 0.7020
vn -0.0773 -0.7626 0.6422
vn -0.2917 -0.6346 -0.7157
vn -0.0665 -0.7548 -0.6526
vn -0.0779 -0.7515 -0.6551
vn -0.3021 -0.6267 -0.7183
vn -0.5178 -0.3225 -0.7924
vn -0.5270 -0.2960 -0.7966
vn -0.5383 -0.3299 0.7755
vn -0.5475 -0.3040 0.7796
vn -0.5816 -0.0947 -0.8080
vn -0.6040 -0.0975 0.7910
vn -0.1184 0.9930 0.0016
vn -0.1184 0.9930 0.0009
vn -0.1168 0.9932 -0.0005
vn -0.1157 0.9933 -0.0002
vn -0.1158 0.9933 0.0027
vn -0.1168 0.9931 0.0030
vn -0.0598 0.9982 0.0012
vn 0.9992 0.0343 0.0189
vn -0.0112 -0.0012 0.9999
vn -0.9992 -0.0347 -0.0187
vn -0.5903 -0.0199 -0.8070
vn 0.0112 0.0012 -0.9999
vt 0.212464 0.964163
vt 0.212464 0.963689
vt 0.212464 0.963690
vt 0.212464 0.964281
vt 0.212464 0.964281
vt 0.212464 0.963572
vt 0.212464 0.963572
vt 0.212464 0.964140
vt 0.212464 0.963712
vt 0.212464 0.963620
vt 0.212464 0.963710
vt 0.212464 0.964166
vt 0.212464 0.963686
vt 0.212464 0.964232
vt 0.212464 0.964232
vt 0.212464 0.964142
s 1
usemtl palette
f 9/1/1 17/1/2 20/2/3 12/3/4
f 15/4/5 48/4/6 42/4/6 4/4/7
f 18/4/8 10/4/9 3/4/10 6/4/11
f 28/4/12 18/4/8 6/4/11 26/5/12
f 4/4/13 1/6/14 2/6/15 3/4/15
f 42/4/16 41/6/16 1/6/14 4/4/13
f 3/4/17 2/6/17 5/6/18 6/4/19
f 6/4/19 5/6/18 25/6/20 26/5/20
f 10/4/9 15/4/5 4/4/7 3/4/10
f 11/6/21 19/6/22 5/6/23 2/6/24
f 49/6/25 14/6/26 1/6/27 41/6/25
f 19/6/22 29/7/28 25/6/28 5/6/23
f 16/8/29 9/1/1 12/3/4 13/9/30
f 14/6/26 11/6/21 2/6/24 1/6/27
f 24/10/31 23/11/31 36/11/31 35/10/31
f 17/1/2 27/12/32 30/13/32 20/2/3
f 14/6/33 13/9/34 12/3/35 11/6/36
f 10/4/37 9/1/38 16/8/39 15/4/40
f 15/4/40 16/8/39 47/8/41 48/4/41
f 49/6/42 50/9/42 13/9/34 14/6/33
f 18/4/43 17/1/44 9/1/38 10/4/37
f 11/6/36 12/3/35 20/2/45 19/6/46
f 28/4/47 27/12/47 17/1/44 18/4/43
f 19/6/46 20/2/45 30/13/48 29/7/48
f 47/8/49 16/8/29 13/9/30 50/9/49
f 7/10/50 8/14/51 26/5/51 25/6/50
f 21/15/52 22/16/53 27/12/53 28/4/52
f 23/11/54 24/10/55 29/7/55 30/13/54
f 22/16/53 23/11/54 30/13/54 27/12/53
f 8/14/51 21/15/52 28/4/52 26/5/51
f 24/10/55 7/10/50 25/6/50 29/7/55
f 36/11/56 33/16/56 34/15/56 32/14/56 31/10/56 35/10/56
f 8/14/57 7/10/57 31/10/57 32/14/57
f 7/10/58 24/10/58 35/10/58 31/10/58
f 23/11/59 22/16/59 33/16/59 36/11/59
f 22/16/60 21/15/60 34/15/60 33/16/60
f 21/15/61 8/14/61 32/14/61 34/15/61
f 51/1/62 54/3/63 62/2/64 59/1/65
f 57/4/66 40/4/67 42/4/6 48/4/6
f 60/4/68 44/4/69 39/4/70 52/4/71
f 70/4/72 68/5/72 44/4/69 60/4/68
f 40/4/73 39/4/74 38/6/74 37/6/75
f 42/4/16 40/4/73 37/6/75 41/6/16
f 39/4/76 44/4/77 43/6/78 38/6/76
f 44/4/77 68/5/79 67/6/79 43/6/78
f 52/4/71 39/4/70 40/4/67 57/4/66
f 53/6/80 38/6/81 43/6/82 61/6/83
f 49/6/25 41/6/25 37/6/84 56/6/85
f 61/6/83 43/6/82 67/6/86 71/7/86
f 58/8/87 55/9/88 54/3/63 51/1/62
f 56/6/85 37/6/84 38/6/81 53/6/80
f 66/10/89 77/10/89 78/11/89 65/11/89
f 59/1/65 62/2/64 72/13/90 69/12/90
f 56/6/91 53/6/92 54/3/93 55/9/94
f 52/4/95 57/4/96 58/8/97 51/1/98
f 57/4/96 48/4/41 47/8/41 58/8/97
f 49/6/42 56/6/91 55/9/94 50/9/42
f 60/4/99 52/4/95 51/1/98 59/1/100
f 53/6/92 61/6/101 62/2/102 54/3/93
f 70/4/103 60/4/99 59/1/100 69/12/103
f 61/6/101 71/7/104 72/13/104 62/2/102
f 47/8/49 50/9/49 55/9/88 58/8/87
f 45/10/105 67/6/105 68/5/106 46/14/106
f 63/15/107 70/4/107 69/12/108 64/16/108
f 65/11/109 72/13/109 71/7/110 66/10/110
f 64/16/108 69/12/108 72/13/109 65/11/109
f 46/14/106 68/5/106 70/4/107 63/15/107
f 66/10/110 71/7/110 67/6/105 45/10/105
f 78/11/111 77/10/111 73/10/111 74/14/111 76/15/111 75/16/111
f 46/14/112 74/14/112 73/10/112 45/10/112
f 45/10/113 73/10/113 77/10/113 66/10/113
f 65/11/114 78/11/114 75/16/114 64/16/114
f 64/16/115 75/16/115 76/15/115 63/15/115
f 63/15/116 76/15/116 74/14/116 46/14/116
