# Blender 3.6.2
# www.blender.org
mtllib Gaming_Chair_Wheel.mtl
o Gaming_Chair_Wheel
v -0.021189 -0.012018 0.025912
v 0.021189 -0.012018 0.025912
v -0.021189 -0.030341 0.018322
v 0.021189 -0.030341 0.018322
v -0.021189 -0.037930 -0.000000
v 0.021189 -0.037930 -0.000000
v -0.021189 -0.030341 -0.018323
v 0.021189 -0.030341 -0.018322
v -0.021189 -0.012018 -0.025912
v 0.021189 -0.012018 -0.025912
v -0.021189 0.006304 -0.018323
v 0.021189 0.006304 -0.018322
v -0.021189 0.013893 -0.000000
v 0.021189 0.013893 -0.000000
v -0.021189 0.006304 0.018322
v 0.021189 0.006304 0.018322
v -0.021189 -0.042862 0.030844
v -0.021189 -0.012018 0.043619
v 0.021189 -0.012018 0.043619
v 0.021189 -0.042862 0.030844
v -0.021189 -0.055638 -0.000000
v 0.021189 -0.055638 -0.000000
v -0.021189 -0.042862 -0.030844
v 0.021189 -0.042862 -0.030844
v -0.021189 -0.012018 -0.043620
v 0.021189 -0.012018 -0.043620
v -0.021189 0.018825 -0.030844
v 0.021189 0.018825 -0.030844
v -0.021189 0.031601 -0.000000
v 0.021189 0.031601 -0.000000
v -0.021189 0.018825 0.030844
v 0.021189 0.018825 0.030844
v -0.016504 -0.030341 0.018322
v -0.016504 -0.012018 0.025912
v 0.016504 -0.012018 0.025912
v 0.016504 -0.030341 0.018322
v -0.016504 -0.037930 -0.000000
v 0.016504 -0.037930 -0.000000
v -0.016504 -0.030341 -0.018323
v 0.016504 -0.030341 -0.018322
v -0.016504 -0.012018 -0.025912
v 0.016504 -0.012018 -0.025912
v -0.016504 0.006304 -0.018323
v 0.016504 0.006304 -0.018322
v -0.016504 0.013893 -0.000000
v 0.016504 0.013893 -0.000000
v -0.016504 0.006304 0.018322
v 0.016504 0.006304 0.018322
vn -0.0000 -0.0000 1.0000
vn -0.0000 -0.7071 0.7071
vn -0.0000 -1.0000 -0.0000
vn -0.0000 -0.7071 -0.7071
vn -0.0000 -0.0000 -1.0000
vn -0.0000 0.3827 0.9239
vn -0.0000 -0.3827 -0.9239
vn -0.0000 0.7071 -0.7071
vn -0.0000 1.0000 -0.0000
vn -0.0000 0.7071 0.7071
vn -1.0000 -0.0000 -0.0000
vn 1.0000 -0.0000 -0.0000
vn -0.0000 0.3827 -0.9239
vn -0.0000 -0.3827 0.9239
vn -0.0000 0.9239 -0.3827
vn -0.0000 -0.9239 0.3827
vn -0.0000 0.9239 0.3827
vn -0.0000 -0.9239 -0.3827
vt 0.210155 0.963352
vt 0.210266 0.963352
vt 0.210266 0.962460
vt 0.210155 0.962460
vt 0.210378 0.963352
vt 0.210378 0.962460
vt 0.210489 0.963352
vt 0.210489 0.962460
vt 0.210601 0.963352
vt 0.210601 0.962460
vt 0.210615 0.962460
vt 0.210537 0.962460
vt 0.210837 0.963352
vt 0.210793 0.963352
vt 0.210712 0.963352
vt 0.210712 0.962460
vt 0.210824 0.963352
vt 0.210824 0.962460
vt 0.210935 0.963352
vt 0.210935 0.962460
vt 0.211046 0.963352
vt 0.211046 0.962460
vt 0.210519 0.963352
vt 0.210793 0.962460
vt 0.210519 0.962460
vt 0.210475 0.963352
vt 0.210475 0.962460
vt 0.210537 0.963352
vt 0.210615 0.963352
vt 0.210697 0.963352
vt 0.210697 0.962460
vt 0.210776 0.963352
vt 0.210776 0.962460
vt 0.210837 0.962460
vt 0.461621 0.958396
vt 0.469663 0.958396
vt 0.470958 0.958396
vt 0.469160 0.958396
vt 0.466849 0.958396
vt 0.464435 0.958396
vt 0.462124 0.958396
vt 0.460326 0.958396
vt 0.469663 0.957398
vt 0.461621 0.957398
vt 0.460326 0.957398
vt 0.462124 0.957398
vt 0.464435 0.957398
vt 0.466849 0.957398
vt 0.469160 0.957398
vt 0.470958 0.957398
s 1
usemtl palette
f 18/1/1 17/2/2 20/3/2 19/4/1
f 17/2/2 21/5/3 22/6/3 20/3/2
f 21/5/3 23/7/4 24/8/4 22/6/3
f 23/7/4 25/9/5 26/10/5 24/8/4
s 0
f 10/11/6 42/11/6 40/12/6 8/12/6
f 15/13/7 47/13/7 34/14/7 1/14/7
s 1
f 26/10/5 25/9/5 27/15/8 28/16/8
f 28/16/8 27/15/8 29/17/9 30/18/9
f 30/18/9 29/17/9 31/19/10 32/20/10
f 32/20/10 31/19/10 18/21/1 19/22/1
s 0
f 3/23/11 17/2/11 18/21/11 1/14/11
f 2/24/12 19/22/12 20/3/12 4/25/12
f 5/26/11 21/5/11 17/2/11 3/23/11
f 4/25/12 20/3/12 22/6/12 6/27/12
f 7/28/11 23/7/11 21/5/11 5/26/11
f 6/27/12 22/6/12 24/8/12 8/12/12
f 9/29/11 25/9/11 23/7/11 7/28/11
f 8/12/12 24/8/12 26/10/12 10/11/12
f 11/30/11 27/15/11 25/9/11 9/29/11
f 10/11/12 26/10/12 28/16/12 12/31/12
f 13/32/11 29/17/11 27/15/11 11/30/11
f 12/31/12 28/16/12 30/18/12 14/33/12
f 15/13/11 31/19/11 29/17/11 13/32/11
f 14/33/12 30/18/12 32/20/12 16/34/12
f 1/14/11 18/21/11 31/19/11 15/13/11
f 16/34/12 32/20/12 19/22/12 2/24/12
f 35/35/12 36/36/12 38/37/12 40/38/12 42/39/12 44/40/12 46/41/12 48/42/12
f 33/43/11 34/44/11 47/45/11 45/46/11 43/47/11 41/48/11 39/49/11 37/50/11
f 1/14/13 34/14/13 33/23/13 3/23/13
f 2/24/7 35/24/7 48/34/7 16/34/7
f 9/29/14 41/29/14 43/30/14 11/30/14
f 4/25/13 36/25/13 35/24/13 2/24/13
f 12/31/14 44/31/14 42/11/14 10/11/14
f 3/23/15 33/23/15 37/26/15 5/26/15
f 11/30/16 43/30/16 45/32/16 13/32/16
f 6/27/15 38/27/15 36/25/15 4/25/15
f 14/33/16 46/33/16 44/31/16 12/31/16
f 5/26/17 37/26/17 39/28/17 7/28/17
f 13/32/18 45/32/18 47/13/18 15/13/18
f 8/12/17 40/12/17 38/27/17 6/27/17
f 16/34/18 48/34/18 46/33/18 14/33/18
f 7/28/6 39/28/6 41/29/6 9/29/6
