# Blender 3.6.2
# www.blender.org
mtllib Gaming_Chair_Arms_1.mtl
o Gaming_Chair_Arms_1
v 0.332909 0.267419 -0.011341
v 0.326778 0.267453 -0.017032
v 0.327275 0.267243 0.018941
v 0.335833 0.437903 0.013559
v 0.329861 0.437870 0.019412
v 0.329364 0.438080 -0.016560
v 0.316524 0.267269 0.014708
v 0.323759 0.437870 0.019494
v 0.319111 0.437895 0.015180
v 0.318735 0.438054 -0.012040
v 0.356341 0.430903 -0.082633
v 0.333246 0.267277 0.013087
v 0.335496 0.438046 -0.010869
v 0.321173 0.267243 0.019023
v 0.320676 0.267453 -0.016950
v 0.316148 0.267427 -0.012512
v 0.323263 0.438080 -0.016478
v 0.296013 0.430903 -0.082633
v 0.296013 0.431657 0.097606
v 0.356341 0.431657 0.097606
v 0.356341 0.433267 -0.055559
v 0.356341 0.433687 0.070583
v 0.356341 0.434786 -0.015583
v 0.356341 0.434940 0.030588
v 0.296013 0.433687 0.070583
v 0.296013 0.433267 -0.055559
v 0.296013 0.434940 0.030588
v 0.296013 0.434786 -0.015583
v 0.362022 0.450805 -0.084880
v 0.365614 0.447147 -0.084467
v 0.284545 0.446872 -0.084436
v 0.290225 0.450805 -0.084880
v 0.290225 0.451584 0.099542
v 0.284545 0.447646 0.099159
v 0.365614 0.447922 0.099186
v 0.362022 0.451584 0.099542
v 0.365614 0.449557 -0.056878
v 0.362022 0.453224 -0.057174
v 0.362022 0.453657 0.071956
v 0.365614 0.449987 0.071704
v 0.365614 0.451110 -0.016019
v 0.362022 0.454785 -0.016117
v 0.365614 0.451266 0.030884
v 0.362022 0.454942 0.030950
v 0.284545 0.449710 0.071685
v 0.290225 0.453657 0.071956
v 0.290225 0.453224 -0.057174
v 0.284545 0.449281 -0.056855
v 0.290225 0.454942 0.030950
v 0.284545 0.450989 0.030879
v 0.290225 0.454785 -0.016117
v 0.284545 0.450833 -0.016011
v -0.332909 0.267419 -0.011341
v -0.326778 0.267453 -0.017032
v -0.327275 0.267243 0.018941
v -0.335833 0.437903 0.013559
v -0.329861 0.437870 0.019412
v -0.329364 0.438080 -0.016560
v -0.316524 0.267269 0.014708
v -0.323759 0.437870 0.019494
v -0.319111 0.437895 0.015180
v -0.318735 0.438054 -0.012040
v -0.356341 0.430903 -0.082633
v -0.333246 0.267277 0.013087
v -0.335496 0.438046 -0.010869
v -0.321173 0.267243 0.019023
v -0.320676 0.267453 -0.016950
v -0.316148 0.267427 -0.012512
v -0.323263 0.438080 -0.016478
v -0.296013 0.430903 -0.082633
v -0.296013 0.431657 0.097606
v -0.356341 0.431657 0.097606
v -0.356341 0.433267 -0.055559
v -0.356341 0.433687 0.070583
v -0.356341 0.434786 -0.015583
v -0.356341 0.434940 0.030588
v -0.296013 0.433687 0.070583
v -0.296013 0.433267 -0.055559
v -0.296013 0.434940 0.030588
v -0.296013 0.434786 -0.015583
v -0.362022 0.450805 -0.084880
v -0.365614 0.447147 -0.084467
v -0.284545 0.446872 -0.084436
v -0.290225 0.450805 -0.084880
v -0.290225 0.451584 0.099542
v -0.284545 0.447646 0.099159
v -0.365614 0.447922 0.099186
v -0.362022 0.451584 0.099542
v -0.365614 0.449557 -0.056878
v -0.362022 0.453224 -0.057174
v -0.362022 0.453657 0.071956
v -0.365614 0.449987 0.071704
v -0.365614 0.451110 -0.016019
v -0.362022 0.454785 -0.016117
v -0.365614 0.451266 0.030884
v -0.362022 0.454942 0.030950
v -0.284545 0.449710 0.071685
v -0.290225 0.453657 0.071956
v -0.290225 0.453224 -0.057174
v -0.284545 0.449281 -0.056855
v -0.290225 0.454942 0.030950
v -0.284545 0.450989 0.030879
v -0.290225 0.454785 -0.016117
v -0.284545 0.450833 -0.016011
vn 0.0134 -0.0030 0.9999
vn -0.0134 0.0030 -0.9999
vn 0.7000 -0.0126 0.7141
vn 0.6802 -0.0083 -0.7329
vn 0.9998 -0.0151 -0.0139
vn -0.6802 0.0083 0.7329
vn -0.7000 0.0126 -0.7141
vn -0.9998 0.0151 0.0139
vn 0.8698 -0.4916 0.0429
vn 0.8695 -0.4936 -0.0155
vn -0.8137 -0.5811 -0.0182
vn -0.0000 0.9995 0.0313
vn -0.8138 -0.5795 -0.0435
vn -0.0000 -0.9962 0.0870
vn -0.0000 -0.9995 -0.0313
vn -0.0000 -1.0000 0.0033
vn -0.0000 -0.9993 0.0380
vn -0.0000 -0.9972 -0.0749
vn -0.0000 0.9972 0.0749
vn -0.0000 0.9962 -0.0870
vn -0.8137 -0.5809 0.0221
vn 0.8695 -0.4939 0.0016
vn -0.0000 1.0000 -0.0033
vn -0.8136 -0.5814 0.0019
vn -0.0000 0.9993 -0.0380
vn 0.8696 -0.4935 0.0188
vn 0.8697 -0.4922 -0.0370
vn -0.8139 -0.5788 0.0505
vn -0.0000 -0.0967 0.9953
vn -0.5712 0.8204 0.0257
vn 0.7152 0.6985 0.0219
vn -0.5712 0.8208 -0.0027
vn 0.7152 0.6989 -0.0023
vn -0.5713 0.8202 -0.0312
vn 0.7153 0.6983 -0.0265
vn 0.7155 0.6967 0.0523
vn -0.5715 0.8183 0.0615
vn 0.7156 0.6959 -0.0608
vn -0.5716 0.8174 -0.0714
vn -0.0000 -0.1122 -0.9937
vn -0.0134 -0.0030 0.9999
vn 0.0134 0.0030 -0.9999
vn -0.7000 -0.0126 0.7141
vn -0.6802 -0.0083 -0.7329
vn -0.9998 -0.0151 -0.0139
vn 0.6802 0.0083 0.7329
vn 0.7000 0.0126 -0.7141
vn 0.9998 0.0151 0.0139
vn -0.8698 -0.4916 0.0429
vn -0.8695 -0.4936 -0.0155
vn 0.8137 -0.5811 -0.0182
vn 0.8138 -0.5795 -0.0435
vn 0.8137 -0.5809 0.0221
vn -0.8695 -0.4939 0.0016
vn 0.8136 -0.5814 0.0019
vn -0.8696 -0.4935 0.0188
vn -0.8697 -0.4922 -0.0370
vn 0.8139 -0.5788 0.0505
vn 0.5712 0.8204 0.0257
vn -0.7152 0.6985 0.0219
vn 0.5712 0.8208 -0.0027
vn -0.7152 0.6989 -0.0023
vn 0.5713 0.8202 -0.0312
vn -0.7153 0.6983 -0.0265
vn -0.7155 0.6967 0.0523
vn 0.5715 0.8183 0.0615
vn -0.7156 0.6959 -0.0608
vn 0.5716 0.8174 -0.0714
vt 0.212464 0.963572
vt 0.212464 0.964281
vt 0.212464 0.963685
vt 0.212464 0.964167
vt 0.212464 0.963658
vt 0.212464 0.964194
vt 0.212464 0.963926
vt 0.212464 0.963904
vt 0.212464 0.963832
vt 0.212464 0.963799
vt 0.212464 0.963799
vt 0.212464 0.963832
vt 0.212464 0.963776
vt 0.212464 0.963926
vt 0.212464 0.963871
vt 0.212464 0.963904
vt 0.212464 0.963870
s 0
usemtl palette
f 3/1/1 5/1/1 8/1/1 14/1/1
f 15/2/2 17/2/2 6/2/2 2/2/2
f 4/3/3 5/1/3 3/1/3 12/3/3
f 1/4/4 2/2/4 6/2/4 13/4/4
f 1/4/5 13/4/5 4/3/5 12/3/5
f 7/5/6 14/1/6 8/1/6 9/5/6
f 15/2/7 16/6/7 10/6/7 17/2/7
f 7/5/8 9/5/8 10/6/8 16/6/8
f 30/7/9 37/8/9 21/8/9 11/7/9
f 43/9/10 40/10/10 22/11/10 24/9/10
f 45/11/11 50/12/11 27/9/11 25/11/11
f 46/10/12 39/11/12 44/9/12 49/9/12
f 34/13/13 45/11/13 25/11/13 19/13/13
f 21/8/14 26/8/14 18/14/14 11/7/14
f 25/11/15 27/9/15 24/9/15 22/11/15
f 27/9/16 28/15/16 23/15/16 24/9/16
f 28/15/17 26/8/17 21/8/17 23/15/17
f 20/13/18 19/13/18 25/11/18 22/11/18
f 36/13/19 39/10/19 46/11/19 33/13/19
f 38/8/20 29/7/20 32/14/20 47/16/20
f 52/17/21 48/16/21 26/8/21 28/15/21
f 41/15/22 43/9/22 24/9/22 23/15/22
f 49/9/23 44/9/23 42/15/23 51/17/23
f 50/12/24 52/17/24 28/15/24 27/9/24
f 51/17/25 42/15/25 38/8/25 47/16/25
f 37/8/26 41/17/26 23/15/26 21/8/26
f 40/11/27 35/13/27 20/13/27 22/11/27
f 48/8/28 31/14/28 18/14/28 26/8/28
f 35/13/29 36/13/29 33/13/29 34/13/29 19/13/29 20/13/29
f 50/12/30 45/11/30 46/10/30 49/9/30
f 40/10/31 43/9/31 44/9/31 39/11/31
f 52/17/32 50/12/32 49/9/32 51/17/32
f 43/9/33 41/15/33 42/15/33 44/9/33
f 48/16/34 52/17/34 51/17/34 47/16/34
f 41/17/35 37/8/35 38/8/35 42/15/35
f 35/13/36 40/11/36 39/10/36 36/13/36
f 45/11/37 34/13/37 33/13/37 46/11/37
f 37/8/38 30/7/38 29/7/38 38/8/38
f 31/14/39 48/8/39 47/16/39 32/14/39
f 31/14/40 32/14/40 29/7/40 30/7/40 11/7/40 18/14/40
f 55/1/41 66/1/41 60/1/41 57/1/41
f 67/2/42 54/2/42 58/2/42 69/2/42
f 56/3/43 64/3/43 55/1/43 57/1/43
f 53/4/44 65/4/44 58/2/44 54/2/44
f 53/4/45 64/3/45 56/3/45 65/4/45
f 59/5/46 61/5/46 60/1/46 66/1/46
f 67/2/47 69/2/47 62/6/47 68/6/47
f 59/5/48 68/6/48 62/6/48 61/5/48
f 82/7/49 63/7/49 73/8/49 89/8/49
f 95/9/50 76/9/50 74/11/50 92/10/50
f 97/11/51 77/11/51 79/9/51 102/12/51
f 98/10/12 101/9/12 96/9/12 91/11/12
f 86/13/52 71/13/52 77/11/52 97/11/52
f 73/8/14 63/7/14 70/14/14 78/8/14
f 77/11/15 74/11/15 76/9/15 79/9/15
f 79/9/16 76/9/16 75/15/16 80/15/16
f 80/15/17 75/15/17 73/8/17 78/8/17
f 72/13/18 74/11/18 77/11/18 71/13/18
f 88/13/19 85/13/19 98/11/19 91/10/19
f 90/8/20 99/16/20 84/14/20 81/7/20
f 104/17/53 80/15/53 78/8/53 100/16/53
f 93/15/54 75/15/54 76/9/54 95/9/54
f 101/9/23 103/17/23 94/15/23 96/9/23
f 102/12/55 79/9/55 80/15/55 104/17/55
f 103/17/25 99/16/25 90/8/25 94/15/25
f 89/8/56 73/8/56 75/15/56 93/17/56
f 92/11/57 74/11/57 72/13/57 87/13/57
f 100/8/58 78/8/58 70/14/58 83/14/58
f 87/13/29 72/13/29 71/13/29 86/13/29 85/13/29 88/13/29
f 102/12/59 101/9/59 98/10/59 97/11/59
f 92/10/60 91/11/60 96/9/60 95/9/60
f 104/17/61 103/17/61 101/9/61 102/12/61
f 95/9/62 96/9/62 94/15/62 93/15/62
f 100/16/63 99/16/63 103/17/63 104/17/63
f 93/17/64 94/15/64 90/8/64 89/8/64
f 87/13/65 88/13/65 91/10/65 92/11/65
f 97/11/66 98/11/66 85/13/66 86/13/66
f 89/8/67 90/8/67 81/7/67 82/7/67
f 83/14/68 84/14/68 99/16/68 100/8/68
f 83/14/40 70/14/40 63/7/40 82/7/40 81/7/40 84/14/40
