# Blender 3.6.2
# www.blender.org
mtllib Gaming_Chair_Ac_2.mtl
o Gaming_Chair_Ac_2
v 0.135568 -0.134700 0.038792
v 0.132992 -0.135285 -0.030640
v 0.135568 0.057534 0.035716
v 0.134074 0.141155 -0.004177
v 0.135130 0.105152 0.024209
v 0.133416 0.153635 -0.022301
v 0.132992 0.145679 -0.033877
v 0.152286 -0.119920 -0.028049
v 0.154645 -0.119385 0.035479
v 0.153276 0.133291 -0.004263
v 0.154244 0.100312 0.021739
v 0.154645 0.056695 0.032279
v 0.152286 0.137434 -0.031467
v 0.152675 0.144722 -0.020863
v 0.167360 -0.094938 -0.023488
v 0.169368 -0.094484 0.030441
v 0.168203 0.120507 -0.004054
v 0.169027 0.092447 0.018071
v 0.169368 0.055333 0.027039
v 0.167360 0.124033 -0.027202
v 0.167691 0.130234 -0.018179
v 0.135568 -0.038564 0.039531
v 0.154645 -0.031326 0.036157
v 0.169368 -0.019556 0.031018
v 0.000000 -0.134697 0.039156
v 0.000000 -0.135305 -0.033112
v -0.135568 -0.134700 0.038792
v -0.132992 -0.135285 -0.030640
v -0.135568 0.057534 0.035716
v -0.134074 0.141155 -0.004177
v -0.135130 0.105152 0.024209
v 0.000000 0.140327 -0.004222
v 0.000000 0.057537 0.036080
v 0.000000 0.104912 0.024454
v -0.133416 0.153635 -0.022301
v -0.132992 0.145679 -0.033877
v 0.000000 0.145658 -0.036349
v 0.000000 0.153854 -0.024662
v -0.152286 -0.119920 -0.028049
v -0.154645 -0.119385 0.035479
v -0.153276 0.133291 -0.004263
v -0.154244 0.100312 0.021739
v -0.154645 0.056695 0.032279
v -0.152286 0.137434 -0.031467
v -0.152675 0.144722 -0.020863
v -0.167360 -0.094938 -0.023488
v -0.169368 -0.094484 0.030441
v -0.168203 0.120507 -0.004054
v -0.169027 0.092447 0.018071
v -0.169368 0.055333 0.027039
v -0.167360 0.124033 -0.027202
v -0.167691 0.130234 -0.018179
v -0.135568 -0.038564 0.039531
v 0.000000 -0.038561 0.039896
v -0.154645 -0.031326 0.036157
v -0.169368 -0.019556 0.031018
vn 0.0027 0.0397 0.9992
vn -0.0069 0.8290 0.5592
vn -0.0000 -1.0000 0.0084
vn -0.0019 0.6242 0.7813
vn 0.0020 0.2366 0.9716
vn 0.0186 -0.0115 -0.9998
vn 0.0110 0.8213 -0.5704
vn 0.1308 -0.0123 -0.9913
vn 0.2860 -0.0143 -0.9581
vn 0.2507 0.6039 0.7566
vn 0.3881 0.7528 -0.5316
vn 0.1689 0.0412 0.9848
vn 0.1823 0.2325 0.9553
vn 0.3237 0.7847 0.5286
vn 0.6242 -0.7811 -0.0166
vn 0.9993 -0.0006 -0.0369
vn 0.3177 0.0457 0.9471
vn 0.4666 0.5560 0.6879
vn 0.5777 0.6819 0.4486
vn 0.6629 0.6055 -0.4404
vn 0.3451 0.2234 0.9116
vn 0.8581 -0.5128 -0.0276
vn 0.3347 -0.0072 0.9423
vn 0.1770 -0.0076 0.9842
vn 0.0027 -0.0077 1.0000
vn -0.0027 0.0397 0.9992
vn 0.0069 0.8290 0.5592
vn 0.0019 0.6242 0.7813
vn -0.0020 0.2366 0.9716
vn -0.0186 -0.0115 -0.9998
vn -0.0110 0.8213 -0.5704
vn -0.1308 -0.0123 -0.9913
vn -0.2860 -0.0143 -0.9581
vn -0.2507 0.6039 0.7566
vn -0.3881 0.7528 -0.5316
vn -0.1689 0.0412 0.9848
vn -0.1823 0.2325 0.9553
vn -0.3237 0.7847 0.5286
vn -0.6242 -0.7811 -0.0166
vn -0.9993 -0.0006 -0.0369
vn -0.3177 0.0457 0.9471
vn -0.4666 0.5560 0.6879
vn -0.5777 0.6819 0.4486
vn -0.6629 0.6055 -0.4404
vn -0.3451 0.2234 0.9116
vn -0.8581 -0.5128 -0.0276
vn -0.3347 -0.0072 0.9423
vn -0.1770 -0.0076 0.9842
vn -0.0027 -0.0077 1.0000
vt 0.215682 0.958140
vt 0.216107 0.958141
vt 0.216107 0.958831
vt 0.216107 0.958601
vt 0.215683 0.958618
vt 0.215683 0.958832
vt 0.216107 0.958962
vt 0.215683 0.958967
vt 0.216107 0.958141
vt 0.215683 0.958180
vt 0.215683 0.958967
s 0
usemtl palette
f 22/1/1 3/1/1 33/2/1 54/2/1
f 38/3/2 32/4/2 4/5/2 6/6/2
f 26/7/3 2/8/3 1/1/3 25/2/3
f 32/4/4 34/9/4 5/10/4 4/5/4
f 34/9/5 33/2/5 3/1/5 5/10/5
f 26/7/6 37/7/6 7/11/6 2/8/6
f 6/6/7 7/11/7 37/7/7 38/3/7
f 7/11/8 13/11/8 8/8/8 2/8/8
f 13/11/9 20/11/9 15/8/9 8/8/9
f 5/10/10 11/10/10 10/5/10 4/5/10
f 6/6/11 14/6/11 13/11/11 7/11/11
f 22/1/12 23/1/12 12/1/12 3/1/12
f 3/1/13 12/1/13 11/10/13 5/10/13
f 4/5/14 10/5/14 14/6/14 6/6/14
f 2/8/15 8/8/15 9/1/15 1/1/15
f 15/8/16 20/11/16 21/6/16 17/5/16 18/10/16 19/1/16 24/1/16 16/1/16
f 23/1/17 24/1/17 19/1/17 12/1/17
f 11/10/18 18/10/18 17/5/18 10/5/18
f 10/5/19 17/5/19 21/6/19 14/6/19
f 14/6/20 21/6/20 20/11/20 13/11/20
f 12/1/21 19/1/21 18/10/21 11/10/21
f 8/8/22 15/8/22 16/1/22 9/1/22
f 9/1/23 16/1/23 24/1/23 23/1/23
f 1/1/24 9/1/24 23/1/24 22/1/24
f 1/1/25 22/1/25 54/2/25 25/2/25
f 53/1/26 54/2/26 33/2/26 29/1/26
f 38/3/27 35/6/27 30/5/27 32/4/27
f 26/7/3 25/2/3 27/1/3 28/8/3
f 32/4/28 30/5/28 31/10/28 34/9/28
f 34/9/29 31/10/29 29/1/29 33/2/29
f 26/7/30 28/8/30 36/11/30 37/7/30
f 35/6/31 38/3/31 37/7/31 36/11/31
f 36/11/32 28/8/32 39/8/32 44/11/32
f 44/11/33 39/8/33 46/8/33 51/11/33
f 31/10/34 30/5/34 41/5/34 42/10/34
f 35/6/35 36/11/35 44/11/35 45/6/35
f 53/1/36 29/1/36 43/1/36 55/1/36
f 29/1/37 31/10/37 42/10/37 43/1/37
f 30/5/38 35/6/38 45/6/38 41/5/38
f 28/8/39 27/1/39 40/1/39 39/8/39
f 46/8/40 47/1/40 56/1/40 50/1/40 49/10/40 48/5/40 52/6/40 51/11/40
f 55/1/41 43/1/41 50/1/41 56/1/41
f 42/10/42 41/5/42 48/5/42 49/10/42
f 41/5/43 45/6/43 52/6/43 48/5/43
f 45/6/44 44/11/44 51/11/44 52/6/44
f 43/1/45 42/10/45 49/10/45 50/1/45
f 39/8/46 40/1/46 47/1/46 46/8/46
f 40/1/47 55/1/47 56/1/47 47/1/47
f 27/1/48 53/1/48 55/1/48 40/1/48
f 27/1/49 25/2/49 54/2/49 53/1/49
