# Blender 3.6.2
# www.blender.org
mtllib Green_Screen.mtl
o Green_Screen
v -0.755851 1.972903 0.041656
v -0.755851 1.982906 0.079921
v -0.730939 1.982906 0.079921
v -0.730939 1.972903 0.041656
v 0.000000 0.000000 -0.160462
v 0.000000 0.029596 -0.160462
v 0.000000 0.000000 -0.137437
v 0.000000 0.029596 -0.137437
v -0.755851 0.000000 -0.135488
v -0.730876 0.000000 -0.160462
v -0.748536 0.000000 -0.153147
v -0.730876 0.029596 -0.160462
v -0.755851 0.029596 -0.135488
v -0.748536 0.029596 -0.153147
v -0.722893 0.000000 -0.137436
v -0.730939 0.000000 -0.129390
v -0.730939 0.029596 -0.129390
v -0.722893 0.029596 -0.137436
v -1.000000 1.942998 -0.004653
v -1.000000 0.020127 0.477405
v -1.000000 0.020127 0.335347
v -1.000000 0.255937 0.099536
v -1.000000 0.031668 0.262477
v -1.000000 0.065163 0.196741
v -1.000000 0.117331 0.144572
v -1.000000 0.183068 0.111078
v -1.000000 1.980189 0.018184
v -1.000000 1.979623 0.099536
v -1.000000 2.000000 0.079160
v -1.000000 1.994032 0.093568
v -1.000000 1.934345 0.013378
v -1.000000 0.000127 0.477405
v -1.000000 0.000188 0.333777
v -1.000000 0.254368 0.079598
v -1.000000 0.012647 0.256297
v -1.000000 0.048982 0.184985
v -1.000000 0.105576 0.128392
v -1.000000 0.176887 0.092057
v -1.000000 1.963494 0.038252
v -1.000000 1.975722 0.079921
v -0.755851 0.000000 0.073590
v -0.755851 0.006331 0.079921
v -0.730939 0.006331 0.079921
v -0.730939 0.000000 0.073590
v -0.730939 0.029596 0.035941
v -0.730939 0.035310 0.041656
v -0.755851 0.035311 0.041656
v -0.755851 0.029596 0.035941
v 0.755851 1.972903 0.041656
v 0.755851 1.982906 0.079921
v 0.730939 1.982906 0.079921
v 0.730939 1.972903 0.041656
v 0.755851 0.000000 -0.135488
v 0.730876 0.000000 -0.160462
v 0.748536 0.000000 -0.153147
v 0.730876 0.029596 -0.160462
v 0.755851 0.029596 -0.135488
v 0.748536 0.029596 -0.153147
v 0.722893 0.000000 -0.137436
v 0.730939 0.000000 -0.129390
v 0.730939 0.029596 -0.129390
v 0.722893 0.029596 -0.137436
v 1.000000 1.942998 -0.004653
v 1.000000 0.020127 0.477405
v 1.000000 0.020127 0.335347
v 1.000000 0.255937 0.099536
v 1.000000 0.031668 0.262477
v 1.000000 0.065163 0.196741
v 1.000000 0.117331 0.144572
v 1.000000 0.183068 0.111078
v 1.000000 1.980189 0.018184
v 1.000000 1.979623 0.099536
v 1.000000 2.000000 0.079160
v 1.000000 1.994032 0.093568
v 1.000000 1.934345 0.013378
v 1.000000 0.000127 0.477405
v 1.000000 0.000188 0.333777
v 1.000000 0.254368 0.079598
v 1.000000 0.012647 0.256297
v 1.000000 0.048982 0.184985
v 1.000000 0.105576 0.128392
v 1.000000 0.176887 0.092057
v 1.000000 1.963494 0.038252
v 1.000000 1.975722 0.079921
v 0.755851 0.000000 0.073590
v 0.755851 0.006331 0.079921
v 0.730939 0.006331 0.079921
v 0.730939 0.000000 0.073590
v 0.730939 0.029596 0.035941
v 0.730939 0.035310 0.041656
v 0.755851 0.035311 0.041656
v 0.755851 0.029596 0.035941
vn -1.0000 -0.0000 -0.0000
vn -0.9808 -0.0000 -0.1951
vn -0.0000 -0.0000 1.0000
vn -0.0000 1.0000 -0.0000
vn -0.0000 -0.0000 -1.0000
vn -0.0000 -1.0000 -0.0000
vn -0.1951 -0.0000 -0.9808
vn -0.3827 -0.0000 -0.9239
vn -0.9239 -0.0000 -0.3827
vn 0.7071 -0.0000 0.7071
vn -0.0000 0.5233 -0.8522
vn -0.0000 0.9511 0.3090
vn -0.0000 0.8090 0.5878
vn -0.0000 0.5878 0.8090
vn -0.0000 0.3090 0.9511
vn -0.0000 0.0785 0.9969
vn -0.0000 0.9969 0.0785
vn -0.0000 0.9239 0.3827
vn -0.0000 -0.9968 -0.0798
vn -0.0000 -0.9507 -0.3101
vn -0.0000 0.1951 0.9808
vn -0.0000 0.3827 0.9239
vn -0.0000 0.9511 -0.3090
vn -0.0000 -0.8392 0.5438
vn -0.0000 -0.6491 0.7607
vn -0.0000 -0.8090 -0.5878
vn -0.0000 -0.5878 -0.8090
vn -0.0000 -0.3101 -0.9507
vn -0.0000 -0.0795 -0.9968
vn -0.0000 -1.0000 -0.0004
vn -0.0000 0.0002 -1.0000
vn -0.0000 -0.9016 -0.4327
vn -0.0000 -0.9595 0.2816
vn -0.0000 -0.7071 0.7071
vn -0.0000 0.7071 -0.7071
vn 1.0000 -0.0000 -0.0000
vn 0.9808 -0.0000 -0.1951
vn 0.1951 -0.0000 -0.9808
vn 0.3827 -0.0000 -0.9239
vn 0.9239 -0.0000 -0.3827
vn -0.7071 -0.0000 0.7071
vt 0.125870 0.961881
vt 0.125870 0.961881
vt 0.125870 0.961881
vt 0.125870 0.961881
vt 0.125870 0.961881
vt 0.125870 0.961881
vt 0.125870 0.961881
vt 0.129852 0.715151
vt 0.129852 0.715151
vt 0.129852 0.715016
vt 0.129852 0.715023
vt 0.129852 0.715027
vt 0.129852 0.715032
vt 0.129852 0.715150
vt 0.125870 0.961881
s 1
usemtl palette
f 47/1/1 48/1/1 13/1/2 9/2/2 41/1/1 42/3/1 2/1/1 1/1/1
f 18/4/3 15/4/3 7/4/3 8/4/3
f 17/4/4 18/4/4 8/4/4 6/4/4 12/5/4 14/5/4 13/1/4 48/1/4 45/4/4
f 46/4/5 47/1/5 1/1/5 4/6/5
f 9/2/6 11/7/6 10/1/6 5/4/6 7/4/6 15/4/6 16/4/6 44/4/6 41/1/6
f 12/5/7 10/1/7 11/7/8 14/5/8
f 14/5/9 11/7/9 9/2/2 13/1/2
f 10/1/7 12/5/7 6/4/5 5/4/5
f 15/4/10 18/4/10 17/4/10 16/4/10
f 71/8/11 63/9/11 19/9/11 27/8/11
f 67/10/12 68/10/13 24/10/13 23/10/12
f 68/10/13 69/11/14 25/11/14 24/10/13
f 69/11/14 70/12/15 26/12/15 25/11/14
f 70/12/15 66/13/16 22/13/16 26/12/15
f 20/10/4 64/10/4 65/10/17 21/10/17
f 30/9/18 74/9/18 73/9/18 29/9/18
f 77/10/19 33/10/19 35/10/20 79/10/20
f 28/14/21 72/14/21 74/9/22 30/9/22
f 73/9/23 71/8/23 27/8/23 29/9/23
f 66/13/16 72/14/21 28/14/21 22/13/16
f 83/8/24 39/8/24 31/9/25 75/9/25
f 79/10/20 35/10/20 36/10/26 80/10/26
f 80/10/26 36/10/26 37/11/27 81/11/27
f 81/11/27 37/11/27 38/12/28 82/12/28
f 82/12/28 38/12/28 34/13/29 78/13/29
f 33/10/19 77/10/19 76/10/30 32/10/30
f 78/13/29 34/13/29 40/14/31 84/14/31
f 63/9/32 75/9/32 31/9/32 19/9/32
f 84/9/33 40/9/33 39/8/24 83/8/24
f 21/10/1 23/10/1 35/10/1 33/10/1
f 23/10/1 24/10/1 36/10/1 35/10/1
f 24/10/1 25/11/1 37/11/1 36/10/1
f 25/11/1 26/12/1 38/12/1 37/11/1
f 26/12/1 22/13/1 34/13/1 38/12/1
f 27/8/1 19/9/1 31/9/1 39/8/1
f 20/10/1 21/10/1 33/10/1 32/10/1
f 32/10/3 76/10/3 64/10/3 20/10/3
f 30/9/1 29/9/1 40/9/1
f 28/14/1 30/9/1 40/14/1
f 29/9/1 27/8/1 39/8/1 40/9/1
f 22/13/1 28/14/1 40/14/1 34/13/1
f 41/1/34 44/4/34 43/15/34 42/3/34
f 42/3/3 43/15/3 3/6/3 2/1/3
f 45/4/35 48/1/35 47/1/35 46/4/35
f 43/15/36 44/4/36 16/4/36 17/4/36 45/4/36 46/4/36 4/6/36 3/6/36
f 91/1/36 49/1/36 50/1/36 86/3/36 85/1/36 53/2/37 57/1/37 92/1/36
f 62/4/3 8/4/3 7/4/3 59/4/3
f 61/4/4 89/4/4 92/1/4 57/1/4 58/5/4 56/5/4 6/4/4 8/4/4 62/4/4
f 90/4/5 52/6/5 49/1/5 91/1/5
f 53/2/6 85/1/6 88/4/6 60/4/6 59/4/6 7/4/6 5/4/6 54/1/6 55/7/6
f 56/5/38 58/5/39 55/7/39 54/1/38
f 58/5/40 57/1/37 53/2/37 55/7/40
f 54/1/38 5/4/5 6/4/5 56/5/38
f 59/4/41 60/4/41 61/4/41 62/4/41
f 65/10/36 77/10/36 79/10/36 67/10/36
f 67/10/36 79/10/36 80/10/36 68/10/36
f 68/10/36 80/10/36 81/11/36 69/11/36
f 69/11/36 81/11/36 82/12/36 70/12/36
f 70/12/36 82/12/36 78/13/36 66/13/36
f 71/8/36 83/8/36 75/9/36 63/9/36
f 64/10/36 76/10/36 77/10/36 65/10/36
f 74/9/36 84/9/36 73/9/36
f 72/14/36 84/14/36 74/9/36
f 73/9/36 84/9/36 83/8/36 71/8/36
f 66/13/36 78/13/36 84/14/36 72/14/36
f 85/1/34 86/3/34 87/15/34 88/4/34
f 86/3/3 50/1/3 51/6/3 87/15/3
f 89/4/35 90/4/35 91/1/35 92/1/35
f 87/15/1 51/6/1 52/6/1 90/4/1 89/4/1 61/4/1 60/4/1 88/4/1
f 65/10/17 67/10/12 23/10/12 21/10/17
