# Blender 3.6.2
# www.blender.org
mtllib Headset_Mic_1.mtl
o Headset_Mic_1
v -0.003024 -0.002724 -0.001057
v -0.003011 0.002573 -0.001340
v -0.127769 0.018893 0.193646
v -0.128198 0.018275 0.188396
v -0.127433 0.023481 0.187721
v -0.127004 0.024099 0.192972
v -0.125589 0.017805 0.194197
v -0.125678 0.016943 0.187436
v -0.124841 0.023652 0.186570
v -0.124752 0.024514 0.193331
v -0.150928 0.021028 0.194035
v -0.150041 0.020042 0.195161
v -0.148979 0.028562 0.194061
v -0.150112 0.027570 0.193190
v -0.149093 0.027468 0.185476
v -0.150199 0.026730 0.186597
v -0.150154 0.018948 0.186576
v -0.151015 0.020187 0.187442
v -0.002841 0.002952 0.104887
v -0.007493 0.004237 0.121712
v -0.012614 0.004162 0.120302
v -0.007964 0.002878 0.103476
v -0.012583 0.009451 0.119907
v -0.007934 0.008168 0.103081
v -0.007461 0.009526 0.121317
v -0.002810 0.008242 0.104492
v -0.021666 0.006936 0.148174
v -0.032618 0.008821 0.161787
v -0.036750 0.008557 0.158500
v -0.025806 0.006670 0.144882
v -0.036604 0.013824 0.157888
v -0.025659 0.011937 0.144270
v -0.032472 0.014088 0.161174
v -0.021518 0.012203 0.147563
v -0.060196 0.012062 0.182612
v -0.076290 0.013766 0.188963
v -0.078286 0.013221 0.184045
v -0.062188 0.011516 0.177705
v -0.078004 0.018472 0.183349
v -0.061905 0.016767 0.177011
v -0.076008 0.019017 0.188267
v -0.059913 0.017313 0.181917
v -0.000070 -0.002724 -0.000916
v 0.001746 -0.002138 0.010115
v 0.001761 0.003158 0.009823
v -0.000057 0.002573 -0.001199
vn -0.0014 -0.9986 0.0535
vn -0.9862 0.1530 0.0626
vn -0.8820 -0.0299 -0.4703
vn 0.0117 0.9954 -0.0953
vn -0.9989 0.0011 -0.0472
vn 0.0477 -0.0535 -0.9974
vn -0.0269 -0.9926 0.1181
vn -0.0117 -0.9954 0.0953
vn 0.6067 0.0736 0.7915
vn 0.0268 0.9926 -0.1181
vn -0.0872 -0.9872 0.1336
vn -0.6066 -0.0736 -0.7916
vn 0.8824 0.0298 0.4696
vn 0.0871 0.9872 -0.1336
vn -0.0989 -0.1196 -0.9879
vn 0.1024 0.1192 0.9876
vn 0.9924 -0.1233 0.0027
vn -0.0854 -0.9882 0.1271
vn -0.9924 0.1233 -0.0027
vn 0.1597 0.9790 -0.1269
vn 0.0241 -0.1310 -0.9911
vn -0.6925 0.1766 0.6995
vn -0.6150 0.7832 -0.0917
vn -0.7109 -0.0022 -0.7032
vn -0.7885 -0.6088 0.0880
vn 0.0502 0.1217 0.9913
vn -0.0060 -0.9972 0.0744
vn -0.9641 -0.0142 -0.2653
vn 0.0060 0.9972 -0.0744
vn 0.9640 0.0142 0.2654
vn -0.0279 -0.9930 0.1151
vn -0.7819 -0.0504 -0.6214
vn 0.0279 0.9930 -0.1151
vn 0.7815 0.0505 0.6219
vn -0.0530 -0.9899 0.1314
vn -0.3738 -0.1019 -0.9219
vn 0.0530 0.9899 -0.1314
vn 0.3744 0.1019 0.9216
vn 0.0014 0.9986 -0.0535
vn 0.9867 -0.0115 -0.1620
vn 0.9988 -0.0012 0.0483
vt 0.131915 0.962230
vt 0.131915 0.962230
vt 0.131915 0.962230
vt 0.210922 0.962230
vt 0.214255 0.962230
vt 0.214255 0.965564
vt 0.210922 0.965564
vt 0.207588 0.958897
vt 0.210922 0.958897
vt 0.210922 0.962127
vt 0.207588 0.962127
vt 0.207975 0.962617
vt 0.210535 0.962617
vt 0.210535 0.965177
vt 0.207975 0.965177
vt 0.214255 0.958897
vt 0.214255 0.962127
vt 0.204255 0.958897
vt 0.207588 0.962127
vt 0.204255 0.962127
vt 0.207588 0.965564
vt 0.207588 0.962230
vt 0.213868 0.962230
vt 0.211308 0.962230
vt 0.204255 0.962230
vt 0.207588 0.965460
vt 0.204255 0.965460
s 0
usemtl palette
f 19/1/1 22/1/1 1/1/1 43/1/1 44/1/1
f 6/1/2 5/1/2 4/1/2 3/1/2
f 21/1/3 30/1/3 32/1/3 23/1/3
f 23/1/4 32/1/4 34/1/4 25/1/4
f 22/1/5 24/1/5 2/1/5 1/1/5
f 43/1/6 1/1/6 2/1/6 46/1/6
f 28/2/7 35/1/7 38/1/7 29/1/7
f 20/1/8 27/1/8 30/1/8 21/1/8
f 33/1/9 42/1/9 35/1/9 28/1/9
f 31/3/10 40/1/10 42/1/10 33/1/10
f 36/1/11 3/1/11 4/1/11 37/1/11
f 29/1/12 38/1/12 40/1/12 31/1/12
f 25/1/13 34/1/13 27/1/13 20/1/13
f 39/1/14 5/1/14 6/1/14 41/1/14
f 37/1/15 4/1/15 5/1/15 39/1/15
f 41/1/16 6/1/16 3/1/16 36/1/16
f 10/4/17 7/5/17 8/6/17 9/7/17
f 8/8/18 7/9/18 12/10/18 17/11/18
f 14/12/19 16/13/19 18/14/19 11/15/19
f 10/9/20 9/16/20 15/17/20 13/10/20
f 9/18/21 8/8/21 17/19/21 15/20/21
f 12/21/22 13/22/22 14/12/22 11/15/22
f 13/10/23 15/17/23 16/23/23 14/24/23
f 15/4/24 17/7/24 18/14/24 16/13/24
f 17/7/25 12/21/25 11/15/25 18/14/25
f 7/25/26 10/22/26 13/26/26 12/27/26
f 20/1/27 21/1/27 22/1/27 19/1/27
f 21/1/28 23/1/28 24/1/28 22/1/28
f 23/1/29 25/1/29 26/1/29 24/1/29
f 25/1/30 20/1/30 19/1/30 26/1/30
f 28/2/31 29/1/31 30/1/31 27/1/31
f 29/1/32 31/1/32 32/1/32 30/1/32
f 31/3/33 33/1/33 34/1/33 32/1/33
f 33/1/34 28/1/34 27/1/34 34/1/34
f 36/1/35 37/1/35 38/1/35 35/1/35
f 37/1/36 39/1/36 40/1/36 38/1/36
f 39/1/37 41/1/37 42/1/37 40/1/37
f 41/1/38 36/1/38 35/1/38 42/1/38
f 24/1/39 26/1/39 45/1/39 46/1/39 2/1/39
f 45/1/40 44/1/40 43/1/40 46/1/40
f 26/1/41 19/1/41 44/1/41 45/1/41
