# Blender 3.6.2
# www.blender.org
mtllib Headset_Mic_2.mtl
o Headset_Mic_2
v -0.003024 -0.002724 -0.001057
v -0.003011 0.002573 -0.001340
v -0.127769 0.018893 0.193646
v -0.128198 0.018275 0.188396
v -0.127433 0.023481 0.187721
v -0.127004 0.024099 0.192972
v -0.002841 0.002952 0.104887
v -0.007493 0.004237 0.121712
v -0.012614 0.004162 0.120302
v -0.007964 0.002878 0.103476
v -0.012583 0.009451 0.119907
v -0.007934 0.008168 0.103081
v -0.007461 0.009526 0.121317
v -0.002810 0.008242 0.104492
v -0.021666 0.006936 0.148174
v -0.032618 0.008821 0.161787
v -0.036750 0.008557 0.158500
v -0.025806 0.006670 0.144882
v -0.036604 0.013824 0.157888
v -0.025659 0.011937 0.144270
v -0.032472 0.014088 0.161174
v -0.021518 0.012203 0.147563
v -0.060196 0.012062 0.182612
v -0.076290 0.013766 0.188963
v -0.078286 0.013221 0.184045
v -0.062188 0.011516 0.177705
v -0.078004 0.018472 0.183349
v -0.061905 0.016767 0.177011
v -0.076008 0.019017 0.188267
v -0.059913 0.017313 0.181917
v -0.000070 -0.002724 -0.000916
v 0.001746 -0.002138 0.010115
v 0.001761 0.003158 0.009823
v -0.000057 0.002573 -0.001199
v -0.151958 0.024602 0.185596
v -0.146182 0.024878 0.181336
v -0.150537 0.025021 0.182969
v -0.147095 0.019693 0.181934
v -0.152353 0.022281 0.185861
v -0.151207 0.020993 0.183442
v -0.151705 0.026733 0.186814
v -0.145612 0.029484 0.183969
v -0.150118 0.028618 0.185017
v -0.151705 0.027801 0.189105
v -0.145612 0.031748 0.188825
v -0.150118 0.030389 0.188815
v -0.151958 0.027364 0.191520
v -0.146182 0.030805 0.194046
v -0.150537 0.029646 0.192887
v -0.152353 0.025670 0.193127
v -0.147095 0.027014 0.197634
v -0.151207 0.026695 0.195668
v -0.152747 0.023349 0.193393
v -0.148002 0.021830 0.198220
v -0.151869 0.022671 0.196118
v -0.153000 0.021218 0.192175
v -0.148559 0.017233 0.195588
v -0.152275 0.019096 0.194067
v -0.153000 0.020150 0.189883
v -0.148558 0.014973 0.190742
v -0.152274 0.017336 0.190292
v -0.152747 0.020586 0.187468
v -0.148002 0.015911 0.185528
v -0.151869 0.018063 0.186235
v -0.124418 0.017981 0.185063
v -0.125796 0.017398 0.183380
v -0.125174 0.022464 0.182765
v -0.123921 0.021971 0.184575
v -0.124790 0.026944 0.185269
v -0.123614 0.025501 0.186545
v -0.124790 0.029120 0.189936
v -0.123614 0.027215 0.190221
v -0.125174 0.028159 0.194977
v -0.123921 0.026455 0.194191
v -0.125796 0.024432 0.198462
v -0.124418 0.023517 0.196934
v -0.126416 0.019369 0.199063
v -0.124915 0.019530 0.197405
v -0.126799 0.014902 0.196558
v -0.125222 0.016017 0.195433
v -0.126799 0.012732 0.191903
v -0.125222 0.014311 0.191773
v -0.126416 0.013684 0.186872
v -0.124915 0.015058 0.187814
v -0.134467 0.023695 0.181560
v -0.135260 0.018238 0.182201
v -0.136054 0.014239 0.185969
v -0.133976 0.028526 0.184291
v -0.133976 0.030886 0.189352
v -0.134467 0.029873 0.194809
v -0.135260 0.025874 0.198577
v -0.136054 0.020417 0.199218
v -0.136544 0.015586 0.196486
v -0.136544 0.013226 0.191426
vn -0.0014 -0.9986 0.0535
vn -0.9862 0.1530 0.0626
vn -0.8820 -0.0299 -0.4703
vn 0.0117 0.9954 -0.0953
vn -0.9989 0.0011 -0.0472
vn 0.0477 -0.0535 -0.9974
vn -0.0269 -0.9926 0.1181
vn -0.0117 -0.9954 0.0953
vn 0.6067 0.0736 0.7915
vn 0.0268 0.9926 -0.1181
vn -0.0872 -0.9872 0.1336
vn -0.6066 -0.0736 -0.7916
vn 0.8824 0.0298 0.4696
vn 0.0871 0.9872 -0.1336
vn -0.0989 -0.1196 -0.9879
vn 0.1024 0.1192 0.9876
vn -0.0060 -0.9972 0.0744
vn -0.9641 -0.0142 -0.2653
vn 0.0060 0.9972 -0.0744
vn 0.9640 0.0142 0.2654
vn -0.0279 -0.9930 0.1151
vn -0.7819 -0.0504 -0.6214
vn 0.0279 0.9930 -0.1151
vn 0.7815 0.0505 0.6219
vn -0.0530 -0.9899 0.1314
vn -0.3738 -0.1019 -0.9219
vn 0.0530 0.9899 -0.1314
vn 0.3744 0.1019 0.9216
vn 0.0014 0.9986 -0.0535
vn 0.9867 -0.0115 -0.1620
vn 0.9988 -0.0012 0.0483
vn -0.0674 -0.6780 -0.7320
vn 0.0860 0.9030 -0.4211
vn 0.0076 0.6857 0.7278
vn 0.0651 0.9804 0.1861
vn -0.1299 -0.9730 -0.1907
vn -0.0674 0.1250 0.9899
vn -0.9845 0.1591 -0.0742
vn -0.1299 -0.4794 0.8679
vn 0.0651 0.4876 -0.8707
vn -0.1540 -0.8955 0.4176
vn -0.3545 -0.0476 -0.9339
vn -0.8808 0.0937 -0.4641
vn -0.2878 0.5006 -0.8165
vn -0.8515 0.3315 -0.4063
vn -0.2628 0.8744 -0.4078
vn -0.8411 0.4903 -0.2286
vn -0.2878 0.9472 0.1413
vn -0.8514 0.5244 0.0072
vn -0.3545 0.6848 0.6367
vn -0.8808 0.4158 0.2266
vn -0.4382 0.1739 0.8819
vn -0.9203 0.1917 0.3411
vn -0.5059 -0.3833 0.7727
vn -0.9536 -0.0592 0.2953
vn -0.5315 -0.7677 0.3580
vn -0.9663 -0.2333 0.1088
vn -0.5059 -0.8383 -0.2031
vn -0.9536 -0.2643 -0.1445
vn -0.4382 -0.5638 -0.7001
vn -0.9203 -0.1380 -0.3661
vn 0.9916 -0.1170 0.0546
vn 0.7893 -0.1694 -0.5901
vn 0.8286 0.2168 -0.5162
vn 0.8436 0.4867 -0.2270
vn 0.8286 0.5348 0.1657
vn 0.7893 0.3432 0.5091
vn 0.7406 -0.0118 0.6718
vn 0.7009 -0.3942 0.5944
vn 0.6857 -0.6597 0.3076
vn 0.7009 -0.7087 -0.0801
vn 0.7406 -0.5223 -0.4228
vn 0.0076 -0.1168 -0.9931
vn 0.1106 -0.1324 -0.9850
vn -0.0665 -0.9043 0.4217
vn 0.1738 0.4702 -0.8653
vn -0.0398 -0.4876 0.8722
vn 0.0288 0.1134 0.9931
vn -0.0398 -0.9815 -0.1871
vn 0.1738 0.9651 0.1960
vn 0.1106 0.6694 0.7346
vn 0.1971 0.8885 -0.4143
vn 0.0288 -0.6879 -0.7252
vt 0.131915 0.962230
vt 0.131915 0.962230
vt 0.131915 0.962230
vt 0.210066 0.966400
vt 0.207127 0.965445
vt 0.214821 0.959854
vt 0.214821 0.962945
vt 0.214821 0.962945
vt 0.210066 0.956400
vt 0.213005 0.957355
vt 0.214821 0.959854
vt 0.213005 0.957354
vt 0.207127 0.965445
vt 0.205310 0.962945
vt 0.207127 0.965445
vt 0.207127 0.957355
vt 0.207127 0.957355
vt 0.211052 0.962815
vt 0.210066 0.963135
vt 0.209080 0.962815
vt 0.208449 0.961947
vt 0.208449 0.960852
vt 0.209080 0.959984
vt 0.210066 0.959664
vt 0.211052 0.959984
vt 0.211682 0.960852
vt 0.211682 0.961947
vt 0.205310 0.959854
vt 0.207127 0.957355
vt 0.214821 0.962945
vt 0.213005 0.965445
vt 0.213005 0.965445
vt 0.205310 0.962945
vt 0.205310 0.959854
vt 0.210102 0.966306
vt 0.212975 0.965355
vt 0.214742 0.962907
vt 0.214742 0.959892
vt 0.212975 0.957444
vt 0.210102 0.956493
vt 0.207207 0.957413
vt 0.205403 0.959873
vt 0.205403 0.962927
vt 0.207207 0.965386
vt 0.212419 0.964638
vt 0.213873 0.962637
vt 0.213873 0.960162
vt 0.212419 0.958161
vt 0.210066 0.957397
vt 0.207713 0.958161
vt 0.206259 0.960163
vt 0.206259 0.962637
vt 0.207713 0.964638
vt 0.210066 0.965403
vt 0.210066 0.966400
vt 0.214821 0.962945
vt 0.210066 0.956400
vt 0.205310 0.959854
vt 0.207127 0.965445
s 0
usemtl palette
f 7/1/1 10/1/1 1/1/1 31/1/1 32/1/1
f 6/1/2 5/1/2 4/1/2 3/1/2
f 9/1/3 18/1/3 20/1/3 11/1/3
f 11/1/4 20/1/4 22/1/4 13/1/4
f 10/1/5 12/1/5 2/1/5 1/1/5
f 31/1/6 1/1/6 2/1/6 34/1/6
f 16/2/7 23/1/7 26/1/7 17/1/7
f 8/1/8 15/1/8 18/1/8 9/1/8
f 21/1/9 30/1/9 23/1/9 16/1/9
f 19/3/10 28/1/10 30/1/10 21/1/10
f 24/1/11 3/1/11 4/1/11 25/1/11
f 17/1/12 26/1/12 28/1/12 19/1/12
f 13/1/13 22/1/13 15/1/13 8/1/13
f 27/1/14 5/1/14 6/1/14 29/1/14
f 25/1/15 4/1/15 5/1/15 27/1/15
f 29/1/16 6/1/16 3/1/16 24/1/16
f 8/1/17 9/1/17 10/1/17 7/1/17
f 9/1/18 11/1/18 12/1/18 10/1/18
f 11/1/19 13/1/19 14/1/19 12/1/19
f 13/1/20 8/1/20 7/1/20 14/1/20
f 16/2/21 17/1/21 18/1/21 15/1/21
f 17/1/22 19/1/22 20/1/22 18/1/22
f 19/3/23 21/1/23 22/1/23 20/1/23
f 21/1/24 16/1/24 15/1/24 22/1/24
f 24/1/25 25/1/25 26/1/25 23/1/25
f 25/1/26 27/1/26 28/1/26 26/1/26
f 27/1/27 29/1/27 30/1/27 28/1/27
f 29/1/28 24/1/28 23/1/28 30/1/28
f 12/1/29 14/1/29 33/1/29 34/1/29 2/1/29
f 33/1/30 32/1/30 31/1/30 34/1/30
f 14/1/31 7/1/31 32/1/31 33/1/31
f 86/4/32 87/5/32 63/5/32 38/4/32
f 89/6/33 88/7/33 42/8/33 45/6/33
f 91/9/34 90/10/34 48/10/34 51/9/34
f 90/10/35 89/6/35 45/11/35 48/12/35
f 87/13/36 94/14/36 60/14/36 63/15/36
f 92/16/37 91/9/37 51/9/37 54/17/37
f 35/18/38 39/19/38 62/20/38 59/21/38 56/22/38 53/23/38 50/24/38 47/25/38 44/26/38 41/27/38
f 93/28/39 92/29/39 54/29/39 57/28/39
f 88/30/40 85/31/40 36/32/40 42/30/40
f 94/33/41 93/28/41 57/34/41 60/33/41
f 36/32/42 38/4/42 40/35/42 37/36/42
f 37/36/43 40/35/43 39/19/43 35/18/43
f 42/30/44 36/32/44 37/36/44 43/37/44
f 43/37/45 37/36/45 35/18/45 41/27/45
f 45/6/46 42/8/46 43/37/46 46/38/46
f 46/38/47 43/37/47 41/27/47 44/26/47
f 48/12/48 45/11/48 46/38/48 49/39/48
f 49/39/49 46/38/49 44/26/49 47/25/49
f 51/9/50 48/10/50 49/39/50 52/40/50
f 52/40/51 49/39/51 47/25/51 50/24/51
f 54/17/52 51/9/52 52/40/52 55/41/52
f 55/41/53 52/40/53 50/24/53 53/23/53
f 57/28/54 54/29/54 55/41/54 58/42/54
f 58/42/55 55/41/55 53/23/55 56/22/55
f 60/33/56 57/34/56 58/42/56 61/43/56
f 61/43/57 58/42/57 56/22/57 59/21/57
f 63/15/58 60/14/58 61/43/58 64/44/58
f 64/44/59 61/43/59 59/21/59 62/20/59
f 38/4/60 63/5/60 64/44/60 40/35/60
f 40/35/61 64/44/61 62/20/61 39/19/61
f 68/45/62 70/46/62 72/47/62 74/48/62 76/49/62 78/50/62 80/51/62 82/52/62 84/53/62 65/54/62
f 68/45/63 65/54/63 66/55/63 67/32/63
f 70/46/64 68/45/64 67/31/64 69/56/64
f 72/47/65 70/46/65 69/7/65 71/11/65
f 74/48/66 72/47/66 71/6/66 73/10/66
f 76/49/67 74/48/67 73/10/67 75/57/67
f 78/50/68 76/49/68 75/57/68 77/16/68
f 80/51/69 78/50/69 77/16/69 79/34/69
f 82/52/70 80/51/70 79/58/70 81/33/70
f 84/53/71 82/52/71 81/33/71 83/59/71
f 65/54/72 84/53/72 83/59/72 66/4/72
f 85/32/73 86/4/73 38/4/73 36/32/73
f 67/32/74 66/55/74 86/4/74 85/32/74
f 81/33/75 79/58/75 93/28/75 94/33/75
f 69/56/76 67/31/76 85/31/76 88/30/76
f 79/34/77 77/16/77 92/29/77 93/28/77
f 77/16/78 75/57/78 91/9/78 92/16/78
f 83/59/79 81/33/79 94/14/79 87/13/79
f 73/10/80 71/6/80 89/6/80 90/10/80
f 75/57/81 73/10/81 90/10/81 91/9/81
f 71/11/82 69/7/82 88/7/82 89/6/82
f 66/4/83 83/59/83 87/5/83 86/4/83
