# Blender 3.6.2
# www.blender.org
mtllib Lamp_Support_1.mtl
o Lamp_Support_1
v -0.045447 0.033090 0.083688
v -0.045447 0.033090 -0.027931
v -0.045447 0.016786 -0.042251
v -0.045447 0.002519 -0.048147
v -0.045447 -0.010389 -0.049832
v -0.045447 -0.021938 -0.044777
v -0.045447 -0.029410 -0.027124
v -0.045447 -0.029410 0.068524
v -0.045447 -0.042997 0.065165
v -0.045447 -0.042997 -0.031301
v -0.045447 -0.036204 -0.054043
v -0.045447 -0.023296 -0.064993
v -0.045447 0.002519 -0.064151
v -0.045447 0.023579 -0.054885
v -0.045447 0.039884 -0.038040
v -0.045447 0.045998 -0.024761
v -0.045447 0.045998 0.087055
v 0.045447 0.045998 0.087055
v 0.045447 0.045998 -0.024761
v 0.045447 0.039884 -0.038040
v 0.045447 0.023579 -0.054885
v 0.045447 0.002519 -0.064151
v 0.045447 -0.023296 -0.064993
v 0.045447 -0.036204 -0.054043
v 0.045447 -0.042997 -0.031301
v 0.045447 -0.042997 0.065165
v 0.045447 -0.029410 0.068524
v 0.045447 -0.029410 -0.027124
v 0.045447 -0.021938 -0.044777
v 0.045447 -0.010389 -0.049832
v 0.045447 0.002519 -0.048147
v 0.045447 0.016786 -0.042251
v 0.045447 0.033090 -0.027931
v 0.045447 0.033090 0.083688
v -0.001650 0.550440 0.037151
v -0.017312 0.543952 0.037151
v -0.023799 0.528291 0.037151
v -0.017312 0.512629 0.037151
v -0.001650 0.506141 0.037151
v 0.014011 0.512629 0.037151
v 0.020499 0.528291 0.037151
v 0.014011 0.543952 0.037151
v -0.022931 0.549571 0.069005
v -0.001650 0.558385 0.069005
v -0.031745 0.528291 0.069005
v -0.022931 0.507010 0.069005
v -0.001650 0.498196 0.069005
v 0.019630 0.507010 0.069005
v 0.028445 0.528291 0.069005
v 0.019630 0.549571 0.069005
v -0.013464 0.040727 -0.017694
v -0.013464 0.398130 -0.017694
v -0.013464 0.467104 -0.014370
v -0.013464 0.497021 -0.008553
v -0.013464 0.523614 0.011392
v -0.013464 0.532755 0.030505
v -0.013464 0.533586 0.050450
v 0.013464 0.533586 0.050450
v 0.013464 0.532755 0.030505
v 0.013464 0.523614 0.011392
v 0.013464 0.497021 -0.008553
v 0.013464 0.467104 -0.014370
v 0.013464 0.398130 -0.017694
v 0.013464 0.040727 -0.017694
v 0.013464 0.520154 0.051009
v -0.013464 0.520154 0.051009
v 0.013464 0.513218 0.019914
v -0.013464 0.513218 0.019914
v -0.013464 0.491567 0.003734
v 0.013464 0.491567 0.003734
v 0.013464 0.465494 -0.001024
v -0.013464 0.465494 -0.001024
v -0.013464 0.397806 -0.004255
v 0.013464 0.397806 -0.004255
v -0.013464 0.040727 -0.004251
v -0.013464 0.519710 0.033751
v 0.013464 0.519710 0.033751
v 0.013464 0.040727 -0.004251
vn -0.0000 1.0000 -0.0000
vn -0.0000 0.9083 -0.4182
vn -0.0000 0.9209 0.3898
vn -0.0000 -0.6599 0.7514
vn -0.0000 0.7186 -0.6955
vn -0.0000 -0.2524 0.9676
vn -0.0000 -1.0000 -0.0000
vn -0.0000 -0.9582 -0.2862
vn -0.0000 -0.2400 0.9708
vn -0.0000 0.4009 0.9161
vn -0.0000 -0.3820 0.9242
vn -0.0000 -0.1294 0.9916
vn -0.0000 -0.6469 -0.7626
vn -1.0000 -0.0000 -0.0000
vn -0.0000 0.0326 -0.9995
vn -0.0000 0.4027 -0.9153
vn 1.0000 -0.0000 -0.0000
vn -0.0000 -0.0000 -1.0000
vn -0.0000 -0.0000 1.0000
vn 0.9003 0.3729 -0.2246
vn 0.3729 -0.9003 -0.2246
vn -0.9003 -0.3729 -0.2246
vn -0.3729 0.9003 -0.2246
vn 0.3729 0.9003 -0.2246
vn 0.9003 -0.3729 -0.2246
vn -0.3729 -0.9003 -0.2246
vn -0.9003 0.3729 -0.2246
vn -0.0000 0.0481 -0.9988
vn -0.0000 0.6000 -0.8000
vn -0.0000 0.9991 -0.0416
vn -0.0000 0.1909 -0.9816
vn -0.0000 0.9021 -0.4315
vn -0.0000 -0.0477 0.9989
vn -0.0000 -0.5986 0.8010
vn -0.0000 -0.9997 0.0258
vn -0.0000 -0.1795 0.9838
vn -0.0000 -0.9053 0.4248
vt 0.878120 0.952123
vt 0.873530 0.952124
vt 0.878456 0.952124
vt 0.878069 0.952124
vt 0.878627 0.952124
vt 0.878165 0.952123
vt 0.878579 0.952124
vt 0.878949 0.952124
vt 0.873009 0.952124
vt 0.873104 0.952124
vt 0.873624 0.952124
vt 0.878230 0.952124
vt 0.878878 0.952124
vt 0.878781 0.952123
vt 0.878742 0.952123
vt 0.879202 0.952124
vt 0.879205 0.952124
vt 0.880537 0.959195
vt 0.877608 0.962124
vt 0.873466 0.962124
vt 0.870537 0.959195
vt 0.870537 0.955052
vt 0.873466 0.952123
vt 0.877608 0.952123
vt 0.880537 0.955052
vt 0.875846 0.952264
vt 0.876047 0.952310
vt 0.876045 0.960942
vt 0.875917 0.960942
vt 0.875993 0.961554
vt 0.875961 0.961554
vt 0.875970 0.961697
vt 0.875983 0.961695
vt 0.875978 0.961846
vt 0.875974 0.961857
vt 0.875975 0.961964
vt 0.875978 0.961924
vt 0.875981 0.961980
vt 0.875973 0.962124
vt 0.876049 0.952124
vt 0.876049 0.960938
vt 0.875915 0.960939
vt 0.875832 0.952265
vt 0.875996 0.961553
vt 0.875959 0.961553
vt 0.875984 0.961697
vt 0.875975 0.961854
vt 0.875974 0.961842
vt 0.875969 0.961695
vt 0.875971 0.961949
vt 0.875968 0.962035
vt 0.875977 0.961966
vt 0.875977 0.961916
s 0
usemtl palette
f 28/1/1 7/1/1 8/2/1 27/2/1
f 20/3/2 15/3/2 16/4/2 19/4/2
f 29/5/3 6/5/3 7/1/3 28/1/3
f 33/6/4 2/6/4 3/7/4 32/7/4
f 21/8/5 14/8/5 15/3/5 20/3/5
f 18/9/6 17/9/6 1/10/6 34/10/6
f 26/11/7 9/11/7 10/12/7 25/12/7
f 34/10/7 1/10/7 2/6/7 33/6/7
f 19/4/1 16/4/1 17/9/1 18/9/1
f 25/12/8 10/12/8 11/13/8 24/13/8
f 27/2/9 8/2/9 9/11/9 26/11/9
f 30/14/10 5/14/10 6/5/10 29/5/10
f 32/7/11 3/7/11 4/15/11 31/15/11
f 31/15/12 4/15/12 5/14/12 30/14/12
f 24/13/13 11/13/13 12/16/13 23/16/13
f 13/17/14 12/16/14 11/13/14 10/12/14 9/11/14 8/2/14 7/1/14 6/5/14 5/14/14 4/15/14 3/7/14 2/6/14 1/10/14 17/9/14 16/4/14 15/3/14 14/8/14
f 23/16/15 12/16/15 13/17/15 22/17/15
f 22/17/16 13/17/16 14/8/16 21/8/16
f 22/17/17 21/8/17 20/3/17 19/4/17 18/9/17 34/10/17 33/6/17 32/7/17 31/15/17 30/14/17 29/5/17 28/1/17 27/2/17 26/11/17 25/12/17 24/13/17 23/16/17
f 36/18/18 35/19/18 42/20/18 41/21/18 40/22/18 39/23/18 38/24/18 37/25/18
f 43/18/19 45/25/19 46/24/19 47/23/19 48/22/19 49/21/19 50/20/19 44/19/19
f 42/20/20 50/20/20 49/21/20 41/21/20
f 40/22/21 48/22/21 47/23/21 39/23/21
f 38/24/22 46/24/22 45/25/22 37/25/22
f 36/18/23 43/18/23 44/19/23 35/19/23
f 35/19/24 44/19/24 50/20/24 42/20/24
f 41/21/25 49/21/25 48/22/25 40/22/25
f 39/23/26 47/23/26 46/24/26 38/24/26
f 37/25/27 45/25/27 43/18/27 36/18/27
f 64/26/18 51/27/18 52/28/18 63/29/18
f 63/29/28 52/28/28 53/30/28 62/31/28
f 61/32/29 54/33/29 55/34/29 60/35/29
f 59/36/30 56/37/30 57/38/30 58/39/30
f 62/31/31 53/30/31 54/33/31 61/32/31
f 60/35/32 55/34/32 56/37/32 59/36/32
f 78/40/19 74/41/19 73/42/19 75/43/19
f 74/41/33 71/44/33 72/45/33 73/42/33
f 70/46/34 67/47/34 68/48/34 69/49/34
f 77/50/35 65/51/35 66/52/35 76/53/35
f 71/44/36 70/46/36 69/49/36 72/45/36
f 67/47/37 77/50/37 76/53/37 68/48/37
f 64/26/17 63/29/17 74/41/17 78/40/17
f 57/38/14 56/37/14 76/53/14 66/52/14
f 56/37/14 55/34/14 68/48/14 76/53/14
f 54/33/14 53/30/14 72/45/14 69/49/14
f 59/36/17 58/39/17 65/51/17 77/50/17
f 55/34/14 54/33/14 69/49/14 68/48/14
f 60/35/17 59/36/17 77/50/17 67/47/17
f 61/32/17 60/35/17 67/47/17 70/46/17
f 52/28/14 51/27/14 75/43/14 73/42/14
f 62/31/17 61/32/17 70/46/17 71/44/17
f 53/30/14 52/28/14 73/42/14 72/45/14
f 63/29/17 62/31/17 71/44/17 74/41/17
