# Blender 3.6.2
# www.blender.org
mtllib Mic_Ac.mtl
o Mic_Ac
v 0.028620 0.039054 -0.012214
v 0.028659 0.059475 0.000000
v -0.028620 0.039054 -0.012214
v -0.028620 0.039054 0.012215
v -0.028659 0.059475 0.000000
v 0.000000 0.086368 0.000000
v 0.020827 0.059107 -0.020827
v -0.020827 0.059107 0.020827
v -0.020827 0.059107 -0.020827
v 0.020827 0.059107 0.020827
v 0.000000 0.078547 0.019895
v 0.019895 0.078547 0.000000
v 0.000000 0.078547 -0.019895
v -0.019895 0.078547 0.000000
v 0.016319 0.074821 0.016319
v -0.016319 0.074821 0.016319
v 0.016319 0.074821 -0.016319
v -0.016319 0.074821 -0.016319
v -0.017695 -0.052270 0.017695
v 0.017695 -0.052270 0.017695
v -0.017695 -0.052270 -0.017696
v 0.017695 -0.052270 -0.017696
v -0.020277 -0.054670 -0.010499
v -0.021573 -0.055875 -0.000000
v -0.020277 -0.054670 0.010499
v -0.010499 -0.054670 0.020277
v 0.000000 -0.055875 0.021573
v 0.010499 -0.054670 0.020277
v 0.020277 -0.054670 0.010499
v 0.021573 -0.055875 -0.000000
v 0.020277 -0.054670 -0.010499
v 0.010499 -0.054670 -0.020277
v 0.000000 -0.055875 -0.021573
v -0.010499 -0.054670 -0.020277
v -0.023468 0.027861 -0.023468
v 0.023468 -0.020184 -0.023468
v 0.022584 -0.034056 -0.022584
v 0.020403 -0.045359 -0.020403
v 0.023468 0.027861 0.023468
v -0.023468 -0.020184 0.023468
v -0.022584 -0.034056 0.022584
v -0.020403 -0.045359 0.020403
v -0.020403 -0.045359 -0.020403
v -0.022584 -0.034056 -0.022584
v -0.023468 -0.020184 -0.023468
v 0.023468 0.027861 -0.023468
v 0.020403 -0.045359 0.020403
v 0.022584 -0.034056 0.022584
v 0.023468 -0.020184 0.023468
v -0.023468 0.027861 0.023468
v -0.011189 -0.059805 0.011189
v -0.011790 -0.061543 -0.000000
v -0.011189 -0.059805 -0.011189
v -0.000000 -0.061543 0.011790
v 0.000000 -0.063441 -0.000000
v -0.000000 -0.061543 -0.011790
v 0.011189 -0.059805 0.011189
v 0.011790 -0.061543 -0.000000
v 0.011189 -0.059805 -0.011189
v 0.012833 0.027858 -0.030070
v -0.000000 0.027855 -0.032271
v -0.012833 0.027858 -0.030070
v -0.012833 0.027858 0.030070
v 0.000000 0.027855 0.032271
v 0.012833 0.027858 0.030070
v 0.030070 0.027858 0.012833
v 0.032271 0.027855 -0.000000
v 0.030070 0.027858 -0.012833
v -0.030070 0.027858 -0.012833
v -0.032271 0.027855 -0.000000
v -0.030070 0.027858 0.012833
v -0.025960 -0.046023 -0.011259
v -0.027840 -0.046604 -0.000000
v -0.025960 -0.046023 0.011259
v -0.028950 -0.034233 -0.012347
v -0.031076 -0.034411 -0.000000
v -0.028950 -0.034233 0.012347
v -0.030070 -0.020206 -0.012833
v -0.032271 -0.020228 -0.000000
v -0.030070 -0.020206 0.012833
v 0.025960 -0.046023 0.011259
v 0.027840 -0.046604 -0.000000
v 0.025960 -0.046023 -0.011259
v 0.028950 -0.034233 0.012347
v 0.031076 -0.034411 -0.000000
v 0.028950 -0.034233 -0.012347
v 0.030070 -0.020206 0.012833
v 0.032271 -0.020228 -0.000000
v 0.030070 -0.020206 -0.012833
v -0.011259 -0.046023 0.025960
v -0.000000 -0.046604 0.027840
v 0.011259 -0.046023 0.025960
v -0.012347 -0.034233 0.028950
v 0.000000 -0.034411 0.031076
v 0.012347 -0.034233 0.028950
v -0.012833 -0.020206 0.030070
v 0.000000 -0.020228 0.032271
v 0.012833 -0.020206 0.030070
v 0.011259 -0.046023 -0.025960
v 0.000000 -0.046604 -0.027840
v -0.011259 -0.046023 -0.025960
v 0.012347 -0.034233 -0.028950
v -0.000000 -0.034411 -0.031076
v -0.012347 -0.034233 -0.028950
v 0.012833 -0.020206 -0.030070
v -0.000000 -0.020228 -0.032271
v -0.012833 -0.020206 -0.030070
v -0.025569 0.024940 -0.025569
v 0.025569 0.024940 0.025568
v 0.025569 0.024940 -0.025569
v -0.025569 0.024940 0.025568
v 0.013982 0.024937 -0.032762
v -0.000000 0.024933 -0.035160
v -0.013982 0.024937 -0.032762
v -0.013982 0.024937 0.032762
v 0.000000 0.024933 0.035160
v 0.013982 0.024937 0.032762
v 0.032762 0.024937 0.013982
v 0.035160 0.024933 -0.000000
v 0.032762 0.024937 -0.013982
v -0.032762 0.024937 -0.013982
v -0.035160 0.024933 -0.000000
v -0.032762 0.024937 0.013982
v 0.013982 0.041051 -0.032762
v -0.000000 0.041047 -0.035160
v -0.013982 0.041051 -0.032762
v -0.025569 0.041054 -0.025569
v 0.025569 0.041054 -0.025569
v -0.013982 0.041051 0.032762
v -0.000000 0.041047 0.035160
v 0.013982 0.041051 0.032762
v 0.025569 0.041054 0.025568
v -0.025569 0.041054 0.025568
v 0.032762 0.041051 0.013982
v 0.035160 0.041047 -0.000000
v 0.032762 0.041051 -0.013982
v -0.032762 0.041051 -0.013982
v -0.035160 0.041047 -0.000000
v -0.032762 0.041051 0.013982
v 0.014342 0.032994 -0.033605
v 0.026227 0.032997 -0.026227
v 0.033605 0.032994 0.014342
v 0.026227 0.032997 0.026227
v -0.000000 0.032990 0.036065
v -0.014342 0.032994 0.033605
v -0.036065 0.032990 -0.000000
v -0.033605 0.032994 -0.014342
v 0.014342 0.032994 0.033605
v -0.033605 0.032994 0.014342
v -0.026227 0.032997 0.026227
v -0.000000 0.032990 -0.036065
v -0.026227 0.032997 -0.026227
v 0.036065 0.032990 -0.000000
v -0.014342 0.032994 -0.033605
v 0.033605 0.032994 -0.014342
v 0.028620 0.039054 0.012215
v 0.000000 0.059475 -0.028659
v -0.012214 0.039054 -0.028620
v 0.012214 0.039054 -0.028620
v -0.000000 0.059475 0.028659
v 0.012214 0.039054 0.028620
v -0.012214 0.039054 0.028620
v 0.024662 0.013966 -0.024718
v 0.025792 0.018699 -0.023116
v 0.028519 0.020659 -0.019249
v 0.031247 0.018699 -0.015381
v 0.032376 0.013966 -0.013780
v 0.031247 0.009234 -0.015381
v 0.028519 0.007274 -0.019249
v 0.025792 0.009234 -0.023116
v 0.022417 0.018699 -0.020736
v 0.021287 0.013966 -0.022337
v 0.025144 0.020659 -0.016868
v 0.027871 0.018699 -0.013001
v 0.029001 0.013966 -0.011399
v 0.027871 0.009234 -0.013001
v 0.025144 0.007274 -0.016868
v 0.022417 0.009234 -0.020736
v 0.024662 -0.005487 -0.024718
v 0.025792 -0.000755 -0.023116
v 0.028519 0.001205 -0.019249
v 0.031247 -0.000755 -0.015381
v 0.032376 -0.005487 -0.013780
v 0.031247 -0.010219 -0.015381
v 0.028519 -0.012180 -0.019249
v 0.025792 -0.010219 -0.023116
v 0.022417 -0.000755 -0.020736
v 0.021287 -0.005487 -0.022337
v 0.025144 0.001205 -0.016868
v 0.027871 -0.000755 -0.013001
v 0.029001 -0.005487 -0.011399
v 0.027871 -0.010219 -0.013001
v 0.025144 -0.012180 -0.016868
v 0.022417 -0.010219 -0.020736
vn 0.3164 0.8943 0.3164
vn -0.3097 0.3737 -0.8743
vn -0.8743 0.3737 -0.3097
vn -0.8743 0.3737 0.3097
vn -0.0000 -0.0019 1.0000
vn -0.3476 0.2061 0.9147
vn 0.3476 0.2061 -0.9147
vn 0.8743 0.3737 0.3097
vn 0.3476 0.2061 0.9147
vn 0.3164 0.8943 -0.3164
vn 1.0000 -0.0019 -0.0000
vn -1.0000 -0.0019 -0.0000
vn -0.7068 -0.0289 0.7068
vn -0.9147 0.2061 0.3476
vn -0.3097 0.3737 0.8743
vn 0.9147 0.2061 0.3476
vn -0.0000 -0.0019 -1.0000
vn 0.3097 0.3737 0.8743
vn 0.7068 -0.0289 0.7068
vn -0.7068 -0.0289 -0.7068
vn 0.8743 0.3737 -0.3097
vn -0.3164 0.8943 -0.3164
vn -0.9147 0.2061 -0.3476
vn 0.9147 0.2061 -0.3476
vn 0.7068 -0.0289 -0.7068
vn -0.0000 1.0000 -0.0000
vn -0.3190 -0.8924 0.3190
vn -0.0000 -1.0000 -0.0000
vn -0.0000 -0.9420 0.3355
vn -0.3190 -0.8924 -0.3190
vn -0.3355 -0.9420 -0.0000
vn 0.3190 -0.8924 0.3190
vn 0.3190 -0.8924 -0.3190
vn 0.3355 -0.9420 -0.0000
vn -0.5618 -0.6072 0.5618
vn -0.2939 -0.6986 0.6523
vn -0.6523 -0.6986 0.2939
vn -0.6523 -0.6986 -0.2939
vn -0.6834 -0.7301 -0.0000
vn -0.5618 -0.6072 -0.5618
vn -0.2939 -0.6986 -0.6523
vn -0.0000 -0.9420 -0.3355
vn 0.2939 -0.6986 -0.6523
vn 0.5618 -0.6072 -0.5618
vn 0.6523 -0.6986 -0.2939
vn 0.6834 -0.7301 -0.0000
vn 0.6523 -0.6986 0.2939
vn 0.5618 -0.6072 0.5618
vn 0.2939 -0.6986 0.6523
vn -0.0000 -0.7301 0.6834
vn -0.8574 -0.3948 -0.3302
vn -0.9853 -0.1711 -0.0000
vn -0.9200 -0.1725 -0.3520
vn -0.8574 -0.3948 0.3302
vn -0.9112 -0.4119 -0.0000
vn -0.9991 -0.0423 -0.0000
vn -0.9339 -0.0434 -0.3550
vn -0.9200 -0.1725 0.3520
vn -0.6581 -0.3659 -0.6581
vn -0.6581 -0.3659 0.6581
vn -0.6964 -0.1737 0.6964
vn -0.9339 -0.0434 0.3550
vn -0.6964 -0.1737 -0.6964
vn -0.7064 -0.0446 -0.7064
vn 0.8574 -0.3948 0.3302
vn 0.9853 -0.1711 -0.0000
vn 0.9200 -0.1725 0.3520
vn 0.8574 -0.3948 -0.3302
vn 0.9112 -0.4119 -0.0000
vn 0.9991 -0.0423 -0.0000
vn 0.9339 -0.0434 0.3550
vn 0.9200 -0.1725 -0.3520
vn 0.6581 -0.3659 0.6581
vn 0.6581 -0.3659 -0.6581
vn 0.6964 -0.1737 -0.6964
vn 0.9339 -0.0434 -0.3550
vn 0.6964 -0.1737 0.6964
vn 0.7064 -0.0446 0.7064
vn -0.3302 -0.3948 0.8574
vn -0.0000 -0.1711 0.9853
vn -0.3520 -0.1725 0.9200
vn 0.3302 -0.3948 0.8574
vn -0.0000 -0.4119 0.9112
vn -0.0000 -0.0423 0.9991
vn -0.3550 -0.0434 0.9339
vn 0.3520 -0.1725 0.9200
vn 0.3550 -0.0434 0.9339
vn -0.7064 -0.0446 0.7064
vn 0.3302 -0.3948 -0.8574
vn -0.0000 -0.1711 -0.9853
vn 0.3520 -0.1725 -0.9200
vn -0.3302 -0.3948 -0.8574
vn -0.0000 -0.4119 -0.9112
vn -0.0000 -0.0423 -0.9991
vn 0.3550 -0.0434 -0.9339
vn -0.3520 -0.1725 -0.9200
vn -0.0000 -0.7301 -0.6834
vn -0.3550 -0.0434 -0.9339
vn 0.7064 -0.0446 -0.7064
vn 0.3549 -0.0000 -0.9349
vn 0.7071 -0.0000 -0.7071
vn -0.0000 -0.0000 -1.0000
vn -0.3549 -0.0000 -0.9349
vn -0.7071 -0.0000 -0.7071
vn -0.3549 -0.0000 0.9349
vn -0.7071 -0.0000 0.7071
vn -0.0000 -0.0000 1.0000
vn 0.3549 -0.0000 0.9349
vn 0.7071 -0.0000 0.7071
vn 0.9349 -0.0000 0.3549
vn 1.0000 -0.0000 -0.0000
vn 0.9349 -0.0000 -0.3549
vn -0.9349 -0.0000 -0.3549
vn -1.0000 -0.0000 -0.0000
vn -0.9349 -0.0000 0.3549
vn 0.3553 -0.0000 -0.9347
vn 0.3520 0.1130 -0.9291
vn 0.7024 0.1148 -0.7024
vn 0.9347 -0.0000 0.3553
vn 0.9291 0.1130 0.3520
vn 0.7024 0.1148 0.7024
vn -0.3553 -0.0000 0.9347
vn -0.0000 0.1117 0.9937
vn -0.3520 0.1130 0.9291
vn -0.9347 -0.0000 -0.3553
vn -0.9937 0.1117 -0.0000
vn -0.9291 0.1130 -0.3520
vn 0.3553 -0.0000 0.9347
vn 0.3520 0.1130 0.9291
vn -0.9347 -0.0000 0.3553
vn -0.9291 0.1130 0.3520
vn -0.7024 0.1148 0.7024
vn -0.0000 0.1117 -0.9937
vn -0.7024 0.1148 -0.7024
vn 0.9937 0.1117 -0.0000
vn -0.3553 -0.0000 -0.9347
vn -0.3520 0.1130 -0.9291
vn 0.9347 -0.0000 -0.3553
vn 0.9291 0.1130 -0.3520
vn 0.9291 -0.1130 -0.3520
vn 0.7024 -0.1148 -0.7024
vn -0.3520 -0.1130 -0.9291
vn -0.7024 -0.1148 -0.7024
vn 0.9937 -0.1117 -0.0000
vn -0.0000 -0.1117 -0.9937
vn 0.9291 -0.1130 0.3520
vn -0.9291 -0.1130 -0.3520
vn 0.3520 -0.1130 -0.9291
vn -0.7024 -0.1148 0.7024
vn -0.3520 -0.1130 0.9291
vn -0.9291 -0.1130 0.3520
vn 0.3520 -0.1130 0.9291
vn 0.7024 -0.1148 0.7024
vn -0.9937 -0.1117 -0.0000
vn -0.0000 -0.1117 0.9937
vn -0.3164 0.8943 0.3164
vn 0.3097 0.3737 -0.8743
vn -0.3476 0.2061 -0.9147
vn 0.8172 -0.0000 -0.5763
vn 0.2206 0.9239 0.3127
vn -0.5325 0.3827 -0.7550
vn -0.5325 -0.3827 -0.7550
vn 0.2206 -0.9239 0.3127
vn 0.5325 0.3827 0.7550
vn -0.2206 0.9239 -0.3127
vn -0.2206 -0.9239 -0.3127
vn 0.5325 -0.3827 0.7550
vt 0.135248 0.966400
vt 0.135248 0.961400
vt 0.130248 0.961539
vt 0.130248 0.966400
vt 0.125248 0.956400
vt 0.125248 0.956400
vt 0.130248 0.957789
vt 0.130248 0.956539
vt 0.125422 0.961226
vt 0.125248 0.961400
vt 0.125248 0.966400
vt 0.126776 0.964872
vt 0.128413 0.965683
vt 0.132083 0.965683
vt 0.130248 0.966052
vt 0.132748 0.956412
vt 0.135248 0.956400
vt 0.133721 0.964872
vt 0.135075 0.961226
vt 0.135248 0.956400
vt 0.134557 0.963209
vt 0.135214 0.958883
vt 0.125283 0.958883
vt 0.125940 0.963209
vt 0.127748 0.956412
vt 0.132552 0.966188
vt 0.130248 0.966279
vt 0.127945 0.966188
vt 0.125736 0.965912
vt 0.125486 0.963708
vt 0.125474 0.961487
vt 0.125770 0.959397
vt 0.126435 0.957586
vt 0.128232 0.956933
vt 0.130248 0.956715
vt 0.132264 0.956933
vt 0.134062 0.957586
vt 0.134727 0.959397
vt 0.135022 0.961487
vt 0.135010 0.963708
vt 0.134761 0.965912
vt 0.127748 0.959261
vt 0.130248 0.959403
vt 0.127748 0.963912
vt 0.127748 0.961495
vt 0.132748 0.959261
vt 0.132748 0.963912
vt 0.132748 0.961495
vt 0.127748 0.957546
vt 0.125248 0.958900
vt 0.125248 0.963900
vt 0.127748 0.966400
vt 0.130248 0.963917
vt 0.132748 0.966400
vt 0.135248 0.963900
vt 0.135248 0.958900
vt 0.132748 0.957546
vt 0.125622 0.963526
vt 0.125852 0.963296
vt 0.125261 0.958887
vt 0.125348 0.961300
vt 0.125457 0.961200
vt 0.125270 0.958878
vt 0.126412 0.965236
vt 0.125248 0.956400
vt 0.126898 0.964750
vt 0.135236 0.958887
vt 0.135227 0.958878
vt 0.134875 0.963526
vt 0.135148 0.961300
vt 0.135040 0.961200
vt 0.134645 0.963296
vt 0.135248 0.956400
vt 0.134085 0.965236
vt 0.127748 0.956761
vt 0.127748 0.956495
vt 0.132748 0.956761
vt 0.130248 0.956903
vt 0.130248 0.956417
vt 0.132748 0.956495
vt 0.132387 0.966013
vt 0.132167 0.965775
vt 0.128110 0.966013
vt 0.130248 0.966200
vt 0.130248 0.965992
vt 0.128330 0.965775
vt 0.133599 0.964750
vt 0.130248 0.966400
vt 0.126713 0.964935
vt 0.125248 0.961400
vt 0.126713 0.957864
vt 0.130248 0.956400
vt 0.133784 0.957864
vt 0.135248 0.961400
vt 0.133784 0.964935
s 1
usemtl palette
f 15/1/1 12/2/1 6/3/1 11/4/1
f 9/5/2 18/6/2 13/7/2 157/8/2
f 18/6/3 9/5/3 5/9/3 14/10/3
f 16/11/4 14/10/4 5/9/4 8/12/4
f 162/13/5 161/14/5 160/15/5
f 162/13/6 160/15/6 8/12/6
f 159/16/7 157/8/7 7/17/7
f 10/18/8 2/19/8 12/2/8 15/1/8
f 160/15/9 161/14/9 10/18/9
f 17/20/10 13/7/10 6/3/10 12/2/10
f 156/21/11 1/22/11 2/19/11
f 3/23/12 4/24/12 5/9/12
f 8/12/13 4/24/13 162/13/13
f 5/9/14 4/24/14 8/12/14
f 160/15/15 11/4/15 16/11/15 8/12/15
f 156/21/16 2/19/16 10/18/16
f 159/16/17 158/25/17 157/8/17
f 10/18/18 15/1/18 11/4/18 160/15/18
f 156/21/19 10/18/19 161/14/19
f 9/5/20 158/25/20 3/23/20
f 17/20/21 12/2/21 2/19/21 7/17/21
f 18/6/22 14/10/22 6/3/22 13/7/22
f 3/23/23 5/9/23 9/5/23
f 1/22/24 7/17/24 2/19/24
f 1/22/25 159/16/25 7/17/25
f 124/26/26 125/27/26 126/28/26 127/29/26 137/30/26 138/31/26 139/32/26 133/33/26 129/34/26 130/35/26 131/36/26 132/37/26 134/38/26 135/39/26 136/40/26 128/41/26
f 51/42/27 55/3/28 54/43/29
f 53/44/30 55/3/28 52/45/31
f 55/3/28 57/46/32 54/43/29
f 55/3/28 59/47/33 58/48/34
f 19/6/35 51/42/27 26/49/36
f 25/50/37 52/45/31 51/42/27
f 23/51/38 52/45/31 24/10/39
f 21/11/40 53/44/30 23/51/38
f 34/52/41 56/53/42 53/44/30
f 56/53/42 32/54/43 59/47/33
f 59/47/33 22/1/44 31/55/45
f 58/48/34 31/55/45 30/2/46
f 58/48/34 29/56/47 57/46/32
f 57/46/32 20/20/48 28/57/49
f 54/43/29 28/57/49 27/7/50
f 26/49/36 54/43/29 27/7/50
f 72/58/51 76/9/52 75/59/53
f 74/60/54 76/9/52 73/61/55
f 75/59/53 79/62/56 78/24/57
f 77/63/58 79/62/56 76/9/52
f 21/11/40 72/58/51 43/64/59
f 23/51/38 73/61/55 72/58/51
f 25/50/37 73/61/55 24/10/39
f 19/6/35 74/60/54 25/50/37
f 42/65/60 77/63/58 74/60/54
f 41/5/61 80/23/62 77/63/58
f 44/12/63 78/24/57 45/66/64
f 43/64/59 75/59/53 44/12/63
f 81/67/65 85/19/66 84/68/67
f 83/69/68 85/19/66 82/70/69
f 84/68/67 88/71/70 87/22/71
f 86/72/72 88/71/70 85/19/66
f 20/20/48 81/67/65 47/73/73
f 29/56/47 82/70/69 81/67/65
f 31/55/45 82/70/69 30/2/46
f 22/1/44 83/69/68 31/55/45
f 38/74/74 86/72/72 83/69/68
f 37/18/75 89/21/76 86/72/72
f 48/17/77 87/22/71 49/17/78
f 47/73/73 84/68/67 48/17/77
f 90/75/79 94/8/80 93/76/81
f 92/77/82 94/8/80 91/78/83
f 93/76/81 97/79/84 96/25/85
f 95/80/86 97/79/84 94/8/80
f 19/6/35 90/75/79 42/65/60
f 26/49/36 91/78/83 90/75/79
f 28/57/49 91/78/83 27/7/50
f 20/20/48 92/77/82 28/57/49
f 47/73/73 95/80/86 92/77/82
f 48/17/77 98/16/87 95/80/86
f 41/5/61 96/25/85 40/5/88
f 42/65/60 93/76/81 41/5/61
f 99/81/89 103/15/90 102/82/91
f 101/83/92 103/15/90 100/84/93
f 102/82/91 106/85/94 105/14/95
f 104/86/96 106/85/94 103/15/90
f 22/1/44 99/81/89 38/74/74
f 32/54/43 100/84/93 99/81/89
f 34/52/41 100/84/93 33/4/97
f 21/11/40 101/83/92 34/52/41
f 43/64/59 104/86/96 101/83/92
f 44/12/63 107/13/98 104/86/96
f 37/18/75 105/14/95 36/87/99
f 38/74/74 102/82/91 37/18/75
f 51/42/27 52/45/31 55/3/28
f 53/44/30 56/53/42 55/3/28
f 55/3/28 58/48/34 57/46/32
f 55/3/28 56/53/42 59/47/33
f 19/6/35 25/50/37 51/42/27
f 25/50/37 24/10/39 52/45/31
f 23/51/38 53/44/30 52/45/31
f 21/11/40 34/52/41 53/44/30
f 34/52/41 33/4/97 56/53/42
f 56/53/42 33/4/97 32/54/43
f 59/47/33 32/54/43 22/1/44
f 58/48/34 59/47/33 31/55/45
f 58/48/34 30/2/46 29/56/47
f 57/46/32 29/56/47 20/20/48
f 54/43/29 57/46/32 28/57/49
f 26/49/36 51/42/27 54/43/29
f 60/26/100 46/41/101 36/87/99 105/14/95
f 105/14/95 106/85/94 61/27/102 60/26/100
f 61/27/102 106/85/94 107/13/98 62/28/103
f 62/28/103 107/13/98 45/66/64 35/29/104
f 63/34/105 50/33/106 40/5/88 96/25/85
f 96/25/85 97/79/84 64/35/107 63/34/105
f 64/35/107 97/79/84 98/16/87 65/36/108
f 65/36/108 98/16/87 49/17/78 39/37/109
f 49/17/78 87/22/71 66/38/110 39/37/109
f 87/22/71 88/71/70 67/39/111 66/38/110
f 67/39/111 88/71/70 89/21/76 68/40/112
f 36/87/99 46/41/101 68/40/112 89/21/76
f 45/66/64 78/24/57 69/30/113 35/29/104
f 78/24/57 79/62/56 70/31/114 69/30/113
f 70/31/114 79/62/56 80/23/62 71/32/115
f 40/5/88 50/33/106 71/32/115 80/23/62
f 72/58/51 73/61/55 76/9/52
f 74/60/54 77/63/58 76/9/52
f 75/59/53 76/9/52 79/62/56
f 77/63/58 80/23/62 79/62/56
f 21/11/40 23/51/38 72/58/51
f 23/51/38 24/10/39 73/61/55
f 25/50/37 74/60/54 73/61/55
f 19/6/35 42/65/60 74/60/54
f 42/65/60 41/5/61 77/63/58
f 41/5/61 40/5/88 80/23/62
f 44/12/63 75/59/53 78/24/57
f 43/64/59 72/58/51 75/59/53
f 81/67/65 82/70/69 85/19/66
f 83/69/68 86/72/72 85/19/66
f 84/68/67 85/19/66 88/71/70
f 86/72/72 89/21/76 88/71/70
f 20/20/48 29/56/47 81/67/65
f 29/56/47 30/2/46 82/70/69
f 31/55/45 83/69/68 82/70/69
f 22/1/44 38/74/74 83/69/68
f 38/74/74 37/18/75 86/72/72
f 37/18/75 36/87/99 89/21/76
f 48/17/77 84/68/67 87/22/71
f 47/73/73 81/67/65 84/68/67
f 90/75/79 91/78/83 94/8/80
f 92/77/82 95/80/86 94/8/80
f 93/76/81 94/8/80 97/79/84
f 95/80/86 98/16/87 97/79/84
f 19/6/35 26/49/36 90/75/79
f 26/49/36 27/7/50 91/78/83
f 28/57/49 92/77/82 91/78/83
f 20/20/48 47/73/73 92/77/82
f 47/73/73 48/17/77 95/80/86
f 48/17/77 49/17/78 98/16/87
f 41/5/61 93/76/81 96/25/85
f 42/65/60 90/75/79 93/76/81
f 99/81/89 100/84/93 103/15/90
f 101/83/92 104/86/96 103/15/90
f 102/82/91 103/15/90 106/85/94
f 104/86/96 107/13/98 106/85/94
f 22/1/44 32/54/43 99/81/89
f 32/54/43 33/4/97 100/84/93
f 34/52/41 101/83/92 100/84/93
f 21/11/40 43/64/59 101/83/92
f 43/64/59 44/12/63 104/86/96
f 44/12/63 45/66/64 107/13/98
f 37/18/75 102/82/91 105/14/95
f 38/74/74 99/81/89 102/82/91
f 112/26/28 110/41/28 120/40/28 119/39/28 118/38/28 109/37/28 117/36/28 116/35/28 115/34/28 111/33/28 123/32/28 122/31/28 121/30/28 108/29/28 114/28/28 113/27/28
f 141/41/101 140/26/116 124/26/117 128/41/118
f 143/37/109 142/38/119 134/38/120 132/37/121
f 145/34/122 144/35/107 130/35/123 129/34/124
f 147/30/125 146/31/114 138/31/126 137/30/127
f 144/35/107 148/36/128 131/36/129 130/35/123
f 146/31/114 149/32/130 139/32/131 138/31/126
f 148/36/128 143/37/109 132/37/121 131/36/129
f 149/32/130 150/33/106 133/33/132 139/32/131
f 150/33/106 145/34/122 129/34/124 133/33/132
f 140/26/116 151/27/102 125/27/133 124/26/117
f 152/29/104 147/30/125 137/30/127 127/29/134
f 142/38/119 153/39/111 135/39/135 134/38/120
f 151/27/102 154/28/136 126/28/137 125/27/133
f 153/39/111 155/40/138 136/40/139 135/39/135
f 154/28/136 152/29/104 127/29/134 126/28/137
f 155/40/138 141/41/101 128/41/118 136/40/139
f 120/40/140 110/41/141 141/41/101 155/40/138
f 114/28/142 108/29/143 152/29/104 154/28/136
f 119/39/144 120/40/140 155/40/138 153/39/111
f 113/27/145 114/28/142 154/28/136 151/27/102
f 118/38/146 119/39/144 153/39/111 142/38/119
f 108/29/143 121/30/147 147/30/125 152/29/104
f 112/26/148 113/27/145 151/27/102 140/26/116
f 111/33/149 115/34/150 145/34/122 150/33/106
f 123/32/151 111/33/149 150/33/106 149/32/130
f 117/36/152 109/37/153 143/37/109 148/36/128
f 122/31/154 123/32/151 149/32/130 146/31/114
f 116/35/155 117/36/152 148/36/128 144/35/107
f 121/30/147 122/31/154 146/31/114 147/30/125
f 115/34/150 116/35/155 144/35/107 145/34/122
f 109/37/153 118/38/146 142/38/119 143/37/109
f 110/41/141 112/26/148 140/26/116 141/41/101
f 14/10/156 16/11/156 11/4/156 6/3/156
f 157/8/157 13/7/157 17/20/157 7/17/157
f 158/25/158 9/5/158 157/8/158
f 163/88/159 164/89/159 165/90/159 166/91/159 167/92/159 168/93/159 169/94/159 170/95/159
f 179/88/159 180/89/159 181/90/159 182/91/159 183/92/159 184/93/159 185/94/159 186/95/159
f 165/90/160 173/90/160 174/91/160 166/91/160
f 163/88/161 172/88/161 171/89/161 164/89/161
f 170/95/162 178/95/162 172/88/162 163/88/162
f 168/93/163 176/93/163 177/94/163 169/94/163
f 166/91/164 174/91/164 175/92/164 167/92/164
f 164/89/165 171/89/165 173/90/165 165/90/165
f 169/94/166 177/94/166 178/95/166 170/95/166
f 167/92/167 175/92/167 176/93/167 168/93/167
f 181/90/160 189/90/160 190/91/160 182/91/160
f 179/88/161 188/88/161 187/89/161 180/89/161
f 186/95/162 194/95/162 188/88/162 179/88/162
f 184/93/163 192/93/163 193/94/163 185/94/163
f 182/91/164 190/91/164 191/92/164 183/92/164
f 180/89/165 187/89/165 189/90/165 181/90/165
f 185/94/166 193/94/166 194/95/166 186/95/166
f 183/92/167 191/92/167 192/93/167 184/93/167
