# Blender 3.6.2
# www.blender.org
mtllib Mic_Base.mtl
o Mic_Base
v 0.000000 0.000000 -0.059024
v -0.029512 0.000000 -0.051116
v -0.051116 0.000000 -0.029512
v -0.059024 0.000000 -0.000000
v -0.051116 0.000000 0.029512
v -0.029512 0.000000 0.051116
v 0.000000 0.000000 0.059024
v 0.029512 0.000000 0.051116
v 0.051116 0.000000 0.029512
v 0.059024 0.000000 -0.000000
v 0.051116 0.000000 -0.029512
v 0.029512 0.000000 -0.051116
v -0.018291 0.016489 -0.031681
v -0.000000 0.016489 -0.036583
v -0.031682 0.016489 -0.018291
v -0.036583 0.016489 0.000000
v -0.031682 0.016489 0.018291
v -0.018291 0.016489 0.031682
v -0.000000 0.016489 0.036583
v 0.018291 0.016489 0.031682
v 0.031682 0.016489 0.018291
v 0.036583 0.016489 0.000000
v 0.031682 0.016489 -0.018291
v 0.018291 0.016489 -0.031681
v -0.006237 0.058160 -0.006237
v -0.000000 0.012213 -0.012127
v -0.008575 0.012213 -0.008575
v -0.012127 0.012213 0.000000
v -0.008575 0.012213 0.008575
v -0.000000 0.012213 0.012127
v 0.008575 0.012213 0.008575
v 0.012127 0.012213 0.000000
v 0.008575 0.012213 -0.008575
v -0.000000 0.058160 -0.008820
v -0.008821 0.058160 0.000000
v -0.006237 0.058160 0.006237
v -0.000000 0.058160 0.008820
v 0.006237 0.058160 0.006237
v 0.008820 0.058160 0.000000
v 0.006237 0.058160 -0.006237
v 0.036881 0.133734 0.005747
v 0.041182 0.129648 -0.005747
v 0.036881 0.133734 -0.005747
v 0.041182 0.129648 0.005747
v 0.031068 0.078882 0.005747
v 0.036881 0.101771 0.005747
v 0.035031 0.089792 0.005747
v 0.006030 0.059852 0.012771
v 0.026447 0.070007 0.007231
v 0.017285 0.062827 0.009299
v 0.036881 0.101771 -0.005747
v 0.031068 0.078882 -0.005747
v 0.035031 0.089792 -0.005747
v 0.026447 0.070007 -0.007231
v 0.006030 0.059852 -0.012771
v 0.017285 0.062827 -0.009299
v 0.035194 0.076615 0.005747
v 0.041165 0.101372 0.005747
v 0.039182 0.088423 0.005747
v 0.006585 0.055585 0.012771
v 0.029516 0.066991 0.007231
v 0.019201 0.058974 0.009299
v 0.041165 0.101372 -0.005747
v 0.035194 0.076615 -0.005747
v 0.039182 0.088423 -0.005747
v 0.029516 0.066991 -0.007231
v 0.006585 0.055585 -0.012771
v 0.019201 0.058974 -0.009299
v 0.036881 0.128516 0.001806
v 0.036881 0.126785 0.003537
v 0.036881 0.126785 -0.003537
v 0.036881 0.128516 -0.001806
v 0.036881 0.124005 0.003537
v 0.036881 0.122273 0.001806
v 0.036881 0.122273 -0.001806
v 0.036881 0.124005 -0.003537
v 0.030925 0.128516 -0.001806
v 0.030925 0.126785 -0.003537
v 0.030925 0.126785 0.003537
v 0.030925 0.128516 0.001806
v 0.030925 0.124005 -0.003537
v 0.030925 0.122273 -0.001806
v 0.030925 0.122273 0.001806
v 0.030925 0.124005 0.003537
v -0.036881 0.133734 0.005747
v -0.041182 0.129648 -0.005747
v -0.036881 0.133734 -0.005747
v -0.041182 0.129648 0.005747
v -0.031068 0.078882 0.005747
v -0.036881 0.101771 0.005747
v -0.035031 0.089792 0.005747
v -0.006030 0.059852 0.012771
v -0.026447 0.070007 0.007231
v -0.017285 0.062827 0.009299
v -0.036881 0.101771 -0.005747
v -0.031068 0.078882 -0.005747
v -0.035031 0.089792 -0.005747
v -0.026447 0.070007 -0.007231
v -0.006030 0.059852 -0.012771
v -0.017285 0.062827 -0.009299
v -0.035194 0.076615 0.005747
v -0.041165 0.101372 0.005747
v -0.039182 0.088423 0.005747
v -0.006585 0.055585 0.012771
v -0.029516 0.066991 0.007231
v -0.019201 0.058974 0.009299
v -0.041165 0.101372 -0.005747
v -0.035194 0.076615 -0.005747
v -0.039182 0.088423 -0.005747
v -0.029516 0.066991 -0.007231
v -0.006585 0.055585 -0.012771
v -0.019201 0.058974 -0.009299
v -0.036881 0.128516 0.001806
v -0.036881 0.126785 0.003537
v -0.036881 0.126785 -0.003537
v -0.036881 0.128516 -0.001806
v -0.036881 0.124005 0.003537
v -0.036881 0.122273 0.001806
v -0.036881 0.122273 -0.001806
v -0.036881 0.124005 -0.003537
v -0.030925 0.128516 -0.001806
v -0.030925 0.126785 -0.003537
v -0.030925 0.126785 0.003537
v -0.030925 0.128516 0.001806
v -0.030925 0.124005 -0.003537
v -0.030925 0.122273 -0.001806
v -0.030925 0.122273 0.001806
v -0.030925 0.124005 0.003537
v -0.026511 0.010446 -0.045919
v -0.024368 0.013245 -0.042206
v 0.000000 0.013245 -0.048735
v 0.000000 0.010446 -0.053023
v -0.045919 0.010446 -0.026511
v -0.042206 0.013245 -0.024368
v -0.053022 0.010446 -0.000000
v -0.048735 0.013245 -0.000000
v -0.045919 0.010446 0.026511
v -0.042206 0.013245 0.024368
v -0.026511 0.010446 0.045919
v -0.024368 0.013245 0.042206
v 0.000000 0.010446 0.053023
v 0.000000 0.013245 0.048735
v 0.026511 0.010446 0.045919
v 0.024368 0.013245 0.042206
v 0.045919 0.010446 0.026511
v 0.042206 0.013245 0.024368
v 0.053023 0.010446 -0.000000
v 0.048735 0.013245 -0.000000
v 0.045919 0.010446 -0.026511
v 0.042206 0.013245 -0.024368
v 0.026511 0.010446 -0.045919
v 0.024368 0.013245 -0.042206
vn -0.0000 -1.0000 -0.0000
vn -0.4335 0.4982 -0.7509
vn -0.7509 0.4982 -0.4335
vn -0.3714 0.9034 0.2144
vn -0.2144 0.9034 0.3714
vn -0.0756 0.9885 0.1310
vn -0.1310 0.9885 0.0756
vn -0.2144 0.9034 -0.3714
vn -0.3714 0.9034 -0.2144
vn -0.1310 0.9885 -0.0756
vn -0.0756 0.9885 -0.1310
vn 0.3714 0.9034 0.2144
vn 0.4289 0.9034 -0.0000
vn 0.1512 0.9885 -0.0000
vn 0.1310 0.9885 0.0756
vn -0.0000 0.9034 0.4289
vn -0.0000 0.9885 0.1512
vn -0.4289 0.9034 -0.0000
vn -0.1512 0.9885 -0.0000
vn 0.2144 0.9034 -0.3714
vn -0.0000 0.9034 -0.4289
vn -0.0000 0.9885 -0.1512
vn 0.0756 0.9885 -0.1310
vn 0.3714 0.9034 -0.2144
vn 0.1310 0.9885 -0.0756
vn 0.2144 0.9034 0.3714
vn 0.0756 0.9885 0.1310
vn 0.7509 0.4982 0.4335
vn 0.8671 0.4982 -0.0000
vn -0.4335 0.4982 0.7509
vn -0.0000 0.4982 0.8671
vn -0.8671 0.4982 -0.0000
vn 0.7509 0.4982 -0.4335
vn 0.4335 0.4982 0.7509
vn -0.7509 0.4982 0.4335
vn 0.4335 0.4982 -0.7509
vn -0.0000 0.4982 -0.8671
vn -0.9974 0.0718 -0.0000
vn -0.7053 0.0718 0.7053
vn -0.7053 0.0718 -0.7053
vn -0.0000 0.0718 0.9974
vn 0.7053 0.0718 0.7053
vn -0.0000 0.0718 -0.9974
vn 0.9974 0.0718 -0.0000
vn 0.7053 0.0718 -0.7053
vn -0.1305 0.0397 0.9906
vn -0.1308 0.0398 0.9906
vn 0.1308 0.0398 0.9906
vn 0.1305 0.0397 0.9906
vn 0.1157 0.9933 -0.0000
vn -0.1157 0.9933 -0.0000
vn -1.0000 -0.0000 -0.0000
vn -0.9971 0.0766 -0.0000
vn -0.9142 0.4052 -0.0000
vn -0.9687 0.2482 -0.0000
vn -0.7550 0.6557 -0.0000
vn -0.4188 0.9081 -0.0000
vn 0.9190 0.3942 -0.0000
vn 0.9971 -0.0762 -0.0000
vn 0.9075 -0.4201 -0.0000
vn 0.9716 -0.2366 -0.0000
vn 0.7391 -0.6735 -0.0000
vn 0.4220 -0.9066 -0.0000
vn 0.1190 -0.9929 -0.0000
vn -0.0000 -0.0000 1.0000
vn 0.1071 0.1053 0.9886
vn 0.1967 0.0881 0.9765
vn 0.1969 0.0881 0.9765
vn 0.1093 0.1047 0.9885
vn 0.0393 0.0535 -0.9978
vn -0.0000 -0.0000 -1.0000
vn 0.0436 0.0594 -0.9973
vn 0.1308 0.0398 -0.9906
vn -0.1308 0.0398 -0.9906
vn -0.1305 0.0397 -0.9906
vn 0.1305 0.0397 -0.9906
vn 0.6888 0.7249 -0.0000
vn 0.1967 0.0881 -0.9765
vn 0.1969 0.0881 -0.9765
vn 0.0393 0.0535 0.9978
vn 0.0436 0.0594 0.9973
vn 0.1071 0.1053 -0.9886
vn 0.1093 0.1047 -0.9885
vn -0.0000 0.3827 -0.9239
vn -0.0000 -0.3827 -0.9239
vn -0.0000 -0.3827 0.9239
vn -0.0000 0.3827 0.9239
vn -0.0000 -0.9239 -0.3827
vn -0.0000 -0.9239 0.3827
vn -0.0000 0.9239 0.3827
vn -0.0000 0.9239 -0.3827
vn 1.0000 -0.0000 -0.0000
vn 0.9971 0.0766 -0.0000
vn 0.9142 0.4052 -0.0000
vn 0.9687 0.2482 -0.0000
vn 0.7550 0.6557 -0.0000
vn 0.4188 0.9081 -0.0000
vn -0.9190 0.3942 -0.0000
vn -0.9971 -0.0762 -0.0000
vn -0.9075 -0.4201 -0.0000
vn -0.9716 -0.2366 -0.0000
vn -0.7391 -0.6735 -0.0000
vn -0.4220 -0.9066 -0.0000
vn -0.1190 -0.9929 -0.0000
vn -0.1071 0.1053 0.9886
vn -0.1093 0.1047 0.9885
vn -0.1969 0.0881 0.9765
vn -0.1967 0.0881 0.9765
vn -0.0393 0.0535 -0.9978
vn -0.0436 0.0594 -0.9973
vn -0.6888 0.7249 -0.0000
vn -0.1969 0.0881 -0.9765
vn -0.1967 0.0881 -0.9765
vn -0.0393 0.0535 0.9978
vn -0.0436 0.0594 0.9973
vn -0.1093 0.1047 -0.9885
vn -0.1071 0.1053 -0.9886
vn -0.0000 0.8374 -0.5466
vn -0.2733 0.8374 -0.4734
vn -0.4734 0.8374 -0.2733
vn -0.5466 0.8374 -0.0000
vn -0.4734 0.8374 0.2733
vn -0.2733 0.8374 0.4734
vn -0.0000 0.8374 0.5466
vn 0.2733 0.8374 0.4734
vn 0.4734 0.8374 0.2733
vn 0.5466 0.8374 -0.0000
vn 0.4734 0.8374 -0.2733
vn 0.2733 0.8374 -0.4734
vt 0.061812 0.955926
vt 0.060473 0.953605
vt 0.058152 0.952266
vt 0.055473 0.952266
vt 0.053152 0.953605
vt 0.051812 0.955926
vt 0.051812 0.958605
vt 0.053152 0.960926
vt 0.055473 0.962266
vt 0.058152 0.962266
vt 0.060473 0.960926
vt 0.061812 0.958605
vt 0.055473 0.962266
vt 0.060473 0.960926
vt 0.055473 0.952266
vt 0.053152 0.953606
vt 0.053152 0.960926
vt 0.058152 0.952266
vt 0.057402 0.957266
vt 0.058155 0.955448
vt 0.058155 0.959083
vt 0.059973 0.954696
vt 0.061790 0.955448
vt 0.059973 0.959836
vt 0.062543 0.957266
vt 0.061790 0.959083
vt 0.062008 0.959055
s 1
usemtl palette
f 2/1/1 1/2/1 12/3/1 11/4/1 10/5/1 9/6/1 8/7/1 7/8/1 6/9/1 5/10/1 4/11/1 3/12/1
f 2/1/2 3/12/3 133/12/3 129/1/2
f 138/10/4 140/9/5 18/9/6 17/10/7
f 130/1/8 134/12/9 15/12/10 13/1/11
f 146/6/12 148/5/13 22/5/14 21/6/15
f 140/13/5 142/8/16 19/8/17 18/9/6
f 134/12/9 136/14/18 16/11/19 15/12/10
f 152/3/20 131/2/21 14/2/22 24/3/23
f 148/5/13 150/15/24 23/4/25 22/5/14
f 142/8/16 144/7/26 20/7/27 19/8/17
f 136/11/18 138/10/4 17/10/7 16/11/19
f 150/4/24 152/3/20 24/3/23 23/4/25
f 144/7/26 146/6/12 21/6/15 20/7/27
f 13/1/11 15/12/10 16/11/19 17/10/7 18/9/6 19/8/17 20/7/27 21/6/15 22/5/14 23/4/25 24/3/23 14/2/22
f 9/6/28 10/5/29 147/5/29 145/6/28
f 6/9/30 7/8/31 141/8/31 139/9/30
f 3/12/3 4/11/32 135/11/32 133/12/3
f 10/5/29 11/4/33 149/4/33 147/16/29
f 7/8/31 8/7/34 143/7/34 141/17/31
f 4/11/32 5/10/35 137/10/35 135/11/32
f 11/4/33 12/3/36 151/3/36 149/4/33
f 1/2/37 2/1/2 129/1/2 132/2/37
f 8/7/34 9/6/28 145/6/28 143/7/34
f 5/10/35 6/9/30 139/9/30 137/10/35
f 12/3/36 1/2/37 132/2/37 151/18/36
f 28/19/38 29/20/39 36/20/39 35/19/38
f 27/21/40 28/19/38 35/19/38 25/21/40
f 30/22/41 31/23/42 38/23/42 37/22/41
f 26/24/43 27/21/40 25/21/40 34/24/43
f 31/23/42 32/25/44 39/25/44 38/23/42
f 32/25/44 33/26/45 40/26/45 39/25/44
f 29/20/39 30/22/41 37/22/41 36/20/39
f 33/26/45 26/24/43 34/24/43 40/26/45
f 92/27/46 104/27/47 60/27/48 48/27/49
f 92/27/50 48/27/51 55/27/51 99/27/50
f 41/27/52 43/27/52 51/27/53 46/27/53
f 45/27/54 47/27/55 53/27/55 52/27/54
f 47/27/55 46/27/53 51/27/53 53/27/55
f 54/27/56 56/27/57 50/27/57 49/27/56
f 56/27/57 55/27/51 48/27/51 50/27/57
f 45/27/54 52/27/54 54/27/56 49/27/56
f 44/27/58 58/27/59 63/27/59 42/27/58
f 57/27/60 64/27/60 65/27/61 59/27/61
f 59/27/61 65/27/61 63/27/59 58/27/59
f 66/27/62 61/27/62 62/27/63 68/27/63
f 68/27/63 62/27/63 60/27/64 67/27/64
f 57/27/60 61/27/62 66/27/62 64/27/60
f 41/27/65 46/27/65 58/27/65 44/27/65
f 49/27/66 50/27/67 62/27/68 61/27/69
f 52/27/70 53/27/71 65/27/71 64/27/72
f 51/27/71 43/27/71 42/27/71 63/27/71
f 67/27/73 111/27/74 99/27/75 55/27/76
f 43/27/77 41/27/77 44/27/58 42/27/58
f 55/27/76 56/27/78 68/27/79 67/27/73
f 46/27/65 47/27/65 59/27/65 58/27/65
f 50/27/67 48/27/49 60/27/48 62/27/68
f 53/27/71 51/27/71 63/27/71 65/27/71
f 45/27/80 49/27/66 61/27/69 57/27/81
f 56/27/78 54/27/82 66/27/83 68/27/79
f 47/27/65 45/27/80 57/27/81 59/27/65
f 54/27/82 52/27/70 64/27/72 66/27/83
f 71/27/84 76/27/85 81/27/85 78/27/84
f 73/27/86 70/27/87 79/27/87 84/27/86
f 75/27/88 74/27/89 83/27/89 82/27/88
f 69/27/90 80/27/90 79/27/87 70/27/87
f 83/27/89 74/27/89 73/27/86 84/27/86
f 71/27/84 78/27/84 77/27/91 72/27/91
f 75/27/88 82/27/88 81/27/85 76/27/85
f 69/27/90 72/27/91 77/27/91 80/27/90
f 85/27/92 90/27/93 95/27/93 87/27/92
f 89/27/94 96/27/94 97/27/95 91/27/95
f 91/27/95 97/27/95 95/27/93 90/27/93
f 98/27/96 93/27/96 94/27/97 100/27/97
f 100/27/97 94/27/97 92/27/50 99/27/50
f 89/27/94 93/27/96 98/27/96 96/27/94
f 88/27/98 86/27/98 107/27/99 102/27/99
f 101/27/100 103/27/101 109/27/101 108/27/100
f 103/27/101 102/27/99 107/27/99 109/27/101
f 110/27/102 112/27/103 106/27/103 105/27/102
f 112/27/103 111/27/104 104/27/104 106/27/103
f 101/27/100 108/27/100 110/27/102 105/27/102
f 85/27/65 88/27/65 102/27/65 90/27/65
f 93/27/105 105/27/106 106/27/107 94/27/108
f 96/27/109 108/27/110 109/27/71 97/27/71
f 95/27/71 107/27/71 86/27/71 87/27/71
f 87/27/111 86/27/98 88/27/98 85/27/111
f 99/27/75 111/27/74 112/27/112 100/27/113
f 90/27/65 102/27/65 103/27/65 91/27/65
f 94/27/108 106/27/107 104/27/47 92/27/46
f 97/27/71 109/27/71 107/27/71 95/27/71
f 89/27/114 101/27/115 105/27/106 93/27/105
f 100/27/113 112/27/112 110/27/116 98/27/117
f 91/27/65 103/27/65 101/27/115 89/27/114
f 98/27/117 110/27/116 108/27/110 96/27/109
f 115/27/84 122/27/84 125/27/85 120/27/85
f 117/27/86 128/27/86 123/27/87 114/27/87
f 119/27/88 126/27/88 127/27/89 118/27/89
f 113/27/90 114/27/87 123/27/87 124/27/90
f 127/27/89 128/27/86 117/27/86 118/27/89
f 115/27/84 116/27/91 121/27/91 122/27/84
f 119/27/88 120/27/85 125/27/85 126/27/88
f 113/27/90 124/27/90 121/27/91 116/27/91
f 80/27/52 77/27/52 78/27/52 81/27/52 82/27/52 83/27/52 84/27/52 79/27/52
f 124/27/92 123/27/92 128/27/92 127/27/92 126/27/92 125/27/92 122/27/92 121/27/92
f 104/27/104 111/27/104 67/27/64 60/27/64
f 130/1/8 131/2/21 132/2/118 129/1/119
f 134/12/9 130/1/8 129/1/119 133/12/120
f 136/14/18 134/12/9 133/12/120 135/11/121
f 138/10/4 136/11/18 135/11/121 137/10/122
f 140/9/5 138/10/4 137/10/122 139/9/123
f 142/8/16 140/13/5 139/9/123 141/8/124
f 144/7/26 142/8/16 141/17/124 143/7/125
f 146/6/12 144/7/26 143/7/125 145/6/126
f 148/5/13 146/6/12 145/6/126 147/5/127
f 150/15/24 148/5/13 147/16/127 149/4/128
f 152/3/20 150/4/24 149/4/128 151/3/129
f 131/2/21 152/3/20 151/18/129 132/2/118
f 131/2/21 130/1/8 13/1/11 14/2/22
