# Blender 3.6.2
# www.blender.org
mtllib Monitor_1.mtl
o Monitor_1
v 0.299232 0.109449 -0.033815
v 0.299232 0.434777 -0.033815
v 0.394596 0.125199 0.085106
v 0.394596 0.510303 0.085106
v 0.410347 0.109449 0.014226
v 0.410347 0.526054 0.014226
v 0.042142 0.009699 -0.004352
v 0.042142 0.137491 0.031167
v 0.042142 0.009699 -0.029492
v 0.042142 0.137491 0.006027
v 0.141221 -0.002436 0.057144
v 0.141221 0.007944 0.057144
v 0.171938 -0.002436 -0.067707
v 0.171938 0.012317 -0.067707
v 0.410347 0.526054 0.085106
v 0.410347 0.109449 0.085106
v 0.394596 0.510303 0.075840
v 0.394596 0.125199 0.075840
v 0.112736 0.137855 -0.033815
v 0.112736 0.218701 -0.033815
v 0.112736 0.137855 -0.021066
v 0.112736 0.218701 -0.021066
v -0.299232 0.109449 -0.033815
v -0.299232 0.434777 -0.033815
v -0.394596 0.125199 0.085106
v -0.394596 0.510303 0.085106
v -0.410347 0.109449 0.014226
v -0.410347 0.526054 0.014226
v -0.042142 0.009699 -0.004352
v -0.042142 0.137491 0.031167
v -0.042142 0.009699 -0.029492
v -0.042142 0.137491 0.006027
v -0.141221 -0.002436 0.057144
v -0.141221 0.007944 0.057144
v -0.171938 -0.002436 -0.067707
v -0.171938 0.012317 -0.067707
v -0.410347 0.526054 0.085106
v -0.410347 0.109449 0.085106
v -0.394596 0.510303 0.075840
v -0.394596 0.125199 0.075840
v -0.112736 0.137855 -0.033815
v -0.112736 0.218701 -0.033815
v -0.112736 0.137855 -0.021066
v -0.112736 0.218701 -0.021066
vn 1.0000 -0.0000 -0.0000
vn -0.0000 0.2678 -0.9635
vn -0.0000 -1.0000 -0.0000
vn 0.3969 -0.0000 -0.9179
vn -0.0000 -0.0000 -1.0000
vn 0.9710 -0.0000 0.2389
vn -0.0000 0.9994 0.0350
vn -0.0000 -0.0000 1.0000
vn -1.0000 -0.0000 -0.0000
vn -0.0000 0.4658 -0.8849
vn -0.0000 1.0000 -0.0000
vn -0.0000 -0.2678 0.9635
vn -0.3969 -0.0000 -0.9179
vn -0.9710 -0.0000 0.2389
vt 0.126900 0.960789
vt 0.126900 0.960940
vt 0.126873 0.960940
vt 0.126873 0.960789
vt 0.127070 0.958779
vt 0.127070 0.958828
vt 0.127038 0.958828
vt 0.127038 0.958779
vt 0.127892 0.960318
vt 0.127892 0.960009
vt 0.127910 0.960050
vt 0.127910 0.960276
vt 0.127669 0.960009
vt 0.127819 0.960009
vt 0.127821 0.960050
vt 0.127699 0.960050
vt 0.127865 0.960009
vt 0.127865 0.960318
vt 0.042205 0.963684
vt 0.042205 0.963599
vt 0.042236 0.963599
vt 0.042236 0.963684
vt 0.127056 0.958877
vt 0.127056 0.958927
vt 0.127047 0.958929
vt 0.127047 0.958879
vt 0.127847 0.958908
vt 0.127842 0.958908
vt 0.127842 0.958779
vt 0.127847 0.958779
vt 0.126966 0.958932
vt 0.126961 0.958932
vt 0.126962 0.958884
vt 0.126966 0.958884
vt 0.127441 0.958777
vt 0.127441 0.958907
vt 0.127394 0.958895
vt 0.127394 0.958789
vt 0.127663 0.961049
vt 0.127802 0.961049
vt 0.127808 0.961055
vt 0.127657 0.961055
vt 0.127802 0.960752
vt 0.127808 0.960746
vt 0.127657 0.960746
vt 0.127663 0.960752
vt 0.127880 0.960777
vt 0.127880 0.960916
vt 0.127876 0.960916
vt 0.127876 0.960777
vt 0.000722 0.998708
vt 0.000722 0.001292
vt 0.557981 0.001292
vt 0.557981 0.998708
vt 0.127699 0.960276
vt 0.127669 0.960318
vt 0.127617 0.961067
vt 0.127617 0.960758
vt 0.127643 0.960758
vt 0.127643 0.961067
vt 0.127873 0.961075
vt 0.127873 0.960777
vt 0.127876 0.961075
vt 0.127772 0.958356
vt 0.127740 0.958356
vt 0.127740 0.958308
vt 0.127772 0.958308
vt 0.127488 0.958895
vt 0.127488 0.958789
vt 0.127065 0.958983
vt 0.127065 0.958877
vt 0.127069 0.958877
vt 0.127069 0.958983
vt 0.127811 0.960403
vt 0.127811 0.960318
vt 0.127816 0.960318
vt 0.127816 0.960403
vt 0.126946 0.960895
vt 0.126950 0.960895
vt 0.126950 0.960980
vt 0.126946 0.960980
vt 0.127525 0.960393
vt 0.127525 0.960362
vt 0.127529 0.960362
vt 0.127529 0.960393
vt 0.127261 0.960767
vt 0.127288 0.960767
vt 0.127288 0.960918
vt 0.127261 0.960918
vt 0.127821 0.960276
vt 0.127819 0.960318
vt 0.127065 0.958879
vt 0.127065 0.958929
vt 0.126970 0.958884
vt 0.126972 0.958932
vt 0.127863 0.960789
vt 0.127866 0.960789
vt 0.127866 0.960928
vt 0.127863 0.960928
vt 0.127520 0.960393
vt 0.127520 0.960362
vt 0.127869 0.960777
vt 0.127869 0.961075
vt 0.127810 0.960206
vt 0.127810 0.960121
vt 0.127780 0.960206
vt 0.127780 0.960121
s 0
usemtl palette
f 5/1/1 6/2/1 15/3/1 16/4/1
f 31/5/2 32/6/2 10/7/2 9/8/2
f 5/9/3 27/10/3 23/11/3 1/12/3
f 6/13/4 5/14/4 1/15/4 2/16/4
f 38/17/3 27/10/3 5/9/3 16/18/3
f 21/19/5 43/20/5 44/21/5 22/22/5
f 9/23/1 10/24/1 8/25/1 7/26/1
f 35/27/5 36/28/5 14/29/5 13/30/5
f 13/31/6 14/32/6 12/33/6 11/34/6
f 14/35/7 36/36/7 34/37/7 12/38/7
f 4/39/8 3/40/8 16/41/8 15/42/8
f 25/43/8 38/44/8 16/41/8 3/40/8
f 15/42/8 37/45/8 26/46/8 4/39/8
f 3/47/9 4/48/9 17/49/9 18/50/9
f 24/55/10 28/56/10 6/13/10 2/16/10
f 6/57/11 28/58/11 37/59/11 15/60/11
f 18/61/11 40/62/11 25/50/11 3/63/11
f 8/64/12 30/65/12 29/66/12 7/67/12
f 33/68/3 35/36/3 13/35/3 11/69/3
f 12/70/8 34/71/8 33/72/8 11/73/8
f 22/74/3 44/75/3 42/76/3 20/77/3
f 41/78/11 43/79/11 21/80/11 19/81/11
f 20/82/9 19/83/9 21/84/9 22/85/9
f 27/86/9 38/87/9 37/88/9 28/89/9
f 28/56/13 24/55/13 23/90/13 27/91/13
f 31/23/9 29/92/9 30/93/9 32/24/9
f 35/31/14 33/34/14 34/94/14 36/95/14
f 26/46/8 37/45/8 38/44/8 25/43/8
f 25/96/1 40/97/1 39/98/1 26/99/1
f 42/82/1 44/100/1 43/101/1 41/83/1
f 26/102/3 39/62/3 17/61/3 4/103/3
f 1/15/5 23/90/5 41/104/5 19/105/5
f 41/104/5 23/90/5 24/55/5 42/106/5
f 42/106/5 24/55/5 2/16/5 20/107/5
f 19/105/5 20/107/5 2/16/5 1/15/5
usemtl PC
f 17/51/8 39/52/8 40/53/8 18/54/8
