# Blender 3.6.2
# www.blender.org
mtllib Monitor_2.mtl
o Monitor_2
v 0.358153 0.156759 -0.016237
v 0.358153 0.556656 -0.016237
v 0.453518 0.125199 0.044331
v 0.453518 0.569592 0.044331
v 0.469268 0.109449 0.009697
v 0.469268 0.585342 0.009697
v 0.469268 0.585342 0.044331
v 0.469268 0.109449 0.044331
v 0.453518 0.569592 0.035064
v 0.453518 0.125199 0.035064
v 0.112736 0.186824 -0.016237
v 0.112736 0.267670 -0.016237
v 0.112736 0.186824 -0.003488
v 0.112736 0.267670 -0.003488
v -0.358153 0.156759 -0.016237
v -0.358153 0.556656 -0.016237
v -0.453518 0.125199 0.044331
v -0.453518 0.569592 0.044331
v -0.469268 0.109449 0.009697
v -0.469268 0.585342 0.009697
v -0.469268 0.585342 0.044331
v -0.469268 0.109449 0.044331
v -0.453518 0.569592 0.035064
v -0.453518 0.125199 0.035064
v 0.000000 0.556656 -0.016237
v 0.000000 0.267670 -0.016237
v -0.112736 0.186824 -0.016237
v -0.112736 0.267670 -0.016237
v -0.112736 0.186824 -0.003488
v -0.112736 0.267670 -0.003488
v 0.029948 0.003388 0.024167
v 0.029948 0.114707 0.033496
v 0.029948 0.003388 0.008524
v 0.029948 0.114707 0.017853
v 0.000000 0.023191 -0.006432
v -0.094510 0.023191 0.000773
v -0.189019 0.023191 0.025961
v 0.189019 -0.002436 0.025962
v -0.029947 0.003388 0.024167
v -0.029947 0.114707 0.033496
v -0.029947 0.003388 0.008524
v -0.029947 0.114707 0.017853
v 0.094510 -0.002436 0.000773
v 0.000000 -0.002436 -0.006432
v -0.094510 -0.002436 0.000773
v -0.189019 -0.002436 0.025961
v 0.283529 -0.002436 0.086226
v 0.283529 0.023191 0.086226
v -0.283529 -0.002436 0.086226
v -0.283529 0.023191 0.086226
v 0.094510 0.023191 0.000773
v 0.189019 0.023191 0.025962
v 0.094510 0.023191 0.040429
v 0.094510 -0.002436 0.040429
v 0.000000 0.023191 0.033224
v 0.189019 0.023191 0.065618
v 0.189019 -0.002436 0.065618
v -0.189019 0.023191 0.065618
v -0.094510 0.023191 0.040429
v 0.000000 -0.002436 0.033224
v -0.189019 -0.002436 0.065618
v -0.094510 -0.002436 0.040429
v -0.283529 -0.002436 0.125882
v -0.283529 0.023191 0.125882
v 0.283529 0.023191 0.125882
v 0.283529 -0.002436 0.125882
vn 1.0000 -0.0000 -0.0000
vn -0.0000 -0.4807 -0.8769
vn -0.0000 -0.4622 -0.8868
vn 0.2273 -0.0000 -0.9738
vn -0.0000 -1.0000 -0.0000
vn -0.0000 -0.0000 1.0000
vn -1.0000 -0.0000 -0.0000
vn -0.0000 0.6706 -0.7418
vn -0.0000 1.0000 -0.0000
vn -0.0000 -0.0000 -1.0000
vn -0.2273 -0.0000 -0.9738
vn -0.0000 -0.0835 0.9965
vn 0.4023 -0.0000 -0.9155
vn 0.1675 -0.0000 -0.9859
vn -0.1675 -0.0000 -0.9859
vn -0.4023 -0.0000 -0.9155
vn -0.0000 0.0835 -0.9965
vn -0.4023 -0.0000 0.9155
vn -0.1675 -0.0000 0.9859
vn 0.5376 -0.0000 -0.8432
vn -0.5376 -0.0000 -0.8432
vn 0.1675 -0.0000 0.9859
vn 0.4023 -0.0000 0.9155
vn -0.5376 -0.0000 0.8432
vn 0.5376 -0.0000 0.8432
vt 0.128894 0.961843
vt 0.128894 0.961960
vt 0.128886 0.961960
vt 0.128886 0.961843
vt 0.129316 0.961594
vt 0.129316 0.961823
vt 0.129305 0.961796
vt 0.129305 0.961621
vt 0.129200 0.961594
vt 0.129207 0.961621
vt 0.129480 0.961338
vt 0.129489 0.961338
vt 0.129489 0.961567
vt 0.129480 0.961567
vt 0.129212 0.961563
vt 0.129320 0.961563
vt 0.129324 0.961567
vt 0.129208 0.961567
vt 0.129320 0.961342
vt 0.129324 0.961338
vt 0.129208 0.961338
vt 0.129212 0.961342
vt 0.129447 0.961843
vt 0.129447 0.961952
vt 0.129445 0.961952
vt 0.129445 0.961843
vt 0.000722 0.998708
vt 0.000722 0.001292
vt 0.557981 0.001292
vt 0.557981 0.998708
vt 0.129207 0.961796
vt 0.129200 0.961823
vt 0.129207 0.961708
vt 0.129074 0.961587
vt 0.129074 0.961816
vt 0.129065 0.961816
vt 0.129065 0.961587
vt 0.129076 0.961587
vt 0.129076 0.961809
vt 0.129074 0.961809
vt 0.129413 0.961593
vt 0.129413 0.961538
vt 0.129416 0.961538
vt 0.129416 0.961566
vt 0.129416 0.961593
vt 0.129410 0.961593
vt 0.129410 0.961538
vt 0.129224 0.961587
vt 0.129224 0.961567
vt 0.129227 0.961567
vt 0.129227 0.961587
vt 0.042175 0.963684
vt 0.042175 0.963599
vt 0.042205 0.963599
vt 0.042205 0.963684
vt 0.129307 0.961823
vt 0.129316 0.961823
vt 0.129316 0.961939
vt 0.129307 0.961939
vt 0.129450 0.961843
vt 0.129450 0.961952
vt 0.129221 0.961587
vt 0.129221 0.961567
vt 0.129078 0.961587
vt 0.129078 0.961809
vt 0.129297 0.961736
vt 0.129297 0.961681
vt 0.129278 0.961681
vt 0.129278 0.961708
vt 0.129278 0.961736
vt 0.043142 0.960995
vt 0.043110 0.960995
vt 0.043110 0.960953
vt 0.043142 0.960953
vt 0.042316 0.961530
vt 0.042316 0.961573
vt 0.042311 0.961574
vt 0.042311 0.961531
vt 0.042326 0.961594
vt 0.042331 0.961594
vt 0.042331 0.961572
vt 0.042326 0.961572
vt 0.042331 0.961551
vt 0.042326 0.961551
vt 0.042326 0.961530
vt 0.042331 0.961530
vt 0.042331 0.961509
vt 0.042326 0.961509
vt 0.042326 0.961488
vt 0.042326 0.961530
vt 0.042295 0.961530
vt 0.042295 0.961488
vt 0.042322 0.961531
vt 0.042322 0.961574
vt 0.042326 0.961615
vt 0.042331 0.961615
vt 0.042331 0.961488
s 1
usemtl palette
f 5/1/1 6/2/1 7/3/1 8/4/1
f 5/5/2 19/6/2 15/7/3 1/8/3
f 6/9/4 5/5/4 1/8/4 2/10/4
f 22/11/5 19/12/5 5/13/5 8/14/5
f 4/15/6 3/16/6 8/17/6 7/18/6
f 17/19/6 22/20/6 8/17/6 3/16/6
f 7/18/6 21/21/6 18/22/6 4/15/6
f 3/23/7 4/24/7 9/25/7 10/26/7
f 16/31/8 20/32/8 6/9/8 2/10/8 25/33/8
f 6/34/9 20/35/9 21/36/9 7/37/9
f 10/38/9 24/39/9 17/40/9 3/34/9
f 14/41/5 30/42/5 28/43/5 26/44/5 12/45/5
f 27/41/9 29/46/9 13/47/9 11/42/9
f 12/48/7 11/49/7 13/50/7 14/51/7
f 13/52/10 29/53/10 30/54/10 14/55/10
f 19/56/7 22/57/7 21/58/7 20/59/7
f 20/32/11 16/31/11 15/7/11 19/6/11
f 18/22/6 21/21/6 22/20/6 17/19/6
f 17/23/1 24/60/1 23/61/1 18/24/1
f 28/48/1 30/62/1 29/63/1 27/49/1
f 18/38/5 23/64/5 9/65/5 4/39/5
f 15/7/3 27/66/10 11/67/10 1/8/3
f 11/67/10 12/68/10 26/69/10 25/33/10 2/10/10 1/8/10
f 27/66/10 15/7/10 16/31/10 25/33/10 26/69/10 28/70/10
s 0
f 32/71/12 40/72/12 39/73/12 31/74/12
f 33/75/1 34/76/1 32/77/1 31/78/1
s 1
f 52/79/13 38/80/13 43/81/14 51/82/14
f 51/82/14 43/81/14 44/83/10 35/84/10
f 36/85/15 45/86/15 46/87/16 37/88/16
f 35/84/10 44/83/10 45/86/15 36/85/15
s 0
f 41/89/17 42/90/17 34/91/17 33/92/17
s 1
f 56/79/18 53/82/19 54/81/19 57/80/18
s 0
f 41/75/7 39/93/7 40/94/7 42/76/7
s 1
f 48/95/20 47/96/20 38/80/13 52/79/13
f 37/88/16 46/87/16 49/97/21 50/89/21
f 53/82/19 55/84/6 60/83/6 54/81/19
f 59/85/22 58/88/23 61/87/23 62/86/22
f 55/84/6 59/85/22 62/86/22 60/83/6
f 65/95/24 56/79/18 57/80/18 66/96/24
f 58/88/23 64/89/25 63/97/25 61/87/23
f 43/81/5 38/80/5 57/80/5 54/81/5
f 44/83/5 43/81/5 54/81/5 60/83/5
f 47/96/1 48/95/1 65/95/1 66/96/1
f 52/79/9 51/82/9 53/82/9 56/79/9
f 50/89/7 49/97/7 63/97/7 64/89/7
f 35/84/9 36/85/9 59/85/9 55/84/9
f 38/80/5 47/96/5 66/96/5 57/80/5
f 46/87/5 45/86/5 62/86/5 61/87/5
f 48/95/9 52/79/9 56/79/9 65/95/9
f 51/82/9 35/84/9 55/84/9 53/82/9
f 45/86/5 44/83/5 60/83/5 62/86/5
f 49/97/5 46/87/5 61/87/5 63/97/5
f 36/85/9 37/88/9 58/88/9 59/85/9
f 37/88/9 50/89/9 64/89/9 58/88/9
usemtl PC
f 9/27/6 23/28/6 24/29/6 10/30/6
