# Blender 3.6.2
# www.blender.org
mtllib Monitor_4_Curved.mtl
o Monitor_4_Curved
v 0.480656 0.590697 0.054860
v -0.480656 0.590697 0.054860
v 0.480656 0.122947 0.054860
v -0.480656 0.122947 0.054860
v 0.489825 0.600181 0.054860
v 0.483216 0.598263 0.040046
v -0.489825 0.600181 0.054860
v -0.483216 0.598263 0.040046
v 0.489825 0.100729 0.054860
v 0.483216 0.103065 0.040046
v -0.489825 0.100729 0.054860
v -0.483216 0.103065 0.040046
v -0.484703 0.104873 0.063812
v -0.480656 0.122947 0.063812
v -0.480656 0.590697 0.063812
v 0.480656 0.590697 0.063812
v 0.480656 0.122947 0.063812
v 0.484703 0.104873 0.063812
v -0.484703 0.596038 0.063812
v 0.484703 0.596038 0.063812
v 0.326550 0.600181 0.027927
v 0.163275 0.600181 0.012227
v 0.000000 0.600181 0.008148
v -0.163275 0.600181 0.012227
v -0.326550 0.600181 0.027927
v -0.323135 0.596038 0.036352
v -0.161568 0.596038 0.021090
v 0.000000 0.596038 0.017100
v 0.161568 0.596038 0.021090
v 0.323135 0.596038 0.036352
v -0.326550 0.100729 0.027930
v -0.163275 0.100729 0.012227
v 0.000000 0.100729 0.008148
v 0.163275 0.100729 0.012227
v 0.326550 0.100729 0.027930
v 0.323135 0.104873 0.036311
v 0.161568 0.104873 0.021090
v 0.000000 0.104873 0.017100
v -0.161568 0.104873 0.021090
v -0.323135 0.104873 0.036311
v 0.322144 0.103065 0.012398
v 0.161072 0.103065 -0.002701
v -0.000000 0.103065 -0.006665
v -0.161072 0.103065 -0.002701
v -0.322144 0.103065 0.012398
v -0.322144 0.598263 0.012395
v -0.161072 0.598263 -0.002701
v 0.000000 0.598263 -0.006665
v 0.161072 0.598263 -0.002701
v 0.322144 0.598263 0.012395
v -0.320437 0.122947 0.026513
v -0.160219 0.122947 0.011996
v 0.000000 0.122947 0.008148
v 0.160219 0.122947 0.011996
v 0.320437 0.122947 0.026513
v 0.320437 0.590697 0.026513
v 0.160219 0.590697 0.011996
v 0.000000 0.590697 0.008148
v -0.160219 0.590697 0.011996
v -0.320437 0.590697 0.026513
v -0.320437 0.590697 0.035478
v -0.160219 0.590697 0.020948
v 0.000000 0.590697 0.017100
v 0.160219 0.590697 0.020948
v 0.320437 0.590697 0.035478
v 0.320437 0.122947 0.035439
v 0.160219 0.122947 0.020948
v 0.000000 0.122947 0.017100
v -0.160219 0.122947 0.020948
v -0.320437 0.122947 0.035439
v 0.029900 0.011146 0.000846
v 0.029900 0.107974 0.012944
v 0.029900 0.011146 -0.012260
v 0.029900 0.107974 -0.000162
v -0.029901 0.011146 0.000846
v -0.029901 0.107974 0.012944
v -0.029901 0.011146 -0.012260
v -0.029901 0.107974 -0.000162
v 0.172675 0.000000 -0.066915
v -0.172676 0.000000 -0.066915
v 0.154012 0.000000 -0.041068
v -0.154012 0.000000 -0.041068
v 0.154012 0.022531 -0.041068
v -0.154012 0.022531 -0.041068
v 0.172675 0.022531 -0.066915
v -0.172676 0.022531 -0.066915
v 0.127789 0.015079 0.014734
v 0.172675 0.000000 0.045207
v 0.141897 0.000000 0.072337
v 0.163660 0.000000 0.064391
v -0.141897 0.000000 0.072337
v -0.172676 0.000000 0.045207
v -0.163661 0.000000 0.064391
v -0.154012 0.000000 0.032773
v -0.123233 0.000000 0.059902
v -0.144997 0.000000 0.051956
v 0.123233 0.000000 0.059902
v 0.154012 0.000000 0.032773
v 0.144997 0.000000 0.051956
v -0.123233 0.022531 0.059902
v -0.154012 0.022531 0.032773
v -0.144997 0.022531 0.051956
v 0.154012 0.022531 0.032773
v 0.123233 0.022531 0.059902
v 0.144997 0.022531 0.051956
v -0.172676 0.022531 0.045207
v -0.141897 0.022531 0.072337
v -0.163661 0.022531 0.064391
v 0.141897 0.022531 0.072337
v 0.172675 0.022531 0.045207
v 0.163660 0.022531 0.064391
v -0.154012 0.007453 0.014734
v -0.154012 0.007453 -0.023499
v -0.154012 0.015079 0.014734
v -0.154012 0.015079 -0.023499
v 0.154012 0.007453 -0.023499
v 0.154012 0.007453 0.014734
v 0.154012 0.015079 -0.023499
v 0.154012 0.015079 0.014734
vn 0.0186 0.9900 0.1397
vn 0.0285 0.9849 0.1708
vn 0.0674 0.9130 0.4023
vn 0.0519 0.9089 0.4137
vn -0.0166 -0.9919 0.1259
vn -0.0265 -0.9870 0.1585
vn -0.0675 -0.9127 0.4031
vn -0.0519 -0.9085 0.4146
vn -0.1313 -0.0000 -0.9913
vn -0.1692 -0.0000 -0.9856
vn -0.0159 0.9914 -0.1297
vn -0.0224 0.9908 -0.1334
vn -0.0193 -0.9874 -0.1573
vn 0.0166 -0.9919 0.1259
vn 0.0265 -0.9870 0.1585
vn -0.0272 -0.9865 -0.1617
vn -0.9132 -0.0000 -0.4074
vn 0.9132 -0.0000 -0.4074
vn -1.0000 -0.0000 -0.0000
vn -0.8680 -0.0000 0.4966
vn -0.1323 -0.0000 0.9912
vn -0.1742 -0.0000 0.9847
vn 0.1195 -0.0296 0.9924
vn 0.1436 -0.0030 0.9896
vn 0.1011 0.0161 0.9947
vn 0.0805 0.0128 0.9967
vn -0.1278 0.0060 0.9918
vn -0.1355 0.0035 0.9908
vn -0.1474 -0.0070 0.9891
vn -0.0652 -0.0031 0.9979
vn -0.1011 0.0161 0.9947
vn -0.0805 0.0128 0.9967
vn 0.1474 -0.0070 0.9891
vn 0.0652 -0.0031 0.9979
vn 0.8680 -0.0000 0.4966
vn 1.0000 -0.0000 -0.0000
vn -0.0000 1.0000 -0.0000
vn -0.0000 -1.0000 -0.0000
vn 0.1355 0.0035 0.9908
vn 0.1278 0.0060 0.9918
vn 0.0598 0.0107 0.9982
vn 0.0566 0.0100 0.9983
vn -0.0000 0.0030 1.0000
vn -0.0598 0.0107 0.9982
vn -0.0566 0.0100 0.9983
vn -0.1436 -0.0030 0.9896
vn -0.1195 -0.0296 0.9924
vn -0.0636 -0.0390 0.9972
vn -0.0529 -0.0311 0.9981
vn -0.0000 -0.0103 0.9999
vn 0.0636 -0.0390 0.9972
vn 0.0529 -0.0311 0.9981
vn 0.1742 -0.0000 0.9847
vn 0.1323 -0.0000 0.9912
vn 0.0572 -0.0000 0.9984
vn -0.0000 -0.0000 1.0000
vn -0.0572 -0.0000 0.9984
vn 0.0272 -0.9865 -0.1617
vn 0.0193 -0.9874 -0.1573
vn -0.0082 -0.9911 0.1332
vn 0.0086 -0.9879 -0.1551
vn -0.0000 -0.9910 0.1342
vn -0.0000 -0.9878 -0.1554
vn 0.0082 -0.9911 0.1332
vn -0.0086 -0.9879 -0.1551
vn 0.0224 0.9908 -0.1334
vn 0.0159 0.9914 -0.1297
vn -0.0186 0.9900 0.1397
vn -0.0285 0.9849 0.1708
vn 0.0070 0.9918 -0.1279
vn -0.0091 0.9891 0.1468
vn -0.0000 0.9918 -0.1281
vn -0.0000 0.9890 0.1481
vn -0.0071 0.9918 -0.1279
vn 0.0091 0.9891 0.1468
vn 0.1692 -0.0000 -0.9856
vn 0.1313 -0.0000 -0.9913
vn 0.0590 -0.0000 -0.9983
vn -0.0000 -0.0000 -1.0000
vn -0.0590 -0.0000 -0.9983
vn 0.0519 -0.9085 0.4146
vn 0.0675 -0.9127 0.4031
vn 0.0243 -0.9063 0.4220
vn -0.0000 -0.9071 0.4209
vn -0.0243 -0.9063 0.4220
vn -0.0519 0.9089 0.4137
vn -0.0674 0.9130 0.4023
vn -0.0242 0.9065 0.4215
vn -0.0000 0.9071 0.4209
vn 0.0242 0.9065 0.4215
vn -0.0000 0.1240 -0.9923
vn -0.0000 -0.1240 0.9923
vn 0.9760 -0.0000 0.2179
vn -0.9760 -0.0000 0.2179
vn -0.1741 -0.0000 -0.9847
vn 0.1741 -0.0000 -0.9847
vn -0.9760 -0.0000 -0.2179
vn 0.9760 -0.0000 -0.2179
vn -0.1741 -0.0000 0.9847
vn -0.6749 -0.0000 0.7379
vn 0.6749 -0.0000 -0.7379
vn 0.1741 -0.0000 0.9847
vn 0.6749 -0.0000 0.7379
vn -0.6749 -0.0000 -0.7379
vt 0.788394 0.960375
vt 0.788394 0.959925
vt 0.789335 0.963886
vt 0.791552 0.963886
vt 0.482894 0.831861
vt 0.482894 1.000000
vt 0.000000 1.000000
vt 0.000000 0.831861
vt 0.791552 0.959427
vt 0.789335 0.959427
vt 0.791552 0.960170
vt 0.789335 0.963143
vt 0.789335 0.960170
vt 0.789335 0.960913
vt 0.789335 0.961656
vt 0.789335 0.962399
vt 0.791552 0.963143
vt 0.791552 0.962399
vt 0.791552 0.961656
vt 0.791552 0.960913
vt 0.482894 0.000000
vt 0.482894 0.168139
vt 0.000000 0.168139
vt 0.000000 0.000000
vt 0.482894 0.334385
vt 0.000000 0.334385
vt 0.482894 0.500000
vt 0.000000 0.500000
vt 0.482894 0.665615
vt 0.000000 0.665615
vt 0.039649 0.964133
vt 0.039649 0.964181
vt 0.039617 0.964181
vt 0.039617 0.964133
vt 0.040505 0.963599
vt 0.040505 0.963649
vt 0.040496 0.963652
vt 0.040496 0.963602
vt 0.039763 0.964168
vt 0.039731 0.964168
vt 0.039731 0.964119
vt 0.039763 0.964119
vt 0.039740 0.964221
vt 0.039731 0.964218
vt 0.039740 0.964171
vt 0.786587 0.960743
vt 0.786587 0.963097
vt 0.786399 0.963488
vt 0.786399 0.960267
vt 0.790399 0.960267
vt 0.790399 0.963488
vt 0.790211 0.963097
vt 0.789902 0.959879
vt 0.786896 0.959879
vt 0.790211 0.960743
vt 0.786587 0.960743
vt 0.790211 0.960743
vt 0.790089 0.959488
vt 0.786708 0.959488
vt 0.790211 0.959879
vt 0.790349 0.959592
vt 0.786449 0.959592
vt 0.786587 0.959879
vt 0.036923 0.962724
vt 0.036923 0.957755
s 1
usemtl palette
f 25/1/1 7/1/2 19/1/3 26/1/4
f 35/1/5 9/1/6 18/1/7 36/1/8
f 46/2/9 45/2/9 12/2/10 8/2/10
f 46/2/11 8/2/12 7/1/2 25/1/1
f 45/2/13 31/1/14 11/1/15 12/2/16
f 8/2/17 12/2/17 11/1/17 7/1/17
f 5/1/18 9/1/18 10/2/18 6/2/18
f 1/3/19 3/4/19 17/4/19 16/3/19
f 7/1/20 11/1/20 13/1/20 19/1/20
f 61/1/23 26/1/24 19/1/25 15/1/26
f 66/1/27 36/1/28 18/1/29 17/1/30
f 17/1/30 18/1/29 20/1/31 16/1/32
f 15/1/26 19/1/25 13/1/33 14/1/34
f 9/1/35 5/1/35 20/1/35 18/1/35
f 4/9/36 2/10/36 15/10/36 14/9/36
f 51/11/37 4/9/37 14/9/37 70/11/37
f 56/12/38 1/3/38 16/3/38 65/12/38
f 2/10/38 60/13/38 61/13/38 15/10/38
f 60/13/38 59/14/38 62/14/38 61/13/38
f 59/14/38 58/15/38 63/15/38 62/14/38
f 58/15/38 57/16/38 64/16/38 63/15/38
f 57/16/38 56/12/38 65/12/38 64/16/38
f 3/4/37 55/17/37 66/17/37 17/4/37
f 55/17/37 54/18/37 67/18/37 66/17/37
f 54/18/37 53/19/37 68/19/37 67/18/37
f 53/19/37 52/20/37 69/20/37 68/19/37
f 52/20/37 51/11/37 70/11/37 69/20/37
f 14/1/34 13/1/33 40/1/39 70/1/40
f 70/1/40 40/1/39 39/1/41 69/1/42
f 69/1/42 39/1/41 38/1/43 68/1/43
f 68/1/43 38/1/43 37/1/44 67/1/45
f 67/1/45 37/1/44 36/1/28 66/1/27
f 16/1/32 20/1/31 30/1/46 65/1/47
f 65/1/47 30/1/46 29/1/48 64/1/49
f 64/1/49 29/1/48 28/1/50 63/1/50
f 63/1/50 28/1/50 27/1/51 62/1/52
f 62/1/52 27/1/51 26/1/24 61/1/23
f 10/2/58 9/1/6 35/1/5 41/2/59
f 41/2/59 35/1/5 34/1/60 42/2/61
f 42/2/61 34/1/60 33/1/62 43/2/63
f 43/2/63 33/1/62 32/1/64 44/2/65
f 44/2/65 32/1/64 31/1/14 45/2/13
f 6/2/66 50/2/67 21/1/68 5/1/69
f 50/2/67 49/2/70 22/1/71 21/1/68
f 49/2/70 48/2/72 23/1/73 22/1/71
f 48/2/72 47/2/74 24/1/75 23/1/73
f 47/2/74 46/2/11 25/1/1 24/1/75
f 6/2/76 10/2/76 41/2/77 50/2/77
f 50/2/77 41/2/77 42/2/78 49/2/78
f 49/2/78 42/2/78 43/2/79 48/2/79
f 48/2/79 43/2/79 44/2/80 47/2/80
f 47/2/80 44/2/80 45/2/9 46/2/9
f 11/1/15 31/1/14 40/1/81 13/1/82
f 31/1/14 32/1/64 39/1/83 40/1/81
f 32/1/64 33/1/62 38/1/84 39/1/83
f 33/1/62 34/1/60 37/1/85 38/1/84
f 34/1/60 35/1/5 36/1/8 37/1/85
f 5/1/69 21/1/68 30/1/86 20/1/87
f 21/1/68 22/1/71 29/1/88 30/1/86
f 22/1/71 23/1/73 28/1/89 29/1/88
f 23/1/73 24/1/75 27/1/90 28/1/89
f 24/1/75 25/1/1 26/1/4 27/1/90
f 77/31/91 78/32/91 74/33/91 73/34/91
f 73/35/36 74/36/36 72/37/36 71/38/36
f 72/39/92 76/40/92 75/41/92 71/42/92
f 77/43/19 75/44/19 76/40/19 78/45/19
f 101/46/37 84/47/37 86/48/37 106/49/37
f 88/50/93 79/51/36 85/51/36 110/50/93
f 82/47/38 80/48/38 79/51/38 81/52/38
f 80/48/19 92/49/94 106/49/94 86/48/19
f 97/53/95 95/54/96 100/54/96 104/53/95
f 84/47/37 83/52/37 85/51/37 86/48/37
f 83/52/37 103/55/37 110/50/37 85/51/37
f 94/56/38 92/49/38 80/48/38 82/47/38
f 79/51/79 80/48/79 86/48/79 85/51/79
f 81/52/19 98/55/97 103/57/97 83/52/19
f 82/47/56 81/52/56 83/52/56 84/47/56
f 81/52/38 79/51/38 88/50/38 98/57/38
f 97/53/38 89/58/38 91/59/38 95/54/38
f 104/53/37 100/54/37 107/59/37 109/58/37
f 94/46/98 82/47/36 84/47/36 101/56/98
f 89/58/38 97/53/38 99/60/38 90/61/38
f 90/61/38 99/60/38 98/57/38 88/50/38
f 95/54/38 91/59/38 93/62/38 96/63/38
f 96/63/38 93/62/38 92/49/38 94/56/38
f 110/50/37 103/55/37 105/60/37 111/61/37
f 111/61/37 105/60/37 104/53/37 109/58/37
f 101/46/37 106/49/37 108/62/37 102/63/37
f 102/63/37 108/62/37 107/59/37 100/54/37
f 91/59/99 107/59/99 108/62/100 93/62/100
f 93/62/100 108/62/100 106/49/94 92/49/94
f 100/54/96 95/54/96 96/63/101 102/63/101
f 102/63/101 96/63/101 94/46/98 101/56/98
f 109/58/102 89/58/102 90/61/103 111/61/103
f 111/61/103 90/61/103 88/50/93 110/50/93
f 97/53/95 104/53/95 105/60/104 99/60/104
f 99/60/104 105/60/104 103/57/97 98/55/97
f 91/59/99 89/58/102 109/58/102 107/59/99
f 113/64/79 115/64/79 118/64/79 116/64/79
f 112/65/38 113/64/38 116/64/38 117/65/38
f 114/65/56 112/65/56 117/65/56 119/65/56
f 115/64/37 114/65/37 119/65/37 118/64/37
usemtl PC_wide
f 55/5/21 3/6/22 1/7/22 56/8/21
f 4/21/53 51/22/54 60/23/54 2/24/53
f 51/22/54 52/25/55 59/26/55 60/23/54
f 52/25/55 53/27/56 58/28/56 59/26/55
f 53/27/56 54/29/57 57/30/57 58/28/56
f 54/29/57 55/5/21 56/8/21 57/30/57
