# Blender 3.6.2
# www.blender.org
mtllib PC_Case_3.mtl
o PC_Case_3
v -0.019854 0.213503 -0.236124
v -0.019842 0.060077 -0.236299
v 0.093066 0.213472 -0.237001
v 0.093027 0.060136 -0.237164
v 0.109353 0.471590 -0.240413
v 0.109392 0.025797 -0.240249
v 0.087648 0.207911 -0.227557
v -0.014272 0.207911 -0.227557
v -0.014272 0.065648 -0.227557
v 0.087648 0.065648 -0.227557
v 0.099629 0.020284 0.253100
v 0.031227 0.477151 0.205846
v 0.029641 0.477151 0.208593
v 0.030192 0.477151 0.211717
v 0.032621 0.477151 0.213756
v 0.035793 0.477151 0.213756
v 0.038223 0.477151 0.211717
v 0.038774 0.477151 0.208593
v 0.037188 0.477151 0.205846
v 0.034207 0.477151 0.204761
v 0.099629 0.462008 0.253100
v -0.008747 0.479166 0.216507
v -0.024760 0.479166 0.216507
v -0.091706 0.000000 0.184946
v 0.094285 0.000000 0.184946
v -0.091706 -0.000000 0.209323
v 0.094285 -0.000000 0.209323
v 0.094285 0.020284 0.173499
v -0.091706 0.020284 0.173499
v -0.091706 0.020284 0.217046
v 0.094285 0.020284 0.217046
v 0.094285 0.000000 -0.186009
v -0.091706 0.000000 -0.186009
v 0.094285 -0.000000 -0.210387
v -0.091706 -0.000000 -0.210387
v -0.091705 0.020284 -0.174562
v 0.094285 0.020284 -0.174562
v 0.094285 0.020284 -0.218110
v -0.091706 0.020284 -0.218110
v -0.106622 0.025855 -0.241114
v -0.106610 0.471558 -0.241289
v -0.097049 0.020284 0.253100
v -0.024760 0.479166 0.203544
v -0.008747 0.479166 0.203544
v -0.097049 0.462008 0.253100
v 0.034207 0.479166 0.204761
v 0.037188 0.479166 0.205846
v 0.038774 0.479166 0.208593
v 0.038223 0.479166 0.211717
v 0.035793 0.479166 0.213756
v 0.032621 0.479166 0.213756
v 0.030192 0.479166 0.211717
v 0.029641 0.479166 0.208593
v 0.031227 0.479166 0.205846
v 0.013218 0.477151 0.205846
v 0.011632 0.477151 0.208593
v 0.012183 0.477151 0.211717
v 0.014612 0.477151 0.213756
v 0.017784 0.477151 0.213756
v 0.020214 0.477151 0.211717
v 0.020765 0.477151 0.208593
v 0.019179 0.477151 0.205846
v 0.016198 0.477151 0.204761
v 0.016198 0.479166 0.204761
v 0.019179 0.479166 0.205846
v 0.020765 0.479166 0.208593
v 0.020214 0.479166 0.211717
v 0.017784 0.479166 0.213756
v 0.014612 0.479166 0.213756
v 0.012183 0.479166 0.211717
v 0.011632 0.479166 0.208593
v 0.013218 0.479166 0.205846
v 0.069056 0.479166 0.206622
v 0.069056 0.479166 0.213429
v 0.049058 0.479166 0.206622
v 0.049058 0.479166 0.213429
v 0.069056 0.477150 0.206622
v 0.049058 0.477150 0.206622
v 0.069056 0.477150 0.213429
v 0.049058 0.477150 0.213429
v 0.097383 0.479166 0.206622
v 0.097383 0.479166 0.213429
v 0.077385 0.479166 0.206622
v 0.077385 0.479166 0.213429
v 0.097383 0.477150 0.206622
v 0.077385 0.477150 0.206622
v 0.097383 0.477150 0.213429
v 0.077385 0.477150 0.213429
v -0.008747 0.477150 0.203544
v -0.024760 0.477150 0.203544
v -0.008747 0.477150 0.216507
v -0.024760 0.477150 0.216507
v -0.112192 0.020284 0.235309
v 0.114772 0.020284 0.235309
v -0.112192 0.477150 0.235309
v 0.114772 0.477150 0.235309
v 0.114772 0.477151 -0.241879
v -0.112192 0.477151 -0.241879
v -0.112192 0.020284 -0.241879
v 0.114772 0.020284 -0.241879
v 0.087648 0.207911 -0.235535
v -0.014272 0.207911 -0.235535
v -0.014272 0.065648 -0.235535
v 0.087648 0.065648 -0.235535
v 0.109450 0.471570 -0.237476
v 0.093162 0.213452 -0.234064
v -0.019757 0.213483 -0.233187
v -0.106514 0.471538 -0.238352
v -0.019745 0.060058 -0.233362
v -0.106526 0.025835 -0.238177
v 0.109488 0.025777 -0.237312
v 0.093124 0.060116 -0.234227
v 0.006325 0.409448 0.257585
v -0.006325 0.409448 0.257585
v 0.018135 0.398900 0.257585
v -0.018136 0.398900 0.257585
v 0.022807 0.415954 0.253100
v -0.022807 0.415954 0.253100
v 0.030936 0.394870 0.253100
v -0.030936 0.394870 0.253100
vn -0.0000 1.0000 -0.0000
vn -0.0000 -1.0000 -0.0000
vn 1.0000 -0.0000 -0.0000
vn 0.9995 -0.0002 -0.0329
vn 0.9995 -0.0000 -0.0329
vn 0.0002 1.0000 0.0067
vn -0.9995 -0.0001 0.0329
vn -0.0000 -0.0000 -1.0000
vn -1.0000 -0.0000 -0.0000
vn -0.6428 -0.0000 0.7660
vn -0.3420 -0.0000 -0.9397
vn 0.8660 -0.0000 -0.5000
vn -0.0000 -0.0000 1.0000
vn -0.8660 -0.0000 -0.5000
vn 0.3420 -0.0000 -0.9397
vn 0.6428 -0.0000 0.7660
vn -0.9848 -0.0000 0.1736
vn 0.9848 -0.0000 0.1736
vn -0.0000 -0.4915 -0.8709
vn -0.0000 -0.3558 0.9346
vn -0.0000 -0.4915 0.8709
vn -0.0000 -0.3558 -0.9346
vn -0.7615 -0.0000 0.6482
vn 0.7615 -0.0000 0.6482
vn -0.0000 0.7615 0.6482
vn -0.1395 -0.0915 -0.9860
vn 0.0616 -0.0912 -0.9939
vn 0.0615 -0.0914 -0.9939
vn -0.1365 -0.0934 -0.9862
vn 0.0617 0.1063 -0.9924
vn -0.1397 0.1066 -0.9844
vn -0.1369 0.1087 -0.9846
vn 0.0585 -0.0911 -0.9941
vn -0.1397 -0.0930 -0.9858
vn -0.1425 -0.0911 -0.9856
vn 0.0586 -0.0909 -0.9941
vn 0.0587 0.1068 -0.9926
vn 0.0587 0.1067 -0.9926
vn -0.1401 0.1089 -0.9841
vn -0.1426 0.1070 -0.9840
vn -0.1280 -0.0058 -0.9918
vn 0.0343 -0.0067 -0.9994
vn 0.0119 -0.0132 -0.9998
vn -0.0080 -0.0159 -0.9998
vn 0.0238 0.0673 -0.9975
vn 0.0437 0.0276 -0.9987
vn -0.1123 0.0493 -0.9924
vn -0.0561 0.0822 -0.9950
vn 0.0003 1.0000 0.0067
vn 0.0002 -1.0000 -0.0068
vn 0.0005 -1.0000 -0.0068
vn -0.0000 -0.7438 0.6684
vn -0.1816 0.2033 0.9621
vn -0.0000 0.5676 0.8233
vn 0.3667 0.1414 0.9195
vn 0.1816 0.2033 0.9621
vn -0.3667 0.1414 0.9195
vt 0.127886 0.958996
vt 0.127886 0.959868
vt 0.127841 0.959868
vt 0.127841 0.958996
vt 0.798027 0.625893
vt 0.798027 0.623356
vt 0.799240 0.623356
vt 0.799240 0.625893
vt 0.292509 0.580050
vt 0.002196 0.580050
vt 0.002196 0.302101
vt 0.292509 0.302101
vt 0.125080 0.962546
vt 0.125080 0.963893
vt 0.126146 0.962143
vt 0.126146 0.965183
vt 0.124975 0.962143
vt 0.125996 0.963863
vt 0.125997 0.962546
vt 0.210650 0.877690
vt 0.210650 0.878929
vt 0.209778 0.878929
vt 0.209778 0.877690
vt 0.127841 0.960235
vt 0.127795 0.960235
vt 0.127795 0.958996
vt 0.127795 0.961473
vt 0.127841 0.961473
vt 0.127886 0.960739
vt 0.127841 0.960739
vt 0.126361 0.460009
vt 0.126361 0.462501
vt 0.125148 0.462501
vt 0.125148 0.460009
vt 0.123777 0.959892
vt 0.124632 0.959892
vt 0.121212 0.959892
vt 0.122067 0.959892
vt 0.127197 0.959892
vt 0.128052 0.959892
vt 0.125487 0.959892
vt 0.122922 0.959892
vt 0.126342 0.959892
vt 0.121852 0.027114
vt 0.121852 0.295851
vt 0.002196 0.295851
vt 0.002196 0.027114
vt 0.292509 0.718131
vt 0.002196 0.718131
vt 0.126361 0.962430
vt 0.126361 0.959894
vt 0.127575 0.959894
vt 0.127575 0.962430
vt 0.124140 0.959894
vt 0.124140 0.962385
vt 0.122926 0.962385
vt 0.122926 0.959894
vt 0.292509 0.996081
vt 0.002196 0.996081
vt 0.716142 0.792927
vt 0.715131 0.792927
vt 0.714990 0.792845
vt 0.716203 0.792845
vt 0.717275 0.795253
vt 0.717416 0.795336
vt 0.716264 0.795253
vt 0.716203 0.795336
vt 0.124978 0.965154
vt 0.126157 0.965234
vt 0.124943 0.965234
vt 0.126157 0.962115
vt 0.124943 0.962115
vt 0.125114 0.963812
vt 0.125986 0.963812
vt 0.125986 0.962574
vt 0.125114 0.962574
vt 0.210234 0.960285
vt 0.209021 0.960285
vt 0.208135 0.962385
vt 0.206921 0.962385
s 1
usemtl palette
f 104/1/1 103/2/1 9/3/1 10/4/1
f 93/5/2 99/6/2 100/7/2 94/8/2
f 4/13/4 3/14/4 106/14/4 112/13/4
f 40/15/5 41/16/5 108/16/5 110/15/5
f 6/17/6 40/15/6 110/15/6 111/17/6
f 1/18/7 2/19/7 109/19/7 107/18/7
f 9/20/8 8/21/8 7/22/8 10/23/8
f 103/4/3 102/24/3 8/25/3 9/26/3
f 101/27/9 104/25/9 10/24/9 7/28/9
f 102/2/2 101/29/2 7/30/2 8/3/2
f 43/31/1 23/32/1 22/33/1 44/34/1
f 52/35/10 14/35/10 15/36/10 51/36/10
f 46/37/11 20/37/11 12/38/11 54/38/11
f 48/39/12 18/39/12 19/40/12 47/40/12
f 51/36/13 15/36/13 16/41/13 50/41/13
f 54/38/14 12/38/14 13/42/14 53/42/14
f 47/40/15 19/40/15 20/37/15 46/37/15
f 50/41/16 16/41/16 17/43/16 49/43/16
f 53/42/17 13/42/17 14/35/17 52/35/17
f 49/43/18 17/43/18 18/39/18 48/39/18
f 20/37/2 19/40/2 18/39/2 17/43/2 16/41/2 15/36/2 14/35/2 13/42/2 12/38/2
f 44/34/8 89/34/8 90/31/8 43/31/8
f 26/50/2 24/51/2 25/52/2 27/53/2
f 25/52/3 28/52/3 31/53/3 27/53/3
f 24/51/19 29/51/19 28/52/19 25/52/19
f 27/53/20 31/53/20 30/50/20 26/50/20
f 26/50/9 30/50/9 29/51/9 24/51/9
f 34/50/2 32/51/2 33/52/2 35/53/2
f 33/52/9 36/52/9 39/53/9 35/53/9
f 32/51/21 37/51/21 36/52/21 33/52/21
f 35/53/22 39/53/22 38/50/22 34/50/22
f 34/50/3 38/50/3 37/51/3 32/51/3
f 46/37/1 54/38/1 53/42/1 52/35/1 51/36/1 50/41/1 49/43/1 48/39/1 47/40/1
f 70/35/10 57/35/10 58/36/10 69/36/10
f 64/37/11 63/37/11 55/38/11 72/38/11
f 66/39/12 61/39/12 62/40/12 65/40/12
f 69/36/13 58/36/13 59/41/13 68/41/13
f 72/38/14 55/38/14 56/42/14 71/42/14
f 65/40/15 62/40/15 63/37/15 64/37/15
f 68/41/16 59/41/16 60/43/16 67/43/16
f 71/42/17 56/42/17 57/35/17 70/35/17
f 67/43/18 60/43/18 61/39/18 66/39/18
f 63/37/2 62/40/2 61/39/2 60/43/2 59/41/2 58/36/2 57/35/2 56/42/2 55/38/2
f 64/37/1 72/38/1 71/42/1 70/35/1 69/36/1 68/41/1 67/43/1 66/39/1 65/40/1
f 75/54/1 76/55/1 74/56/1 73/57/1
f 75/54/9 78/54/9 80/55/9 76/55/9
f 73/57/8 77/57/8 78/54/8 75/54/8
f 74/56/3 79/56/3 77/57/3 73/57/3
f 76/55/13 80/55/13 79/56/13 74/56/13
f 83/54/1 84/55/1 82/56/1 81/57/1
f 83/54/9 86/54/9 88/55/9 84/55/9
f 81/57/8 85/57/8 86/54/8 83/54/8
f 82/56/3 87/56/3 85/57/3 81/57/3
f 84/55/13 88/55/13 87/56/13 82/56/13
f 43/31/9 90/31/9 92/32/9 23/32/9
f 22/33/3 91/33/3 89/34/3 44/34/3
f 23/32/13 92/32/13 91/33/13 22/33/13
f 11/60/2 42/61/2 93/62/2 94/63/2
f 42/61/23 45/64/23 95/65/23 93/62/23
f 21/66/24 11/60/24 94/63/24 96/67/24
f 45/64/25 21/66/25 96/67/25 95/65/25
f 5/68/26 41/16/27 98/69/28 97/70/29
f 41/16/27 40/15/30 99/71/30 98/69/28
f 6/17/31 5/68/26 97/70/29 100/72/32
f 40/15/30 6/17/31 100/72/32 99/71/30
f 1/18/33 3/14/34 101/73/35 102/74/36
f 2/19/37 1/18/33 102/74/36 103/75/38
f 3/14/34 4/13/39 104/76/40 101/73/35
f 4/13/39 2/19/37 103/75/38 104/76/40
f 106/14/41 107/18/42 108/16/43 105/68/44
f 107/18/42 109/19/45 110/15/46 108/16/43
f 112/13/47 106/14/41 105/68/44 111/17/48
f 109/19/45 112/13/47 111/17/48 110/15/46
f 3/14/49 1/18/49 107/18/49 106/14/49
f 5/68/7 6/17/7 111/17/7 105/68/7
f 41/16/50 5/68/50 105/68/50 108/16/50
f 2/19/51 4/13/51 112/13/51 109/19/51
f 114/55/13 116/55/13 115/56/13 113/56/13
f 116/77/52 120/77/52 119/78/52 115/78/52
f 114/79/53 118/79/53 116/79/53
f 113/56/54 117/56/54 118/55/54 114/55/54
f 115/56/55 119/56/55 117/56/55
f 117/80/56 113/80/56 115/80/56
f 116/55/57 118/55/57 120/55/57
usemtl base_textures
f 97/9/3 96/10/3 94/11/3 100/12/3
f 11/44/13 21/45/13 45/46/13 42/47/13
f 98/48/1 95/49/1 96/10/1 97/9/1
f 99/58/9 93/59/9 95/49/9 98/48/9
