# Blender 3.6.2
# www.blender.org
mtllib PC_Case_1.mtl
o PC_Case_1
v -0.019854 0.213503 -0.236124
v -0.019839 0.060083 -0.236342
v 0.093066 0.213472 -0.237001
v 0.093018 0.060148 -0.237204
v -0.043544 0.499388 0.202267
v -0.036404 0.505473 0.203390
v -0.047343 0.499388 0.208847
v -0.031657 0.505473 0.205118
v -0.046024 0.499388 0.216330
v -0.029131 0.505473 0.209493
v -0.040203 0.499388 0.221214
v -0.030008 0.505473 0.214468
v -0.032605 0.499388 0.221214
v -0.033878 0.505473 0.217716
v -0.026785 0.499388 0.216330
v -0.038930 0.505473 0.217716
v -0.025465 0.499388 0.208847
v -0.042800 0.505473 0.214468
v -0.029264 0.499388 0.202267
v -0.043678 0.505473 0.209493
v -0.036404 0.499388 0.199668
v -0.041152 0.505473 0.205118
v -0.036404 0.505472 0.199668
v -0.029264 0.505472 0.202267
v -0.025465 0.505472 0.208847
v -0.026785 0.505473 0.216330
v -0.032605 0.505473 0.221214
v -0.040203 0.505473 0.221214
v -0.046024 0.505473 0.216330
v -0.047343 0.505472 0.208847
v -0.043544 0.505472 0.202267
v 0.109353 0.497896 -0.240413
v 0.109401 0.035473 -0.240210
v 0.087648 0.207911 -0.227557
v -0.014272 0.207911 -0.227557
v -0.014272 0.065648 -0.227557
v 0.087648 0.065648 -0.227557
v 0.114772 0.029973 0.235309
v 0.039156 0.503457 0.205846
v 0.037570 0.503457 0.208593
v 0.038120 0.503457 0.211717
v 0.040550 0.503457 0.213756
v 0.043722 0.503457 0.213756
v 0.046152 0.503457 0.211717
v 0.046702 0.503457 0.208593
v 0.045117 0.503457 0.205846
v 0.042136 0.503457 0.204761
v 0.114772 0.503457 0.226781
v 0.114772 0.494929 0.235309
v 0.114772 0.500959 0.232811
v -0.091706 0.000000 0.149220
v 0.094285 0.000000 0.149220
v -0.091706 -0.000000 0.217046
v 0.094285 -0.000000 0.217046
v 0.094285 0.029973 0.113512
v -0.091706 0.029973 0.113512
v -0.091706 0.029973 0.217046
v 0.094285 0.029973 0.217046
v 0.094285 0.000000 -0.150283
v -0.091706 0.000000 -0.150283
v 0.094285 -0.000000 -0.218110
v -0.091706 -0.000000 -0.218110
v -0.091705 0.029973 -0.114576
v 0.094285 0.029973 -0.114576
v 0.094285 0.029973 -0.218110
v -0.091706 0.029973 -0.218110
v -0.106625 0.035538 -0.241072
v -0.106610 0.497865 -0.241289
v -0.112192 0.029973 0.235309
v -0.112192 0.500959 0.232811
v -0.112192 0.494929 0.235309
v -0.112192 0.503457 0.226781
v -0.112192 0.191208 0.052750
v -0.112192 0.482830 -0.224559
v -0.112192 0.191208 0.217989
v -0.112192 0.482830 0.217989
v 0.042136 0.505472 0.204761
v 0.045117 0.505472 0.205846
v 0.046703 0.505472 0.208593
v 0.046152 0.505472 0.211717
v 0.043722 0.505472 0.213756
v 0.040550 0.505472 0.213756
v 0.038120 0.505472 0.211717
v 0.037570 0.505472 0.208593
v 0.039156 0.505472 0.205846
v 0.021147 0.503457 0.205846
v 0.019561 0.503457 0.208593
v 0.020112 0.503457 0.211717
v 0.022541 0.503457 0.213756
v 0.025713 0.503457 0.213756
v 0.028143 0.503457 0.211717
v 0.028694 0.503457 0.208593
v 0.027108 0.503457 0.205846
v 0.024127 0.503457 0.204761
v 0.024127 0.505472 0.204761
v 0.027108 0.505472 0.205846
v 0.028694 0.505472 0.208593
v 0.028143 0.505472 0.211717
v 0.025713 0.505472 0.213756
v 0.022541 0.505472 0.213756
v 0.020112 0.505472 0.211717
v 0.019561 0.505472 0.208593
v 0.021147 0.505472 0.205846
v 0.011800 0.505472 0.206622
v 0.011800 0.505472 0.213429
v -0.008199 0.505472 0.206622
v -0.008199 0.505472 0.213429
v 0.011800 0.503457 0.206622
v -0.008199 0.503457 0.206622
v 0.011800 0.503457 0.213429
v -0.008199 0.503457 0.213429
v 0.076426 0.505472 0.206622
v 0.076426 0.505472 0.213429
v 0.056428 0.505472 0.206622
v 0.056428 0.505472 0.213429
v 0.076426 0.503457 0.206622
v 0.056428 0.503457 0.206622
v 0.076426 0.503457 0.213429
v 0.056428 0.503457 0.213429
v -0.107323 0.191208 0.052750
v -0.107323 0.482830 -0.224559
v -0.107323 0.191208 0.217989
v -0.107323 0.482830 0.217989
v 0.114772 0.503457 -0.241879
v -0.112192 0.503457 -0.241879
v -0.112192 0.029973 -0.241879
v 0.114772 0.029973 -0.241879
v 0.087648 0.207911 -0.235535
v -0.014272 0.207911 -0.235535
v -0.014272 0.065648 -0.235535
v 0.087648 0.065648 -0.235535
v 0.109450 0.497877 -0.237476
v 0.093162 0.213452 -0.234064
v -0.019757 0.213483 -0.233187
v -0.106514 0.497845 -0.238352
v -0.019742 0.060064 -0.233404
v -0.106529 0.035518 -0.238135
v 0.109498 0.035453 -0.237273
v 0.093115 0.060128 -0.234267
v 0.087542 0.503816 0.165570
v -0.087542 0.503816 0.165570
v 0.087542 0.503816 0.136288
v -0.087542 0.503816 0.136288
v -0.082972 0.496171 0.130603
v -0.082972 0.496171 0.171255
v 0.082972 0.496171 0.171255
v 0.082972 0.496171 0.130603
v 0.087542 0.503816 -0.183088
v -0.087542 0.503816 -0.183088
v 0.087542 0.503816 -0.215796
v -0.087542 0.503816 -0.215796
v -0.082972 0.496171 -0.221282
v -0.082972 0.496171 -0.177602
v 0.082972 0.496171 -0.177602
v 0.082972 0.496171 -0.221282
v 0.066786 0.526588 0.136288
v 0.077749 0.520271 0.136288
v -0.077749 0.520271 0.136288
v -0.066786 0.526588 0.136288
v 0.077749 0.520271 0.165570
v 0.066786 0.526588 0.165570
v -0.066786 0.526588 0.165570
v -0.077749 0.520271 0.165570
v -0.062992 0.518943 0.130603
v -0.073852 0.512426 0.130603
v -0.073852 0.512426 0.171255
v -0.062992 0.518943 0.171255
v 0.073852 0.512426 0.130603
v 0.062992 0.518943 0.130603
v 0.062992 0.518943 0.171255
v 0.073852 0.512426 0.171255
v 0.066786 0.526588 -0.215796
v 0.077749 0.520271 -0.215796
v -0.077749 0.520271 -0.215796
v -0.066786 0.526588 -0.215796
v 0.077749 0.520271 -0.183088
v 0.066786 0.526588 -0.183088
v -0.066786 0.526588 -0.183088
v -0.077749 0.520271 -0.183088
v -0.062992 0.518943 -0.221282
v -0.073852 0.512426 -0.221282
v -0.073852 0.512426 -0.177602
v -0.062992 0.518943 -0.177602
v 0.073852 0.512426 -0.221282
v 0.062992 0.518943 -0.221282
v 0.062992 0.518943 -0.177602
v 0.073852 0.512426 -0.177602
vn -0.0000 1.0000 -0.0000
vn -0.0000 -1.0000 -0.0000
vn 1.0000 -0.0000 -0.0000
vn -0.9848 -0.0000 0.1736
vn -0.9848 -0.0000 -0.1736
vn -0.8660 -0.0000 -0.5000
vn -0.3420 -0.0000 -0.9397
vn 0.3420 -0.0000 -0.9397
vn 0.8660 -0.0000 -0.5000
vn 0.9848 -0.0000 -0.1736
vn 0.9848 -0.0000 0.1736
vn 0.6428 -0.0000 0.7660
vn -0.0000 -0.0000 1.0000
vn -0.6428 -0.0000 0.7660
vn 0.0005 -1.0000 -0.0068
vn 0.0002 -1.0000 -0.0068
vn -0.9995 -0.0001 0.0329
vn 0.0003 1.0000 0.0067
vn -0.0000 -0.0000 -1.0000
vn -1.0000 -0.0000 -0.0000
vn -0.0000 0.1951 0.9808
vn -0.6428 -0.0000 -0.7660
vn 0.6428 -0.0000 -0.7660
vn -0.0000 0.3827 0.9239
vn -0.0000 0.9239 0.3827
vn -0.0000 0.9808 0.1951
vn -0.0000 -0.7659 -0.6429
vn -0.0000 -0.7659 0.6429
vn -0.0000 0.6891 0.7247
vn -0.1413 -0.0915 -0.9857
vn 0.0635 -0.0913 -0.9938
vn 0.0634 -0.0914 -0.9938
vn -0.1383 -0.0935 -0.9860
vn 0.0636 0.1099 -0.9919
vn -0.1415 0.1103 -0.9838
vn -0.1388 0.1124 -0.9839
vn 0.0604 -0.0910 -0.9940
vn -0.1415 -0.0929 -0.9856
vn -0.1443 -0.0911 -0.9853
vn 0.0605 -0.0908 -0.9940
vn 0.0606 0.1105 -0.9920
vn -0.1419 0.1128 -0.9834
vn -0.1444 0.1108 -0.9833
vn -0.1267 -0.0052 -0.9919
vn 0.0344 -0.0060 -0.9994
vn 0.0107 -0.0122 -0.9999
vn -0.0072 -0.0145 -0.9999
vn 0.0224 0.0947 -0.9953
vn 0.0469 0.0276 -0.9985
vn -0.1053 0.0717 -0.9919
vn -0.0729 0.0977 -0.9925
vn 0.9995 -0.0000 -0.0329
vn 0.9995 -0.0003 -0.0329
vn 0.1582 0.5344 -0.8303
vn 0.1288 0.5473 -0.8270
vn -0.1288 0.5473 -0.8270
vn -0.1582 0.5344 -0.8303
vn 0.3809 0.4090 0.8293
vn 0.4237 0.3785 0.8230
vn 0.5211 0.3013 0.7985
vn -0.3809 0.4090 -0.8293
vn -0.4237 0.3785 -0.8230
vn -0.5211 0.3013 -0.7985
vn 0.5093 0.2945 -0.8087
vn 0.4138 0.3691 -0.8322
vn 0.3714 0.3991 -0.8383
vn 0.2670 -0.9637 -0.0000
vn -0.2670 -0.9637 -0.0000
vn -0.7173 -0.6967 -0.0000
vn -0.8721 -0.4893 -0.0000
vn -0.5211 0.3013 0.7985
vn -0.4237 0.3785 0.8230
vn -0.3809 0.4090 0.8293
vn -0.2584 0.9660 -0.0000
vn 0.2584 0.9660 -0.0000
vn 0.8721 -0.4893 -0.0000
vn 0.7173 -0.6967 -0.0000
vn -0.1582 0.5344 0.8303
vn -0.1288 0.5473 0.8270
vn 0.1288 0.5473 0.8270
vn 0.1582 0.5344 0.8303
vn 0.7021 0.7121 -0.0000
vn 0.8593 0.5114 -0.0000
vn -0.8593 0.5114 -0.0000
vn -0.7021 0.7121 -0.0000
vn 0.1544 0.5212 -0.8393
vn 0.1255 0.5341 -0.8361
vn -0.1255 0.5341 -0.8361
vn -0.1544 0.5212 -0.8393
vn 0.3714 0.3991 0.8383
vn 0.4138 0.3691 0.8322
vn 0.5093 0.2945 0.8087
vn -0.3714 0.3991 -0.8383
vn -0.4138 0.3691 -0.8322
vn -0.5093 0.2945 -0.8087
vn -0.5093 0.2945 0.8087
vn -0.4138 0.3691 0.8322
vn -0.3714 0.3991 0.8383
vn -0.1544 0.5212 0.8393
vn -0.1254 0.5341 0.8361
vn 0.1254 0.5341 0.8361
vn 0.1544 0.5212 0.8393
vn 0.4237 0.3785 -0.8230
vn 0.3809 0.4090 -0.8293
vn 0.5211 0.3013 -0.7985
vt 0.127886 0.958996
vt 0.127886 0.959868
vt 0.127841 0.959868
vt 0.127841 0.958996
vt 0.717416 0.795381
vt 0.717416 0.792845
vt 0.718630 0.792845
vt 0.718630 0.795381
vt 0.718850 0.792845
vt 0.716359 0.792845
vt 0.716244 0.794725
vt 0.716313 0.792796
vt 0.716313 0.789725
vt 0.718850 0.789725
vt 0.206011 0.875541
vt 0.204964 0.875541
vt 0.203916 0.875541
vt 0.202868 0.875541
vt 0.211250 0.875541
vt 0.210202 0.875541
vt 0.209154 0.875541
vt 0.208107 0.875541
vt 0.207059 0.875541
vt 0.112172 0.877035
vt 0.111347 0.877035
vt 0.114370 0.877035
vt 0.117762 0.877035
vt 0.121256 0.877035
vt 0.124749 0.877035
vt 0.128141 0.877035
vt 0.131164 0.877035
vt 0.130339 0.877035
vt 0.030592 0.879984
vt 0.036940 0.879984
vt 0.039426 0.879984
vt 0.028105 0.879984
vt 0.037228 0.879984
vt 0.038011 0.879984
vt 0.036172 0.879984
vt 0.036596 0.879984
vt 0.034986 0.879984
vt 0.035181 0.879984
vt 0.033766 0.879984
vt 0.033766 0.879984
vt 0.032545 0.879984
vt 0.032351 0.879984
vt 0.031360 0.879984
vt 0.030935 0.879984
vt 0.030303 0.879984
vt 0.029520 0.879984
vt 0.125994 0.962543
vt 0.125081 0.962543
vt 0.126146 0.965184
vt 0.124978 0.965158
vt 0.124975 0.962146
vt 0.125080 0.963888
vt 0.125996 0.963862
vt 0.210650 0.877690
vt 0.210650 0.878929
vt 0.209778 0.878929
vt 0.209778 0.877690
vt 0.127841 0.960235
vt 0.127795 0.960235
vt 0.127795 0.958996
vt 0.127795 0.961473
vt 0.127841 0.961473
vt 0.127886 0.960739
vt 0.127841 0.960739
vt 0.716203 0.795915
vt 0.714990 0.795915
vt 0.714990 0.792845
vt 0.716203 0.792845
vt 0.123777 0.959892
vt 0.124632 0.959892
vt 0.121212 0.959892
vt 0.122067 0.959892
vt 0.127197 0.959892
vt 0.128052 0.959892
vt 0.125487 0.959892
vt 0.122922 0.959892
vt 0.126342 0.959892
vt 0.716203 0.795672
vt 0.716203 0.795336
vt 0.717416 0.795336
vt 0.126361 0.962430
vt 0.126361 0.959894
vt 0.127575 0.959894
vt 0.127575 0.962430
vt 0.125228 0.959853
vt 0.125228 0.956815
vt 0.125259 0.956775
vt 0.125259 0.959894
vt 0.122752 0.959853
vt 0.122722 0.959894
vt 0.122752 0.956835
vt 0.122722 0.956823
vt 0.122735 0.956789
vt 0.122759 0.956818
vt 0.122767 0.956775
vt 0.122773 0.956812
vt 0.124140 0.959894
vt 0.124140 0.962385
vt 0.122926 0.962385
vt 0.122926 0.959894
vt 0.716283 0.789766
vt 0.716283 0.792804
vt 0.713807 0.792804
vt 0.713828 0.789763
vt 0.126157 0.965234
vt 0.124943 0.965234
vt 0.126148 0.962146
vt 0.126157 0.962115
vt 0.124943 0.962115
vt 0.125114 0.963812
vt 0.125986 0.963812
vt 0.125986 0.962574
vt 0.125114 0.962574
vt 0.716629 0.792844
vt 0.716631 0.792844
vt 0.716989 0.792844
vt 0.716990 0.792844
vt 0.716495 0.795336
vt 0.716492 0.795336
vt 0.717124 0.792845
vt 0.717128 0.792844
vt 0.716492 0.792844
vt 0.716495 0.792844
vt 0.716631 0.792844
vt 0.716631 0.795336
vt 0.716989 0.795336
vt 0.716492 0.792844
vt 0.717128 0.795336
vt 0.717124 0.795336
vt 0.716990 0.792844
vt 0.716990 0.795336
vt 0.716629 0.795336
vt 0.716629 0.792844
vt 0.717128 0.795336
vt 0.716990 0.795336
vt 0.716631 0.795336
vt 0.716629 0.795336
vt 0.716495 0.792845
vt 0.717124 0.792844
vt 0.716495 0.795336
s 1
usemtl palette
f 131/1/1 130/2/1 36/3/1 37/4/1
f 69/5/2 126/6/2 127/7/2 38/8/2
f 124/9/3 48/10/3 50/11/3 49/12/3 38/13/3 127/14/3
f 29/15/4 30/16/5 7/16/5 9/15/4
f 30/16/5 31/17/6 5/17/6 7/16/5
f 31/17/7 23/18/7 21/18/7 5/17/7
f 23/18/8 24/19/8 19/19/8 21/18/8
f 24/19/9 25/20/10 17/20/10 19/19/9
f 25/20/10 26/21/11 15/21/11 17/20/10
f 26/21/12 27/22/12 13/22/12 15/21/12
f 27/22/13 28/23/13 11/23/13 13/22/13
f 28/23/14 29/15/14 9/15/14 11/23/14
f 6/24/1 22/25/1 20/26/1 18/27/1 16/28/1 14/29/1 12/30/1 10/31/1 8/32/1
f 6/33/1 8/34/1 24/35/1 23/36/1
f 8/34/1 10/37/1 25/38/1 24/35/1
f 10/37/1 12/39/1 26/40/1 25/38/1
f 12/39/1 14/41/1 27/42/1 26/40/1
f 14/41/1 16/43/1 28/44/1 27/42/1
f 16/43/1 18/45/1 29/46/1 28/44/1
f 18/45/1 20/47/1 30/48/1 29/46/1
f 20/47/1 22/49/1 31/50/1 30/48/1
f 22/49/1 6/33/1 23/36/1 31/50/1
f 2/51/15 4/52/15 139/52/15 136/51/15
f 68/53/16 32/54/16 132/54/16 135/53/16
f 32/54/17 33/55/17 138/55/17 132/54/17
f 3/56/18 1/57/18 134/57/18 133/56/18
f 36/58/19 35/59/19 34/60/19 37/61/19
f 130/4/3 129/62/3 35/63/3 36/64/3
f 128/65/20 131/63/20 37/62/20 34/66/20
f 129/2/2 128/67/2 34/68/2 35/3/2
f 49/69/21 71/70/21 69/71/13 38/72/13
f 83/73/14 41/73/14 42/74/14 82/74/14
f 77/75/7 47/75/7 39/76/22 85/76/22
f 79/77/10 45/77/10 46/78/23 78/78/23
f 82/74/13 42/74/13 43/79/13 81/79/13
f 85/76/22 39/76/22 40/80/5 84/80/5
f 78/78/23 46/78/23 47/75/8 77/75/8
f 81/79/12 43/79/12 44/81/12 80/81/12
f 84/80/5 40/80/5 41/73/4 83/73/4
f 80/81/11 44/81/11 45/77/10 79/77/10
f 47/75/2 46/78/2 45/77/2 44/81/2 43/79/2 42/74/2 41/73/2 40/80/2 39/76/2
f 71/70/21 49/69/21 50/11/24 70/82/24
f 70/82/25 50/11/25 48/83/26 72/84/26
f 125/6/1 72/84/26 48/83/26 124/72/1
f 53/85/2 51/86/2 52/87/2 54/88/2
f 52/87/3 55/87/3 58/88/3 54/88/3
f 51/86/27 56/86/27 55/87/27 52/87/27
f 54/88/13 58/88/13 57/85/13 53/85/13
f 53/85/20 57/85/20 56/86/20 51/86/20
f 61/85/2 59/86/2 60/87/2 62/88/2
f 60/87/20 63/87/20 66/88/20 62/88/20
f 59/86/28 64/86/28 63/87/28 60/87/28
f 62/88/19 66/88/19 65/85/19 61/85/19
f 61/85/3 65/85/3 64/86/3 59/86/3
f 73/89/20 74/90/20 125/91/20 126/92/20
f 75/93/20 73/89/20 126/92/20 69/94/20
f 76/95/20 71/96/20 70/97/20
f 76/98/20 70/97/20 72/99/20
f 74/90/20 76/100/20 72/99/20 125/91/20
f 76/95/20 75/93/20 69/94/20 71/96/20
f 73/89/1 75/93/1 122/93/1 120/89/1
f 77/75/1 85/76/1 84/80/1 83/73/1 82/74/1 81/79/1 80/81/1 79/77/1 78/78/1
f 101/73/14 88/73/14 89/74/14 100/74/14
f 95/75/7 94/75/7 86/76/22 103/76/22
f 97/77/10 92/77/10 93/78/23 96/78/23
f 100/74/13 89/74/13 90/79/13 99/79/13
f 103/76/22 86/76/22 87/80/5 102/80/5
f 96/78/23 93/78/23 94/75/8 95/75/8
f 99/79/12 90/79/12 91/81/12 98/81/12
f 102/80/5 87/80/5 88/73/4 101/73/4
f 98/81/11 91/81/11 92/77/10 97/77/10
f 94/75/2 93/78/2 92/77/2 91/81/2 90/79/2 89/74/2 88/73/2 87/80/2 86/76/2
f 95/75/1 103/76/1 102/80/1 101/73/1 100/74/1 99/79/1 98/81/1 97/77/1 96/78/1
f 106/101/1 107/102/1 105/103/1 104/104/1
f 106/101/20 109/101/20 111/102/20 107/102/20
f 104/104/19 108/104/19 109/101/19 106/101/19
f 105/103/3 110/103/3 108/104/3 104/104/3
f 107/102/13 111/102/13 110/103/13 105/103/13
f 114/101/1 115/102/1 113/103/1 112/104/1
f 114/101/20 117/101/20 119/102/20 115/102/20
f 112/104/19 116/104/19 117/101/19 114/101/19
f 113/103/3 118/103/3 116/104/3 112/104/3
f 115/102/13 119/102/13 118/103/13 113/103/13
f 121/105/20 120/106/20 122/107/20 123/108/20
f 75/93/19 76/95/19 123/95/19 122/93/19
f 76/100/2 74/90/2 121/90/2 123/100/2
f 74/90/29 73/89/29 120/89/29 121/90/29
f 32/54/30 68/53/31 125/109/32 124/110/33
f 68/53/31 67/111/34 126/112/34 125/109/32
f 33/55/35 32/54/30 124/110/33 127/113/36
f 67/111/34 33/55/35 127/113/36 126/112/34
f 1/57/37 3/56/38 128/114/39 129/115/40
f 2/51/41 1/57/37 129/115/40 130/116/41
f 3/56/38 4/52/42 131/117/43 128/114/39
f 4/52/42 2/51/41 130/116/41 131/117/43
f 133/56/44 134/57/45 135/53/46 132/54/47
f 134/57/45 136/51/48 137/111/49 135/53/46
f 139/52/50 133/56/44 132/54/47 138/55/51
f 136/51/48 139/52/50 138/55/51 137/111/49
f 1/57/17 2/51/17 136/51/17 134/57/17
f 33/55/18 67/111/18 137/111/18 138/55/18
f 67/111/52 68/53/52 135/53/52 137/111/52
f 4/52/53 3/56/53 133/56/53 139/52/53
f 156/118/54 169/119/55 164/120/56 159/121/57
f 160/122/58 171/123/59 146/83/60 140/83/60
f 158/124/61 165/125/62 144/6/63 143/6/63
f 150/72/64 155/72/64 184/126/65 173/127/66
f 164/120/67 169/128/68 170/129/68 167/130/67
f 168/131/69 147/72/70 146/83/70 171/123/69
f 141/84/71 145/84/71 166/132/72 163/133/73
f 159/134/74 162/135/74 161/136/75 156/137/75
f 144/6/76 165/125/77 166/138/77 145/84/76
f 162/139/78 167/130/79 170/140/80 161/141/81
f 157/142/82 160/122/82 140/83/83 142/72/83
f 143/6/84 141/84/84 163/133/85 158/143/85
f 172/118/86 185/119/87 180/120/88 175/121/89
f 176/122/90 187/123/91 154/83/92 148/83/92
f 174/124/93 181/125/94 152/6/95 151/6/95
f 180/120/67 185/128/68 186/129/68 183/130/67
f 184/131/69 155/72/70 154/83/70 187/123/69
f 149/84/96 153/84/96 182/132/97 179/133/98
f 175/134/74 178/135/74 177/136/75 172/137/75
f 152/6/76 181/125/77 182/138/77 153/84/76
f 178/139/99 183/130/100 186/140/101 177/141/102
f 173/142/82 176/144/82 148/83/83 150/72/83
f 151/6/84 149/84/84 179/133/85 174/143/85
f 163/133/85 162/135/74 159/134/74 158/143/85
f 161/136/75 160/122/82 157/142/82 156/137/75
f 167/130/67 166/138/77 165/125/77 164/120/67
f 171/123/69 170/129/68 169/128/68 168/131/69
f 160/122/58 161/141/81 170/140/80 171/123/59
f 166/132/72 167/130/79 162/139/78 163/133/73
f 158/124/61 159/121/57 164/120/56 165/125/62
f 168/126/103 169/119/55 156/118/54 157/127/104
f 179/133/85 178/135/74 175/134/74 174/143/85
f 177/136/75 176/144/82 173/142/82 172/137/75
f 183/130/67 182/138/77 181/125/77 180/120/67
f 187/123/69 186/129/68 185/128/68 184/131/69
f 176/122/90 177/141/102 186/140/101 187/123/91
f 182/132/97 183/130/100 178/139/99 179/133/98
f 174/124/93 175/121/89 180/120/88 181/125/94
f 184/126/65 185/119/87 172/118/86 173/127/66
f 142/72/105 147/72/105 168/126/103 157/127/104
