# Blender 3.6.2
# www.blender.org
mtllib PC_Case_7.mtl
o PC_Case_7
v 0.005681 0.277980 -0.236124
v 0.005696 0.116014 -0.236342
v 0.078867 0.277948 -0.237001
v 0.078820 0.116079 -0.237204
v -0.089755 0.457688 0.225596
v -0.092749 0.454713 0.229844
v -0.091710 0.451330 0.234676
v -0.087122 0.449122 0.237829
v -0.081133 0.449122 0.237829
v -0.076545 0.451330 0.234676
v -0.075505 0.454713 0.229844
v -0.078500 0.457688 0.225596
v -0.084127 0.458863 0.223918
v -0.084127 0.462791 0.226669
v -0.078500 0.461616 0.228347
v -0.075505 0.458642 0.232595
v -0.076545 0.455259 0.237426
v -0.081133 0.453051 0.240580
v -0.087122 0.453051 0.240580
v -0.091710 0.455259 0.237426
v -0.092749 0.458642 0.232595
v -0.089755 0.461616 0.228347
v 0.098982 0.456561 -0.240413
v 0.099030 0.035473 -0.240210
v 0.073449 0.272388 -0.227557
v 0.011263 0.272388 -0.227557
v 0.011263 0.121579 -0.227557
v 0.073449 0.121579 -0.227557
v 0.091278 0.457232 0.228275
v 0.089692 0.455660 0.230528
v 0.090243 0.453874 0.233090
v 0.092672 0.452707 0.234763
v 0.095844 0.452707 0.234763
v 0.098274 0.453874 0.233090
v 0.098825 0.455660 0.230528
v 0.097239 0.457232 0.228275
v 0.094258 0.457852 0.227385
v -0.100730 0.035538 -0.241072
v -0.100714 0.456530 -0.241289
v 0.094258 0.459505 0.228538
v 0.097239 0.458884 0.229428
v 0.098825 0.457313 0.231681
v 0.098274 0.455526 0.234243
v 0.095844 0.454360 0.235915
v 0.092672 0.454360 0.235915
v 0.090243 0.455526 0.234243
v 0.089692 0.457313 0.231681
v 0.091278 0.458884 0.229428
v 0.073269 0.457232 0.228275
v 0.071683 0.455660 0.230528
v 0.072234 0.453874 0.233090
v 0.074663 0.452707 0.234763
v 0.077835 0.452707 0.234763
v 0.080265 0.453874 0.233090
v 0.080816 0.455660 0.230528
v 0.079230 0.457232 0.228275
v 0.076249 0.457852 0.227385
v 0.076249 0.459505 0.228538
v 0.079230 0.458884 0.229428
v 0.080816 0.457313 0.231681
v 0.080265 0.455526 0.234243
v 0.077835 0.454360 0.235915
v 0.074663 0.454360 0.235915
v 0.072234 0.455526 0.234243
v 0.071683 0.457313 0.231681
v 0.073269 0.458884 0.229428
v 0.033103 0.458440 0.230064
v 0.033103 0.454547 0.235648
v 0.013105 0.458440 0.230064
v 0.013105 0.454547 0.235648
v 0.033103 0.456787 0.228912
v 0.013105 0.456787 0.228912
v 0.033103 0.452894 0.234495
v 0.013105 0.452894 0.234495
v 0.062796 0.458440 0.230064
v 0.062796 0.454547 0.235648
v 0.042798 0.458440 0.230064
v 0.042798 0.454547 0.235648
v 0.062796 0.456787 0.228912
v 0.042798 0.456787 0.228912
v 0.062796 0.452894 0.234495
v 0.042798 0.452894 0.234495
v 0.073449 0.272388 -0.235535
v 0.011263 0.272388 -0.235535
v 0.011263 0.121579 -0.235535
v 0.073449 0.121579 -0.235535
v 0.099079 0.456541 -0.237476
v 0.078964 0.277929 -0.234064
v 0.005778 0.277960 -0.233187
v -0.100618 0.456510 -0.238352
v 0.005793 0.115994 -0.233404
v -0.100633 0.035518 -0.238135
v 0.099126 0.035453 -0.237273
v 0.078916 0.116059 -0.234267
v 0.104400 0.023317 0.223179
v -0.106297 0.023317 0.240576
v -0.106297 0.449974 0.240576
v -0.106297 0.023317 0.223179
v 0.104400 0.023317 0.240576
v 0.104400 0.449974 0.240576
v 0.104400 0.462122 0.223179
v -0.081799 0.394144 0.223179
v -0.081799 0.107137 0.223179
v -0.081799 0.394144 0.240576
v -0.081799 0.107137 0.240576
v 0.079903 0.107137 0.223179
v 0.079903 0.394144 0.223179
v 0.079903 0.107137 0.240576
v 0.079903 0.394144 0.240576
v 0.093038 0.087537 0.236101
v 0.093038 0.432184 0.236101
v -0.090952 0.087537 0.236101
v -0.090952 0.432184 0.236101
v -0.000000 0.380067 0.227067
v -0.021375 0.374340 0.227067
v -0.037023 0.358692 0.227067
v -0.042750 0.337317 0.227067
v -0.037023 0.315942 0.227067
v -0.021375 0.300294 0.227067
v -0.000000 0.294567 0.227067
v 0.021375 0.300294 0.227067
v 0.037023 0.315942 0.227067
v 0.042750 0.337317 0.227067
v 0.037023 0.358692 0.227067
v 0.021375 0.374340 0.227067
v -0.021375 0.374340 0.215023
v -0.000000 0.380067 0.215023
v -0.037023 0.358692 0.215023
v -0.042750 0.337317 0.215023
v -0.037023 0.315942 0.215023
v -0.021375 0.300294 0.215023
v -0.000000 0.294567 0.215023
v 0.021375 0.300294 0.215023
v 0.037023 0.315942 0.215023
v 0.042750 0.337317 0.215023
v 0.037023 0.358692 0.215023
v 0.021375 0.374340 0.215023
v -0.106297 0.023317 -0.241879
v -0.106297 0.462122 -0.241879
v 0.104400 0.462122 -0.241879
v 0.104400 0.023317 -0.241879
v -0.106297 0.462122 0.223179
v -0.081799 0.280940 0.223179
v 0.079903 0.280940 0.223179
v 0.079903 0.223341 0.240576
v 0.079903 0.223341 0.223179
v -0.081799 0.223341 0.240576
v -0.081799 0.223341 0.223179
v -0.081799 0.280940 0.240576
v 0.079903 0.280940 0.240576
v 0.075505 0.229670 0.244247
v -0.077402 0.229670 0.244247
v -0.077402 0.274611 0.244247
v 0.075505 0.274611 0.244247
v -0.077402 0.276974 0.238043
v 0.075505 0.276974 0.238043
v -0.077402 0.227307 0.238043
v 0.075505 0.227307 0.238043
v -0.000000 0.212270 0.227067
v -0.022238 0.206311 0.227067
v -0.038517 0.190032 0.227067
v -0.044475 0.167794 0.227067
v -0.038517 0.145557 0.227067
v -0.022238 0.129277 0.227067
v -0.000000 0.123319 0.227067
v 0.022238 0.129277 0.227067
v 0.038517 0.145557 0.227067
v 0.044475 0.167794 0.227067
v 0.038517 0.190032 0.227067
v 0.022238 0.206311 0.227067
v -0.022238 0.206311 0.215023
v -0.000000 0.212270 0.215023
v -0.038517 0.190032 0.215023
v -0.044475 0.167794 0.215023
v -0.038517 0.145557 0.215023
v -0.022238 0.129277 0.215023
v -0.000000 0.123319 0.215023
v 0.022238 0.129277 0.215023
v 0.038517 0.145557 0.215023
v 0.044475 0.167794 0.215023
v 0.038517 0.190032 0.215023
v 0.022238 0.206311 0.215023
v 0.075429 0.000000 0.184574
v 0.067537 0.000000 0.187138
v 0.062659 0.000000 0.193851
v 0.062659 0.000000 0.202149
v 0.067537 0.000000 0.208862
v 0.075429 0.000000 0.211426
v 0.083320 0.000000 0.208862
v 0.088198 0.000000 0.202149
v 0.088198 0.000000 0.193851
v 0.083320 0.000000 0.187138
v 0.065226 0.023317 0.183957
v 0.075428 0.023317 0.180642
v 0.058920 0.023317 0.192636
v 0.058920 0.023317 0.203364
v 0.065226 0.023317 0.212043
v 0.075428 0.023317 0.215358
v 0.085631 0.023317 0.212043
v 0.091936 0.023317 0.203364
v 0.091936 0.023317 0.192636
v 0.085631 0.023317 0.183957
v 0.075429 0.000000 -0.211426
v 0.067537 0.000000 -0.208862
v 0.062659 0.000000 -0.202149
v 0.062659 0.000000 -0.193851
v 0.067537 0.000000 -0.187138
v 0.075429 0.000000 -0.184574
v 0.083320 0.000000 -0.187138
v 0.088198 0.000000 -0.193851
v 0.088198 0.000000 -0.202149
v 0.083320 0.000000 -0.208862
v 0.065226 0.023317 -0.212043
v 0.075428 0.023317 -0.215358
v 0.058920 0.023317 -0.203364
v 0.058920 0.023317 -0.192636
v 0.065226 0.023317 -0.183957
v 0.075428 0.023317 -0.180642
v 0.085631 0.023317 -0.183957
v 0.091936 0.023317 -0.192636
v 0.091936 0.023317 -0.203364
v 0.085631 0.023317 -0.212043
v -0.079904 0.000000 -0.211426
v -0.087796 0.000000 -0.208862
v -0.092674 0.000000 -0.202149
v -0.092674 0.000000 -0.193851
v -0.087796 0.000000 -0.187138
v -0.079904 0.000000 -0.184574
v -0.072012 0.000000 -0.187138
v -0.067135 0.000000 -0.193851
v -0.067135 0.000000 -0.202149
v -0.072012 0.000000 -0.208862
v -0.090107 0.023317 -0.212043
v -0.079904 0.023317 -0.215358
v -0.096412 0.023317 -0.203364
v -0.096412 0.023317 -0.192636
v -0.090107 0.023317 -0.183957
v -0.079904 0.023317 -0.180642
v -0.069702 0.023317 -0.183957
v -0.063396 0.023317 -0.192636
v -0.063396 0.023317 -0.203364
v -0.069702 0.023317 -0.212043
v -0.079904 0.000000 0.184574
v -0.087796 0.000000 0.187138
v -0.092674 0.000000 0.193851
v -0.092674 0.000000 0.202149
v -0.087796 0.000000 0.208862
v -0.079904 0.000000 0.211426
v -0.072012 0.000000 0.208862
v -0.067135 0.000000 0.202149
v -0.067135 0.000000 0.193851
v -0.072012 0.000000 0.187138
v -0.090107 0.023317 0.183957
v -0.079904 0.023317 0.180642
v -0.096412 0.023317 0.192636
v -0.096412 0.023317 0.203364
v -0.090107 0.023317 0.212043
v -0.079904 0.023317 0.215358
v -0.069702 0.023317 0.212043
v -0.063396 0.023317 0.203364
v -0.063396 0.023317 0.192636
v -0.069702 0.023317 0.183957
v 0.016354 0.462122 -0.100950
v 0.016354 0.462122 0.100950
v -0.016354 0.462122 -0.100950
v -0.016354 0.462122 0.100950
v -0.021840 0.462122 0.090532
v 0.021840 0.462122 0.090532
v 0.021840 0.462122 -0.090532
v -0.021840 0.462122 -0.090532
v -0.016354 0.491219 -0.077269
v -0.016354 0.484903 -0.088233
v -0.016354 0.484903 0.088233
v -0.016354 0.491219 0.077269
v 0.016354 0.484902 -0.088233
v 0.016354 0.491219 -0.077269
v 0.016354 0.491219 0.077269
v 0.016354 0.484902 0.088233
v -0.021840 0.483574 0.073476
v -0.021840 0.477057 0.082789
v 0.021840 0.477057 0.082789
v 0.021840 0.483574 0.073476
v -0.021840 0.477057 -0.082789
v -0.021840 0.483574 -0.073476
v 0.021840 0.483574 -0.073476
v 0.021840 0.477057 -0.082789
vn -0.0000 1.0000 -0.0000
vn -0.0000 -1.0000 -0.0000
vn -0.9848 -0.0996 0.1422
vn -0.9848 0.0996 -0.1422
vn -0.8660 0.2868 -0.4096
vn -0.3420 0.5390 -0.7698
vn 0.3420 0.5390 -0.7698
vn 0.8660 0.2868 -0.4096
vn 0.9848 0.0996 -0.1422
vn 0.9848 -0.0996 0.1422
vn 0.6428 -0.4394 0.6275
vn -0.0000 -0.5736 0.8192
vn -0.6428 -0.4394 0.6275
vn -0.0000 0.8192 0.5736
vn 0.0008 -1.0000 -0.0068
vn 0.0002 -1.0000 -0.0068
vn -0.9995 -0.0001 0.0329
vn 0.0005 1.0000 0.0067
vn -0.0000 -0.0000 -1.0000
vn 1.0000 -0.0000 -0.0000
vn -1.0000 -0.0000 -0.0000
vn -0.8660 -0.2860 0.4101
vn -0.6428 -0.4382 0.6283
vn -0.0000 0.5720 -0.8202
vn -0.3420 0.5375 -0.7708
vn 0.9848 0.0993 -0.1424
vn 0.8660 0.2860 -0.4101
vn -0.0000 -0.5720 0.8202
vn -0.8660 0.2860 -0.4101
vn -0.9848 0.0993 -0.1424
vn 0.3420 0.5375 -0.7708
vn 0.6428 -0.4382 0.6283
vn 0.8660 -0.2860 0.4101
vn -0.0000 -0.8202 -0.5720
vn -0.0000 0.8202 0.5720
vn -0.1413 -0.0915 -0.9857
vn 0.0637 -0.0913 -0.9938
vn 0.0636 -0.0914 -0.9938
vn -0.1383 -0.0935 -0.9860
vn 0.0728 0.0429 -0.9964
vn 0.0357 0.0735 -0.9967
vn -0.1621 0.0430 -0.9858
vn -0.0752 0.0741 -0.9944
vn 0.0592 -0.0911 -0.9941
vn -0.1428 -0.0929 -0.9854
vn -0.1454 -0.0911 -0.9852
vn 0.0593 -0.0909 -0.9941
vn 0.0594 0.1105 -0.9921
vn 0.0595 0.1105 -0.9921
vn -0.1432 0.1127 -0.9833
vn -0.1456 0.1107 -0.9831
vn -0.1013 -0.0086 -0.9948
vn 0.0257 -0.0107 -0.9996
vn 0.0159 -0.0158 -0.9997
vn -0.0114 -0.0223 -0.9997
vn 0.0219 0.0254 -0.9994
vn 0.0273 0.0198 -0.9994
vn -0.0969 0.0186 -0.9951
vn -0.0248 0.0405 -0.9989
vn 0.0003 1.0000 0.0067
vn 0.9995 -0.0001 -0.0329
vn 0.9995 -0.0003 -0.0329
vn -0.0000 0.8199 0.5725
vn -0.0000 -0.0000 1.0000
vn -0.9659 -0.2588 -0.0000
vn 0.7071 0.7071 -0.0000
vn -0.2588 0.9659 -0.0000
vn 0.7071 -0.7071 -0.0000
vn -0.7071 -0.7071 -0.0000
vn 0.2588 0.9659 -0.0000
vn -0.7071 0.7071 -0.0000
vn 0.9659 -0.2588 -0.0000
vn -0.2588 -0.9659 -0.0000
vn -0.9659 0.2588 -0.0000
vn 0.9659 0.2588 -0.0000
vn 0.2588 -0.9659 -0.0000
vn -0.0000 0.9345 0.3559
vn -0.0000 -0.9345 0.3559
vn 0.7988 -0.1583 0.5804
vn -0.7988 -0.1583 0.5804
vn -0.3051 -0.1583 -0.9391
vn 0.9874 -0.1583 -0.0000
vn -0.3051 -0.1583 0.9391
vn -0.7988 -0.1583 -0.5804
vn 0.7988 -0.1583 -0.5804
vn 0.3051 -0.1583 0.9391
vn -0.9874 -0.1583 -0.0000
vn 0.3051 -0.1583 -0.9391
vn -0.8497 0.2514 -0.4635
vn -0.8591 0.3372 -0.3850
vn -0.8597 0.3596 -0.3629
vn -0.8464 0.5087 -0.1580
vn -0.8424 0.5228 -0.1309
vn -0.8424 0.5228 0.1309
vn -0.8463 0.5087 0.1580
vn 0.8597 0.3596 -0.3628
vn 0.8591 0.3371 -0.3850
vn 0.8497 0.2514 -0.4634
vn -0.8597 0.3596 0.3629
vn -0.8591 0.3372 0.3850
vn -0.8497 0.2514 0.4635
vn -0.0000 -0.9538 -0.3006
vn -0.0000 -0.9538 0.3006
vn -0.0000 -0.6588 0.7523
vn -0.0000 -0.4603 0.8878
vn 0.8497 0.2514 0.4634
vn 0.8591 0.3371 0.3850
vn 0.8597 0.3596 0.3628
vn -0.0000 0.9660 0.2584
vn -0.0000 0.9660 -0.2584
vn -0.0000 -0.4603 -0.8878
vn -0.0000 -0.6588 -0.7523
vn 0.8464 0.5086 0.1580
vn 0.8424 0.5227 0.1308
vn 0.8424 0.5227 -0.1308
vn 0.8464 0.5086 -0.1580
vn -0.0000 0.7023 -0.7119
vn -0.0000 0.4874 -0.8732
vn -0.0000 0.4874 0.8732
vn -0.0000 0.7023 0.7119
vt 0.127886 0.958996
vt 0.127886 0.959868
vt 0.127841 0.959868
vt 0.127841 0.958996
vt 0.717416 0.795381
vt 0.717416 0.792845
vt 0.718630 0.792845
vt 0.718630 0.795381
vt 0.124903 0.459398
vt 0.123855 0.459398
vt 0.122808 0.459398
vt 0.121760 0.459398
vt 0.130141 0.459398
vt 0.129093 0.459398
vt 0.128046 0.459398
vt 0.126998 0.459398
vt 0.125951 0.459398
vt 0.125994 0.962543
vt 0.125081 0.962543
vt 0.126146 0.965184
vt 0.124978 0.965158
vt 0.124975 0.962146
vt 0.125080 0.963888
vt 0.125996 0.963862
vt 0.210650 0.877690
vt 0.210650 0.878929
vt 0.209778 0.878929
vt 0.209778 0.877690
vt 0.127841 0.960235
vt 0.127795 0.960235
vt 0.127795 0.958996
vt 0.127795 0.961473
vt 0.127841 0.961473
vt 0.127886 0.960739
vt 0.127841 0.960739
vt 0.123777 0.959892
vt 0.124632 0.959892
vt 0.121212 0.959892
vt 0.122067 0.959892
vt 0.127197 0.959892
vt 0.128052 0.959892
vt 0.125487 0.959892
vt 0.122922 0.959892
vt 0.126342 0.959892
vt 0.126090 0.956824
vt 0.124876 0.956824
vt 0.127303 0.959315
vt 0.126090 0.959315
vt 0.717416 0.795336
vt 0.716203 0.795336
vt 0.716203 0.792845
vt 0.124140 0.959894
vt 0.124140 0.962385
vt 0.122926 0.962385
vt 0.122926 0.959894
vt 0.126157 0.965234
vt 0.124943 0.965234
vt 0.126148 0.962146
vt 0.126157 0.962115
vt 0.124943 0.962115
vt 0.125114 0.963812
vt 0.125986 0.963812
vt 0.125986 0.962574
vt 0.125114 0.962574
vt 0.125685 0.960300
vt 0.716607 0.794505
vt 0.715799 0.793675
vt 0.126494 0.961131
vt 0.716203 0.793675
vt 0.716203 0.794505
vt 0.126089 0.960300
vt 0.126090 0.961131
vt 0.714990 0.792845
vt 0.995690 0.705000
vt 0.995690 0.995091
vt 0.840825 0.995091
vt 0.840825 0.705000
vt 0.118607 0.469865
vt 0.114404 0.467439
vt 0.111978 0.463236
vt 0.111978 0.458382
vt 0.114404 0.454179
vt 0.118607 0.451753
vt 0.123460 0.451753
vt 0.127663 0.454179
vt 0.130090 0.458382
vt 0.130090 0.463236
vt 0.127663 0.467439
vt 0.123460 0.469865
vt 0.699210 0.794899
vt 0.699210 0.789775
vt 0.704210 0.789775
vt 0.704210 0.794899
vt 0.709210 0.789775
vt 0.709210 0.794899
vt 0.708024 0.791860
vt 0.119399 0.964346
vt 0.122338 0.963391
vt 0.124154 0.960891
vt 0.124154 0.957801
vt 0.122338 0.955301
vt 0.119399 0.954346
vt 0.116460 0.955301
vt 0.114644 0.957801
vt 0.114644 0.960891
vt 0.116460 0.963391
vt 0.716492 0.792844
vt 0.716495 0.792844
vt 0.716629 0.792844
vt 0.716631 0.792844
vt 0.716989 0.792844
vt 0.716990 0.792844
vt 0.716495 0.795336
vt 0.716492 0.795336
vt 0.717124 0.792845
vt 0.717128 0.792844
vt 0.716631 0.792844
vt 0.716631 0.795336
vt 0.716989 0.795336
vt 0.716492 0.792844
vt 0.717128 0.795336
vt 0.717124 0.795336
vt 0.716990 0.792844
vt 0.716990 0.795336
vt 0.716629 0.795336
vt 0.716629 0.792844
vt 0.717128 0.795336
vt 0.716990 0.795336
vt 0.716631 0.795336
vt 0.716629 0.795336
vt 0.716495 0.792845
vt 0.716495 0.795336
vt 0.717124 0.792844
s 1
usemtl palette
f 86/1/1 85/2/1 27/3/1 28/4/1
f 98/5/2 138/6/2 141/7/2 95/8/2
f 20/9/3 21/10/4 6/10/4 7/9/3
f 21/10/4 22/11/5 5/11/5 6/10/4
f 22/11/6 14/12/6 13/12/6 5/11/6
f 14/12/7 15/13/7 12/13/7 13/12/7
f 15/13/8 16/14/9 11/14/9 12/13/8
f 16/14/9 17/15/10 10/15/10 11/14/9
f 17/15/11 18/16/11 9/16/11 10/15/11
f 18/16/12 19/17/12 8/17/12 9/16/12
f 19/17/13 20/9/13 7/9/13 8/17/13
f 14/12/14 22/11/14 21/10/14 20/9/14 19/17/14 18/16/14 17/15/14 16/14/14 15/13/14
f 2/18/15 4/19/15 94/19/15 91/18/15
f 39/20/16 23/21/16 87/21/16 90/20/16
f 23/21/17 24/22/17 93/22/17 87/21/17
f 3/23/18 1/24/18 89/24/18 88/23/18
f 27/25/19 26/26/19 25/27/19 28/28/19
f 85/4/20 84/29/20 26/30/20 27/31/20
f 83/32/21 86/30/21 28/29/21 25/33/21
f 84/2/2 83/34/2 25/35/2 26/3/2
f 46/36/22 31/36/22 32/37/23 45/37/23
f 40/38/24 37/38/24 29/39/25 48/39/25
f 42/40/26 35/40/26 36/41/27 41/41/27
f 45/37/28 32/37/28 33/42/28 44/42/28
f 48/39/29 29/39/29 30/43/30 47/43/30
f 41/41/31 36/41/31 37/38/24 40/38/24
f 44/42/32 33/42/32 34/44/33 43/44/33
f 47/43/30 30/43/30 31/36/22 46/36/22
f 43/44/33 34/44/33 35/40/26 42/40/26
f 37/38/34 36/41/34 35/40/34 34/44/34 33/42/34 32/37/34 31/36/34 30/43/34 29/39/34
f 95/45/19 98/46/19 142/47/19 101/48/19
f 139/6/1 142/49/1 101/50/1 140/51/1
f 40/38/35 48/39/35 47/43/35 46/36/35 45/37/35 44/42/35 43/44/35 42/40/35 41/41/35
f 64/36/22 51/36/22 52/37/23 63/37/23
f 58/38/24 57/38/24 49/39/25 66/39/25
f 60/40/26 55/40/26 56/41/27 59/41/27
f 63/37/28 52/37/28 53/42/28 62/42/28
f 66/39/29 49/39/29 50/43/30 65/43/30
f 59/41/31 56/41/31 57/38/24 58/38/24
f 62/42/32 53/42/32 54/44/33 61/44/33
f 65/43/30 50/43/30 51/36/22 64/36/22
f 61/44/33 54/44/33 55/40/26 60/40/26
f 57/38/34 56/41/34 55/40/34 54/44/34 53/42/34 52/37/34 51/36/34 50/43/34 49/39/34
f 58/38/35 66/39/35 65/43/35 64/36/35 63/37/35 62/42/35 61/44/35 60/40/35 59/41/35
f 69/52/35 70/53/35 68/54/35 67/55/35
f 69/52/21 72/52/21 74/53/21 70/53/21
f 67/55/24 71/55/24 72/52/24 69/52/24
f 68/54/20 73/54/20 71/55/20 67/55/20
f 70/53/28 74/53/28 73/54/28 68/54/28
f 77/52/35 78/53/35 76/54/35 75/55/35
f 77/52/21 80/52/21 82/53/21 78/53/21
f 75/55/24 79/55/24 80/52/24 77/52/24
f 76/54/20 81/54/20 79/55/20 75/55/20
f 78/53/28 82/53/28 81/54/28 76/54/28
f 23/21/36 39/20/37 139/56/38 140/57/39
f 39/20/37 38/58/40 138/59/41 139/56/38
f 24/22/42 23/21/36 140/57/39 141/60/43
f 38/58/40 24/22/42 141/60/43 138/59/41
f 1/24/44 3/23/45 83/61/46 84/62/47
f 2/18/48 1/24/44 84/62/47 85/63/49
f 3/23/45 4/19/50 86/64/51 83/61/46
f 4/19/50 2/18/48 85/63/49 86/64/51
f 88/23/52 89/24/53 90/20/54 87/21/55
f 89/24/53 91/18/56 92/58/57 90/20/54
f 94/19/58 88/23/52 87/21/55 93/22/59
f 91/18/56 94/19/58 93/22/59 92/58/57
f 1/24/17 2/18/17 91/18/17 89/24/17
f 24/22/60 38/58/60 92/58/60 93/22/60
f 38/58/61 39/20/61 90/20/61 92/58/61
f 4/19/62 3/23/62 88/23/62 94/19/62
f 108/65/1 106/65/1 103/65/1 105/65/1
f 100/49/63 101/49/63 142/49/63 97/49/63
f 97/66/21 142/66/21 98/67/21 96/67/21
f 107/68/2 109/68/2 104/68/2 102/68/2
f 146/68/2 145/68/2 147/68/2 148/68/2
f 109/68/21 107/68/21 106/65/21 108/65/21
f 99/69/64 100/70/64 109/66/64 108/67/64
f 99/69/20 95/69/20 101/70/20 100/70/20
f 109/66/64 100/49/64 97/49/64 104/66/64
f 105/71/20 103/71/20 102/72/20 104/72/20
f 95/73/2 99/73/2 96/73/2 98/73/2
f 99/73/64 108/67/64 105/67/64 96/73/64
f 142/90/21 139/91/21 138/92/21 98/93/21
f 140/94/20 101/95/20 95/93/20 141/92/20
f 145/96/64 150/96/64 149/96/64 147/96/64
f 144/68/1 143/68/1 149/68/1 150/68/1
f 105/69/64 104/70/64 97/66/64 96/67/64
f 151/96/64 154/96/64 153/96/64 152/96/64
f 153/96/77 154/96/77 156/96/77 155/96/77
f 152/96/21 153/96/21 155/96/21 157/96/21
f 151/96/78 152/96/78 157/96/78 158/96/78
f 154/96/20 151/96/20 158/96/20 156/96/20
s 0
f 183/97/2 192/98/2 191/99/2 190/100/2 189/101/2 188/102/2 187/103/2 186/104/2 185/105/2 184/106/2
f 203/97/2 212/98/2 211/99/2 210/100/2 209/101/2 208/102/2 207/103/2 206/104/2 205/105/2 204/106/2
f 189/101/79 190/100/79 200/100/79 199/101/79
f 186/104/80 187/103/80 197/103/80 196/104/80
f 183/97/81 184/106/81 193/106/81 194/97/81
f 190/100/82 191/99/82 201/99/82 200/100/82
f 187/103/83 188/102/83 198/102/83 197/103/83
f 184/106/84 185/105/84 195/105/84 193/106/84
f 191/99/85 192/98/85 202/98/85 201/99/85
f 188/102/86 189/101/86 199/101/86 198/102/86
f 185/105/87 186/104/87 196/104/87 195/105/87
f 192/98/88 183/97/88 194/97/88 202/98/88
f 209/101/79 210/100/79 220/100/79 219/101/79
f 206/104/80 207/103/80 217/103/80 216/104/80
f 203/97/81 204/106/81 213/106/81 214/97/81
f 210/100/82 211/99/82 221/99/82 220/100/82
f 207/103/83 208/102/83 218/102/83 217/103/83
f 204/106/84 205/105/84 215/105/84 213/106/84
f 211/99/85 212/98/85 222/98/85 221/99/85
f 208/102/86 209/101/86 219/101/86 218/102/86
f 205/105/87 206/104/87 216/104/87 215/105/87
f 212/98/88 203/97/88 214/97/88 222/98/88
f 223/97/2 232/98/2 231/99/2 230/100/2 229/101/2 228/102/2 227/103/2 226/104/2 225/105/2 224/106/2
f 229/101/79 230/100/79 240/100/79 239/101/79
f 226/104/80 227/103/80 237/103/80 236/104/80
f 223/97/81 224/106/81 233/106/81 234/97/81
f 230/100/82 231/99/82 241/99/82 240/100/82
f 227/103/83 228/102/83 238/102/83 237/103/83
f 224/106/84 225/105/84 235/105/84 233/106/84
f 231/99/85 232/98/85 242/98/85 241/99/85
f 228/102/86 229/101/86 239/101/86 238/102/86
f 225/105/87 226/104/87 236/104/87 235/105/87
f 232/98/88 223/97/88 234/97/88 242/98/88
f 243/97/2 252/98/2 251/99/2 250/100/2 249/101/2 248/102/2 247/103/2 246/104/2 245/105/2 244/106/2
f 249/101/79 250/100/79 260/100/79 259/101/79
f 246/104/80 247/103/80 257/103/80 256/104/80
f 243/97/81 244/106/81 253/106/81 254/97/81
f 250/100/82 251/99/82 261/99/82 260/100/82
f 247/103/83 248/102/83 258/102/83 257/103/83
f 244/106/84 245/105/84 255/105/84 253/106/84
f 251/99/85 252/98/85 262/98/85 261/99/85
f 248/102/86 249/101/86 259/101/86 258/102/86
f 245/105/87 246/104/87 256/104/87 255/105/87
f 252/98/88 243/97/88 254/97/88 262/98/88
s 1
f 265/51/89 270/51/89 283/107/90 272/108/91
f 271/109/92 284/110/93 279/111/94 274/112/95
f 275/113/96 286/114/97 269/50/98 263/50/98
f 273/115/99 280/116/100 267/6/101 266/6/101
f 279/111/102 284/117/103 285/118/103 282/119/102
f 283/120/104 270/51/105 269/50/105 286/114/104
f 264/49/106 268/49/106 281/121/107 278/122/108
f 274/123/109 277/124/109 276/125/110 271/126/110
f 267/6/111 280/116/112 281/127/112 268/49/111
f 277/128/113 282/119/114 285/129/115 276/130/116
f 272/131/117 275/132/117 263/50/118 265/51/118
f 266/6/119 264/49/119 278/122/120 273/133/120
f 278/122/120 277/124/109 274/123/109 273/133/120
f 276/125/110 275/132/117 272/131/117 271/126/110
f 282/119/102 281/127/112 280/116/112 279/111/102
f 286/114/104 285/118/103 284/117/103 283/120/104
f 275/113/96 276/130/116 285/129/115 286/114/97
f 281/121/107 282/119/114 277/128/113 278/122/108
f 273/115/99 274/112/95 279/111/94 280/116/100
f 283/107/90 284/110/93 271/109/92 272/108/91
usemtl acc_textures
f 110/74/64 111/75/64 113/76/64 112/77/64
s 0
usemtl RGB
f 115/78/64 116/79/64 117/80/64 118/81/64 119/82/64 120/83/64 121/84/64 122/85/64 123/86/64 124/87/64 125/88/64 114/89/64
f 117/80/65 129/80/65 130/81/65 118/81/65
f 124/87/66 136/87/66 137/88/66 125/88/66
f 114/89/67 127/89/67 126/78/67 115/78/67
f 121/84/68 133/84/68 134/85/68 122/85/68
f 118/81/69 130/81/69 131/82/69 119/82/69
f 125/88/70 137/88/70 127/89/70 114/89/70
f 115/78/71 126/78/71 128/79/71 116/79/71
f 122/85/72 134/85/72 135/86/72 123/86/72
f 119/82/73 131/82/73 132/83/73 120/83/73
f 116/79/74 128/79/74 129/80/74 117/80/74
f 123/86/75 135/86/75 136/87/75 124/87/75
f 120/83/76 132/83/76 133/84/76 121/84/76
f 160/78/64 161/79/64 162/80/64 163/81/64 164/82/64 165/83/64 166/84/64 167/85/64 168/86/64 169/87/64 170/88/64 159/89/64
f 162/80/65 174/80/65 175/81/65 163/81/65
f 169/87/66 181/87/66 182/88/66 170/88/66
f 159/89/67 172/89/67 171/78/67 160/78/67
f 166/84/68 178/84/68 179/85/68 167/85/68
f 163/81/69 175/81/69 176/82/69 164/82/69
f 170/88/70 182/88/70 172/89/70 159/89/70
f 160/78/71 171/78/71 173/79/71 161/79/71
f 167/85/72 179/85/72 180/86/72 168/86/72
f 164/82/73 176/82/73 177/83/73 165/83/73
f 161/79/74 173/79/74 174/80/74 162/80/74
f 168/86/75 180/86/75 181/87/75 169/87/75
f 165/83/76 177/83/76 178/84/76 166/84/76
