# Blender 3.6.2
# www.blender.org
mtllib PC_Keyboard_1.mtl
o PC_Keyboard_1
v -0.231110 -0.002679 0.119357
v -0.231110 0.009381 -0.080081
v 0.231110 -0.002679 0.119357
v 0.231110 0.009381 -0.080081
v 0.155530 0.026888 -0.050075
v 0.213688 0.026888 -0.050076
v -0.212844 0.027800 -0.066144
v 0.135732 0.027800 -0.066142
v 0.135733 0.026625 -0.045447
v -0.212844 0.026625 -0.045445
v -0.212844 0.024956 -0.021869
v 0.135733 0.024956 -0.021867
v 0.135733 0.021710 0.035340
v 0.066691 0.021710 0.035344
v 0.066691 0.019470 0.074823
v -0.212844 0.019470 0.074826
v 0.074810 0.019470 0.074823
v 0.130071 0.019470 0.074825
v 0.130071 0.020543 0.055908
v 0.112566 0.020543 0.055908
v 0.112566 0.021520 0.038681
v 0.091895 0.021520 0.038683
v 0.091903 0.020543 0.055908
v 0.074810 0.020543 0.055910
v 0.213688 0.027800 -0.066142
v 0.155530 0.027800 -0.066144
v 0.213688 0.025015 -0.022903
v 0.213688 0.020543 0.055903
v 0.155530 0.025015 -0.022904
v 0.155530 0.020543 0.055907
v 0.155530 0.018766 -0.051170
v 0.155530 0.019677 -0.067239
v 0.213688 0.018766 -0.051172
v -0.212844 0.019677 -0.067239
v 0.135732 0.019677 -0.067237
v 0.135733 0.018503 -0.046543
v -0.212844 0.018503 -0.046541
v -0.212844 0.016834 -0.022965
v 0.135733 0.016833 -0.022963
v 0.135733 0.013588 0.034245
v 0.066691 0.013587 0.034249
v 0.066691 0.011348 0.073727
v -0.212844 0.011347 0.073731
v 0.074810 0.011348 0.073727
v 0.130071 0.011347 0.073729
v 0.130071 0.012421 0.054813
v 0.112566 0.012421 0.054813
v 0.112566 0.013398 0.037585
v 0.091895 0.013398 0.037587
v 0.091903 0.012421 0.054813
v 0.074810 0.012421 0.054815
v 0.213688 0.016892 -0.023999
v 0.213688 0.012421 0.054807
v 0.213688 0.019677 -0.067237
v 0.155530 0.012421 0.054811
v 0.155530 0.016892 -0.024000
v -0.231110 0.014573 0.084244
v 0.231110 0.014573 0.084244
v -0.231110 0.024939 -0.073692
v -0.231110 0.021245 -0.078734
v -0.231110 0.024018 -0.076891
v 0.231110 0.021245 -0.078734
v 0.231110 0.024939 -0.073692
v 0.231110 0.024018 -0.076891
v -0.222511 0.012764 -0.075543
v -0.190739 0.012764 -0.075542
v -0.190739 0.011965 -0.064374
v -0.222511 0.011965 -0.064373
v -0.190739 -0.002679 -0.073901
v -0.222511 -0.002679 -0.073902
v -0.222511 -0.002679 -0.067661
v -0.190739 -0.002679 -0.067662
v 0.190223 0.012764 -0.075543
v 0.221995 0.012764 -0.075542
v 0.221995 0.011965 -0.064374
v 0.190223 0.011965 -0.064373
v 0.221995 -0.002679 -0.073901
v 0.190223 -0.002679 -0.073902
v 0.190223 -0.002679 -0.067661
v 0.221995 -0.002679 -0.067662
vn -1.0000 -0.0000 -0.0000
vn -0.0000 0.8975 0.4410
vn -0.0000 -0.9982 -0.0604
vn -0.0000 0.9984 0.0566
vn 0.0001 -0.1337 0.9910
vn -0.0000 -0.1337 0.9910
vn -0.0001 0.1337 -0.9910
vn 1.0000 -0.0000 -0.0000
vn -0.0000 0.1337 -0.9910
vn -1.0000 -0.0001 0.0005
vn -0.0000 0.1128 -0.9936
vn -0.0000 0.5536 -0.8328
vn -0.0000 0.9610 -0.2766
vn -0.0000 0.9979 0.0655
vn -0.0000 -1.0000 -0.0000
vn -0.0000 -0.2191 0.9757
vn -0.0000 -0.1057 -0.9944
vt 0.881993 0.711217
vt 0.881693 0.710854
vt 0.881428 0.708044
vt 0.881479 0.707983
vt 0.881615 0.707943
vt 0.881993 0.707890
vt 0.883725 0.701688
vt 0.884084 0.701688
vt 0.883725 0.709912
vt 0.878332 0.701688
vt 0.878332 0.709912
vt 0.875004 0.709912
vt 0.875004 0.701688
vt 0.796402 0.712770
vt 0.796402 0.714782
vt 0.796115 0.714782
vt 0.796115 0.712770
vt 0.797910 0.706568
vt 0.797910 0.711568
vt 0.797541 0.711568
vt 0.797541 0.706568
vt 0.795675 0.706568
vt 0.796697 0.706568
vt 0.796697 0.712770
vt 0.794970 0.712770
vt 0.794970 0.707796
vt 0.795675 0.707796
vt 0.789896 0.715775
vt 0.789896 0.715463
vt 0.789589 0.715463
vt 0.789589 0.715095
vt 0.789896 0.715096
vt 0.789896 0.714791
vt 0.790234 0.714791
vt 0.790234 0.715775
vt 0.789589 0.714791
vt 0.789589 0.716199
vt 0.788554 0.716199
vt 0.788554 0.714791
vt 0.788765 0.711074
vt 0.788542 0.711074
vt 0.788542 0.710040
vt 0.788765 0.710040
vt 0.793062 0.708018
vt 0.793286 0.708018
vt 0.793286 0.710030
vt 0.793062 0.710030
vt 0.789213 0.710407
vt 0.788989 0.710407
vt 0.788989 0.710040
vt 0.789213 0.710040
vt 0.788318 0.710745
vt 0.788094 0.710745
vt 0.788094 0.710040
vt 0.788318 0.710040
vt 0.792999 0.711438
vt 0.792775 0.711438
vt 0.792775 0.710030
vt 0.792999 0.710030
vt 0.795018 0.711816
vt 0.794795 0.711816
vt 0.794795 0.706816
vt 0.795018 0.706816
vt 0.790331 0.710347
vt 0.790108 0.710347
vt 0.790108 0.710040
vt 0.790331 0.710040
vt 0.794571 0.711789
vt 0.794347 0.711789
vt 0.794347 0.706816
vt 0.794571 0.706816
vt 0.787566 0.711074
vt 0.787342 0.711074
vt 0.787342 0.710040
vt 0.787566 0.710040
vt 0.788989 0.710409
vt 0.788765 0.710409
vt 0.790555 0.710344
vt 0.790331 0.710344
vt 0.790555 0.710040
vt 0.793286 0.711757
vt 0.793062 0.711757
vt 0.794795 0.701816
vt 0.795018 0.701816
vt 0.789660 0.710377
vt 0.789436 0.710377
vt 0.789436 0.710040
vt 0.789660 0.710040
vt 0.787789 0.711023
vt 0.787566 0.711023
vt 0.787789 0.710040
vt 0.788094 0.710409
vt 0.787871 0.710409
vt 0.787871 0.710040
vt 0.786895 0.710040
vt 0.787118 0.710040
vt 0.787118 0.711447
vt 0.786895 0.711447
vt 0.789436 0.710378
vt 0.789213 0.710378
vt 0.794795 0.708018
vt 0.794571 0.708018
vt 0.794571 0.701816
vt 0.794795 0.710030
vt 0.794571 0.710030
vt 0.789884 0.710040
vt 0.789884 0.710351
vt 0.789660 0.710351
vt 0.788542 0.711061
vt 0.788318 0.711061
vt 0.791002 0.710327
vt 0.790779 0.710327
vt 0.790779 0.710040
vt 0.791002 0.710040
vt 0.790779 0.710327
vt 0.790555 0.710327
vt 0.790108 0.710347
vt 0.789884 0.710347
vt 0.787342 0.711268
vt 0.787118 0.711268
vt 0.883148 0.701688
vt 0.883529 0.701688
vt 0.883529 0.709912
vt 0.883148 0.709912
vt 0.882565 0.711217
vt 0.882187 0.711165
vt 0.882051 0.711124
vt 0.882000 0.711064
vt 0.882265 0.708254
vt 0.882565 0.707890
vt 0.881421 0.701688
vt 0.881421 0.709912
vt 0.881346 0.709912
vt 0.881346 0.701688
vt 0.878524 0.709912
vt 0.878524 0.701688
vt 0.127768 0.957115
vt 0.127399 0.957115
vt 0.127399 0.962115
vt 0.127768 0.962115
s 0
usemtl palette
f 1/1/1 57/2/1 59/3/1 61/4/1 60/5/1 2/6/1
f 3/7/2 58/8/2 57/2/2 1/9/2
f 2/10/3 4/11/3 3/12/3 1/13/3
f 25/14/4 26/15/4 5/16/4 6/17/4
f 8/18/4 7/19/4 10/20/4 9/21/4
f 13/22/4 12/23/4 11/24/4 16/25/4 15/26/4 14/27/4
f 19/28/4 20/29/4 21/30/4 22/31/4 23/32/4 24/33/4 17/34/4 18/35/4
f 29/36/4 30/37/4 28/38/4 27/39/4
f 30/40/5 55/41/5 53/42/5 28/43/5
f 5/44/6 31/45/6 33/46/6 6/47/6
f 21/48/7 48/49/7 49/50/7 22/51/7
f 15/52/8 42/53/8 41/54/8 14/55/8
f 29/56/1 56/57/1 55/58/1 30/59/1
f 8/60/9 35/61/9 34/62/9 7/63/9
f 22/64/10 49/65/10 50/66/10 23/67/10
f 16/68/6 43/69/6 42/70/6 15/71/6
f 27/72/9 52/73/9 56/74/9 29/75/9
f 9/76/8 36/77/8 35/43/8 8/50/8
f 23/78/7 50/79/7 51/67/7 24/80/7
f 11/81/1 38/82/1 43/47/1 16/46/1
f 10/63/6 37/62/6 36/83/6 9/84/6
f 24/85/1 51/86/1 44/87/1 17/88/1
f 17/89/6 44/90/6 45/75/6 18/91/6
f 7/92/1 34/93/1 37/94/1 10/54/1
f 28/95/8 53/96/8 52/97/8 27/98/8
f 18/99/8 45/100/8 46/51/8 19/87/8
f 12/101/9 39/102/9 38/103/9 11/83/9
f 25/102/9 54/101/9 32/104/9 26/105/9
f 19/88/9 46/106/9 47/107/9 20/108/9
f 13/55/8 40/42/8 39/109/8 12/110/8
f 6/111/8 33/112/8 54/113/8 25/114/8
f 26/80/1 32/113/1 31/115/1 5/116/1
f 20/106/8 47/66/8 48/117/8 21/118/8
f 14/119/5 41/120/5 40/96/5 13/74/5
f 2/121/11 60/122/11 62/123/11 4/124/11
f 4/125/8 62/126/8 64/127/8 63/128/8 58/129/8 3/130/8
f 62/123/12 60/122/12 61/7/12 64/9/12
f 64/131/13 61/132/13 59/133/13 63/134/13
f 59/133/14 57/135/14 58/136/14 63/134/14
f 69/137/15 72/138/15 71/139/15 70/140/15
f 67/138/8 72/138/8 69/137/8 66/137/8
f 65/140/1 70/140/1 71/139/1 68/139/1
f 68/139/16 71/139/16 72/138/16 67/138/16
f 66/137/17 69/137/17 70/140/17 65/140/17
f 77/137/15 80/138/15 79/139/15 78/140/15
f 75/138/8 80/138/8 77/137/8 74/137/8
f 73/140/1 78/140/1 79/139/1 76/139/1
f 76/139/16 79/139/16 80/138/16 75/138/16
f 74/137/17 77/137/17 78/140/17 73/140/17
