# Blender 3.6.2
# www.blender.org
mtllib PC_Keyboard_3.mtl
o PC_Keyboard_3
v -0.178943 -0.000530 0.080756
v -0.178943 0.008276 -0.062148
v 0.178943 -0.000530 0.080756
v 0.178943 0.008276 -0.062148
v 0.155530 0.026888 -0.050075
v 0.213688 0.026888 -0.050076
v -0.212844 0.027800 -0.066144
v 0.135732 0.027800 -0.066142
v 0.135733 0.026625 -0.045447
v -0.212844 0.026625 -0.045445
v -0.212844 0.026486 -0.034655
v 0.135733 0.026486 -0.034653
v 0.135733 0.021710 0.035340
v 0.066691 0.021710 0.035344
v 0.066691 0.019470 0.074823
v -0.212844 0.019470 0.074826
v 0.074810 0.019470 0.074823
v 0.130071 0.019470 0.074825
v 0.130071 0.020543 0.055908
v 0.112566 0.020543 0.055908
v 0.112566 0.021520 0.038681
v 0.091895 0.021520 0.038683
v 0.091903 0.020543 0.055908
v 0.074810 0.020543 0.055910
v 0.213688 0.027800 -0.066142
v 0.155530 0.027800 -0.066144
v 0.213688 0.026545 -0.035689
v 0.213688 0.020543 0.055903
v 0.155530 0.026545 -0.035690
v 0.155530 0.020543 0.055907
v 0.155530 0.018766 -0.051170
v 0.155530 0.019677 -0.067239
v 0.213688 0.018766 -0.051172
v -0.212844 0.019677 -0.067239
v 0.135732 0.019677 -0.067237
v 0.135733 0.018503 -0.046543
v -0.212844 0.018503 -0.046541
v -0.212844 0.018364 -0.035751
v 0.135733 0.018364 -0.035749
v 0.135733 0.013588 0.034245
v 0.066691 0.013587 0.034249
v 0.066691 0.011348 0.073727
v -0.212844 0.011347 0.073731
v 0.074810 0.011348 0.073727
v 0.130071 0.011347 0.073729
v 0.130071 0.012421 0.054813
v 0.112566 0.012421 0.054813
v 0.112566 0.013398 0.037585
v 0.091895 0.013398 0.037587
v 0.091903 0.012421 0.054813
v 0.074810 0.012421 0.054815
v 0.213688 0.018422 -0.036785
v 0.213688 0.012421 0.054807
v 0.213688 0.019677 -0.067237
v 0.155530 0.012421 0.054811
v 0.155530 0.018422 -0.036786
v -0.224436 0.024939 -0.073692
v -0.224436 0.021245 -0.078734
v -0.224436 0.024018 -0.076891
v 0.224436 0.021245 -0.078734
v 0.224436 0.024939 -0.073692
v 0.224436 0.024018 -0.076891
v -0.213886 0.010305 -0.075543
v -0.182114 0.010305 -0.075542
v 0.182114 -0.002679 -0.077457
v 0.213886 -0.002679 -0.077457
v -0.182114 -0.002679 -0.077457
v -0.213886 -0.002679 -0.077457
v -0.213886 -0.002679 -0.073001
v -0.182114 -0.002679 -0.073001
v -0.213886 -0.002679 0.093136
v -0.182114 -0.002679 0.093135
v -0.182114 0.000289 0.095868
v -0.213886 0.000289 0.095869
v 0.213886 0.010305 -0.075542
v -0.213886 0.004689 -0.065672
v -0.182114 0.004689 -0.065673
v 0.182114 0.010305 -0.075543
v -0.224436 0.006239 0.096429
v -0.224436 0.014587 0.086234
v -0.224436 0.011943 0.092585
v 0.224436 0.014587 0.086234
v 0.224436 0.006239 0.096429
v 0.224436 0.011943 0.092585
v 0.182114 -0.002679 -0.073001
v 0.213886 -0.002679 -0.073001
v 0.182114 -0.002679 0.093136
v 0.213886 -0.002679 0.093135
v 0.213886 0.000289 0.095868
v 0.182114 0.000289 0.095869
v 0.182114 0.004689 -0.065672
v 0.213886 0.004689 -0.065673
v 0.051071 0.027800 -0.066142
v -0.194800 0.027800 -0.066143
v -0.194800 0.026625 -0.045446
v 0.051072 0.026625 -0.045446
v 0.051071 0.019677 -0.067238
v -0.194800 0.019677 -0.067239
v -0.194800 0.018503 -0.046541
v 0.051072 0.018503 -0.046542
v 0.224436 0.009381 -0.080081
v -0.224436 0.009381 -0.080081
v -0.224436 -0.001635 0.098689
v 0.224436 -0.001635 0.098689
v 0.216237 0.008877 -0.071897
v -0.216237 0.008877 -0.071897
v -0.216237 -0.001131 0.090506
v 0.216237 -0.001131 0.090506
vn 1.0000 -0.0000 -0.0000
vn -1.0000 -0.0000 -0.0000
vn -0.0000 -0.9981 -0.0615
vn -0.0000 0.9984 0.0566
vn 0.0004 0.9979 0.0645
vn -0.0000 0.9979 0.0654
vn 0.0001 -0.1337 0.9910
vn -0.0000 -0.1337 0.9910
vn -0.0001 0.1337 -0.9910
vn -0.0000 0.1337 -0.9910
vn -1.0000 -0.0001 0.0005
vn -0.0000 0.1128 -0.9936
vn -0.0000 0.3428 -0.9394
vn -0.0000 0.5536 -0.8328
vn -0.0000 0.9610 -0.2766
vn -0.0000 0.9942 -0.1076
vn -0.0000 0.2759 0.9612
vn -0.0000 0.4226 0.9063
vn -0.0000 -1.0000 -0.0000
vn -0.0000 0.1459 -0.9893
vn -0.0000 -0.7051 0.7091
vn -0.0000 -0.6774 0.7356
vn -0.0000 0.9738 0.2276
vn -0.0000 0.7737 0.6336
vn -0.0000 -0.9989 -0.0464
vt 0.882565 0.711217
vt 0.882187 0.711165
vt 0.882051 0.711124
vt 0.882000 0.711064
vt 0.882253 0.708375
vt 0.882305 0.708240
vt 0.882409 0.708080
vt 0.882565 0.707890
vt 0.881993 0.711217
vt 0.881836 0.711028
vt 0.881733 0.710867
vt 0.881681 0.710733
vt 0.881428 0.708044
vt 0.881479 0.707983
vt 0.881615 0.707943
vt 0.881993 0.707890
vt 0.877998 0.702017
vt 0.877998 0.709583
vt 0.875338 0.709583
vt 0.875338 0.702017
vt 0.796402 0.712770
vt 0.796402 0.714782
vt 0.796115 0.714782
vt 0.796115 0.712770
vt 0.797910 0.709901
vt 0.797910 0.711568
vt 0.797541 0.711568
vt 0.797541 0.709901
vt 0.795675 0.706568
vt 0.796697 0.706568
vt 0.796697 0.712770
vt 0.794970 0.712770
vt 0.794970 0.707796
vt 0.795675 0.707796
vt 0.470099 0.966322
vt 0.470099 0.966011
vt 0.469792 0.966011
vt 0.469792 0.965643
vt 0.470099 0.965643
vt 0.470099 0.965339
vt 0.470437 0.965339
vt 0.470437 0.966322
vt 0.789589 0.714791
vt 0.789589 0.716199
vt 0.788554 0.716199
vt 0.788554 0.714791
vt 0.788765 0.711074
vt 0.788542 0.711074
vt 0.788542 0.710040
vt 0.788765 0.710040
vt 0.793062 0.708018
vt 0.793286 0.708018
vt 0.793286 0.710030
vt 0.793062 0.710030
vt 0.469416 0.960955
vt 0.469192 0.960955
vt 0.469192 0.960587
vt 0.469416 0.960587
vt 0.788318 0.710745
vt 0.788094 0.710745
vt 0.788094 0.710040
vt 0.788318 0.710040
vt 0.792999 0.711438
vt 0.792775 0.711438
vt 0.792775 0.710030
vt 0.792999 0.710030
vt 0.795018 0.708483
vt 0.794795 0.708483
vt 0.794795 0.706816
vt 0.795018 0.706816
vt 0.470534 0.960895
vt 0.470311 0.960895
vt 0.470311 0.960587
vt 0.470534 0.960587
vt 0.794571 0.711789
vt 0.794347 0.711789
vt 0.794347 0.706816
vt 0.794571 0.706816
vt 0.787566 0.711074
vt 0.787342 0.711074
vt 0.787342 0.710040
vt 0.787566 0.710040
vt 0.788989 0.710409
vt 0.788765 0.710409
vt 0.788989 0.710040
vt 0.470758 0.960891
vt 0.470534 0.960891
vt 0.470758 0.960587
vt 0.793286 0.711757
vt 0.793062 0.711757
vt 0.795018 0.703483
vt 0.794795 0.703483
vt 0.794795 0.701816
vt 0.795018 0.701816
vt 0.469863 0.960925
vt 0.469640 0.960925
vt 0.469640 0.960587
vt 0.469863 0.960587
vt 0.467993 0.961571
vt 0.467769 0.961571
vt 0.467769 0.960587
vt 0.467993 0.960587
vt 0.788094 0.710409
vt 0.787871 0.710409
vt 0.787871 0.710040
vt 0.786895 0.710040
vt 0.787118 0.710040
vt 0.787118 0.711447
vt 0.786895 0.711447
vt 0.469640 0.960925
vt 0.469416 0.960925
vt 0.794795 0.708018
vt 0.794571 0.708018
vt 0.794571 0.701816
vt 0.794795 0.710030
vt 0.794571 0.710030
vt 0.470087 0.960587
vt 0.470087 0.960899
vt 0.469863 0.960899
vt 0.788542 0.711061
vt 0.788318 0.711061
vt 0.791002 0.710327
vt 0.790779 0.710327
vt 0.790779 0.710040
vt 0.791002 0.710040
vt 0.790555 0.710040
vt 0.790779 0.710327
vt 0.790555 0.710327
vt 0.470311 0.960895
vt 0.470087 0.960895
vt 0.787342 0.711268
vt 0.787118 0.711268
vt 0.883148 0.701688
vt 0.883529 0.701688
vt 0.883529 0.709912
vt 0.883148 0.709912
vt 0.883725 0.701688
vt 0.883725 0.709912
vt 0.881421 0.701688
vt 0.881421 0.709912
vt 0.881346 0.709912
vt 0.881346 0.701688
vt 0.883912 0.701688
vt 0.882665 0.710403
vt 0.127768 0.957115
vt 0.127399 0.957115
vt 0.127399 0.962115
vt 0.127768 0.962115
vt 0.127396 0.962115
vt 0.127396 0.957115
vt 0.127396 0.957115
vt 0.878646 0.701688
vt 0.878646 0.709912
vt 0.878524 0.709912
vt 0.878524 0.701688
vt 0.884084 0.701688
vt 0.881693 0.710854
vt 0.794795 0.705149
vt 0.795018 0.705149
vt 0.463276 0.955697
vt 0.463053 0.955697
vt 0.463053 0.954030
vt 0.463276 0.954030
vt 0.795018 0.711816
vt 0.794795 0.711816
vt 0.794795 0.710149
vt 0.795018 0.710149
vt 0.463276 0.960697
vt 0.463053 0.960697
vt 0.463053 0.959030
vt 0.463276 0.959030
vt 0.797910 0.706568
vt 0.797910 0.708234
vt 0.797541 0.708234
vt 0.797541 0.706568
vt 0.466168 0.958782
vt 0.466168 0.960449
vt 0.465799 0.960449
vt 0.465799 0.958782
vt 0.878179 0.709762
vt 0.878179 0.701838
vt 0.878332 0.701688
vt 0.878332 0.709912
vt 0.875157 0.701838
vt 0.875157 0.709762
vt 0.875004 0.709912
vt 0.875004 0.701688
s 1
usemtl palette
f 101/1/1 60/2/1 62/3/1 61/4/1 82/5/1 84/6/1 83/7/1 104/8/1
f 103/9/2 79/10/2 81/11/2 80/12/2 57/13/2 59/14/2 58/15/2 102/16/2
f 2/17/3 4/18/3 3/19/3 1/20/3
f 25/21/4 26/22/4 5/23/4 6/24/4
f 94/25/4 7/26/4 10/27/4 95/28/4
f 13/29/5 12/30/5 11/31/5 16/32/5 15/33/5 14/34/5
f 29/43/6 30/44/6 28/45/6 27/46/6
f 30/47/7 55/48/7 53/49/7 28/50/7
f 5/51/8 31/52/8 33/53/8 6/54/8
f 15/59/1 42/60/1 41/61/1 14/62/1
f 29/63/2 56/64/2 55/65/2 30/66/2
f 94/67/10 98/68/10 34/69/10 7/70/10
f 16/75/8 43/76/8 42/77/8 15/78/8
f 27/79/10 52/80/10 56/81/10 29/82/10
f 9/83/1 36/84/1 35/50/1 8/85/1
f 11/89/2 38/90/2 43/54/2 16/53/2
f 96/91/8 100/92/8 36/93/8 9/94/8
f 7/103/2 34/104/2 37/105/2 10/61/2
f 28/106/1 53/107/1 52/108/1 27/109/1
f 12/112/10 39/113/10 38/114/10 11/93/10
f 25/113/10 54/112/10 32/115/10 26/116/10
f 13/62/1 40/49/1 39/120/1 12/121/1
f 6/122/1 33/123/1 54/124/1 25/125/1
f 26/126/2 32/124/2 31/127/2 5/128/2
f 14/131/7 41/132/7 40/107/7 13/81/7
f 102/133/12 58/134/13 60/135/13 101/136/12
f 60/135/13 58/134/13 59/137/14 62/138/14
f 62/139/15 59/140/15 57/141/16 61/142/16
f 104/137/17 83/143/18 79/144/18 103/138/17
f 67/145/19 70/146/19 69/147/19 68/148/19
f 64/145/20 67/145/20 68/148/20 63/148/20
f 63/148/2 68/148/2 69/147/2 76/149/2 71/149/2 74/147/2
f 76/149/21 69/147/21 70/146/21 77/150/21
f 66/145/19 86/146/19 85/147/19 65/148/19
f 75/145/20 66/145/20 65/148/20 78/148/20
f 90/147/22 87/149/22 88/151/22 89/146/22
f 91/149/21 85/147/21 86/146/21 92/150/21
f 78/148/2 65/148/2 85/147/2 91/149/2 87/149/2 90/147/2
f 74/147/22 71/149/22 72/151/22 73/146/22
f 82/152/23 80/153/23 81/154/24 84/155/24
f 84/156/24 81/157/24 79/144/18 83/143/18
f 57/141/16 80/153/23 82/152/23 61/142/16
f 91/149/25 92/150/25 88/151/25 87/149/25
f 76/149/25 77/150/25 72/151/25 71/149/25
f 64/145/1 73/146/1 72/151/1 77/150/1 70/146/1 67/145/1
f 75/145/1 89/146/1 88/151/1 92/150/1 86/146/1 66/145/1
f 10/70/8 37/69/8 99/158/8 95/159/8
f 8/164/10 35/165/10 97/166/10 93/167/10
f 8/172/4 93/173/4 96/174/4 9/175/4
f 105/180/3 106/181/3 102/182/3 101/183/3
f 107/184/3 108/185/3 104/186/3 103/187/3
f 108/185/3 105/180/3 101/183/3 104/186/3
f 106/181/3 107/184/3 103/187/3 102/182/3
usemtl RGB
f 19/35/4 20/36/4 21/37/4 22/38/4 23/39/4 24/40/4 17/41/4 18/42/4
f 21/55/9 48/56/9 49/57/9 22/58/9
f 22/71/11 49/72/11 50/73/11 23/74/11
f 23/86/9 50/87/9 51/74/9 24/88/9
f 24/95/2 51/96/2 44/97/2 17/98/2
f 17/99/8 44/100/8 45/101/8 18/102/8
f 18/110/1 45/111/1 46/58/1 19/97/1
f 19/98/10 46/117/10 47/118/10 20/119/10
f 20/117/1 47/73/1 48/129/1 21/130/1
f 95/160/8 99/161/8 100/162/8 96/163/8
f 93/168/10 97/169/10 98/170/10 94/171/10
f 93/176/4 94/177/4 95/178/4 96/179/4
f 4/18/3 2/17/3 106/181/3 105/180/3
f 1/20/3 3/19/3 108/185/3 107/184/3
f 3/19/3 4/18/3 105/180/3 108/185/3
f 2/17/3 1/20/3 107/184/3 106/181/3
