# Blender 3.6.2
# www.blender.org
mtllib PC_Keyboard_2_Mini.mtl
o PC_Keyboard_2_Mini
v -0.143103 0.026970 -0.051515
v 0.147163 0.026970 -0.051513
v 0.147163 0.025796 -0.030819
v -0.143103 0.025796 -0.030817
v -0.143103 0.024956 -0.021869
v 0.147164 0.024956 -0.021867
v 0.147164 0.021710 0.035340
v 0.078121 0.021710 0.035344
v 0.078122 0.019470 0.074823
v -0.143103 0.019470 0.074826
v 0.086241 0.019470 0.074823
v 0.141501 0.019470 0.074825
v 0.141502 0.020543 0.055908
v 0.123997 0.020543 0.055908
v 0.123997 0.021520 0.038681
v 0.103326 0.021520 0.038683
v 0.103334 0.020543 0.055908
v 0.086241 0.020543 0.055910
v -0.143103 0.018848 -0.052611
v 0.147163 0.018848 -0.052609
v 0.147163 0.017673 -0.031915
v -0.143103 0.017673 -0.031913
v -0.143103 0.016834 -0.022965
v 0.147164 0.016833 -0.022963
v 0.147164 0.013588 0.034245
v 0.078121 0.013587 0.034249
v 0.078122 0.011348 0.073727
v -0.143103 0.011347 0.073731
v 0.086241 0.011348 0.073727
v 0.141501 0.011347 0.073729
v 0.141502 0.012421 0.054813
v 0.123997 0.012421 0.054813
v 0.123997 0.013398 0.037585
v 0.103326 0.013398 0.037587
v 0.103334 0.012421 0.054813
v 0.086241 0.012421 0.054815
v 0.155044 0.011698 0.082182
v -0.155044 0.011698 0.082182
v -0.155044 0.018983 -0.059000
v 0.155044 0.018983 -0.059000
v -0.137920 0.008438 -0.056743
v -0.116244 0.008438 -0.056742
v -0.116244 0.007639 -0.045574
v -0.137920 0.007639 -0.045573
v -0.116244 -0.002679 -0.055102
v -0.137920 -0.002679 -0.055102
v -0.137920 -0.002679 -0.048861
v -0.116244 -0.002679 -0.048862
v 0.117082 0.008438 -0.056743
v 0.138757 0.008438 -0.056742
v 0.138757 0.007639 -0.045574
v 0.117082 0.007639 -0.045573
v 0.138757 -0.002679 -0.055102
v 0.117082 -0.002679 -0.055102
v 0.117082 -0.002679 -0.048861
v 0.138757 -0.002679 -0.048862
v -0.155044 -0.001578 0.080896
v -0.155044 0.006890 -0.060286
v 0.155044 -0.001578 0.080896
v 0.155044 0.006890 -0.060286
vn -0.0000 0.9984 0.0566
vn -0.0001 0.1337 -0.9910
vn 1.0000 -0.0000 -0.0000
vn -0.0000 0.1337 -0.9910
vn -1.0000 -0.0001 0.0005
vn -0.0000 -0.1337 0.9910
vn -1.0000 -0.0000 -0.0000
vn 0.0001 -0.1337 0.9910
vn -0.0000 -0.0964 0.9953
vn -0.0000 0.9987 0.0515
vn -0.0000 0.1058 -0.9944
vn -0.0000 -1.0000 -0.0000
vn -0.0000 -0.3036 0.9528
vn -0.0000 -0.1460 -0.9893
vn -0.0000 -0.9982 -0.0599
vt 0.797910 0.706568
vt 0.797910 0.711568
vt 0.797541 0.711568
vt 0.797541 0.706568
vt 0.795675 0.706568
vt 0.796697 0.706568
vt 0.796697 0.712770
vt 0.794970 0.712770
vt 0.794970 0.707796
vt 0.795675 0.707796
vt 0.544912 0.883098
vt 0.544912 0.882786
vt 0.544605 0.882786
vt 0.544605 0.882418
vt 0.544912 0.882418
vt 0.544912 0.882114
vt 0.545250 0.882114
vt 0.545250 0.883098
vt 0.544229 0.877730
vt 0.544005 0.877730
vt 0.544005 0.877363
vt 0.544229 0.877363
vt 0.788318 0.710745
vt 0.788094 0.710745
vt 0.788094 0.710040
vt 0.788318 0.710040
vt 0.795018 0.711816
vt 0.794795 0.711816
vt 0.794795 0.706816
vt 0.795018 0.706816
vt 0.545347 0.877670
vt 0.545124 0.877670
vt 0.545124 0.877363
vt 0.545347 0.877363
vt 0.794571 0.711789
vt 0.794347 0.711789
vt 0.794347 0.706816
vt 0.794571 0.706816
vt 0.788989 0.710409
vt 0.788765 0.710409
vt 0.788765 0.710040
vt 0.788989 0.710040
vt 0.545571 0.877667
vt 0.545347 0.877667
vt 0.545571 0.877363
vt 0.793286 0.711757
vt 0.793062 0.711757
vt 0.793062 0.710030
vt 0.793286 0.710030
vt 0.794795 0.701816
vt 0.795018 0.701816
vt 0.544676 0.877700
vt 0.544453 0.877700
vt 0.544453 0.877363
vt 0.544676 0.877363
vt 0.542805 0.878346
vt 0.542582 0.878346
vt 0.542582 0.877363
vt 0.542805 0.877363
vt 0.788094 0.710409
vt 0.787871 0.710409
vt 0.787871 0.710040
vt 0.544453 0.877700
vt 0.544229 0.877700
vt 0.794795 0.708018
vt 0.794571 0.708018
vt 0.794571 0.701816
vt 0.544900 0.877363
vt 0.544900 0.877674
vt 0.544676 0.877674
vt 0.788542 0.710040
vt 0.788542 0.711061
vt 0.788318 0.711061
vt 0.545124 0.877670
vt 0.544900 0.877670
vt 0.787342 0.711268
vt 0.787118 0.711268
vt 0.787118 0.710040
vt 0.787342 0.710040
vt 0.875004 0.709912
vt 0.875004 0.701688
vt 0.878332 0.701688
vt 0.878332 0.709912
vt 0.127768 0.957115
vt 0.127399 0.957115
vt 0.127399 0.962115
vt 0.127768 0.962115
s 0
usemtl palette
f 2/1/1 1/2/1 4/3/1 3/4/1
f 7/5/1 6/6/1 5/7/1 10/8/1 9/9/1 8/10/1
f 13/11/1 14/12/1 15/13/1 16/14/1 17/15/1 18/16/1 11/17/1 12/18/1
f 15/19/2 33/20/2 34/21/2 16/22/2
f 9/23/3 27/24/3 26/25/3 8/26/3
f 2/27/4 20/28/4 19/29/4 1/30/4
f 16/31/5 34/32/5 35/33/5 17/34/5
f 10/35/6 28/36/6 27/37/6 9/38/6
f 3/39/3 21/40/3 20/41/3 2/42/3
f 17/43/2 35/44/2 36/34/2 18/45/2
f 5/46/7 23/47/7 28/48/7 10/49/7
f 4/30/6 22/29/6 21/50/6 3/51/6
f 18/52/7 36/53/7 29/54/7 11/55/7
f 11/56/6 29/57/6 30/58/6 12/59/6
f 1/60/7 19/61/7 22/62/7 4/25/7
f 12/63/3 30/64/3 31/22/3 13/54/3
f 6/65/4 24/66/4 23/67/4 5/50/4
f 13/55/4 31/68/4 32/69/4 14/70/4
f 7/26/3 25/71/3 24/72/3 6/73/3
f 14/68/3 32/33/3 33/74/3 15/75/3
f 8/76/8 26/77/8 25/78/8 7/79/8
f 59/80/9 37/80/9 38/81/9 57/81/9
f 57/81/7 38/81/7 39/82/7 58/82/7
f 39/82/10 38/81/10 37/80/10 40/83/10
f 60/83/3 40/83/3 37/80/3 59/80/3
f 58/82/11 39/82/11 40/83/11 60/83/11
f 45/84/12 48/85/12 47/86/12 46/87/12
f 43/85/3 48/85/3 45/84/3 42/84/3
f 41/87/7 46/87/7 47/86/7 44/86/7
f 44/86/13 47/86/13 48/85/13 43/85/13
f 42/84/14 45/84/14 46/87/14 41/87/14
f 53/84/12 56/85/12 55/86/12 54/87/12
f 51/85/3 56/85/3 53/84/3 50/84/3
f 49/87/7 54/87/7 55/86/7 52/86/7
f 52/86/13 55/86/13 56/85/13 51/85/13
f 50/84/14 53/84/14 54/87/14 49/87/14
f 58/82/15 60/83/15 59/80/15 57/81/15
