# Blender 3.6.2
# www.blender.org
mtllib PC_Mouse_2.mtl
o PC_Mouse_2
v 0.045070 -0.000183 -0.041382
v 0.020265 -0.000183 0.066749
v -0.000005 -0.000183 -0.041382
v -0.000005 -0.000182 -0.097084
v -0.003389 -0.000183 0.069540
v 0.006122 0.039838 -0.074615
v 0.006122 0.039838 -0.046916
v 0.006122 0.048133 -0.050973
v 0.006122 0.051569 -0.060766
v 0.006122 0.048133 -0.070559
v -0.000005 0.039838 -0.076935
v -0.000005 0.039838 -0.044596
v -0.000005 0.049523 -0.049332
v -0.000005 0.053535 -0.060765
v -0.000005 0.049523 -0.072199
v 0.047830 0.025894 -0.041382
v 0.036954 0.041463 -0.041382
v 0.045162 0.036099 -0.041382
v 0.019190 0.027572 0.054963
v 0.021162 0.006556 0.065395
v 0.020731 0.018089 0.060621
v -0.000005 0.020920 -0.102904
v -0.000005 0.033747 -0.076935
v -0.003323 0.008548 0.068137
v -0.001644 0.028241 0.055525
v -0.003138 0.016928 0.064410
v 0.040790 -0.000183 0.020227
v 0.034884 -0.000183 0.048901
v -0.000184 0.037133 0.042488
v 0.001169 0.043465 0.016509
v 0.033365 0.038639 0.018465
v 0.024950 0.032147 0.046007
v 0.037183 0.014922 0.047160
v 0.043513 0.023130 0.018681
v 0.034052 0.024673 0.046187
v 0.040304 0.032517 0.018658
v 0.042270 0.034791 0.000546
v 0.003911 0.045715 0.000377
v 0.035888 0.039754 0.000322
v 0.044777 0.025474 0.001099
v 0.042043 0.000571 0.002192
v 0.009342 0.034070 -0.090996
v 0.010207 0.047108 -0.041505
v 0.009342 0.028872 -0.098373
v 0.001392 0.047012 -0.038631
v 0.009066 0.020074 -0.099622
v -0.000005 0.030822 -0.091334
v 0.006122 0.033747 -0.074615
v 0.007805 0.030543 -0.089377
v 0.014720 0.045714 0.000616
v -0.003743 0.042576 -0.013176
v 0.003733 0.048607 -0.034372
v -0.003748 0.042293 -0.005082
v 0.003737 0.048323 -0.026278
v 0.003737 0.043156 -0.026276
v -0.003748 0.047460 -0.005085
v -0.003743 0.047743 -0.013178
v 0.003733 0.043439 -0.034369
v 0.003733 0.042576 -0.013176
v 0.003733 0.048146 -0.023945
v 0.003737 0.042293 -0.005082
v 0.003737 0.047863 -0.015851
v 0.003737 0.042696 -0.015849
v 0.003737 0.047460 -0.005085
v 0.003733 0.047743 -0.013178
v 0.003733 0.042979 -0.023942
v 0.005130 0.039838 -0.075290
v 0.005130 0.048538 -0.050495
v 0.005130 0.052141 -0.060766
v 0.005130 0.048538 -0.071036
v 0.005130 0.039838 -0.046241
v 0.005130 0.033747 -0.075290
v -0.043279 -0.000183 -0.041382
v -0.025928 -0.000183 0.061799
v -0.006132 0.039838 -0.074615
v -0.006132 0.039838 -0.046916
v -0.006132 0.048133 -0.050973
v -0.006132 0.051569 -0.060766
v -0.006132 0.048133 -0.070559
v -0.044678 0.025894 -0.041382
v -0.033668 0.041463 -0.041382
v -0.041837 0.036099 -0.041382
v -0.023919 0.027572 0.050399
v -0.026650 0.006556 0.060394
v -0.025849 0.018089 0.055658
v -0.036888 -0.000183 0.017911
v -0.037393 -0.000183 0.043948
v -0.028540 0.038639 0.014307
v -0.026675 0.032147 0.040876
v -0.038179 0.014922 0.042044
v -0.039592 0.023130 0.016316
v -0.036051 0.024673 0.040819
v -0.037239 0.032517 0.014767
v -0.038081 0.034791 0.000546
v -0.029362 0.039754 0.000322
v -0.040723 0.025474 0.000505
v -0.037977 0.000571 0.001488
v -0.009352 0.034070 -0.090996
v -0.008148 0.047108 -0.041505
v -0.009353 0.028872 -0.098373
v -0.009076 0.020074 -0.099622
v -0.006132 0.033747 -0.074615
v -0.007816 0.030543 -0.089377
v -0.007003 0.045714 0.000105
v -0.003743 0.048607 -0.034372
v -0.003748 0.048323 -0.026278
v -0.003748 0.043156 -0.026276
v -0.003743 0.043439 -0.034369
v -0.003743 0.048146 -0.023945
v -0.003748 0.047863 -0.015851
v -0.003748 0.042696 -0.015849
v -0.003743 0.042979 -0.023942
v -0.005140 0.039838 -0.075290
v -0.005140 0.048538 -0.050495
v -0.005140 0.052141 -0.060766
v -0.005140 0.048538 -0.071036
v -0.005140 0.039838 -0.046241
v -0.005140 0.033747 -0.075290
v 0.031844 -0.000183 -0.087474
v 0.046590 -0.000183 -0.066265
v 0.042688 -0.000183 -0.079294
v 0.036112 0.036104 -0.068073
v 0.019304 0.033173 -0.088130
v 0.030988 0.033423 -0.080311
v 0.047672 0.020907 -0.072811
v 0.031683 0.018338 -0.092885
v 0.042957 0.018585 -0.085042
v 0.027987 0.027365 -0.092930
v 0.044442 0.030108 -0.072856
v 0.039477 0.027629 -0.085104
v -0.045872 -0.000183 -0.066158
v -0.031855 -0.000183 -0.087474
v -0.042485 -0.000183 -0.079262
v -0.019314 0.033173 -0.088130
v -0.034905 0.036183 -0.067798
v -0.030642 0.033446 -0.080230
v -0.031693 0.018338 -0.092885
v -0.046637 0.020941 -0.072673
v -0.042661 0.018595 -0.085001
v -0.043349 0.030155 -0.072676
v -0.027997 0.027365 -0.092930
v -0.039164 0.027643 -0.085051
v 0.046015 0.032837 -0.041382
v 0.020869 0.014402 0.062147
v -0.003197 0.014249 0.065603
v 0.009315 0.045714 0.000496
v 0.035053 0.021556 0.046498
v 0.041330 0.029516 0.018665
v 0.043071 0.031813 0.000723
v 0.009254 0.026060 -0.098772
v -0.042745 0.032837 -0.041382
v -0.026105 0.014402 0.057172
v 0.005954 0.047012 -0.038623
v -0.036731 0.021556 0.041210
v -0.037988 0.029516 0.015237
v -0.038908 0.031813 0.000382
v -0.009264 0.026060 -0.098772
v 0.029168 0.024479 -0.092916
v 0.040589 0.024738 -0.085084
v 0.045475 0.027167 -0.072841
v -0.044400 0.027210 -0.072675
v -0.040282 0.024751 -0.085035
v -0.029179 0.024479 -0.092916
v -0.001546 0.045714 0.000241
v -0.003339 0.047012 -0.038641
vn 0.3571 0.8040 0.4754
vn -0.0327 0.9230 0.3834
vn -0.0665 0.7214 0.6893
vn 0.2416 0.6801 0.6922
vn 0.9921 -0.1072 0.0654
vn 0.9920 0.0939 0.0838
vn 0.9794 0.1086 0.1703
vn 0.9852 -0.1103 0.1313
vn 0.2290 0.7978 -0.5577
vn 0.2052 0.8799 -0.4285
vn 0.2169 0.8885 -0.4045
vn 0.2778 0.8218 -0.4975
vn 0.4248 0.8992 0.1050
vn 0.3832 0.9198 -0.0848
vn 0.1484 0.9862 -0.0733
vn 0.1311 0.9862 0.1011
vn 0.4101 0.8791 0.2428
vn 0.6186 0.7443 0.2515
vn 0.6041 0.7902 0.1033
vn 0.4648 0.1915 0.8645
vn 0.7644 -0.0205 0.6444
vn 0.8876 -0.0632 0.4563
vn 0.8760 0.1196 0.4672
vn 0.1194 0.1670 0.9787
vn -0.0997 0.2848 0.9534
vn -0.1025 0.1656 0.9809
vn -0.0000 -0.2629 -0.9648
vn 0.2857 -0.1288 -0.9496
vn 0.4472 -0.0400 -0.8936
vn 0.4422 -0.2474 -0.8621
vn 0.3872 0.4050 0.8283
vn 0.5220 0.3747 0.7662
vn 0.3949 0.4036 0.8253
vn 0.3498 0.8840 0.3102
vn 0.4782 0.8287 0.2908
vn 0.4998 0.8662 -0.0000
vn 0.3747 0.9271 -0.0000
vn 0.4782 0.8287 -0.2908
vn 0.3498 0.8840 -0.3102
vn 0.3948 0.4036 -0.8254
vn 0.5219 0.3747 -0.7663
vn 0.5510 0.2049 -0.8090
vn 0.4224 0.2033 -0.8833
vn 0.2481 0.5760 0.7789
vn 0.5669 0.6527 0.5026
vn 0.2892 0.1196 -0.9498
vn 0.2880 0.1194 -0.9502
vn 0.3927 0.1572 -0.9061
vn 0.4247 0.1686 -0.8895
vn 0.3418 0.9072 -0.2454
vn 0.2766 0.8969 -0.3449
vn 1.0000 -0.0000 -0.0000
vn 0.7943 0.3164 0.5186
vn 0.3992 0.3587 0.8438
vn 0.9560 0.2756 0.1004
vn 0.9288 0.3051 0.2105
vn -0.0964 0.3976 0.9125
vn 0.4405 0.3499 0.8268
vn -0.0996 0.3977 0.9121
vn -0.0866 0.5793 0.8105
vn 0.0025 -1.0000 0.0002
vn -0.0001 -1.0000 0.0002
vn -0.0000 -1.0000 -0.0000
vn -0.0184 0.9785 0.2054
vn 0.0052 -1.0000 0.0004
vn -0.0000 -1.0000 0.0005
vn 0.9616 0.2745 0.0032
vn 0.9944 0.1026 0.0267
vn 0.9945 -0.0911 0.0507
vn 0.5521 0.8312 -0.0651
vn -0.0002 0.8543 -0.5198
vn 0.1570 0.8654 -0.4759
vn 0.2503 0.7148 -0.6530
vn -0.0000 0.7383 -0.6745
vn 0.4474 0.8483 -0.2833
vn 0.9215 0.3067 -0.2383
vn 0.9233 0.3054 -0.2329
vn 0.9618 0.2736 0.0047
vn -0.9895 0.1256 0.0715
vn -0.9807 0.1238 -0.1516
vn -0.9961 -0.0640 -0.0605
vn -0.9938 -0.0563 0.0962
vn -0.9702 0.1408 -0.1974
vn -0.9739 0.1326 -0.1840
vn -0.9622 0.1564 -0.2230
vn 0.5629 -0.0000 -0.8265
vn 0.4385 -0.0000 -0.8987
vn -0.0017 0.9963 0.0855
vn 0.0207 0.9975 -0.0677
vn 0.0008 0.9909 -0.1347
vn -0.0018 0.9963 0.0856
vn -0.0000 0.0005 1.0000
vn -0.0000 -0.0005 -1.0000
vn 1.0000 -0.0000 -0.0006
vn -0.0000 0.9994 0.0350
vn -0.0000 0.2164 -0.9763
vn 0.3050 -0.0000 -0.9523
vn -0.0000 0.4393 -0.8983
vn -0.0000 0.9436 -0.3311
vn -0.0000 0.9436 0.3311
vn -0.0000 0.4393 0.8983
vn -0.4033 0.8237 0.3986
vn -0.3650 0.6834 0.6323
vn -0.9921 -0.0944 0.0822
vn -0.9947 -0.0991 0.0289
vn -0.9930 0.0862 0.0803
vn -0.9907 0.0978 0.0943
vn -0.2290 0.7978 -0.5577
vn -0.2812 0.8236 -0.4925
vn -0.2197 0.8899 -0.3999
vn -0.2062 0.8826 -0.4225
vn -0.3752 0.9205 0.1088
vn -0.1255 0.9871 0.0992
vn -0.1550 0.9863 -0.0570
vn -0.3696 0.9272 -0.0609
vn -0.5241 0.8450 0.1065
vn -0.5572 0.8075 0.1936
vn -0.3787 0.9044 0.1964
vn -0.6038 0.1959 0.7727
vn -0.9387 0.1120 0.3260
vn -0.9515 -0.0298 0.3061
vn -0.8414 0.0238 0.5399
vn -0.3220 0.1559 0.9338
vn -0.4490 -0.2456 -0.8591
vn -0.4540 -0.0375 -0.8902
vn -0.2857 -0.1288 -0.9496
vn -0.3871 0.4050 0.8283
vn -0.3948 0.4036 0.8254
vn -0.5220 0.3747 0.7663
vn -0.3498 0.8840 0.3102
vn -0.3747 0.9272 -0.0000
vn -0.4997 0.8662 -0.0000
vn -0.4781 0.8288 0.2908
vn -0.3497 0.8840 -0.3102
vn -0.4781 0.8288 -0.2908
vn -0.3947 0.4036 -0.8254
vn -0.4224 0.2033 -0.8833
vn -0.5509 0.2049 -0.8090
vn -0.5218 0.3747 -0.7663
vn -0.5954 0.6887 0.4137
vn -0.3750 0.5830 0.7208
vn -0.2892 0.1196 -0.9498
vn -0.4313 0.1717 -0.8857
vn -0.3982 0.1598 -0.9033
vn -0.2880 0.1194 -0.9502
vn -0.2849 0.8990 -0.3326
vn -0.3515 0.9097 -0.2209
vn -1.0000 -0.0000 -0.0000
vn -0.8839 0.2684 0.3829
vn -0.5486 0.3400 0.7639
vn -0.9592 0.2652 0.0977
vn -0.9610 0.2531 0.1117
vn -0.5856 0.3285 0.7410
vn -0.0027 -1.0000 0.0003
vn -0.0059 -1.0000 0.0006
vn -0.9575 0.2848 0.0460
vn -0.5294 0.8476 -0.0351
vn -0.2503 0.7148 -0.6530
vn -0.1574 0.8647 -0.4769
vn -0.0215 0.9973 -0.0701
vn -0.4564 0.8516 -0.2579
vn -0.9583 0.2819 0.0468
vn -0.9328 0.3168 -0.1718
vn -0.9306 0.3181 -0.1811
vn 0.9702 0.1408 -0.1974
vn 0.9622 0.1564 -0.2230
vn 0.9739 0.1326 -0.1840
vn -0.4385 -0.0000 -0.8987
vn -0.5629 -0.0000 -0.8266
vn -0.0020 0.9963 0.0856
vn -1.0000 -0.0000 -0.0006
vn -0.3051 -0.0000 -0.9523
vn 0.7157 0.2684 -0.6448
vn 0.7299 0.2731 -0.6266
vn 0.3540 0.8436 -0.4038
vn 0.7867 0.0299 -0.6166
vn 0.5717 -0.2367 -0.7855
vn 0.9422 -0.1275 -0.3097
vn 0.9738 0.1019 -0.2034
vn 0.9890 -0.0991 -0.1101
vn -0.7359 0.2788 -0.6170
vn -0.7486 0.2831 -0.5996
vn -0.3614 0.8469 -0.3900
vn -0.8047 0.0403 -0.5924
vn -0.9578 -0.1048 -0.2676
vn -0.5829 -0.2329 -0.7784
vn 0.9991 0.0349 -0.0246
vn -0.6360 0.7386 -0.2237
vn -0.9604 0.2614 0.0966
vn -0.9079 0.2643 0.3253
vn -0.9619 0.2520 0.1064
vn -0.9991 0.0349 -0.0246
vn 0.9562 0.2743 0.1022
vn 0.8117 0.3176 0.4903
vn 0.9297 0.3039 0.2078
vn 0.6091 0.7508 -0.2556
vt 0.878611 0.957042
vt 0.878642 0.957603
vt 0.878449 0.957549
vt 0.878502 0.957137
vt 0.879193 0.959386
vt 0.878684 0.959831
vt 0.878416 0.960037
vt 0.879188 0.959519
vt 0.879698 0.958939
vt 0.879826 0.959871
vt 0.879826 0.960020
vt 0.879770 0.959341
vt 0.879306 0.959005
vt 0.879659 0.959832
vt 0.879659 0.959427
vt 0.879298 0.958726
vt 0.879145 0.958520
vt 0.879210 0.960329
vt 0.879274 0.960068
vt 0.879067 0.957441
vt 0.879236 0.958603
vt 0.879294 0.958460
vt 0.879259 0.956910
vt 0.879079 0.957905
vt 0.879242 0.959022
vt 0.879217 0.957922
vt 0.879479 0.958167
vt 0.879485 0.958270
vt 0.879529 0.958531
vt 0.879356 0.958599
vt 0.045283 0.961606
vt 0.045308 0.964032
vt 0.041139 0.964033
vt 0.041139 0.961606
vt 0.036969 0.964033
vt 0.036969 0.961606
vt 0.032800 0.964033
vt 0.032800 0.961606
vt 0.028630 0.964032
vt 0.028643 0.961606
vt 0.878734 0.957264
vt 0.878940 0.956951
vt 0.879628 0.958725
vt 0.879691 0.959078
vt 0.879765 0.960107
vt 0.879820 0.960227
vt 0.132615 0.966678
vt 0.115937 0.966678
vt 0.115937 0.966678
vt 0.120107 0.966678
vt 0.124276 0.966678
vt 0.128446 0.966678
vt 0.879041 0.956939
vt 0.878841 0.957323
vt 0.879085 0.959993
vt 0.878951 0.960235
vt 0.878893 0.957797
vt 0.878804 0.957746
vt 0.879206 0.959065
vt 0.879527 0.958276
vt 0.879414 0.958907
vt 0.879337 0.958986
vt 0.878931 0.956764
vt 0.879346 0.956548
vt 0.879065 0.956693
vt 0.879139 0.958199
vt 0.879441 0.959577
vt 0.879246 0.959341
vt 0.879530 0.959685
vt 0.879833 0.959754
vt 0.879826 0.959870
vt 0.879732 0.959687
vt 0.879660 0.959491
vt 0.879246 0.959341
vt 0.879506 0.959078
vt 0.879337 0.958986
vt 0.879827 0.959871
vt 0.028630 0.961606
vt 0.879296 0.958658
vt 0.879640 0.959378
vt 0.879640 0.959372
vt 0.879294 0.958589
vt 0.208090 0.959990
vt 0.208090 0.959990
vt 0.208090 0.959990
vt 0.208450 0.960636
vt 0.208450 0.960636
vt 0.208450 0.960636
vt 0.115937 0.958339
vt 0.115950 0.964252
vt 0.115937 0.964252
vt 0.115937 0.958339
vt 0.120107 0.958339
vt 0.120107 0.964252
vt 0.124276 0.958339
vt 0.124276 0.964252
vt 0.128446 0.958339
vt 0.128446 0.964252
vt 0.132615 0.958339
vt 0.132591 0.964252
vt 0.878610 0.957042
vt 0.878502 0.957137
vt 0.879188 0.959519
vt 0.878416 0.960037
vt 0.878684 0.959832
vt 0.879699 0.958939
vt 0.879826 0.960020
vt 0.879306 0.959005
vt 0.879298 0.958727
vt 0.879659 0.959427
vt 0.879659 0.959832
vt 0.879145 0.958520
vt 0.879067 0.957441
vt 0.879259 0.956910
vt 0.879294 0.958460
vt 0.879236 0.958603
vt 0.879355 0.958599
vt 0.879485 0.958269
vt 0.878940 0.956951
vt 0.878734 0.957265
vt 0.879629 0.958725
vt 0.879691 0.959078
vt 0.879820 0.960226
vt 0.879764 0.960104
vt 0.879040 0.956939
vt 0.878841 0.957324
vt 0.879086 0.959994
vt 0.878949 0.960233
vt 0.879414 0.958906
vt 0.878931 0.956765
vt 0.879065 0.956693
vt 0.879346 0.956548
vt 0.879441 0.959577
vt 0.879642 0.959382
vt 0.879731 0.959687
vt 0.879659 0.959492
vt 0.879827 0.959871
vt 0.879296 0.958658
vt 0.879830 0.959831
vt 0.879780 0.959584
vt 0.879666 0.959065
vt 0.879508 0.959077
vt 0.879830 0.959838
vt 0.879780 0.959591
vt 0.879667 0.959069
s 1
usemtl palette
f 32/1/1 29/2/2 25/3/3 19/4/4
f 41/5/5 40/6/6 34/7/7 27/8/8
f 44/9/9 42/10/10 123/11/11 128/12/12
f 39/13/13 17/14/14 43/15/15 50/16/16
f 39/13/13 31/17/17 36/18/18 37/19/19
f 20/20/20 2/21/21 28/22/22 33/23/23
f 2/21/24 20/20/20 24/24/25 5/25/26
f 4/26/27 22/27/27 46/28/28 126/29/29 119/30/30
f 32/1/1 19/4/4 21/41/44 35/42/45
f 42/10/10 43/15/15 17/14/14 122/45/50 124/46/51 123/11/11
f 7/47/52 48/48/52 6/49/52 10/50/52 9/51/52 8/52/52
f 147/53/53 144/54/54 20/20/20 33/23/23
f 149/55/55 148/56/56 34/7/7 40/6/6
f 26/58/60 21/41/44 19/4/4 25/3/3
f 1/59/61 3/60/62 4/26/63 119/30/63 121/61/63 120/62/63
f 32/1/1 35/42/45 36/63/18 31/17/17
f 147/53/53 33/23/23 34/64/7 148/65/56
f 33/23/23 28/22/22 27/8/8 34/64/7
f 29/2/2 32/1/1 31/17/17 30/66/64
f 3/60/62 1/59/61 41/5/65 27/8/65 28/22/65 2/21/65 5/25/66
f 143/67/67 149/55/55 40/6/6 16/68/68
f 1/59/69 16/68/68 40/6/6 41/5/5
f 31/17/17 39/13/13 50/16/16 30/66/64
f 17/14/14 39/13/13 37/19/19 18/69/70
f 47/70/71 49/71/72 46/28/73 22/27/74
f 18/69/70 129/72/75 122/45/50 17/14/14
f 80/74/79 138/75/80 131/76/81 73/59/82
f 42/77/83 150/43/84 46/28/85 49/71/85
f 146/79/88 153/80/89 45/81/90 38/82/91
f 30/66/64 50/16/16 146/79/88 38/82/91
f 110/84/95 62/83/95 60/87/95 109/86/95
f 11/89/96 67/90/43 72/91/87 23/92/97
f 15/93/98 70/94/40 67/90/43 11/89/96
f 14/95/99 69/96/37 70/94/39 15/93/99
f 13/97/100 68/98/34 69/96/37 14/95/100
f 12/99/101 71/100/31 68/98/33 13/97/101
f 89/101/102 83/102/103 25/3/3 29/2/2
f 97/5/104 86/103/105 91/104/106 96/105/107
f 100/106/108 141/12/109 134/107/110 98/71/111
f 95/108/112 104/109/113 99/110/114 81/111/115
f 95/108/112 94/19/116 93/18/117 88/112/118
f 84/113/119 90/114/120 87/115/121 74/116/122
f 74/116/123 5/25/26 24/24/25 84/113/119
f 4/26/27 132/117/124 137/29/125 101/118/126 22/27/27
f 89/101/102 92/119/140 85/120/141 83/102/103
f 98/71/111 134/107/110 136/123/146 135/124/147 81/111/115 99/110/114
f 76/47/148 77/52/148 78/51/148 79/50/148 75/49/148 102/48/148
f 154/125/149 90/114/120 84/113/119 152/126/150
f 156/127/151 96/105/107 91/104/106 155/128/152
f 26/58/60 25/3/3 83/102/103 85/120/141
f 73/59/154 131/76/63 133/129/63 132/117/63 4/26/63 3/60/62
f 89/101/102 88/112/118 93/130/117 92/119/140
f 154/125/149 155/131/152 91/132/106 90/114/120
f 90/114/120 91/132/106 86/103/105 87/115/121
f 29/2/2 30/66/64 88/112/118 89/101/102
f 3/60/62 5/25/66 74/116/155 87/115/155 86/103/155 97/5/155 73/59/154
f 151/133/156 80/74/79 96/105/107 156/127/151
f 73/59/82 97/5/104 96/105/107 80/74/79
f 88/112/118 30/66/64 104/109/113 95/108/112
f 81/111/115 82/69/157 94/19/116 95/108/112
f 47/70/71 22/27/74 101/118/158 103/71/159
f 45/81/90 47/70/71 103/71/159 165/134/160
f 82/69/157 81/111/115 135/124/147 140/135/161
f 98/137/165 103/71/166 101/118/166 157/121/167
f 164/138/170 38/82/91 45/81/90 165/134/160
f 30/66/64 38/82/91 164/138/170 104/109/113
f 56/84/95 64/83/95 65/87/95 57/86/95
f 11/89/96 23/92/172 118/91/168 113/90/137
f 15/93/98 11/89/96 113/90/137 116/94/136
f 14/95/99 15/93/99 116/94/134 115/96/131
f 13/97/100 14/95/100 115/96/131 114/98/130
f 12/99/101 13/97/101 114/98/128 117/100/127
f 128/12/12 123/11/11 124/46/51 130/139/175
f 130/139/175 124/46/51 122/45/50 129/72/75
f 119/30/30 126/29/29 127/141/176 121/61/177
f 121/61/178 127/141/176 125/142/179 120/62/180
f 140/135/161 135/124/147 136/123/146 142/143/183
f 142/143/183 136/123/146 134/107/110 141/12/109
f 131/76/81 138/75/80 139/145/184 133/129/185
f 133/129/186 139/145/184 137/29/125 132/117/124
f 16/68/68 1/59/69 120/62/180 125/142/179
f 139/145/184 162/144/182 163/122/143 137/29/125
f 138/75/80 161/136/164 162/144/182 139/145/184
f 127/141/176 159/140/174 160/73/76 125/142/179
f 126/29/29 158/44/49 159/140/174 127/141/176
f 98/137/165 157/121/167 100/106/187
f 80/74/79 151/133/156 161/136/164 138/75/80
f 49/71/188 153/80/188 43/15/188 42/77/188
f 24/24/25 145/57/57 152/126/150 84/113/119
f 101/118/126 137/29/125 163/122/143 157/121/142
f 42/10/83 44/9/192 150/43/84
f 16/68/68 125/142/179 160/73/76 143/67/67
f 24/24/25 20/20/20 144/54/54 145/57/57
f 46/28/28 150/43/46 158/44/49 126/29/29
f 50/16/16 43/15/15 153/80/89 146/79/88
f 104/109/113 164/138/170 165/134/160 99/110/114
f 165/134/196 103/71/196 98/71/196 99/110/196
f 153/80/89 49/71/72 47/70/71 45/81/90
f 106/84/95 54/83/95 52/87/95 105/86/95
usemtl RGB
f 71/31/31 7/32/32 8/33/32 68/34/33
f 68/34/34 8/33/35 9/35/36 69/36/37
f 69/36/37 9/35/36 10/37/38 70/38/39
f 70/38/40 10/37/41 6/39/42 67/40/43
f 150/43/46 44/9/47 128/12/48 158/44/49
f 145/57/57 144/54/54 21/41/58 26/58/59
f 143/67/67 160/73/76 129/72/77 18/69/78
f 67/40/43 6/39/42 48/39/86 72/78/87
f 54/83/92 106/84/92 107/85/92 55/85/92
f 62/83/92 110/84/92 111/85/92 63/85/92
f 105/86/93 52/87/93 58/88/93 108/88/93
f 54/83/94 55/85/94 58/88/94 52/87/94
f 109/86/93 60/87/93 66/88/93 112/88/93
f 62/83/94 63/85/94 66/88/94 60/87/94
f 64/83/92 56/84/92 53/85/92 61/85/92
f 117/31/127 114/34/128 77/33/129 76/32/129
f 114/34/130 115/36/131 78/35/132 77/33/133
f 115/36/131 116/38/134 79/37/135 78/35/132
f 116/38/136 113/40/137 75/39/138 79/37/139
f 157/121/142 163/122/143 141/12/144 100/106/145
f 145/57/57 26/58/59 85/120/153 152/126/150
f 151/133/156 82/69/162 140/135/163 161/136/164
f 113/40/137 118/78/168 102/39/169 75/39/138
f 64/83/94 61/85/94 59/88/94 65/87/94
f 106/84/171 105/86/171 108/88/171 107/85/171
f 56/84/171 57/86/171 51/88/171 53/85/171
f 57/86/93 65/87/93 59/88/93 51/88/93
f 110/84/171 109/86/171 112/88/171 111/85/171
f 158/44/49 128/12/48 130/139/173 159/140/174
f 159/140/174 130/139/173 129/72/77 160/73/76
f 161/136/164 140/135/163 142/143/181 162/144/182
f 162/144/182 142/143/181 141/12/144 163/122/143
f 82/69/162 151/133/156 156/127/151 94/19/189
f 92/119/190 93/130/191 155/131/152 154/125/149
f 94/19/189 156/127/151 155/128/152 93/18/191
f 92/119/190 154/125/149 152/126/150 85/120/153
f 18/69/78 37/19/193 149/55/55 143/67/67
f 35/42/194 147/53/53 148/65/56 36/63/195
f 37/19/193 36/18/195 148/56/56 149/55/55
f 35/42/194 21/41/58 144/54/54 147/53/53
