# Blender 3.6.2
# www.blender.org
mtllib Plant_2.mtl
o Plant_2
v 0.000000 0.053732 -0.152316
v 0.000000 0.000000 -0.080078
v 0.000000 0.024180 -0.127288
v -0.040039 0.000000 -0.069350
v -0.076158 0.053732 -0.131909
v -0.063644 0.024180 -0.110235
v -0.069349 0.000000 -0.040039
v -0.131909 0.053732 -0.076158
v -0.110234 0.024180 -0.063644
v -0.080078 0.000000 -0.000000
v -0.152316 0.053732 -0.000000
v -0.127288 0.024180 -0.000000
v -0.069349 0.000000 0.040039
v -0.131909 0.053732 0.076158
v -0.110234 0.024180 0.063644
v -0.040039 0.000000 0.069350
v -0.076158 0.053732 0.131909
v -0.063644 0.024180 0.110234
v 0.000000 0.000000 0.080078
v 0.000000 0.053732 0.152316
v 0.000000 0.024180 0.127288
v 0.040039 0.000000 0.069350
v 0.076158 0.053732 0.131909
v 0.063644 0.024180 0.110234
v 0.069350 0.000000 0.040039
v 0.131909 0.053732 0.076158
v 0.110234 0.024180 0.063644
v 0.080078 0.000000 -0.000000
v 0.152316 0.053732 -0.000000
v 0.127288 0.024180 -0.000000
v 0.069350 0.000000 -0.040039
v 0.131909 0.053732 -0.076158
v 0.110234 0.024180 -0.063644
v 0.040039 0.000000 -0.069350
v 0.076158 0.053732 -0.131909
v 0.063644 0.024180 -0.110235
v -0.065591 0.464369 -0.113607
v 0.000000 0.464369 -0.131183
v -0.113607 0.464369 -0.065591
v -0.131182 0.464369 -0.000000
v -0.113607 0.464369 0.065591
v -0.065591 0.464369 0.113607
v 0.000000 0.464369 0.131182
v 0.065591 0.464369 0.113607
v 0.113607 0.464369 0.065591
v 0.131183 0.464369 -0.000000
v 0.113607 0.464369 -0.065591
v 0.065591 0.464369 -0.113607
v 0.096362 0.452707 -0.049081
v 0.104698 0.452707 -0.016203
v 0.065719 0.532479 -0.051360
v 0.151508 0.846051 -0.096803
v 0.062823 0.683787 -0.071492
v 0.084859 0.787153 -0.082639
v 0.173542 0.846218 -0.005853
v 0.079182 0.531151 0.002542
v 0.110704 0.787270 0.019388
v 0.085872 0.683797 0.019415
v 0.359574 0.721946 -0.096181
v 0.252011 0.864628 -0.099946
v 0.326126 0.806579 -0.108036
v 0.334691 0.806547 -0.074071
v 0.265419 0.864587 -0.046527
v 0.086206 0.836065 -0.242524
v 0.102888 0.780487 -0.312388
v 0.070182 0.780520 -0.324930
v 0.034806 0.836106 -0.262309
v 0.098141 0.703417 -0.343617
v 0.033171 0.659843 -0.057906
v 0.050600 0.765028 -0.086374
v 0.021896 0.526448 -0.066066
v 0.067322 0.825897 -0.151342
v -0.059444 0.764915 -0.128432
v -0.064887 0.659885 -0.095383
v -0.027572 0.825720 -0.188807
v -0.029972 0.526446 -0.085837
v 0.027615 0.452707 -0.096858
v -0.004068 0.452707 -0.108967
v 0.091295 0.452475 0.056120
v 0.066720 0.452475 0.082702
v 0.083746 0.526555 0.025657
v 0.180889 0.797670 0.080199
v 0.100474 0.642765 0.006003
v 0.129125 0.738223 0.023352
v 0.110655 0.797833 0.154467
v 0.044181 0.526436 0.068354
v 0.049143 0.738316 0.109846
v 0.029204 0.642734 0.083076
v 0.263274 0.687181 0.253145
v 0.225215 0.811885 0.166092
v 0.259883 0.758294 0.222371
v 0.236072 0.758257 0.248062
v 0.187629 0.811844 0.206441
v -0.200327 0.884624 0.013017
v -0.262753 0.813490 0.030372
v -0.257572 0.813528 0.065015
v -0.192174 0.884536 0.067468
v -0.283605 0.703417 0.048801
v 0.005598 0.706700 -0.042280
v -0.032988 0.818775 -0.041450
v 0.000144 0.557130 -0.024111
v -0.108595 0.879644 -0.020055
v -0.015432 0.818662 0.075041
v 0.021227 0.706739 0.061529
v -0.094502 0.879467 0.081258
v 0.010239 0.557479 0.042875
v -0.042614 0.452475 -0.005692
v -0.036022 0.452475 0.038049
v -0.079144 0.452475 -0.057687
v -0.048656 0.452475 -0.077215
v -0.070663 0.529807 -0.022491
v -0.150258 0.797483 -0.092340
v -0.089707 0.644764 -0.003731
v -0.113059 0.739297 -0.027742
v -0.063464 0.797660 -0.146259
v -0.021513 0.529809 -0.053973
v -0.013857 0.739390 -0.091281
v -0.001309 0.644739 -0.060349
v -0.195967 0.683855 -0.263024
v -0.173329 0.807868 -0.171265
v -0.199866 0.754332 -0.230625
v -0.170348 0.754307 -0.249485
v -0.126874 0.807828 -0.200846
v -0.022896 0.455002 0.085363
v -0.049034 0.455005 0.063738
v -0.003061 0.531032 0.072036
v -0.057322 0.805210 0.179559
v 0.012896 0.653306 0.093597
v -0.002856 0.747752 0.123156
v -0.135517 0.805398 0.113431
v -0.046035 0.531211 0.036720
v -0.093607 0.747819 0.048039
v -0.067971 0.653238 0.026661
v -0.204741 0.685710 0.287089
v -0.135325 0.813486 0.236570
v -0.175326 0.756305 0.281638
v -0.202285 0.756268 0.259273
v -0.177471 0.813391 0.201309
v 0.098951 0.423247 -0.036447
v 0.072429 0.418486 0.053171
v 0.256789 0.497742 0.086619
v 0.121600 0.517253 -0.003195
v 0.193493 0.540555 0.035976
v 0.183195 0.538020 0.069886
v 0.106313 0.514781 0.049659
v 0.069371 0.423247 0.059364
v -0.011979 0.418486 0.048739
v -0.000904 0.521537 0.240214
v 0.044108 0.517253 0.087422
v 0.023541 0.568426 0.157227
v -0.007055 0.567693 0.152682
v -0.003816 0.517687 0.081505
v -0.059114 0.423247 0.038249
v -0.077455 0.418486 -0.041715
v -0.245290 0.539843 0.046713
v -0.091230 0.519388 0.024034
v -0.168059 0.562113 0.035268
v -0.175159 0.560571 0.005387
v -0.102625 0.516723 -0.022928
v 0.009943 0.423247 -0.067301
v 0.086766 0.418486 -0.038508
v 0.123058 0.510927 -0.235498
v 0.040909 0.517253 -0.088900
v 0.078111 0.553551 -0.167151
v 0.106953 0.552010 -0.156598
v 0.086244 0.514781 -0.072272
v -0.059698 0.482474 -0.103399
v -0.000001 0.482474 -0.119395
v -0.103400 0.482474 -0.059698
v -0.119396 0.482474 0.000000
v -0.103400 0.482474 0.059698
v -0.059698 0.482474 0.103399
v -0.000001 0.482474 0.119395
v 0.059697 0.482474 0.103399
v 0.103399 0.482474 0.059698
v 0.119395 0.482474 0.000000
v 0.103399 0.482474 -0.059698
v 0.059697 0.482474 -0.103399
v -0.073170 0.458298 -0.126732
v -0.000001 0.458298 -0.146338
v -0.126733 0.458298 -0.073169
v -0.146339 0.458298 -0.000000
v -0.126733 0.458298 0.073169
v -0.073170 0.458298 0.126732
v -0.000001 0.458298 0.146338
v 0.073168 0.458298 0.126732
v 0.126732 0.458298 0.073169
v 0.146337 0.458298 -0.000000
v 0.126732 0.458298 -0.073169
v 0.073168 0.458298 -0.126732
v -0.078300 0.488797 -0.135619
v -0.072096 0.485535 -0.124874
v 0.000000 0.485535 -0.144192
v 0.000000 0.488797 -0.156599
v -0.135619 0.488797 -0.078300
v -0.124874 0.485535 -0.072096
v -0.156599 0.488797 -0.000000
v -0.144192 0.485535 -0.000000
v -0.135619 0.488797 0.078300
v -0.124874 0.485535 0.072096
v -0.078300 0.488797 0.135619
v -0.072096 0.485535 0.124874
v 0.000000 0.488797 0.156599
v 0.000000 0.485535 0.144192
v 0.078300 0.488797 0.135619
v 0.072096 0.485535 0.124874
v 0.135619 0.488797 0.078300
v 0.124874 0.485535 0.072096
v 0.156599 0.488797 -0.000000
v 0.144192 0.485535 -0.000000
v 0.135619 0.488797 -0.078300
v 0.124874 0.485535 -0.072096
v 0.078300 0.488797 -0.135619
v 0.072096 0.485535 -0.124874
v -0.102454 0.457298 -0.177456
v -0.100367 0.465311 -0.173840
v 0.000000 0.465311 -0.200734
v 0.000000 0.457298 -0.204908
v -0.177456 0.457298 -0.102454
v -0.173840 0.465311 -0.100367
v -0.204908 0.457298 -0.000000
v -0.200733 0.465311 -0.000000
v -0.177456 0.457298 0.102454
v -0.173840 0.465311 0.100367
v -0.102454 0.457298 0.177456
v -0.100367 0.465311 0.173840
v 0.000000 0.457298 0.204908
v 0.000000 0.465311 0.200734
v 0.102454 0.457298 0.177456
v 0.100367 0.465311 0.173840
v 0.177456 0.457298 0.102454
v 0.173841 0.465311 0.100367
v 0.204908 0.457298 -0.000000
v 0.200734 0.465311 -0.000000
v 0.177456 0.457298 -0.102454
v 0.173841 0.465311 -0.100367
v 0.102454 0.457298 -0.177456
v 0.100367 0.465311 -0.173840
vn 0.7378 0.5236 -0.4260
vn 0.4260 0.5236 -0.7378
vn -0.0000 0.5236 -0.8519
vn -0.4260 0.5236 -0.7378
vn -0.7378 0.5236 0.4260
vn -0.4260 0.5236 0.7378
vn -0.7378 0.5236 -0.4260
vn -0.1353 -0.9627 -0.2344
vn -0.0000 -0.9627 -0.2707
vn 0.1353 -0.9627 -0.2344
vn 0.2344 -0.9627 -0.1353
vn 0.2707 -0.9627 -0.0000
vn 0.2344 -0.9627 0.1353
vn 0.1353 -0.9627 0.2344
vn -0.0000 -0.9627 0.2707
vn -0.1353 -0.9627 0.2344
vn -0.2344 -0.9627 0.1353
vn -0.2707 -0.9627 -0.0000
vn -0.2344 -0.9627 -0.1353
vn -0.8519 0.5236 -0.0000
vn -0.0000 0.8828 0.4698
vn 0.2349 0.8828 0.4068
vn 0.7378 0.5236 0.4260
vn 0.8519 0.5236 -0.0000
vn -0.3815 -0.6463 -0.6609
vn -0.0000 -0.6463 -0.7631
vn -0.0000 -0.7678 -0.6407
vn -0.3204 -0.7678 -0.5549
vn -0.6609 -0.6463 -0.3815
vn -0.5549 -0.7678 -0.3204
vn -0.7631 -0.6463 -0.0000
vn -0.6407 -0.7678 -0.0000
vn -0.6609 -0.6463 0.3815
vn -0.5549 -0.7678 0.3204
vn -0.3815 -0.6463 0.6609
vn -0.3204 -0.7678 0.5549
vn -0.0000 -0.6463 0.7631
vn -0.0000 -0.7678 0.6407
vn 0.3815 -0.6463 0.6609
vn 0.3204 -0.7678 0.5549
vn 0.6609 -0.6463 0.3815
vn 0.5549 -0.7678 0.3204
vn 0.7631 -0.6463 -0.0000
vn 0.6407 -0.7678 -0.0000
vn 0.6609 -0.6463 -0.3815
vn 0.5549 -0.7678 -0.3204
vn 0.3815 -0.6463 -0.6609
vn 0.3204 -0.7678 -0.5549
vn -0.2349 0.8828 -0.4068
vn -0.4068 0.8828 -0.2349
vn 0.2349 0.8828 -0.4068
vn -0.0000 0.8828 -0.4698
vn -0.4698 0.8828 -0.0000
vn -0.4068 0.8828 0.2349
vn -0.2349 0.8828 0.4068
vn -0.4958 -0.1292 0.8588
vn -0.0000 -0.1292 0.9916
vn 0.4068 0.8828 0.2349
vn 0.4698 0.8828 -0.0000
vn 0.4068 0.8828 -0.2349
vn -0.8588 -0.1292 -0.4958
vn -0.9916 -0.1292 -0.0000
vn 0.9916 -0.1292 -0.0000
vn 0.8588 -0.1292 -0.4958
vn 0.4958 -0.1292 0.8588
vn -0.8588 -0.1292 0.4958
vn 0.4958 -0.1292 -0.8588
vn -0.4958 -0.1292 -0.8588
vn 0.8588 -0.1292 0.4958
vn -0.0000 -0.1292 -0.9916
vn -0.0000 0.5236 0.8519
vn 0.4260 0.5236 0.7378
vn -0.6381 0.7537 0.1572
vn -0.9441 0.2268 0.2391
vn -0.9615 0.1279 0.2431
vn -0.9616 0.1275 0.2431
vn -0.9591 -0.1518 0.2390
vn -0.9584 -0.1562 0.2388
vn -0.9110 -0.3466 0.2235
vn -0.1790 0.9829 0.0431
vn 0.5993 0.7863 -0.1500
vn 0.9156 0.3295 -0.2306
vn -0.3289 -0.3857 0.8620
vn -0.3494 -0.1999 0.9154
vn -0.3506 -0.1835 0.9184
vn -0.3531 0.1457 0.9242
vn -0.3526 0.1557 0.9227
vn 0.2214 0.7881 -0.5743
vn 0.3376 0.3356 -0.8795
vn -0.0415 0.9938 0.1036
vn -0.2437 0.7414 0.6252
vn -0.3409 0.2980 0.8916
vn -0.7229 0.1736 -0.6688
vn -0.7225 0.1765 -0.6684
vn -0.7253 -0.1510 -0.6716
vn -0.7240 -0.1621 -0.6704
vn -0.6913 -0.3344 -0.6406
vn 0.6964 0.3127 0.6459
vn 0.4707 0.7656 0.4385
vn -0.3133 0.9029 -0.2943
vn -0.3044 0.9086 -0.2859
vn -0.1106 0.9883 -0.1051
vn -0.6943 0.3249 -0.6422
vn -0.4496 0.7876 -0.4214
vn 0.9357 0.3234 -0.1408
vn 0.9777 0.1497 -0.1472
vn 0.9781 0.1468 -0.1472
vn 0.6063 0.7905 -0.0870
vn 0.9088 -0.3946 -0.1357
vn 0.9655 -0.2165 -0.1448
vn 0.9659 -0.2145 -0.1449
vn 0.0524 0.9986 -0.0058
vn -0.9675 0.2075 0.1445
vn -0.7333 0.6710 0.1101
vn -0.5067 0.3368 -0.7936
vn -0.3433 0.7688 -0.5395
vn 0.3301 0.7847 0.5246
vn 0.5095 0.3277 0.7956
vn 0.5323 0.1611 0.8311
vn 0.5326 0.1574 0.8316
vn 0.0673 0.9918 0.1091
vn 0.4933 -0.4046 0.7701
vn 0.5269 -0.2133 0.8227
vn 0.5274 -0.2098 0.8233
vn -0.5327 0.5545 0.6394
vn -0.5292 0.5626 0.6351
vn -0.6074 0.3096 0.7316
vn -0.4414 0.7258 0.5276
vn 0.3826 0.8035 -0.4562
vn 0.6024 0.3280 -0.7277
vn 0.6237 0.2047 -0.7544
vn 0.6239 0.2033 -0.7546
vn 0.0560 0.9963 -0.0655
vn 0.6086 -0.2873 -0.7396
vn 0.6330 -0.0987 -0.7678
vn 0.6327 -0.1042 -0.7674
vn -0.9159 0.3116 -0.2530
vn -0.2877 0.9573 -0.0296
vn 0.4356 0.8781 0.1979
vn 0.1106 0.3073 -0.9451
vn 0.0733 0.8161 -0.5733
vn -0.0908 0.8783 0.4695
vn 0.9310 0.2799 -0.2345
vn 0.4632 0.8718 -0.1592
vn -0.2749 0.9614 0.0157
vn -0.3150 0.3112 0.8966
vn -0.0907 0.9191 0.3834
vn 0.2009 0.8851 -0.4198
vn -0.0000 1.0000 -0.0000
vn -0.0000 -1.0000 -0.0000
vn 0.3339 0.7443 -0.5784
vn -0.0000 0.7443 -0.6679
vn -0.3339 0.7443 -0.5784
vn -0.5784 0.7443 -0.3339
vn 0.5784 0.7443 0.3339
vn 0.6679 0.7443 -0.0000
vn -0.3339 0.7443 0.5784
vn -0.0000 0.7443 0.6679
vn -0.6679 0.7443 -0.0000
vn 0.5784 0.7443 -0.3339
vn 0.3339 0.7443 0.5784
vn -0.5784 0.7443 0.3339
vn 0.1271 0.9671 0.2202
vn -0.0000 0.9671 0.2543
vn 0.2202 0.9671 0.1271
vn 0.2543 0.9671 -0.0000
vn 0.2202 0.9671 -0.1271
vn 0.1271 0.9671 -0.2202
vn -0.0000 0.9671 -0.2543
vn -0.1271 0.9671 -0.2202
vn -0.2202 0.9671 -0.1271
vn -0.2543 0.9671 -0.0000
vn -0.2202 0.9671 0.1271
vn -0.1271 0.9671 0.2202
vn -0.0000 0.4621 -0.8868
vn -0.4434 0.4621 -0.7680
vn -0.7680 0.4621 -0.4434
vn -0.8868 0.4621 -0.0000
vn -0.7680 0.4621 0.4434
vn -0.4434 0.4621 0.7680
vn -0.0000 0.4621 0.8868
vn 0.4434 0.4621 0.7680
vn 0.7680 0.4621 0.4434
vn 0.8868 0.4621 -0.0000
vn 0.7680 0.4621 -0.4434
vn 0.4434 0.4621 -0.7680
vt 0.471030 0.966739
vt 0.469003 0.967910
vt 0.469003 0.967910
vt 0.466662 0.967909
vt 0.464635 0.966739
vt 0.464635 0.966739
vt 0.469003 0.967910
vt 0.464635 0.960344
vt 0.466663 0.959174
vt 0.466663 0.959174
vt 0.463465 0.964712
vt 0.469423 0.961952
vt 0.468415 0.961370
vt 0.467251 0.961370
vt 0.466243 0.961952
vt 0.465661 0.962960
vt 0.465661 0.964124
vt 0.466243 0.965131
vt 0.467251 0.965714
vt 0.468415 0.965714
vt 0.469423 0.965132
vt 0.470005 0.964124
vt 0.470005 0.962960
vt 0.463465 0.962371
vt 0.463465 0.962371
vt 0.466508 0.968487
vt 0.464213 0.967162
vt 0.464572 0.966803
vt 0.466639 0.967996
vt 0.472201 0.962371
vt 0.472201 0.964712
vt 0.471493 0.959881
vt 0.469173 0.958542
vt 0.469160 0.958589
vt 0.471459 0.959916
vt 0.472833 0.962202
vt 0.471493 0.959881
vt 0.472786 0.962214
vt 0.472833 0.964881
vt 0.472786 0.964869
vt 0.471493 0.967202
vt 0.471459 0.967167
vt 0.469173 0.968542
vt 0.471493 0.967202
vt 0.469160 0.968495
vt 0.466493 0.968542
vt 0.466506 0.968495
vt 0.464173 0.967202
vt 0.464207 0.967167
vt 0.462833 0.964881
vt 0.464173 0.967202
vt 0.462880 0.964869
vt 0.462833 0.962202
vt 0.462833 0.964881
vt 0.462880 0.962214
vt 0.464173 0.959881
vt 0.462833 0.962202
vt 0.464207 0.959916
vt 0.466493 0.958542
vt 0.466506 0.958589
vt 0.469173 0.958542
vt 0.471453 0.959921
vt 0.472778 0.962217
vt 0.472288 0.962348
vt 0.471094 0.960280
vt 0.466508 0.958596
vt 0.469158 0.958596
vt 0.469027 0.959087
vt 0.466639 0.959087
vt 0.472778 0.964867
vt 0.471453 0.967162
vt 0.471094 0.966803
vt 0.472288 0.964735
vt 0.471453 0.967162
vt 0.469158 0.968487
vt 0.469027 0.967997
vt 0.466639 0.967997
vt 0.464213 0.967162
vt 0.462888 0.964867
vt 0.463378 0.964735
vt 0.464572 0.966803
vt 0.462888 0.964867
vt 0.462888 0.962217
vt 0.463378 0.962348
vt 0.463378 0.964735
vt 0.462888 0.962216
vt 0.464213 0.959921
vt 0.464572 0.960280
vt 0.464213 0.959921
vt 0.466508 0.958596
vt 0.464572 0.960280
vt 0.472778 0.962216
vt 0.472778 0.964867
vt 0.472833 0.962202
vt 0.462833 0.962202
vt 0.471493 0.967202
vt 0.472833 0.964881
vt 0.464173 0.959881
vt 0.471493 0.959881
vt 0.464173 0.967202
vt 0.466493 0.958542
vt 0.469003 0.959174
vt 0.471030 0.960344
vt 0.462833 0.964881
vt 0.718554 0.714708
vt 0.708554 0.714708
vt 0.709212 0.714708
vt 0.717896 0.714708
vt 0.709229 0.711521
vt 0.717880 0.711521
vt 0.708554 0.706799
vt 0.718554 0.706799
vt 0.708554 0.704708
vt 0.718554 0.704708
vt 0.716474 0.714708
vt 0.616731 0.703067
vt 0.626731 0.703067
vt 0.626731 0.705159
vt 0.616731 0.705159
vt 0.626057 0.709881
vt 0.617406 0.709881
vt 0.624652 0.713067
vt 0.616731 0.713067
vt 0.626731 0.713067
vt 0.617389 0.713067
vt 0.626074 0.713067
vt 0.616683 0.711990
vt 0.624603 0.711990
vt 0.721960 0.711718
vt 0.723130 0.713746
vt 0.723130 0.716086
vt 0.721960 0.718113
vt 0.719933 0.719284
vt 0.717592 0.719284
vt 0.715565 0.718114
vt 0.714394 0.716086
vt 0.714394 0.713746
vt 0.715565 0.711718
vt 0.717592 0.710548
vt 0.719933 0.710548
vt 0.044864 0.702531
vt 0.042837 0.701361
vt 0.040496 0.701361
vt 0.038469 0.702532
vt 0.037299 0.704559
vt 0.037299 0.706899
vt 0.038469 0.708927
vt 0.040496 0.710097
vt 0.042837 0.710097
vt 0.044864 0.708926
vt 0.046035 0.706899
vt 0.046035 0.704559
vt 0.709780 0.705340
vt 0.712120 0.705340
vt 0.714147 0.706510
vt 0.715318 0.708537
vt 0.706582 0.710878
vt 0.706582 0.708538
vt 0.712120 0.714076
vt 0.709780 0.714076
vt 0.715318 0.710878
vt 0.707752 0.706510
vt 0.707752 0.712905
vt 0.714147 0.712905
vt 0.471030 0.960344
vt 0.469027 0.959087
vt 0.471094 0.960280
vt 0.471453 0.959921
s 1
usemtl palette
f 200/1/1 202/2/2 42/3/2 41/1/1
f 204/4/3 206/5/4 44/6/4 43/4/3
f 202/7/2 204/4/3 43/4/3 42/3/2
f 212/8/5 214/9/6 48/10/6 47/8/5
f 206/5/4 208/11/7 45/11/7 44/6/4
f 4/12/8 2/13/9 34/14/10 31/15/11 28/16/12 25/17/13 22/18/14 19/19/15 16/20/16 13/21/17 10/22/18 7/23/19
f 208/11/7 210/24/20 46/25/20 45/11/7
f 228/26/21 230/27/22 205/28/22 203/29/21
f 196/30/23 198/31/24 40/31/24 39/30/23
f 210/25/20 212/8/5 47/8/5 46/25/20
f 5/32/25 1/33/26 3/34/27 6/35/28
f 6/35/28 3/34/27 2/13/9 4/12/8
f 8/36/29 5/37/25 6/35/28 9/38/30
f 9/38/30 6/35/28 4/12/8 7/23/19
f 11/39/31 8/36/29 9/38/30 12/40/32
f 12/40/32 9/38/30 7/23/19 10/22/18
f 14/41/33 11/39/31 12/40/32 15/42/34
f 15/42/34 12/40/32 10/22/18 13/21/17
f 17/43/35 14/44/33 15/42/34 18/45/36
f 18/45/36 15/42/34 13/21/17 16/20/16
f 20/46/37 17/43/35 18/45/36 21/47/38
f 21/47/38 18/45/36 16/20/16 19/19/15
f 23/48/39 20/46/37 21/47/38 24/49/40
f 24/49/40 21/47/38 19/19/15 22/18/14
f 26/50/41 23/51/39 24/49/40 27/52/42
f 27/52/42 24/49/40 22/18/14 25/17/13
f 29/53/43 26/54/41 27/52/42 30/55/44
f 30/55/44 27/52/42 25/17/13 28/16/12
f 32/56/45 29/57/43 30/55/44 33/58/46
f 33/58/46 30/55/44 28/16/12 31/15/11
f 35/59/47 32/56/45 33/58/46 36/60/48
f 36/60/48 33/58/46 31/15/11 34/14/10
f 1/61/26 35/59/47 36/60/48 3/34/27
f 3/34/27 36/60/48 34/14/10 2/13/9
f 198/31/24 200/1/1 41/1/1 40/31/24
f 216/62/49 220/63/50 195/64/50 191/65/49
f 238/66/51 217/67/52 194/68/52 213/69/51
f 222/70/53 224/71/54 199/72/54 197/73/53
f 224/74/54 226/75/55 201/76/55 199/72/54
f 17/43/56 20/46/57 227/46/57 225/43/56
f 226/75/55 228/26/21 203/77/21 201/76/55
f 230/78/22 232/79/58 207/80/58 205/81/22
f 232/82/58 234/83/59 209/84/59 207/85/58
f 234/86/59 236/87/60 211/88/60 209/84/59
f 236/89/60 238/90/51 213/69/51 211/91/60
f 220/92/50 222/93/53 197/73/53 195/64/50
f 8/36/61 11/39/62 221/39/62 219/94/61
f 29/57/63 32/56/64 235/56/64 233/95/63
f 20/46/57 23/48/65 229/48/65 227/46/57
f 11/39/62 14/41/66 223/96/66 221/97/62
f 32/56/64 35/59/67 237/59/67 235/98/64
f 5/37/68 8/36/61 219/94/61 215/99/68
f 23/51/65 26/50/69 231/54/69 229/100/65
f 14/44/66 17/43/56 225/43/56 223/96/66
f 35/59/67 1/61/70 218/33/70 237/101/67
f 193/102/71 192/103/72 37/103/72 38/102/71
f 26/54/69 29/53/63 233/57/63 231/104/69
f 55/105/73 52/106/73 54/107/73 57/108/73
f 57/108/74 54/107/74 53/109/75 58/110/76
f 58/110/76 53/109/75 51/111/77 56/112/78
f 49/113/79 50/114/79 56/112/78 51/111/77
f 52/106/80 55/105/80 63/105/80 60/106/80
f 62/115/81 61/106/81 60/106/81 63/105/81
f 61/106/82 62/115/82 59/106/82
f 78/116/83 77/117/83 71/118/84 76/119/85
f 69/120/86 74/121/87 76/119/85 71/118/84
f 65/122/88 66/123/88 67/123/88 64/124/88
f 66/123/89 65/122/89 68/123/89
f 75/123/90 72/124/90 64/124/90 67/123/90
f 72/124/91 75/123/91 73/125/91 70/126/91
f 70/126/92 73/125/92 74/121/87 69/120/86
f 88/120/93 83/121/94 81/119/95 86/118/96
f 79/116/97 80/117/97 86/118/96 81/119/95
f 91/127/98 92/128/98 89/127/98
f 92/122/99 91/123/99 90/123/99 93/124/99
f 82/123/100 85/124/101 93/124/102 90/123/102
f 87/126/103 84/125/103 83/121/94 88/120/93
f 85/124/101 82/123/100 84/125/104 87/126/104
f 100/126/105 103/125/105 104/121/106 99/120/107
f 102/124/108 105/123/108 103/125/108 100/126/108
f 108/116/109 107/117/109 101/118/110 106/119/111
f 99/120/107 104/121/106 106/119/111 101/118/110
f 105/123/112 102/124/112 94/124/112 97/123/112
f 96/123/113 95/122/113 98/123/113
f 95/122/114 96/123/114 97/123/114 94/124/114
f 121/106/115 122/115/115 119/106/115
f 122/115/116 121/106/116 120/106/116 123/105/116
f 115/105/117 112/106/117 114/107/117 117/108/117
f 117/108/118 114/107/118 113/109/119 118/110/120
f 112/106/121 115/105/121 123/105/121 120/106/121
f 109/113/122 110/114/122 116/112/123 111/111/124
f 118/110/120 113/109/119 111/111/124 116/112/123
f 136/123/125 137/122/126 134/123/127
f 137/122/126 136/123/125 135/123/128 138/124/128
f 130/124/129 127/123/129 129/125/129 132/126/129
f 132/126/130 129/125/130 128/121/131 133/120/132
f 127/123/133 130/124/133 138/124/133 135/123/133
f 124/116/134 125/117/134 131/118/135 126/119/136
f 133/120/132 128/121/131 126/119/136 131/118/135
f 214/10/6 193/102/71 38/102/71 48/10/6
f 139/106/137 140/105/137 145/105/137 142/106/137
f 144/115/138 143/106/138 142/106/138 145/105/138
f 143/106/139 144/115/139 141/106/139
f 146/106/140 147/105/140 152/105/140 149/106/140
f 151/115/141 150/106/141 149/106/141 152/105/141
f 150/106/142 151/115/142 148/106/142
f 153/123/143 154/124/143 159/124/143 156/123/143
f 158/122/144 157/123/144 156/123/144 159/124/144
f 157/123/145 158/122/145 155/123/145
f 160/123/146 161/124/146 166/124/146 163/123/146
f 165/122/147 164/123/147 163/123/147 166/124/147
f 164/123/148 165/122/148 162/123/148
f 167/129/149 169/130/149 170/131/149 171/132/149 172/133/149 173/134/149 174/135/149 175/136/149 176/137/149 177/138/149 178/139/149 168/140/149
f 179/141/150 180/142/150 190/143/150 189/144/150 188/145/150 187/146/150 186/147/150 185/148/150 184/149/150 183/150/150 182/151/150 181/152/150
f 178/153/151 190/153/151 180/154/152 168/154/152
f 167/155/153 179/155/153 181/156/154 169/156/154
f 175/157/155 187/157/155 188/158/156 176/158/156
f 172/159/157 184/159/157 185/160/158 173/160/158
f 169/156/154 181/156/154 182/161/159 170/161/159
f 176/158/156 188/158/156 189/162/160 177/162/160
f 173/160/158 185/160/158 186/163/161 174/163/161
f 170/161/159 182/161/159 183/164/162 171/164/162
f 177/162/160 189/162/160 190/153/151 178/153/151
f 168/154/152 180/154/152 179/155/153 167/155/153
f 174/163/161 186/163/161 187/157/155 175/157/155
f 171/164/162 183/164/162 184/159/157 172/159/157
f 192/165/72 196/30/23 39/30/23 37/103/72
f 192/103/163 193/102/164 194/166/164 191/167/163
f 196/30/165 192/165/163 191/65/163 195/64/165
f 198/31/166 196/30/165 195/64/165 197/73/166
f 200/1/167 198/31/166 197/73/166 199/72/167
f 202/2/168 200/1/167 199/72/167 201/76/168
f 204/4/169 202/7/168 201/76/168 203/77/169
f 206/5/170 204/4/169 203/29/169 205/28/170
f 208/11/171 206/5/170 205/81/170 207/80/171
f 210/24/172 208/11/171 207/85/171 209/84/172
f 212/8/173 210/25/172 209/84/172 211/88/173
f 214/9/174 212/8/173 211/91/173 213/69/174
f 193/102/164 214/10/174 213/69/174 194/68/164
f 1/33/70 5/32/68 215/32/68 218/33/70
f 218/33/175 215/32/176 216/168/176 217/67/175
f 215/99/176 219/94/177 220/63/177 216/62/176
f 219/94/177 221/39/178 222/93/178 220/92/177
f 221/97/178 223/96/179 224/71/179 222/70/178
f 223/96/179 225/43/180 226/75/180 224/74/179
f 225/43/180 227/46/181 228/26/181 226/75/180
f 227/46/181 229/48/182 230/27/182 228/26/181
f 229/100/182 231/54/183 232/79/183 230/78/182
f 231/104/183 233/57/184 234/83/184 232/82/183
f 233/95/184 235/56/185 236/87/185 234/86/184
f 235/98/185 237/59/186 238/90/186 236/89/185
f 237/101/186 218/33/175 217/67/175 238/66/186
f 191/167/49 194/166/52 217/67/52 216/168/49
