# Blender 3.6.2
# www.blender.org
mtllib Plant_3.mtl
o Plant_3
v -0.054866 0.492968 -0.095031
v -0.000000 0.492968 -0.109733
v -0.095031 0.492968 -0.054866
v -0.109733 0.492968 -0.000000
v -0.095031 0.492968 0.054866
v -0.054866 0.492968 0.095031
v -0.000000 0.492968 0.109733
v 0.054866 0.492968 0.095031
v 0.095031 0.492968 0.054866
v 0.109733 0.492968 -0.000000
v 0.095031 0.492968 -0.054866
v 0.054866 0.492968 -0.095031
v 0.000000 0.077052 -0.121512
v 0.000000 0.000000 -0.049898
v 0.000000 0.021408 -0.093162
v -0.024949 0.000000 -0.043213
v -0.060756 0.077052 -0.105233
v -0.046581 0.021408 -0.080681
v -0.043213 0.000000 -0.024949
v -0.105233 0.077052 -0.060756
v -0.080680 0.021408 -0.046581
v -0.049898 0.000000 -0.000000
v -0.121512 0.077052 -0.000000
v -0.093162 0.021408 -0.000000
v -0.043213 0.000000 0.024949
v -0.105233 0.077052 0.060756
v -0.080680 0.021408 0.046581
v -0.024949 0.000000 0.043213
v -0.060756 0.077052 0.105233
v -0.046581 0.021408 0.080680
v -0.000000 0.000000 0.049898
v 0.000000 0.077052 0.121512
v -0.000000 0.021408 0.093162
v 0.024949 0.000000 0.043213
v 0.060756 0.077052 0.105233
v 0.046581 0.021408 0.080680
v 0.043213 0.000000 0.024949
v 0.105233 0.077052 0.060756
v 0.080680 0.021408 0.046581
v 0.049898 0.000000 -0.000000
v 0.121512 0.077052 -0.000000
v 0.093162 0.021408 -0.000000
v 0.043213 0.000000 -0.024949
v 0.105233 0.077052 -0.060756
v 0.080680 0.021408 -0.046581
v 0.024949 0.000000 -0.043213
v 0.060756 0.077052 -0.105233
v 0.046581 0.021408 -0.080681
v -0.050487 0.464369 -0.087445
v -0.000000 0.464369 -0.100973
v -0.087445 0.464369 -0.050487
v -0.100973 0.464369 -0.000000
v -0.087445 0.464369 0.050487
v -0.050487 0.464369 0.087445
v -0.000000 0.464369 0.100973
v 0.050487 0.464369 0.087445
v 0.087445 0.464369 0.050487
v 0.100973 0.464369 -0.000000
v 0.087445 0.464369 -0.050487
v 0.050486 0.464369 -0.087445
v -0.079045 0.604201 0.178696
v 0.077512 0.604201 0.178696
v 0.077512 0.562754 0.294868
v -0.079045 0.562754 0.294868
v -0.087895 0.477504 -0.152239
v -0.081852 0.492968 -0.141772
v 0.000000 0.492968 -0.163705
v 0.000000 0.477504 -0.175791
v -0.152239 0.477504 -0.087895
v -0.141772 0.492968 -0.081852
v -0.175791 0.477504 -0.000000
v -0.163704 0.492968 -0.000000
v -0.152239 0.477504 0.087895
v -0.141772 0.492968 0.081852
v -0.087895 0.477504 0.152239
v -0.081852 0.492968 0.141772
v 0.000000 0.477504 0.175791
v 0.000000 0.492968 0.163705
v 0.087895 0.477504 0.152239
v 0.081852 0.492968 0.141772
v 0.152239 0.477504 0.087895
v 0.141772 0.492968 0.081852
v 0.175791 0.477504 -0.000000
v 0.163705 0.492968 -0.000000
v 0.152239 0.477504 -0.087895
v 0.141772 0.492968 -0.081852
v 0.087895 0.477504 -0.152239
v 0.081852 0.492968 -0.141772
v 0.077512 0.428469 0.018603
v -0.079045 0.428469 0.018603
v 0.077512 0.441146 0.340521
v -0.079045 0.441146 0.340521
v 0.077512 0.606411 0.228109
v 0.077512 0.573012 0.109108
v -0.079045 0.573012 0.109108
v -0.079045 0.606411 0.228109
v 0.078131 0.604201 -0.183139
v -0.078427 0.604201 -0.183139
v -0.078427 0.562754 -0.299311
v 0.078131 0.562754 -0.299311
v -0.078427 0.428469 -0.023046
v 0.078131 0.428469 -0.023046
v -0.078427 0.441146 -0.344963
v 0.078131 0.441146 -0.344963
v -0.078427 0.606411 -0.232552
v -0.078427 0.573012 -0.113551
v 0.078131 0.573012 -0.113551
v 0.078131 0.606411 -0.232552
v 0.180462 0.604201 0.076370
v 0.180462 0.604201 -0.080188
v 0.296634 0.562754 -0.080188
v 0.296634 0.562754 0.076370
v 0.020369 0.428469 -0.080188
v 0.020369 0.428469 0.076370
v 0.342286 0.441146 -0.080188
v 0.342286 0.441146 0.076370
v 0.229875 0.606411 -0.080188
v 0.110874 0.573012 -0.080188
v 0.110874 0.573012 0.076370
v 0.229875 0.606411 0.076370
v -0.181373 0.604201 -0.080807
v -0.181373 0.604201 0.075751
v -0.297545 0.562754 0.075751
v -0.297545 0.562754 -0.080807
v -0.021281 0.428469 0.075751
v -0.021281 0.428469 -0.080807
v -0.343198 0.441146 0.075751
v -0.343198 0.441146 -0.080807
v -0.230786 0.606411 0.075751
v -0.111785 0.573012 0.075751
v -0.111785 0.573012 -0.080807
v -0.230786 0.606411 -0.080807
v 0.048040 0.632345 0.149244
v 0.148546 0.632345 0.048737
v 0.223126 0.570321 0.123317
v 0.122620 0.570321 0.223823
v 0.045771 0.397644 -0.054038
v -0.054735 0.397644 0.046468
v 0.252434 0.412052 0.152625
v 0.151928 0.412052 0.253131
v 0.180268 0.633231 0.080460
v 0.103873 0.592570 0.004064
v 0.003366 0.592570 0.104570
v 0.079762 0.633231 0.180966
v -0.051019 0.632345 -0.154374
v -0.151526 0.632345 -0.053867
v -0.226105 0.570321 -0.128447
v -0.125599 0.570321 -0.228953
v -0.048750 0.397644 0.048908
v 0.051756 0.397644 -0.051598
v -0.255413 0.412052 -0.157755
v -0.154907 0.412052 -0.258261
v -0.183248 0.633231 -0.085589
v -0.106852 0.592570 -0.009194
v -0.006346 0.592570 -0.109700
v -0.082741 0.633231 -0.186096
v 0.152385 0.632345 -0.052782
v 0.051879 0.632345 -0.153288
v 0.126459 0.570321 -0.227868
v 0.226965 0.570321 -0.127361
v -0.050896 0.397644 -0.050512
v 0.049610 0.397644 0.049994
v 0.155766 0.412052 -0.257175
v 0.256273 0.412052 -0.156669
v 0.083601 0.633231 -0.185010
v 0.007205 0.592570 -0.108614
v 0.107712 0.592570 -0.008108
v 0.184107 0.633231 -0.084504
v -0.152608 0.632345 0.048341
v -0.052101 0.632345 0.148847
v -0.126681 0.570321 0.223427
v -0.227187 0.570321 0.122921
v 0.050674 0.397644 0.046072
v -0.049832 0.397644 -0.054434
v -0.155989 0.412052 0.252735
v -0.256495 0.412052 0.152229
v -0.083824 0.633231 0.180570
v -0.007428 0.592570 0.104174
v -0.107934 0.592570 0.003668
v -0.184330 0.633231 0.080063
vn -0.0000 1.0000 -0.0000
vn 0.4781 0.2929 -0.8281
vn -0.0000 0.2929 -0.9562
vn -0.1315 -0.9648 -0.2278
vn -0.0000 -0.9648 -0.2630
vn 0.1315 -0.9648 -0.2278
vn 0.2278 -0.9648 -0.1315
vn 0.2630 -0.9648 -0.0000
vn 0.2278 -0.9648 0.1315
vn 0.1315 -0.9648 0.2278
vn -0.0000 -0.9648 0.2630
vn -0.1315 -0.9648 0.2278
vn -0.2278 -0.9648 0.1315
vn -0.2630 -0.9648 -0.0000
vn -0.2278 -0.9648 -0.1315
vn -0.4784 -0.2908 -0.8286
vn -0.0000 -0.2908 -0.9568
vn -0.0000 -0.4540 -0.8910
vn -0.4455 -0.4540 -0.7716
vn -0.2217 -0.8963 -0.3841
vn -0.0000 -0.8963 -0.4435
vn -0.8286 -0.2908 -0.4784
vn -0.7716 -0.4540 -0.4455
vn -0.3841 -0.8963 -0.2217
vn -0.9568 -0.2908 -0.0000
vn -0.8910 -0.4540 -0.0000
vn -0.4435 -0.8963 -0.0000
vn -0.8286 -0.2908 0.4784
vn -0.7716 -0.4540 0.4455
vn -0.3841 -0.8963 0.2217
vn -0.4784 -0.2908 0.8286
vn -0.4455 -0.4540 0.7716
vn -0.2217 -0.8963 0.3841
vn -0.0000 -0.2908 0.9568
vn -0.0000 -0.4540 0.8910
vn -0.0000 -0.8963 0.4435
vn 0.4784 -0.2908 0.8286
vn 0.4455 -0.4540 0.7716
vn 0.2217 -0.8963 0.3841
vn 0.8286 -0.2908 0.4784
vn 0.7716 -0.4540 0.4455
vn 0.3841 -0.8963 0.2217
vn 0.9568 -0.2908 -0.0000
vn 0.8910 -0.4540 -0.0000
vn 0.4435 -0.8963 -0.0000
vn 0.8286 -0.2908 -0.4784
vn 0.7716 -0.4540 -0.4455
vn 0.3841 -0.8963 -0.2217
vn 0.4784 -0.2908 -0.8286
vn 0.4455 -0.4540 -0.7716
vn 0.2217 -0.8963 -0.3841
vn -0.4955 -0.1343 -0.8582
vn -0.0000 -0.1343 -0.9909
vn -0.8582 -0.1343 -0.4955
vn -0.9909 -0.1343 -0.0000
vn -0.8582 -0.1343 0.4955
vn -0.4955 -0.1343 0.8582
vn -0.0000 -0.1343 0.9909
vn 0.4955 -0.1343 0.8582
vn 0.8582 -0.1343 0.4955
vn 0.9909 -0.1343 -0.0000
vn 0.8582 -0.1343 -0.4955
vn 0.4955 -0.1343 -0.8582
vn 0.8281 0.2929 0.4781
vn 0.9562 0.2929 -0.0000
vn -0.9562 0.2929 -0.0000
vn -0.8281 0.2929 0.4781
vn -0.4781 0.2929 -0.8281
vn 0.8281 0.2929 -0.4781
vn -0.4781 0.2929 0.8281
vn -0.0000 0.2929 0.9562
vn 0.4781 0.2929 0.8281
vn -0.8281 0.2929 -0.4781
vn -0.0000 0.9125 -0.4090
vn -0.0000 0.9730 -0.2309
vn -0.0000 0.8369 0.5473
vn -0.3940 0.6158 -0.6823
vn -0.0000 0.6158 -0.7879
vn -0.6823 0.6158 -0.3940
vn -0.7879 0.6158 -0.0000
vn -0.6823 0.6158 0.3940
vn -0.3940 0.6158 0.6823
vn -0.0000 0.6158 0.7879
vn 0.3940 0.6158 0.6823
vn 0.6823 0.6158 0.3940
vn 0.7879 0.6158 -0.0000
vn 0.6823 0.6158 -0.3940
vn 0.3940 0.6158 -0.6823
vn -0.0000 0.3515 0.9362
vn -0.0000 0.5307 -0.8476
vn -0.0000 0.9990 -0.0447
vn -0.0000 0.9125 0.4090
vn -0.0000 0.9730 0.2309
vn -0.0000 0.8369 -0.5473
vn -0.0000 0.3515 -0.9362
vn -0.0000 0.5307 0.8476
vn -0.0000 0.9990 0.0447
vn -0.4090 0.9125 -0.0000
vn -0.2309 0.9730 -0.0000
vn 0.5473 0.8369 -0.0000
vn 0.9362 0.3515 -0.0000
vn -0.8476 0.5307 -0.0000
vn -0.0447 0.9990 -0.0000
vn 0.4090 0.9125 -0.0000
vn 0.2309 0.9730 -0.0000
vn -0.5473 0.8369 -0.0000
vn -0.9362 0.3515 -0.0000
vn 0.8476 0.5307 -0.0000
vn 0.0447 0.9990 -0.0000
vn -0.3767 0.8463 -0.3767
vn 0.5092 0.6938 0.5092
vn 0.6166 0.4894 0.6166
vn 0.6840 0.2533 0.6840
vn -0.6516 0.3884 -0.6516
vn -0.0140 0.9998 -0.0140
vn 0.3767 0.8463 0.3767
vn -0.5092 0.6938 -0.5092
vn -0.6166 0.4894 -0.6166
vn -0.6840 0.2533 -0.6840
vn 0.6516 0.3884 0.6516
vn 0.0140 0.9998 0.0140
vn -0.3767 0.8463 0.3767
vn 0.5092 0.6938 -0.5092
vn 0.6166 0.4894 -0.6166
vn 0.6840 0.2533 -0.6840
vn -0.6516 0.3884 0.6516
vn -0.0140 0.9998 0.0140
vn 0.3767 0.8463 -0.3767
vn -0.5092 0.6938 0.5092
vn -0.6166 0.4894 0.6166
vn -0.6840 0.2533 0.6840
vn 0.6516 0.3884 -0.6516
vn 0.0140 0.9998 -0.0140
vt 0.472201 0.964712
vt 0.472201 0.962371
vt 0.472601 0.962264
vt 0.472601 0.964819
vt 0.469003 0.967910
vt 0.466662 0.967909
vt 0.471030 0.966739
vt 0.471323 0.967032
vt 0.469110 0.968310
vt 0.463465 0.962371
vt 0.463465 0.964712
vt 0.463065 0.964819
vt 0.463065 0.962264
vt 0.466555 0.968310
vt 0.469423 0.961952
vt 0.468415 0.961370
vt 0.467251 0.961370
vt 0.466243 0.961952
vt 0.465661 0.962960
vt 0.465661 0.964124
vt 0.466243 0.965131
vt 0.467251 0.965714
vt 0.468415 0.965714
vt 0.469423 0.965132
vt 0.470005 0.964124
vt 0.470005 0.962960
vt 0.464635 0.960344
vt 0.464343 0.960051
vt 0.464635 0.966739
vt 0.466555 0.968310
vt 0.464343 0.967032
vt 0.469003 0.959174
vt 0.466663 0.959174
vt 0.466555 0.958774
vt 0.469110 0.958774
vt 0.472601 0.964819
vt 0.464342 0.960051
vt 0.464343 0.967032
vt 0.471493 0.959881
vt 0.469173 0.958542
vt 0.469160 0.958589
vt 0.471459 0.959916
vt 0.472833 0.962202
vt 0.471493 0.959881
vt 0.472786 0.962214
vt 0.472833 0.964881
vt 0.472786 0.964869
vt 0.471493 0.967202
vt 0.471459 0.967167
vt 0.469173 0.968542
vt 0.471493 0.967202
vt 0.469160 0.968495
vt 0.466493 0.968542
vt 0.466506 0.968495
vt 0.464173 0.967202
vt 0.464207 0.967167
vt 0.462833 0.964881
vt 0.464173 0.967202
vt 0.462880 0.964869
vt 0.462833 0.962202
vt 0.462833 0.964881
vt 0.462880 0.962214
vt 0.464173 0.959881
vt 0.462833 0.962202
vt 0.464207 0.959916
vt 0.466493 0.958542
vt 0.466506 0.958589
vt 0.469173 0.958542
vt 0.471030 0.960344
vt 0.471323 0.960051
vt 0.472601 0.962264
vt 0.472833 0.962202
vt 0.471493 0.959881
vt 0.472833 0.962202
vt 0.471493 0.967202
vt 0.472833 0.964881
vt 0.464173 0.967202
vt 0.462833 0.964881
vt 0.462833 0.962202
vt 0.464173 0.959881
vt 0.466493 0.958542
vt 0.834258 0.205403
vt 0.996991 0.205403
vt 0.996991 0.266052
vt 0.834258 0.266052
vt 0.834258 0.326700
vt 0.996991 0.326700
vt 0.996991 0.387349
vt 0.834258 0.387349
vt 0.210822 0.704470
vt 0.212849 0.705640
vt 0.214020 0.707667
vt 0.214020 0.710008
vt 0.212849 0.712035
vt 0.210822 0.713206
vt 0.208482 0.713205
vt 0.206454 0.712035
vt 0.205284 0.710008
vt 0.205284 0.707667
vt 0.206454 0.705640
vt 0.208482 0.704470
vt 0.996991 0.447998
vt 0.834258 0.447998
vt 0.834258 0.084105
vt 0.996991 0.084105
s 1
usemtl palette
f 4/1/1 3/2/1 70/3/1 72/4/1
f 6/5/2 7/6/3 55/6/3 54/5/2
f 6/5/1 5/7/1 74/8/1 76/9/1
f 10/10/1 9/11/1 82/12/1 84/13/1
f 7/6/1 6/5/1 76/9/1 78/14/1
f 16/15/4 14/16/5 46/17/6 43/18/7 40/19/8 37/20/9 34/21/10 31/22/11 28/23/12 25/24/13 22/25/14 19/26/15
f 11/27/1 10/10/1 84/13/1 86/28/1
f 8/29/1 7/6/1 78/30/1 80/31/1
f 2/32/1 12/33/1 88/34/1 67/35/1
f 5/7/1 4/1/1 72/36/1 74/8/1
f 12/33/1 11/27/1 86/37/1 88/34/1
f 9/11/1 8/29/1 80/38/1 82/12/1
f 17/39/16 13/40/17 15/41/18 18/42/19
f 18/42/20 15/41/21 14/16/5 16/15/4
f 20/43/22 17/44/16 18/42/19 21/45/23
f 21/45/24 18/42/20 16/15/4 19/26/15
f 23/46/25 20/43/22 21/45/23 24/47/26
f 24/47/27 21/45/24 19/26/15 22/25/14
f 26/48/28 23/46/25 24/47/26 27/49/29
f 27/49/30 24/47/27 22/25/14 25/24/13
f 29/50/31 26/51/28 27/49/29 30/52/32
f 30/52/33 27/49/30 25/24/13 28/23/12
f 32/53/34 29/50/31 30/52/32 33/54/35
f 33/54/36 30/52/33 28/23/12 31/22/11
f 35/55/37 32/53/34 33/54/35 36/56/38
f 36/56/39 33/54/36 31/22/11 34/21/10
f 38/57/40 35/58/37 36/56/38 39/59/41
f 39/59/42 36/56/39 34/21/10 37/20/9
f 41/60/43 38/61/40 39/59/41 42/62/44
f 42/62/45 39/59/42 37/20/9 40/19/8
f 44/63/46 41/64/43 42/62/44 45/65/47
f 45/65/48 42/62/45 40/19/8 43/18/7
f 47/66/49 44/63/46 45/65/47 48/67/50
f 48/67/51 45/65/48 43/18/7 46/17/6
f 13/68/17 47/66/49 48/67/50 15/41/18
f 15/41/21 48/67/51 46/17/6 14/16/5
f 3/2/1 1/69/1 66/70/1 70/71/1
f 13/40/17 17/39/16 65/39/52 68/40/53
f 17/44/16 20/43/22 69/72/54 65/73/52
f 20/43/22 23/46/25 71/46/55 69/74/54
f 23/46/25 26/48/28 73/75/56 71/76/55
f 26/51/28 29/50/31 75/50/57 73/75/56
f 29/50/31 32/53/34 77/53/58 75/50/57
f 32/53/34 35/55/37 79/55/59 77/53/58
f 35/58/37 38/57/40 81/61/60 79/77/59
f 38/61/40 41/60/43 83/64/61 81/78/60
f 41/64/43 44/63/46 85/63/62 83/79/61
f 44/63/46 47/66/49 87/66/63 85/80/62
f 47/66/49 13/68/17 68/40/53 87/81/63
f 3/2/64 4/1/65 52/1/65 51/2/64
f 10/10/66 11/27/67 59/27/67 58/10/66
f 7/6/3 8/29/68 56/29/68 55/6/3
f 4/1/65 5/7/69 53/7/69 52/1/65
f 11/27/67 12/33/70 60/33/70 59/27/67
f 2/32/71 1/69/72 49/69/72 50/32/71
f 8/29/68 9/11/73 57/11/73 56/29/68
f 5/7/69 6/5/2 54/5/2 53/7/69
f 12/33/70 2/32/71 50/32/71 60/33/70
f 1/69/72 3/2/64 51/2/64 49/69/72
f 9/11/73 10/10/66 58/10/66 57/11/73
f 66/70/77 67/35/78 68/40/78 65/39/77
f 70/71/79 66/70/77 65/73/77 69/72/79
f 72/4/80 70/3/79 69/74/79 71/46/80
f 74/8/81 72/36/80 71/76/80 73/75/81
f 76/9/82 74/8/81 73/75/81 75/50/82
f 78/14/83 76/9/82 75/50/82 77/53/83
f 80/31/84 78/30/83 77/53/83 79/55/84
f 82/12/85 80/38/84 79/77/84 81/61/85
f 84/13/86 82/12/85 81/78/85 83/64/86
f 86/28/87 84/13/86 83/79/86 85/63/87
f 88/34/88 86/37/87 85/80/87 87/66/88
f 67/35/78 88/34/88 87/81/88 68/40/78
f 1/69/1 2/32/1 67/35/1 66/70/1
f 50/90/1 49/91/1 51/92/1 52/93/1 53/94/1 54/95/1 55/96/1 56/97/1 57/98/1 58/99/1 59/100/1 60/101/1
usemtl acc_textures
f 94/82/74 95/83/74 61/84/75 62/85/75
f 93/86/76 96/87/76 64/88/76 63/89/76
f 63/89/89 64/88/89 92/102/89 91/103/89
f 89/104/90 90/105/90 95/83/90 94/82/90
f 62/85/75 61/84/75 96/87/91 93/86/91
f 106/82/92 107/83/92 97/84/93 98/85/93
f 105/86/94 108/87/94 100/88/94 99/89/94
f 99/89/95 100/88/95 104/102/95 103/103/95
f 101/104/96 102/105/96 107/83/96 106/82/96
f 98/85/93 97/84/93 108/87/97 105/86/97
f 118/82/98 119/83/98 109/84/99 110/85/99
f 117/86/100 120/87/100 112/88/100 111/89/100
f 111/89/101 112/88/101 116/102/101 115/103/101
f 113/104/102 114/105/102 119/83/102 118/82/102
f 110/85/99 109/84/99 120/87/103 117/86/103
f 130/82/104 131/83/104 121/84/105 122/85/105
f 129/86/106 132/87/106 124/88/106 123/89/106
f 123/89/107 124/88/107 128/102/107 127/103/107
f 125/104/108 126/105/108 131/83/108 130/82/108
f 122/85/105 121/84/105 132/87/109 129/86/109
f 142/82/110 143/83/110 133/84/110 134/85/110
f 141/86/111 144/87/111 136/88/112 135/89/112
f 135/89/112 136/88/112 140/102/113 139/103/113
f 137/104/114 138/105/114 143/83/114 142/82/114
f 134/85/115 133/84/115 144/87/115 141/86/115
f 154/82/116 155/83/116 145/84/116 146/85/116
f 153/86/117 156/87/117 148/88/118 147/89/118
f 147/89/118 148/88/118 152/102/119 151/103/119
f 149/104/120 150/105/120 155/83/120 154/82/120
f 146/85/121 145/84/121 156/87/121 153/86/121
f 166/82/122 167/83/122 157/84/122 158/85/122
f 165/86/123 168/87/123 160/88/124 159/89/124
f 159/89/124 160/88/124 164/102/125 163/103/125
f 161/104/126 162/105/126 167/83/126 166/82/126
f 158/85/127 157/84/127 168/87/127 165/86/127
f 178/82/128 179/83/128 169/84/128 170/85/128
f 177/86/129 180/87/129 172/88/130 171/89/130
f 171/89/130 172/88/130 176/102/131 175/103/131
f 173/104/132 174/105/132 179/83/132 178/82/132
f 170/85/133 169/84/133 180/87/133 177/86/133
