# Blender 3.6.2
# www.blender.org
mtllib Plant_5.mtl
o Plant_5
v 0.000000 0.000000 -0.070679
v -0.035339 0.000000 -0.061210
v -0.061210 0.000000 -0.035340
v -0.070679 0.000000 -0.000000
v -0.061210 0.000000 0.035339
v -0.035339 0.000000 0.061210
v 0.000000 0.000000 0.070679
v 0.035340 0.000000 0.061210
v 0.061210 0.000000 0.035339
v 0.070679 0.000000 -0.000000
v 0.061210 0.000000 -0.035340
v 0.035340 0.000000 -0.061210
v -0.044709 0.464369 -0.077440
v 0.000001 0.464369 -0.089420
v -0.077439 0.464369 -0.044710
v -0.089419 0.464369 -0.000000
v -0.077439 0.464369 0.044710
v -0.044709 0.464369 0.077440
v 0.000001 0.464369 0.089420
v 0.044711 0.464369 0.077440
v 0.077440 0.464369 0.044710
v 0.089420 0.464369 -0.000000
v 0.077440 0.464369 -0.044710
v 0.044711 0.464369 -0.077440
v -0.014872 0.457351 0.048520
v 0.029363 0.457351 0.048520
v 0.030284 0.451831 -0.004330
v 0.016536 0.451828 0.037912
v -0.026626 0.540344 0.077167
v -0.038145 1.232000 0.140795
v -0.041659 0.753165 0.126076
v -0.041130 1.026019 0.147206
v 0.052455 1.232379 0.140795
v 0.041117 0.540344 0.077167
v 0.055609 1.026244 0.147206
v 0.056150 0.753097 0.126076
v -0.002164 1.738029 0.042961
v -0.020784 1.538245 0.095237
v -0.010068 1.654202 0.066743
v 0.013484 1.655277 0.066966
v 0.031633 1.536309 0.095987
v 0.040387 0.514137 0.058571
v 0.102211 1.245020 0.082337
v 0.092968 0.698589 0.083359
v 0.109777 1.007902 0.094495
v 0.126364 1.245231 0.008120
v 0.062218 0.514287 -0.008408
v 0.140388 1.008402 0.000435
v 0.120245 0.698400 -0.000456
v 0.022186 1.731319 0.019382
v 0.059410 1.533228 0.056301
v 0.037632 1.646531 0.035109
v 0.044680 1.646853 0.013474
v 0.075621 1.532748 0.007045
v -0.007420 0.457351 -0.054236
v 0.020242 0.457351 -0.019718
v 0.049947 0.540344 -0.028460
v 0.107432 1.246109 -0.057310
v 0.097324 0.745896 -0.047898
v 0.117646 1.022216 -0.056613
v 0.048238 1.246006 -0.131175
v 0.007585 0.540344 -0.081323
v 0.049810 1.022150 -0.141262
v 0.036877 0.745912 -0.123327
v 0.012245 1.738377 -0.015866
v 0.058546 1.538836 -0.043637
v 0.032071 1.654330 -0.030033
v 0.017365 1.657323 -0.048411
v 0.026776 1.533926 -0.086543
v -0.040700 0.457351 -0.016003
v -0.005778 0.457351 -0.043154
v -0.014083 0.540344 -0.072985
v -0.032746 1.250233 -0.122498
v -0.026866 0.749593 -0.118856
v -0.031609 1.024085 -0.133481
v -0.113897 1.250057 -0.059401
v -0.067563 0.540344 -0.031405
v -0.124613 1.023937 -0.061172
v -0.109741 0.749646 -0.054423
v -0.024379 1.734773 -0.016988
v -0.031073 1.535714 -0.077662
v -0.028026 1.652006 -0.045639
v -0.046211 1.651153 -0.031236
v -0.071870 1.537100 -0.045241
v -0.029090 0.452519 0.035979
v -0.048845 0.452519 -0.003599
v -0.079431 0.523209 -0.000645
v -0.146130 1.251335 0.006270
v -0.130315 0.705313 0.004576
v -0.157217 0.969481 0.004299
v -0.094890 1.251766 0.108930
v -0.049177 0.523209 0.059967
v -0.098496 0.970051 0.121946
v -0.082610 0.705035 0.100152
v -0.034232 1.727633 0.021401
v -0.091054 1.542641 0.012956
v -0.058407 1.643654 0.017036
v -0.048503 1.642704 0.037000
v -0.067460 1.543507 0.059351
v -0.005447 0.433650 0.043650
v 0.018589 0.433650 0.025169
v 0.000941 0.531682 0.065331
v 0.017495 1.273623 0.106348
v 0.014091 0.757298 0.103017
v 0.019876 1.015113 0.117291
v 0.072837 1.273465 0.063796
v 0.037324 0.531682 0.037356
v 0.079773 1.014644 0.071237
v 0.067465 0.757281 0.061979
v 0.004832 1.751183 0.031497
v 0.003418 1.607659 0.068274
v 0.000726 1.680821 0.045081
v 0.011942 1.679143 0.037020
v 0.030011 1.605185 0.048136
v 0.013483 0.433650 0.016821
v 0.003245 0.433650 -0.011718
v 0.034686 0.528007 0.017775
v 0.088562 1.266708 0.013347
v 0.070590 0.753685 0.018582
v 0.095485 1.020043 0.016328
v 0.064770 1.267157 -0.052978
v 0.019008 0.528007 -0.025932
v 0.068220 1.020549 -0.059680
v 0.046294 0.753841 -0.049147
v 0.010952 1.753405 0.009640
v 0.042805 1.605131 0.014299
v 0.021426 1.682230 0.013274
v 0.016973 1.681660 0.000007
v 0.031561 1.604355 -0.017220
v 0.001976 0.433650 -0.019242
v -0.028344 0.433650 -0.019393
v 0.006488 0.528007 -0.036998
v 0.032282 1.269310 -0.089191
v 0.020775 0.754303 -0.064547
v 0.034213 1.023886 -0.084720
v -0.037942 1.270427 -0.094995
v -0.039751 0.528007 -0.041252
v -0.044599 1.025425 -0.102356
v -0.049442 0.754777 -0.080273
v -0.005251 1.756626 -0.013454
v 0.016282 1.606607 -0.058689
v 0.005255 1.686867 -0.032006
v -0.008849 1.686633 -0.029657
v -0.017236 1.607274 -0.054954
v -0.020244 0.433650 -0.022037
v -0.026739 0.433650 0.007580
v -0.035013 0.505732 -0.034945
v -0.076949 1.305072 -0.056691
v -0.062072 0.711871 -0.064703
v -0.081435 1.073320 -0.074940
v -0.092716 1.304775 0.015425
v -0.045554 0.505732 0.013122
v -0.104454 1.072736 0.030018
v -0.082584 0.711827 0.028824
v -0.022382 1.747993 0.005277
v -0.043834 1.604082 -0.024984
v -0.027700 1.676259 -0.006471
v -0.030434 1.675996 0.007042
v -0.050666 1.604537 0.007679
v -0.030454 0.433650 0.020090
v -0.004467 0.433650 0.035711
v -0.047476 0.528007 0.032768
v -0.080091 1.274232 0.063690
v -0.075405 0.754007 0.054463
v -0.087346 1.026798 0.065792
v -0.019699 1.273797 0.099991
v -0.007679 0.528007 0.056691
v -0.018138 1.026426 0.107394
v -0.013735 0.753979 0.091534
v -0.016811 1.754271 0.033228
v -0.044963 1.608503 0.040992
v -0.027293 1.683393 0.033017
v -0.015021 1.682895 0.040071
v -0.016245 1.607584 0.057916
v -0.062126 0.479257 -0.107605
v 0.000000 0.479257 -0.124252
v -0.107605 0.479257 -0.062126
v -0.124251 0.479257 -0.000000
v -0.107605 0.479257 0.062126
v -0.062126 0.479257 0.107605
v 0.000000 0.479257 0.124252
v 0.062126 0.479257 0.107605
v 0.107606 0.479257 0.062126
v 0.124252 0.479257 -0.000000
v 0.107606 0.479257 -0.062126
v 0.062126 0.479257 -0.107605
v 0.000000 0.066455 -0.092139
v 0.000000 0.036734 -0.074097
v -0.037048 0.036734 -0.064170
v -0.046069 0.066455 -0.079795
v -0.064169 0.036734 -0.037049
v -0.079794 0.066455 -0.046070
v -0.074096 0.036734 -0.000000
v -0.092138 0.066455 -0.000000
v -0.064169 0.036734 0.037048
v -0.079794 0.066455 0.046069
v -0.037048 0.036734 0.064169
v -0.046069 0.066455 0.079794
v 0.000000 0.036734 0.074097
v 0.000000 0.066455 0.092139
v 0.037049 0.036734 0.064170
v 0.046070 0.066455 0.079794
v 0.064170 0.036734 0.037048
v 0.079795 0.066455 0.046069
v 0.074097 0.036734 -0.000000
v 0.092139 0.066455 -0.000000
v 0.064170 0.036734 -0.037049
v 0.079795 0.066455 -0.046070
v 0.037049 0.036734 -0.064170
v 0.046070 0.066455 -0.079795
v 0.000000 0.090417 -0.109810
v 0.000000 0.078047 -0.104417
v -0.052208 0.078047 -0.090428
v -0.054905 0.090417 -0.095098
v -0.090427 0.078047 -0.052209
v -0.095098 0.090417 -0.054905
v -0.104416 0.078047 -0.000000
v -0.109810 0.090417 -0.000000
v -0.090427 0.078047 0.052208
v -0.095098 0.090417 0.054905
v -0.052208 0.078047 0.090427
v -0.054905 0.090417 0.095098
v 0.000000 0.078047 0.104417
v 0.000000 0.090417 0.109810
v 0.052209 0.078047 0.090427
v 0.054905 0.090417 0.095098
v 0.090428 0.078047 0.052208
v 0.095099 0.090417 0.054905
v 0.104417 0.078047 -0.000000
v 0.109810 0.090417 -0.000000
v 0.090428 0.078047 -0.052209
v 0.095099 0.090417 -0.054905
v 0.052209 0.078047 -0.090428
v 0.054905 0.090417 -0.095098
v -0.054253 0.486606 -0.093970
v -0.046684 0.485065 -0.080861
v 0.000001 0.485065 -0.093370
v 0.000001 0.486606 -0.108507
v -0.093969 0.486606 -0.054253
v -0.080860 0.485065 -0.046685
v -0.108506 0.486606 -0.000000
v -0.093369 0.485065 -0.000000
v -0.093969 0.486606 0.054253
v -0.080860 0.485065 0.046685
v -0.054253 0.486606 0.093970
v -0.046684 0.485065 0.080860
v 0.000001 0.486606 0.108507
v 0.000001 0.485065 0.093369
v 0.054254 0.486606 0.093970
v 0.046686 0.485065 0.080860
v 0.093970 0.486606 0.054253
v 0.080861 0.485065 0.046685
v 0.108507 0.486606 -0.000000
v 0.093370 0.485065 -0.000000
v 0.093970 0.486606 -0.054253
v 0.080861 0.485065 -0.046685
v 0.054254 0.486606 -0.093970
v 0.046686 0.485065 -0.080860
vn 0.9823 0.1875 -0.0000
vn 0.8507 0.1875 -0.4911
vn -0.0000 0.1875 -0.9823
vn -0.4911 0.1875 -0.8507
vn -0.0000 0.9061 0.4230
vn -0.2115 0.9061 0.3663
vn -0.9823 0.1875 -0.0000
vn -0.8507 0.1875 0.4911
vn 0.4911 0.1875 -0.8507
vn -0.0000 -1.0000 -0.0000
vn -0.4911 0.1875 0.8507
vn -0.8507 0.1875 -0.4911
vn 0.8507 0.1875 0.4911
vn -0.4728 -0.3254 -0.8189
vn -0.0000 -0.3254 -0.9456
vn -0.0000 -0.0926 -0.9957
vn -0.4979 -0.0926 -0.8623
vn 0.4728 -0.3254 -0.8189
vn 0.4978 -0.0926 -0.8623
vn -0.8189 -0.3254 -0.4728
vn -0.8623 -0.0926 -0.4978
vn -0.8654 -0.0371 0.4997
vn -0.9993 -0.0371 -0.0000
vn -0.9456 -0.3254 -0.0000
vn -0.9957 -0.0926 -0.0000
vn -0.4997 -0.0371 0.8654
vn -0.8189 -0.3254 0.4728
vn -0.8623 -0.0926 0.4978
vn -0.0000 -0.0371 0.9993
vn -0.4728 -0.3254 0.8189
vn -0.4979 -0.0926 0.8623
vn 0.4997 -0.0371 0.8654
vn -0.0000 -0.3254 0.9456
vn -0.0000 -0.0926 0.9957
vn 0.8654 -0.0371 0.4997
vn 0.4728 -0.3254 0.8189
vn 0.4978 -0.0926 0.8623
vn 0.9993 -0.0371 -0.0000
vn 0.8189 -0.3254 0.4728
vn 0.8623 -0.0926 0.4978
vn 0.8654 -0.0371 -0.4997
vn 0.9456 -0.3254 -0.0000
vn 0.9957 -0.0926 -0.0000
vn 0.4997 -0.0371 -0.8654
vn 0.8189 -0.3254 -0.4728
vn 0.8623 -0.0926 -0.4979
vn -0.8654 -0.0371 -0.4997
vn -0.4997 -0.0371 -0.8654
vn -0.0000 0.1875 0.9823
vn -0.5945 -0.7271 -0.3433
vn -0.3433 -0.7271 -0.5945
vn -0.3843 -0.6397 -0.6656
vn -0.6656 -0.6397 -0.3843
vn -0.6865 -0.7271 -0.0000
vn -0.7686 -0.6397 -0.0000
vn -0.5945 -0.7271 0.3433
vn -0.6656 -0.6397 0.3843
vn -0.3433 -0.7271 0.5945
vn -0.3843 -0.6397 0.6656
vn -0.0000 -0.7271 0.6865
vn -0.0000 -0.6397 0.7686
vn 0.3433 -0.7271 0.5945
vn 0.3843 -0.6397 0.6656
vn 0.5945 -0.7271 0.3433
vn 0.6656 -0.6397 0.3843
vn 0.6865 -0.7271 -0.0000
vn 0.7686 -0.6397 -0.0000
vn 0.5945 -0.7271 -0.3433
vn 0.6656 -0.6397 -0.3843
vn 0.3433 -0.7271 -0.5945
vn 0.3843 -0.6397 -0.6656
vn -0.0000 -0.7271 -0.6865
vn -0.0000 -0.6397 -0.7686
vn -0.4230 0.9061 -0.0000
vn -0.3663 0.9061 -0.2115
vn 0.3663 0.9061 -0.2115
vn 0.4230 0.9061 -0.0000
vn 0.2115 0.9061 0.3663
vn -0.3663 0.9061 0.2115
vn 0.2115 0.9061 -0.3663
vn -0.2115 0.9061 -0.3663
vn 0.3663 0.9061 0.2115
vn -0.0000 0.9061 -0.4230
vn 0.4911 0.1875 0.8507
vn 0.9455 0.1048 0.3083
vn 0.9455 0.1050 0.3083
vn 0.9509 -0.0088 0.3095
vn 0.9509 -0.0086 0.3095
vn -0.0018 0.0875 0.9962
vn -0.0000 -0.0234 0.9997
vn -0.0000 -0.0233 0.9997
vn -0.0000 -0.1494 0.9888
vn -0.0000 -0.2722 0.9622
vn -0.0000 -0.3263 0.9453
vn -0.0064 0.1878 0.9822
vn -0.0066 0.1912 0.9815
vn -0.0152 0.2547 0.9669
vn -0.0152 0.2546 0.9669
vn -0.0216 0.2748 0.9613
vn 0.9354 -0.1797 0.3045
vn 0.9355 -0.1794 0.3045
vn 0.8882 -0.3570 0.2891
vn 0.8886 -0.3561 0.2892
vn 0.8619 -0.4226 0.2802
vn 0.9316 0.1982 0.3046
vn 0.9315 0.1989 0.3046
vn 0.9247 0.2298 0.3036
vn 0.9254 0.2251 0.3048
vn 0.7795 0.0926 -0.6195
vn 0.7795 0.0928 -0.6195
vn 0.7802 -0.0218 -0.6252
vn 0.7802 -0.0219 -0.6252
vn 0.7712 -0.1529 -0.6180
vn 0.7499 -0.2766 -0.6010
vn 0.7376 -0.3263 -0.5911
vn 0.7739 0.1930 -0.6032
vn 0.7733 0.2007 -0.6014
vn 0.7704 0.2599 -0.5822
vn 0.7704 0.2593 -0.5825
vn 0.7715 0.2784 -0.5720
vn -0.6129 0.0795 -0.7862
vn -0.6138 -0.0089 -0.7894
vn -0.6138 -0.0088 -0.7894
vn -0.6088 -0.1271 -0.7830
vn -0.6089 -0.1268 -0.7831
vn -0.5923 -0.2624 -0.7618
vn -0.5923 -0.2623 -0.7618
vn -0.5802 -0.3263 -0.7463
vn -0.6084 0.1757 -0.7739
vn -0.6086 0.1730 -0.7744
vn -0.6040 0.2539 -0.7554
vn -0.6040 0.2541 -0.7554
vn -0.6034 0.2845 -0.7450
vn -0.8907 0.0922 0.4451
vn -0.8944 -0.0288 0.4464
vn -0.8944 -0.0287 0.4464
vn -0.8819 -0.1689 0.4400
vn -0.8820 -0.1688 0.4401
vn -0.8504 -0.3111 0.4242
vn -0.8506 -0.3104 0.4243
vn -0.8291 -0.3760 0.4138
vn -0.8741 0.2068 0.4394
vn -0.8746 0.2046 0.4396
vn -0.8646 0.2459 0.4381
vn -0.8646 0.2458 0.4381
vn -0.8681 0.2270 0.4414
vn 0.6081 0.0763 0.7902
vn 0.6080 0.0767 0.7902
vn 0.6095 -0.0091 0.7927
vn 0.6095 -0.0092 0.7927
vn 0.6057 -0.1105 0.7880
vn 0.6057 -0.1108 0.7879
vn 0.5988 -0.1870 0.7788
vn 0.5988 -0.1872 0.7788
vn 0.5959 -0.2102 0.7750
vn 0.6028 0.1813 0.7770
vn 0.6024 0.1877 0.7758
vn 0.5951 0.1992 0.7786
vn 0.5949 0.1924 0.7804
vn 0.5911 0.1195 0.7977
vn 0.9388 0.0737 -0.3366
vn 0.9388 0.0736 -0.3366
vn 0.9407 -0.0343 -0.3376
vn 0.9407 -0.0341 -0.3376
vn 0.9346 -0.1180 -0.3356
vn 0.9346 -0.1181 -0.3356
vn 0.9269 -0.1741 -0.3326
vn 0.9215 -0.2037 -0.3306
vn 0.9255 0.1825 -0.3319
vn 0.9250 0.1855 -0.3317
vn 0.9263 0.1911 -0.3248
vn 0.9272 0.1869 -0.3246
vn 0.9394 0.1219 -0.3205
vn 0.0903 0.0532 -0.9945
vn 0.0906 0.0530 -0.9945
vn 0.1865 -0.0399 -0.9817
vn 0.1863 -0.0395 -0.9817
vn 0.1923 -0.1138 -0.9747
vn 0.1926 -0.1134 -0.9747
vn 0.1131 -0.1737 -0.9783
vn 0.1152 -0.1726 -0.9782
vn 0.0562 -0.2032 -0.9775
vn -0.0468 0.2040 -0.9779
vn -0.0425 0.1977 -0.9793
vn -0.1402 0.2695 -0.9527
vn -0.1385 0.2724 -0.9522
vn -0.1636 0.2305 -0.9592
vn -0.9740 0.0810 -0.2118
vn -0.9740 0.0809 -0.2118
vn -0.9767 -0.0120 -0.2141
vn -0.9767 -0.0123 -0.2141
vn -0.9713 -0.1058 -0.2131
vn -0.9586 -0.1919 -0.2103
vn -0.9501 -0.2320 -0.2084
vn -0.9594 0.1953 -0.2036
vn -0.9602 0.1906 -0.2041
vn -0.9622 0.1882 -0.1967
vn -0.9614 0.1921 -0.1967
vn -0.9752 0.1043 -0.1953
vn -0.5122 0.0660 0.8563
vn -0.5122 0.0664 0.8563
vn -0.5151 -0.0178 0.8569
vn -0.5151 -0.0180 0.8569
vn -0.5127 -0.1003 0.8527
vn -0.5127 -0.1004 0.8527
vn -0.5075 -0.1728 0.8442
vn -0.5044 -0.2037 0.8391
vn -0.4997 0.1566 0.8519
vn -0.4995 0.1576 0.8518
vn -0.4927 0.1444 0.8581
vn -0.4928 0.1437 0.8582
vn -0.4950 0.0706 0.8660
vn -0.0000 1.0000 -0.0000
vn -0.0000 -0.0371 -0.9993
vn -0.4583 -0.3997 -0.7939
vn -0.0000 -0.3997 -0.9167
vn -0.7939 -0.3997 -0.4583
vn -0.9167 -0.3997 -0.0000
vn -0.7939 -0.3997 0.4583
vn -0.4583 -0.3997 0.7939
vn -0.0000 -0.3997 0.9167
vn 0.4583 -0.3997 0.7939
vn 0.7939 -0.3997 0.4583
vn 0.9167 -0.3997 -0.0000
vn 0.7939 -0.3997 -0.4583
vn 0.4583 -0.3997 -0.7939
vn 0.0507 0.9949 0.0877
vn -0.0000 0.9949 0.1013
vn 0.0877 0.9949 0.0507
vn 0.1013 0.9949 -0.0000
vn 0.0877 0.9949 -0.0507
vn 0.0506 0.9949 -0.0877
vn 0.0507 0.9949 -0.0877
vn -0.0000 0.9949 -0.1013
vn -0.0506 0.9949 -0.0877
vn -0.0877 0.9949 -0.0506
vn -0.1013 0.9949 -0.0000
vn -0.0877 0.9949 0.0506
vn -0.0507 0.9949 0.0877
vt 0.472201 0.964712
vt 0.471030 0.966739
vt 0.471030 0.966739
vt 0.472201 0.964712
vt 0.466663 0.967910
vt 0.464635 0.966739
vt 0.464635 0.966739
vt 0.466662 0.967909
vt 0.466616 0.968082
vt 0.469050 0.968082
vt 0.469110 0.968310
vt 0.466555 0.968310
vt 0.463465 0.962371
vt 0.464635 0.960344
vt 0.463465 0.962371
vt 0.469003 0.967910
vt 0.469003 0.967910
vt 0.469423 0.961952
vt 0.468415 0.961370
vt 0.467251 0.961370
vt 0.466243 0.961952
vt 0.465661 0.962960
vt 0.465661 0.964124
vt 0.466243 0.965132
vt 0.467251 0.965714
vt 0.468415 0.965714
vt 0.469423 0.965132
vt 0.470005 0.964124
vt 0.470005 0.962960
vt 0.466663 0.959174
vt 0.466662 0.959174
vt 0.463465 0.964712
vt 0.472201 0.962371
vt 0.472201 0.962371
vt 0.470799 0.960575
vt 0.468919 0.959489
vt 0.466747 0.959489
vt 0.471885 0.962456
vt 0.471323 0.967032
vt 0.472601 0.964819
vt 0.472828 0.964880
vt 0.471490 0.967199
vt 0.471885 0.964627
vt 0.469171 0.968537
vt 0.470799 0.966508
vt 0.466494 0.968537
vt 0.468919 0.967594
vt 0.464342 0.967032
vt 0.464176 0.967198
vt 0.466747 0.967594
vt 0.463065 0.964819
vt 0.462837 0.964880
vt 0.464866 0.966508
vt 0.463065 0.962264
vt 0.462837 0.962203
vt 0.463780 0.964627
vt 0.464342 0.960051
vt 0.464176 0.959885
vt 0.463781 0.962456
vt 0.466555 0.958774
vt 0.466494 0.958546
vt 0.464866 0.960575
vt 0.472601 0.962264
vt 0.471323 0.960051
vt 0.471490 0.959885
vt 0.472828 0.962203
vt 0.469003 0.959174
vt 0.469003 0.959174
vt 0.472825 0.962204
vt 0.471488 0.959887
vt 0.471473 0.959901
vt 0.472806 0.962209
vt 0.472825 0.964879
vt 0.472806 0.964874
vt 0.471488 0.967196
vt 0.471473 0.967182
vt 0.469171 0.968534
vt 0.469165 0.968515
vt 0.466495 0.968534
vt 0.466500 0.968515
vt 0.464178 0.967196
vt 0.464192 0.967182
vt 0.462840 0.964879
vt 0.462860 0.964874
vt 0.462840 0.962204
vt 0.462860 0.962209
vt 0.464178 0.959887
vt 0.464192 0.959901
vt 0.466495 0.958549
vt 0.466500 0.958568
vt 0.469171 0.958549
vt 0.469165 0.958568
vt 0.472373 0.964758
vt 0.472373 0.962325
vt 0.464509 0.960218
vt 0.463292 0.962325
vt 0.464509 0.966865
vt 0.471157 0.966865
vt 0.466616 0.959001
vt 0.471157 0.960218
vt 0.463292 0.964758
vt 0.469049 0.959001
vt 0.469110 0.958774
vt 0.471030 0.960344
vt 0.626731 0.713067
vt 0.616731 0.713067
vt 0.617389 0.713067
vt 0.626074 0.713067
vt 0.626731 0.713067
vt 0.617389 0.713067
vt 0.617406 0.709881
vt 0.626057 0.709881
vt 0.616731 0.705159
vt 0.626732 0.705159
vt 0.616731 0.703067
vt 0.626731 0.703067
vt 0.624651 0.713067
vt 0.616731 0.713067
vt 0.626731 0.705159
vt 0.624652 0.713067
vt 0.626074 0.713067
vt 0.626057 0.709881
vt 0.626731 0.705159
vt 0.624652 0.713067
vt 0.626074 0.713067
vt 0.616731 0.713067
vt 0.626732 0.713067
vt 0.626057 0.709881
vt 0.626732 0.705159
vt 0.713346 0.714708
vt 0.703346 0.714708
vt 0.704003 0.714708
vt 0.712688 0.714708
vt 0.704020 0.711521
vt 0.712671 0.711521
vt 0.703346 0.706799
vt 0.713346 0.706799
vt 0.703346 0.704708
vt 0.713346 0.704708
vt 0.711266 0.714708
vt 0.703346 0.714708
vt 0.712688 0.714708
vt 0.712671 0.711521
vt 0.703346 0.704708
vt 0.711266 0.714708
vt 0.713346 0.714708
vt 0.703346 0.714708
vt 0.704003 0.714708
vt 0.712688 0.714708
vt 0.712671 0.711521
vt 0.713346 0.706799
vt 0.713346 0.704708
vt 0.711266 0.714708
vt 0.704020 0.711521
vt 0.711266 0.714708
vt 0.703346 0.714708
vt 0.212201 0.701278
vt 0.214228 0.702448
vt 0.215399 0.704476
vt 0.215399 0.706816
vt 0.214228 0.708843
vt 0.212201 0.710014
vt 0.209861 0.710014
vt 0.207833 0.708844
vt 0.206663 0.706816
vt 0.206663 0.704476
vt 0.207833 0.702449
vt 0.209861 0.701278
vt 0.469171 0.958546
s 1
usemtl palette
f 242/1/1 244/2/2 17/3/2 16/4/1
f 248/5/3 250/6/4 20/7/4 19/8/3
f 247/9/5 245/10/6 180/11/6 181/12/5
f 254/13/7 256/14/8 23/14/8 22/15/7
f 246/16/9 248/5/3 19/8/3 18/17/9
f 2/18/10 1/19/10 12/20/10 11/21/10 10/22/10 9/23/10 8/24/10 7/25/10 6/26/10 5/27/10 4/28/10 3/29/10
f 256/14/8 258/30/11 24/31/11 23/14/8
f 250/6/4 252/32/12 21/32/12 20/7/4
f 240/33/13 242/1/1 16/4/1 15/34/13
f 244/2/2 246/16/9 18/17/9 17/3/2
f 252/32/12 254/13/7 22/15/7 21/32/12
f 189/35/14 188/36/15 1/19/16 2/18/17
f 188/36/15 209/37/18 12/20/19 1/19/16
f 191/38/20 189/35/14 2/18/17 3/29/21
f 179/39/22 178/40/23 218/41/23 220/42/22
f 193/43/24 191/38/20 3/29/21 4/28/25
f 180/11/26 179/39/22 220/42/22 222/44/26
f 195/45/27 193/43/24 4/28/25 5/27/28
f 181/12/29 180/11/26 222/44/26 224/46/29
f 197/47/30 195/45/27 5/27/28 6/26/31
f 182/48/32 181/12/29 224/46/29 226/49/32
f 199/50/33 197/47/30 6/26/31 7/25/34
f 183/51/35 182/48/32 226/49/32 228/52/35
f 201/53/36 199/50/33 7/25/34 8/24/37
f 184/54/38 183/51/35 228/52/35 230/55/38
f 203/56/39 201/53/36 8/24/37 9/23/40
f 185/57/41 184/54/38 230/55/38 232/58/41
f 205/59/42 203/56/39 9/23/40 10/22/43
f 186/60/44 185/57/41 232/58/41 234/61/44
f 207/62/45 205/59/42 10/22/43 11/21/46
f 209/37/18 207/62/45 11/21/46 12/20/19
f 177/63/47 175/64/48 214/65/48 216/66/47
f 178/40/23 177/63/47 216/66/47 218/41/23
f 258/30/11 237/67/49 14/68/49 24/31/11
f 215/69/50 213/70/51 190/71/52 192/72/53
f 217/73/54 215/69/50 192/72/53 194/74/55
f 219/75/56 217/73/54 194/74/55 196/76/57
f 221/77/58 219/75/56 196/76/57 198/78/59
f 223/79/60 221/77/58 198/78/59 200/80/61
f 225/81/62 223/79/60 200/80/61 202/82/63
f 227/83/64 225/81/62 202/82/63 204/84/65
f 229/85/66 227/83/64 204/84/65 206/86/67
f 231/87/68 229/85/66 206/86/67 208/88/69
f 233/89/70 231/87/68 208/88/69 210/90/71
f 213/70/51 212/91/72 187/92/73 190/71/52
f 241/93/74 239/94/75 177/63/75 178/40/74
f 255/95/76 253/96/77 184/54/77 185/57/76
f 249/97/78 247/9/5 181/12/5 182/48/78
f 243/98/79 241/93/74 178/40/74 179/39/79
f 257/99/80 255/95/76 185/57/76 186/60/80
f 239/94/75 235/100/81 175/64/81 177/63/75
f 251/101/82 249/97/78 182/48/78 183/51/82
f 245/10/6 243/98/79 179/39/79 180/11/6
f 238/102/83 257/99/80 186/60/80 176/103/83
f 237/67/49 236/104/84 13/104/84 14/68/49
f 253/96/77 251/101/82 183/51/82 184/54/77
f 46/105/85 43/106/86 45/107/87 48/108/88
f 33/109/89 30/106/89 32/110/90 35/108/91
f 35/108/91 32/110/90 31/111/92 36/112/92
f 36/112/92 31/111/92 29/113/93 34/114/93
f 25/115/94 26/116/94 34/114/93 29/113/93
f 30/106/89 33/109/89 41/105/95 38/106/96
f 40/117/97 39/118/98 38/106/96 41/105/95
f 39/118/98 40/117/97 37/106/99
f 48/108/88 45/107/87 44/111/100 49/112/101
f 49/112/101 44/111/100 42/113/102 47/119/103
f 28/115/104 27/116/104 47/119/103 42/113/102
f 43/106/86 46/105/85 54/105/105 51/106/106
f 53/120/107 52/106/107 51/106/106 54/105/105
f 52/106/107 53/120/107 50/106/108
f 61/109/109 58/106/110 60/107/111 63/121/112
f 63/121/112 60/107/111 59/111/113 64/122/113
f 64/122/113 59/111/113 57/113/114 62/123/114
f 56/115/115 55/116/115 62/123/114 57/113/114
f 58/106/110 61/109/109 69/105/116 66/106/117
f 68/124/118 67/106/119 66/106/117 69/105/116
f 67/106/119 68/124/118 65/106/120
f 76/109/121 73/106/121 75/107/122 78/125/123
f 78/125/123 75/107/122 74/111/124 79/112/125
f 79/112/125 74/111/124 72/113/126 77/119/127
f 71/115/128 70/116/128 77/119/127 72/113/126
f 73/106/121 76/109/121 84/105/129 81/126/130
f 83/117/131 82/106/132 81/126/130 84/105/129
f 82/106/132 83/117/131 80/106/133
f 91/127/134 88/106/134 90/107/135 93/121/136
f 93/121/136 90/107/135 89/111/137 94/128/138
f 94/128/138 89/111/137 87/113/139 92/129/140
f 86/115/141 85/116/141 92/129/140 87/113/139
f 88/106/134 91/127/134 99/105/142 96/106/143
f 98/124/144 97/106/145 96/106/143 99/105/142
f 97/106/145 98/124/144 95/106/146
f 106/130/147 103/131/148 105/132/149 108/133/150
f 108/133/150 105/132/149 104/134/151 109/135/152
f 109/135/152 104/134/151 102/136/153 107/137/154
f 100/138/155 101/139/155 107/137/154 102/136/153
f 103/131/148 106/130/147 114/130/156 111/131/157
f 113/140/158 112/131/159 111/131/157 114/130/156
f 112/131/159 113/140/158 110/141/160
f 121/130/161 118/131/162 120/132/163 123/142/164
f 123/142/164 120/132/163 119/134/165 124/143/166
f 124/143/166 119/134/165 117/136/167 122/137/167
f 115/144/168 116/139/168 122/137/167 117/136/167
f 118/131/162 121/130/161 129/130/169 126/131/170
f 128/145/171 127/141/172 126/131/170 129/130/169
f 127/141/172 128/145/171 125/131/173
f 136/146/174 133/147/175 135/148/176 138/149/177
f 138/149/177 135/148/176 134/134/178 139/150/179
f 139/150/179 134/134/178 132/136/180 137/151/181
f 130/138/182 131/152/182 137/151/181 132/136/180
f 133/147/175 136/146/174 144/130/183 141/147/184
f 143/153/185 142/131/186 141/147/184 144/130/183
f 142/131/186 143/153/185 140/131/187
f 151/130/188 148/131/189 150/148/190 153/142/191
f 153/142/191 150/148/190 149/154/192 154/143/192
f 154/143/192 149/154/192 147/136/193 152/137/193
f 145/138/194 146/152/194 152/137/193 147/136/193
f 148/131/189 151/130/188 159/130/195 156/131/196
f 158/155/197 157/147/198 156/131/196 159/130/195
f 157/147/198 158/155/197 155/131/199
f 166/130/200 163/131/201 165/132/202 168/142/203
f 168/142/203 165/132/202 164/134/204 169/135/205
f 169/135/205 164/134/204 162/136/206 167/137/206
f 160/144/207 161/139/207 167/137/206 162/136/206
f 163/131/201 166/130/200 174/130/208 171/147/209
f 173/153/210 172/156/211 171/147/209 174/130/208
f 172/156/211 173/153/210 170/131/212
f 236/104/84 240/33/13 15/34/13 13/104/84
f 14/157/213 13/158/213 15/159/213 16/160/213 17/161/213 18/162/213 19/163/213 20/164/213 21/165/213 22/166/213 23/167/213 24/168/213
f 212/91/72 233/89/70 210/90/71 187/92/73
f 188/36/15 189/35/14 190/71/52 187/92/73
f 189/35/14 191/38/20 192/72/53 190/71/52
f 191/38/20 193/43/24 194/74/55 192/72/53
f 193/43/24 195/45/27 196/76/57 194/74/55
f 195/45/27 197/47/30 198/78/59 196/76/57
f 197/47/30 199/50/33 200/80/61 198/78/59
f 199/50/33 201/53/36 202/82/63 200/80/61
f 201/53/36 203/56/39 204/84/65 202/82/63
f 203/56/39 205/59/42 206/86/67 204/84/65
f 205/59/42 207/62/45 208/88/69 206/86/67
f 207/62/45 209/37/18 210/90/71 208/88/69
f 209/37/18 188/36/15 187/92/73 210/90/71
f 176/103/214 186/60/44 234/61/44 211/169/214
f 214/65/215 211/169/216 212/91/216 213/70/215
f 216/66/217 214/65/215 213/70/215 215/69/217
f 218/41/218 216/66/217 215/69/217 217/73/218
f 220/42/219 218/41/218 217/73/218 219/75/219
f 222/44/220 220/42/219 219/75/219 221/77/220
f 224/46/221 222/44/220 221/77/220 223/79/221
f 226/49/222 224/46/221 223/79/221 225/81/222
f 228/52/223 226/49/222 225/81/222 227/83/223
f 230/55/224 228/52/223 227/83/223 229/85/224
f 232/58/225 230/55/224 229/85/224 231/87/225
f 234/61/226 232/58/225 231/87/225 233/89/226
f 211/169/216 234/61/226 233/89/226 212/91/216
f 175/64/48 176/103/214 211/169/214 214/65/48
f 236/104/227 237/67/228 238/102/228 235/100/227
f 240/33/229 236/104/227 235/100/227 239/94/229
f 242/1/230 240/33/229 239/94/229 241/93/230
f 244/2/231 242/1/230 241/93/230 243/98/231
f 246/16/232 244/2/231 243/98/231 245/10/233
f 248/5/234 246/16/232 245/10/233 247/9/234
f 250/6/235 248/5/234 247/9/234 249/97/235
f 252/32/236 250/6/235 249/97/235 251/101/236
f 254/13/237 252/32/236 251/101/236 253/96/237
f 256/14/238 254/13/237 253/96/237 255/95/238
f 258/30/239 256/14/238 255/95/238 257/99/239
f 237/67/228 258/30/239 257/99/239 238/102/228
f 235/100/81 238/102/83 176/103/83 175/64/81
