# Blender 3.6.2
# www.blender.org
mtllib Plant_1.mtl
o Plant_1
v -0.074380 0.492968 -0.128831
v 0.000000 0.492968 -0.148761
v -0.128830 0.492968 -0.074380
v -0.148761 0.492968 -0.000000
v -0.128830 0.492968 0.074380
v -0.074380 0.492968 0.128831
v 0.000000 0.492968 0.148761
v 0.074380 0.492968 0.128831
v 0.128831 0.492968 0.074380
v 0.148761 0.492968 -0.000000
v 0.128831 0.492968 -0.074380
v 0.074380 0.492968 -0.128831
v 0.000000 0.082556 -0.152316
v 0.000000 0.000000 -0.060865
v 0.000000 0.024180 -0.120480
v -0.030433 0.000000 -0.052711
v -0.076158 0.082556 -0.131909
v -0.060240 0.024180 -0.104339
v -0.052711 0.000000 -0.030433
v -0.131909 0.082556 -0.076158
v -0.104339 0.024180 -0.060240
v -0.060865 0.000000 -0.000000
v -0.152316 0.082556 -0.000000
v -0.120480 0.024180 -0.000000
v -0.052711 0.000000 0.030433
v -0.131909 0.082556 0.076158
v -0.104339 0.024180 0.060240
v -0.030433 0.000000 0.052711
v -0.076158 0.082556 0.131909
v -0.060240 0.024180 0.104339
v -0.000000 0.000000 0.060865
v 0.000000 0.082556 0.152316
v -0.000000 0.024180 0.120480
v 0.030433 0.000000 0.052711
v 0.076158 0.082556 0.131909
v 0.060240 0.024180 0.104339
v 0.052711 0.000000 0.030432
v 0.131909 0.082556 0.076158
v 0.104339 0.024180 0.060240
v 0.060865 0.000000 -0.000000
v 0.152316 0.082556 -0.000000
v 0.120480 0.024180 -0.000000
v 0.052711 0.000000 -0.030433
v 0.131909 0.082556 -0.076158
v 0.104339 0.024180 -0.060240
v 0.030433 0.000000 -0.052711
v 0.076158 0.082556 -0.131909
v 0.060240 0.024180 -0.104339
v -0.065591 0.464369 -0.113607
v 0.000000 0.464369 -0.131183
v -0.113607 0.464369 -0.065591
v -0.131182 0.464369 -0.000000
v -0.113607 0.464369 0.065591
v -0.065591 0.464369 0.113607
v 0.000000 0.464369 0.131182
v 0.065591 0.464369 0.113607
v 0.113607 0.464369 0.065591
v 0.131183 0.464369 -0.000000
v 0.113607 0.464369 -0.065591
v 0.065591 0.464369 -0.113607
v -0.013555 0.438064 0.060640
v 0.041593 0.438064 0.060640
v 0.042742 0.435304 -0.005248
v 0.025602 0.435302 0.047415
v -0.028209 0.479552 0.096356
v -0.050182 0.765645 0.175144
v -0.051419 0.582438 0.156347
v -0.059417 0.685024 0.185197
v 0.077979 0.765799 0.175144
v 0.056247 0.479552 0.096356
v 0.087455 0.685123 0.185197
v 0.079456 0.582402 0.156347
v 0.010585 0.985700 0.131429
v -0.022027 0.866622 0.124902
v -0.010370 0.920652 0.117145
v 0.033309 0.920623 0.117145
v 0.046662 0.866586 0.124902
v 0.055337 0.466451 0.073172
v 0.126728 0.765347 0.119113
v 0.111196 0.558659 0.120831
v 0.139441 0.680001 0.139542
v 0.167312 0.765423 -0.005593
v 0.082554 0.466526 -0.010332
v 0.190876 0.680181 -0.018508
v 0.157029 0.558564 -0.020004
v 0.101492 0.978468 0.043396
v 0.084222 0.864251 0.073893
v 0.080929 0.914622 0.059670
v 0.094446 0.914622 0.018136
v 0.105479 0.864251 0.008575
v -0.004265 0.438064 -0.067468
v 0.030222 0.438064 -0.024433
v 0.067256 0.479552 -0.035332
v 0.142269 0.765739 -0.067480
v 0.128584 0.582307 -0.054737
v 0.156099 0.685153 -0.066536
v 0.062124 0.765702 -0.167490
v 0.014442 0.479552 -0.101238
v 0.064253 0.685129 -0.181147
v 0.046742 0.582315 -0.156865
v 0.064379 0.986075 -0.088200
v 0.082700 0.866746 -0.058336
v 0.067879 0.920967 -0.062746
v 0.040565 0.920974 -0.096830
v 0.039745 0.866754 -0.111938
v -0.045756 0.438064 -0.019801
v -0.002218 0.438064 -0.053651
v -0.012572 0.479552 -0.090842
v -0.035839 0.767224 -0.152570
v -0.028509 0.584155 -0.148031
v -0.034422 0.685826 -0.166264
v -0.137012 0.767160 -0.073907
v -0.079247 0.479552 -0.039003
v -0.150372 0.685772 -0.076114
v -0.131830 0.584182 -0.067700
v -0.072356 0.982191 -0.092388
v -0.035508 0.865865 -0.102803
v -0.044248 0.917741 -0.093138
v -0.078730 0.917768 -0.066329
v -0.089732 0.865886 -0.060642
v -0.031282 0.435648 0.045006
v -0.055911 0.435648 -0.004337
v -0.094042 0.470986 -0.000654
v -0.177198 0.767620 0.007967
v -0.157480 0.562020 0.005854
v -0.191021 0.666172 0.005509
v -0.113315 0.767775 0.135955
v -0.056325 0.470986 0.074912
v -0.117811 0.666377 0.152183
v -0.098006 0.561881 0.125011
v -0.109141 0.974494 0.050935
v -0.116939 0.866776 0.016425
v -0.105583 0.911476 0.025191
v -0.086077 0.911460 0.064272
v -0.085642 0.866706 0.079160
v -0.001806 0.426216 0.054570
v 0.028161 0.426216 0.031528
v 0.006159 0.475222 0.081599
v 0.026796 0.775642 0.132736
v 0.022554 0.588007 0.128583
v 0.029765 0.682596 0.146379
v 0.095793 0.775585 0.079686
v 0.051518 0.475222 0.046723
v 0.104440 0.682428 0.088962
v 0.089095 0.587999 0.077420
v 0.036704 0.999879 0.088628
v 0.010712 0.889437 0.094560
v 0.011602 0.941014 0.086968
v 0.035541 0.940232 0.069040
v 0.048244 0.888418 0.066156
v 0.021795 0.426216 0.021122
v 0.009031 0.426216 -0.014460
v 0.048230 0.473385 0.022310
v 0.115398 0.773154 0.016790
v 0.092991 0.586201 0.023316
v 0.124029 0.684371 0.020506
v 0.085736 0.773315 -0.065899
v 0.028683 0.473385 -0.032180
v 0.090037 0.684553 -0.074254
v 0.062702 0.586279 -0.061123
v 0.059552 1.002273 0.007026
v 0.066125 0.888540 0.018393
v 0.055905 0.942306 0.018108
v 0.045797 0.942216 -0.010073
v 0.050226 0.888303 -0.025918
v 0.007449 0.426216 -0.023840
v -0.030351 0.426216 -0.024028
v 0.013074 0.473385 -0.045976
v 0.045232 0.774090 -0.111046
v 0.030887 0.586510 -0.080322
v 0.047639 0.685754 -0.105472
v -0.042317 0.774492 -0.118282
v -0.044572 0.473385 -0.051280
v -0.050617 0.686308 -0.127459
v -0.056655 0.586747 -0.099928
v -0.000941 1.005746 -0.079194
v 0.028516 0.889636 -0.083463
v 0.020703 0.945216 -0.077006
v -0.008988 0.945277 -0.073161
v -0.018308 0.889689 -0.078618
v -0.020253 0.426216 -0.027324
v -0.028351 0.426216 0.009599
v -0.038665 0.462249 -0.043417
v -0.090948 0.786962 -0.070527
v -0.072400 0.565298 -0.080516
v -0.096541 0.703547 -0.093280
v -0.110605 0.786855 0.019380
v -0.051808 0.462249 0.016509
v -0.125240 0.703337 0.037574
v -0.097973 0.565276 0.036086
v -0.064899 0.996441 -0.009263
v -0.055930 0.888011 -0.036997
v -0.050073 0.937523 -0.024725
v -0.056264 0.937479 0.004569
v -0.065783 0.888003 0.009046
v -0.032982 0.426216 0.025196
v -0.000584 0.426216 0.044671
v -0.054203 0.473385 0.041003
v -0.094865 0.775862 0.079554
v -0.089024 0.586362 0.068050
v -0.103911 0.686802 0.082174
v -0.019573 0.775705 0.124811
v -0.004587 0.473385 0.070828
v -0.017627 0.686668 0.134041
v -0.012138 0.586348 0.114268
v -0.044099 1.003206 0.095092
v -0.057590 0.889744 0.056092
v -0.047898 0.943974 0.059751
v -0.022035 0.943608 0.074814
v -0.017051 0.889341 0.080023
v -0.102832 0.477504 -0.178111
v -0.095562 0.492968 -0.165519
v 0.000000 0.492968 -0.191125
v 0.000000 0.477504 -0.205665
v -0.178111 0.477504 -0.102832
v -0.165519 0.492968 -0.095562
v -0.205665 0.477504 -0.000000
v -0.191125 0.492968 -0.000000
v -0.178111 0.477504 0.102832
v -0.165519 0.492968 0.095562
v -0.102832 0.477504 0.178111
v -0.095562 0.492968 0.165519
v 0.000000 0.477504 0.205665
v 0.000000 0.492968 0.191125
v 0.102832 0.477504 0.178111
v 0.095562 0.492968 0.165519
v 0.178111 0.477504 0.102832
v 0.165519 0.492968 0.095562
v 0.205665 0.477504 -0.000000
v 0.191125 0.492968 -0.000000
v 0.178111 0.477504 -0.102832
v 0.165519 0.492968 -0.095562
v 0.102832 0.477504 -0.178111
v 0.095562 0.492968 -0.165519
v -0.058415 0.491778 -0.101177
v -0.000000 0.491778 -0.116829
v -0.101177 0.491778 -0.058415
v -0.116829 0.491778 -0.000000
v -0.101177 0.491778 0.058414
v -0.058415 0.491778 0.101177
v -0.000000 0.491778 0.116829
v 0.058414 0.491778 0.101177
v 0.101177 0.491778 0.058414
v 0.116829 0.491778 -0.000000
v 0.101177 0.491778 -0.058415
v 0.058414 0.491778 -0.101177
vn -0.0000 1.0000 -0.0000
vn 0.4260 0.5236 -0.7378
vn -0.0000 0.5236 -0.8519
vn -0.1109 -0.9751 -0.1921
vn -0.0000 -0.9751 -0.2218
vn 0.1109 -0.9751 -0.1921
vn 0.1921 -0.9751 -0.1109
vn 0.2218 -0.9751 -0.0000
vn 0.1921 -0.9751 0.1109
vn 0.1109 -0.9751 0.1921
vn -0.0000 -0.9751 0.2218
vn -0.1109 -0.9751 0.1921
vn -0.1921 -0.9751 0.1109
vn -0.2218 -0.9751 -0.0000
vn -0.1921 -0.9751 -0.1109
vn -0.4765 -0.3030 -0.8253
vn -0.0000 -0.3030 -0.9530
vn -0.0000 -0.4788 -0.8779
vn -0.4390 -0.4788 -0.7603
vn -0.1879 -0.9267 -0.3255
vn -0.0000 -0.9267 -0.3759
vn -0.8253 -0.3030 -0.4765
vn -0.7603 -0.4788 -0.4390
vn -0.3255 -0.9267 -0.1879
vn -0.9530 -0.3030 -0.0000
vn -0.8779 -0.4788 -0.0000
vn -0.3759 -0.9267 -0.0000
vn -0.8253 -0.3030 0.4765
vn -0.7603 -0.4788 0.4390
vn -0.3255 -0.9267 0.1879
vn -0.4765 -0.3030 0.8253
vn -0.4390 -0.4788 0.7603
vn -0.1879 -0.9267 0.3255
vn -0.0000 -0.3030 0.9530
vn -0.0000 -0.4788 0.8779
vn -0.0000 -0.9267 0.3759
vn 0.4765 -0.3030 0.8253
vn 0.4390 -0.4788 0.7603
vn 0.1879 -0.9267 0.3255
vn 0.8253 -0.3030 0.4765
vn 0.7603 -0.4788 0.4390
vn 0.3255 -0.9267 0.1879
vn 0.9530 -0.3030 -0.0000
vn 0.8779 -0.4788 -0.0000
vn 0.3759 -0.9267 -0.0000
vn 0.8253 -0.3030 -0.4765
vn 0.7603 -0.4788 -0.4390
vn 0.3255 -0.9267 -0.1879
vn 0.4765 -0.3030 -0.8253
vn 0.4390 -0.4788 -0.7603
vn 0.1879 -0.9267 -0.3255
vn -0.4955 -0.1339 -0.8582
vn -0.0000 -0.1339 -0.9910
vn -0.8582 -0.1339 -0.4955
vn -0.9910 -0.1339 -0.0000
vn -0.8582 -0.1339 0.4955
vn -0.4955 -0.1339 0.8582
vn -0.0000 -0.1339 0.9910
vn 0.4955 -0.1339 0.8582
vn 0.8582 -0.1339 0.4955
vn 0.9910 -0.1339 -0.0000
vn 0.8582 -0.1339 -0.4955
vn 0.4955 -0.1339 -0.8582
vn -0.2310 0.4514 0.8619
vn 0.7378 0.5236 0.4260
vn 0.8519 0.5236 -0.0000
vn -0.8519 0.5236 -0.0000
vn -0.7378 0.5236 0.4260
vn -0.4260 0.5236 -0.7378
vn 0.7378 0.5236 -0.4260
vn -0.4260 0.5236 0.7378
vn -0.0000 0.5236 0.8519
vn 0.4260 0.5236 0.7378
vn -0.7378 0.5236 -0.4260
vn -0.8983 -0.3279 -0.2925
vn -0.9502 0.0375 -0.3093
vn -0.9504 0.0338 -0.3093
vn -0.8974 -0.3307 -0.2922
vn 0.0002 -0.2677 -0.9635
vn -0.0000 0.0776 -0.9970
vn 0.0002 -0.2693 -0.9631
vn -0.0000 0.3799 -0.9250
vn -0.0000 0.5694 -0.8220
vn -0.0000 0.6524 -0.7579
vn 0.0001 -0.3196 -0.9475
vn 0.0001 -0.3225 -0.9466
vn -0.0000 0.0029 -1.0000
vn -0.0000 0.0062 -1.0000
vn 0.0001 0.2144 -0.9767
vn -0.8657 0.4137 -0.2818
vn -0.8648 0.4158 -0.2815
vn -0.7119 0.6630 -0.2317
vn -0.7102 0.6650 -0.2311
vn -0.6201 0.7582 -0.2016
vn -0.8919 -0.3467 -0.2904
vn -0.8915 -0.3478 -0.2903
vn -0.9509 0.0030 -0.3095
vn -0.9272 0.2217 -0.3018
vn -0.7500 -0.2761 0.6011
vn -0.7781 0.0765 0.6235
vn -0.7501 -0.2757 0.6011
vn -0.7219 0.3799 0.5785
vn -0.6413 0.5697 0.5140
vn -0.5914 0.6524 0.4739
vn -0.7348 -0.3367 0.5889
vn -0.7350 -0.3360 0.5890
vn -0.7803 -0.0126 0.6253
vn -0.7803 -0.0134 0.6253
vn -0.7648 0.1985 0.6129
vn 0.5971 -0.2324 0.7678
vn 0.6136 0.0280 0.7891
vn 0.6135 0.0296 0.7891
vn 0.5971 -0.2318 0.7679
vn 0.5837 0.3094 0.7507
vn 0.5833 0.3113 0.7502
vn 0.5134 0.5481 0.6603
vn 0.5133 0.5484 0.6602
vn 0.4652 0.6524 0.5983
vn 0.5962 -0.2377 0.7668
vn 0.5964 -0.2365 0.7670
vn 0.6120 0.0785 0.7870
vn 0.6120 0.0767 0.7871
vn 0.5944 0.2503 0.7642
vn 0.8644 -0.2586 -0.4312
vn 0.8917 0.0824 -0.4450
vn 0.8919 0.0802 -0.4451
vn 0.8634 -0.2627 -0.4307
vn 0.8203 0.3994 -0.4093
vn 0.8197 0.4009 -0.4090
vn 0.7028 0.6190 -0.3506
vn 0.7015 0.6208 -0.3499
vn 0.6289 0.7113 -0.3139
vn 0.8453 -0.3279 -0.4218
vn 0.8446 -0.3301 -0.4214
vn 0.8947 0.0077 -0.4465
vn 0.8947 0.0091 -0.4465
vn 0.8714 0.2269 -0.4349
vn -0.5939 -0.2257 -0.7722
vn -0.6093 0.0273 -0.7925
vn -0.6093 0.0296 -0.7924
vn -0.5934 -0.2297 -0.7715
vn -0.5839 0.2862 -0.7597
vn -0.5842 0.2850 -0.7599
vn -0.5513 0.4264 -0.7171
vn -0.5516 0.4257 -0.7174
vn -0.5372 0.4726 -0.6986
vn -0.5912 -0.2252 -0.7744
vn -0.5897 -0.2383 -0.7717
vn -0.5986 0.0555 -0.7991
vn -0.5984 0.0594 -0.7990
vn -0.5723 0.2659 -0.7757
vn -0.9190 -0.2162 0.3297
vn -0.9353 0.1125 0.3356
vn -0.9355 0.1101 0.3357
vn -0.9181 -0.2203 0.3294
vn -0.8920 0.3191 0.3203
vn -0.8921 0.3187 0.3203
vn -0.8631 0.3989 0.3097
vn -0.8355 0.4607 0.2997
vn -0.9026 -0.2830 0.3243
vn -0.9000 -0.2922 0.3234
vn -0.9397 -0.0560 0.3374
vn -0.9405 -0.0384 0.3376
vn -0.9347 0.1187 0.3349
vn -0.0949 -0.1349 0.9863
vn -0.1852 0.1353 0.9733
vn -0.1838 0.1278 0.9746
vn -0.0914 -0.1417 0.9857
vn -0.1855 0.3061 0.9338
vn -0.1853 0.3063 0.9337
vn -0.1128 0.3942 0.9121
vn -0.1082 0.3993 0.9104
vn -0.0510 0.4596 0.8867
vn 0.0407 -0.2031 0.9783
vn 0.0408 -0.2030 0.9783
vn 0.1199 -0.0217 0.9925
vn 0.1193 -0.0288 0.9924
vn 0.1282 0.0816 0.9884
vn 0.9493 -0.2365 0.2069
vn 0.9759 0.0431 0.2139
vn 0.9759 0.0428 0.2139
vn 0.9499 -0.2343 0.2070
vn 0.9406 0.2697 0.2064
vn 0.8822 0.4293 0.1935
vn 0.8395 0.5112 0.1841
vn 0.9358 -0.2894 0.2012
vn 0.9372 -0.2846 0.2014
vn 0.9782 -0.0075 0.2077
vn 0.9780 -0.0182 0.2077
vn 0.9608 0.1884 0.2034
vn 0.5038 -0.1941 -0.8418
vn 0.5143 0.0595 -0.8555
vn 0.5143 0.0592 -0.8556
vn 0.5037 -0.1948 -0.8417
vn 0.4970 0.2640 -0.8266
vn 0.4970 0.2639 -0.8266
vn 0.4731 0.3961 -0.7870
vn 0.4573 0.4607 -0.7607
vn 0.4988 -0.1991 -0.8435
vn 0.4990 -0.1978 -0.8438
vn 0.4984 0.1838 -0.8472
vn 0.4998 0.1677 -0.8497
vn 0.4581 0.4336 -0.7760
vn -0.3643 0.6850 -0.6309
vn -0.0000 0.6850 -0.7285
vn -0.6309 0.6850 -0.3643
vn -0.7285 0.6850 -0.0000
vn -0.6309 0.6850 0.3643
vn -0.3643 0.6850 0.6309
vn -0.0000 0.6850 0.7285
vn 0.3643 0.6850 0.6309
vn 0.6309 0.6850 0.3643
vn 0.7285 0.6850 -0.0000
vn 0.6309 0.6850 -0.3643
vn 0.3643 0.6850 -0.6309
vn -0.8619 0.4514 -0.2310
vn 0.8619 0.4514 -0.2310
vn 0.2310 0.4514 0.8619
vn -0.8619 0.4514 0.2310
vn 0.6310 0.4514 -0.6310
vn -0.2310 0.4514 -0.8619
vn 0.6310 0.4514 0.6310
vn -0.6310 0.4514 0.6310
vn 0.2310 0.4514 -0.8619
vn -0.6310 0.4514 -0.6310
vn 0.8619 0.4514 0.2310
vt 0.472201 0.964712
vt 0.472201 0.962371
vt 0.472601 0.962264
vt 0.472601 0.964819
vt 0.469003 0.967910
vt 0.466662 0.967909
vt 0.471030 0.966739
vt 0.471323 0.967032
vt 0.469110 0.968310
vt 0.463465 0.962371
vt 0.463465 0.964712
vt 0.463065 0.964819
vt 0.463065 0.962264
vt 0.466555 0.968310
vt 0.469423 0.961952
vt 0.468415 0.961370
vt 0.467251 0.961370
vt 0.466243 0.961952
vt 0.465661 0.962960
vt 0.465661 0.964124
vt 0.466243 0.965131
vt 0.467251 0.965714
vt 0.468415 0.965714
vt 0.469423 0.965132
vt 0.470005 0.964124
vt 0.470005 0.962960
vt 0.464635 0.960344
vt 0.464343 0.960051
vt 0.464635 0.966739
vt 0.466555 0.968310
vt 0.464343 0.967032
vt 0.469003 0.959174
vt 0.466663 0.959174
vt 0.466555 0.958774
vt 0.469110 0.958774
vt 0.472601 0.964819
vt 0.464342 0.960051
vt 0.464343 0.967032
vt 0.471493 0.959881
vt 0.469173 0.958542
vt 0.469160 0.958589
vt 0.471459 0.959916
vt 0.472833 0.962202
vt 0.471493 0.959881
vt 0.472786 0.962214
vt 0.472833 0.964881
vt 0.472786 0.964869
vt 0.471493 0.967202
vt 0.471459 0.967167
vt 0.469173 0.968542
vt 0.471493 0.967202
vt 0.469160 0.968495
vt 0.466493 0.968542
vt 0.466506 0.968495
vt 0.464173 0.967202
vt 0.464207 0.967167
vt 0.462833 0.964881
vt 0.464173 0.967202
vt 0.462880 0.964869
vt 0.462833 0.962202
vt 0.462833 0.964881
vt 0.462880 0.962214
vt 0.464173 0.959881
vt 0.462833 0.962202
vt 0.464207 0.959916
vt 0.466493 0.958542
vt 0.466506 0.958589
vt 0.469173 0.958542
vt 0.471030 0.960344
vt 0.471323 0.960051
vt 0.472601 0.962264
vt 0.472833 0.962202
vt 0.471493 0.959881
vt 0.472833 0.962202
vt 0.471493 0.967202
vt 0.472833 0.964881
vt 0.464173 0.967202
vt 0.462833 0.964881
vt 0.462833 0.962202
vt 0.464173 0.959881
vt 0.466493 0.958542
vt 0.040233 0.715305
vt 0.037892 0.715305
vt 0.626731 0.713067
vt 0.626074 0.713067
vt 0.617389 0.713067
vt 0.616731 0.713067
vt 0.626057 0.709881
vt 0.617406 0.709881
vt 0.626731 0.705159
vt 0.616731 0.705159
vt 0.616731 0.703067
vt 0.626731 0.703067
vt 0.624652 0.713067
vt 0.713346 0.714708
vt 0.712688 0.714708
vt 0.704003 0.714708
vt 0.703346 0.714708
vt 0.712671 0.711521
vt 0.704020 0.711521
vt 0.713346 0.706799
vt 0.703346 0.706799
vt 0.703346 0.704708
vt 0.713346 0.704708
vt 0.711266 0.714708
vt 0.708939 0.703906
vt 0.710109 0.705933
vt 0.710109 0.708274
vt 0.708939 0.710301
vt 0.706912 0.711471
vt 0.704571 0.711471
vt 0.702544 0.710301
vt 0.701374 0.708274
vt 0.701374 0.705933
vt 0.702544 0.703906
vt 0.704571 0.702736
vt 0.706912 0.702736
vt 0.043430 0.709767
vt 0.043430 0.712108
vt 0.034695 0.709767
vt 0.035865 0.707740
vt 0.035865 0.714135
vt 0.042260 0.714135
vt 0.037892 0.706570
vt 0.040233 0.706569
vt 0.042260 0.707740
vt 0.034695 0.712108
s 1
usemtl palette
f 4/1/1 3/2/1 216/3/1 218/4/1
f 6/5/2 7/6/3 55/6/3 54/5/2
f 6/5/1 5/7/1 220/8/1 222/9/1
f 10/10/1 9/11/1 228/12/1 230/13/1
f 7/6/1 6/5/1 222/9/1 224/14/1
f 16/15/4 14/16/5 46/17/6 43/18/7 40/19/8 37/20/9 34/21/10 31/22/11 28/23/12 25/24/13 22/25/14 19/26/15
f 11/27/1 10/10/1 230/13/1 232/28/1
f 8/29/1 7/6/1 224/30/1 226/31/1
f 2/32/1 12/33/1 234/34/1 213/35/1
f 5/7/1 4/1/1 218/36/1 220/8/1
f 12/33/1 11/27/1 232/37/1 234/34/1
f 9/11/1 8/29/1 226/38/1 228/12/1
f 17/39/16 13/40/17 15/41/18 18/42/19
f 18/42/20 15/41/21 14/16/5 16/15/4
f 20/43/22 17/44/16 18/42/19 21/45/23
f 21/45/24 18/42/20 16/15/4 19/26/15
f 23/46/25 20/43/22 21/45/23 24/47/26
f 24/47/27 21/45/24 19/26/15 22/25/14
f 26/48/28 23/46/25 24/47/26 27/49/29
f 27/49/30 24/47/27 22/25/14 25/24/13
f 29/50/31 26/51/28 27/49/29 30/52/32
f 30/52/33 27/49/30 25/24/13 28/23/12
f 32/53/34 29/50/31 30/52/32 33/54/35
f 33/54/36 30/52/33 28/23/12 31/22/11
f 35/55/37 32/53/34 33/54/35 36/56/38
f 36/56/39 33/54/36 31/22/11 34/21/10
f 38/57/40 35/58/37 36/56/38 39/59/41
f 39/59/42 36/56/39 34/21/10 37/20/9
f 41/60/43 38/61/40 39/59/41 42/62/44
f 42/62/45 39/59/42 37/20/9 40/19/8
f 44/63/46 41/64/43 42/62/44 45/65/47
f 45/65/48 42/62/45 40/19/8 43/18/7
f 47/66/49 44/63/46 45/65/47 48/67/50
f 48/67/51 45/65/48 43/18/7 46/17/6
f 13/68/17 47/66/49 48/67/50 15/41/18
f 15/41/21 48/67/51 46/17/6 14/16/5
f 3/2/1 1/69/1 212/70/1 216/71/1
f 13/40/17 17/39/16 211/39/52 214/40/53
f 17/44/16 20/43/22 215/72/54 211/73/52
f 20/43/22 23/46/25 217/46/55 215/74/54
f 23/46/25 26/48/28 219/75/56 217/76/55
f 26/51/28 29/50/31 221/50/57 219/75/56
f 29/50/31 32/53/34 223/53/58 221/50/57
f 32/53/34 35/55/37 225/55/59 223/53/58
f 35/58/37 38/57/40 227/61/60 225/77/59
f 38/61/40 41/60/43 229/64/61 227/78/60
f 41/64/43 44/63/46 231/63/62 229/79/61
f 44/63/46 47/66/49 233/66/63 231/80/62
f 47/66/49 13/68/17 214/40/53 233/81/63
f 54/82/64 55/83/64 241/83/64 240/82/64
f 3/2/65 4/1/66 52/1/66 51/2/65
f 10/10/67 11/27/68 59/27/68 58/10/67
f 7/6/3 8/29/69 56/29/69 55/6/3
f 4/1/66 5/7/70 53/7/70 52/1/66
f 11/27/68 12/33/71 60/33/71 59/27/68
f 2/32/72 1/69/73 49/69/73 50/32/72
f 8/29/69 9/11/74 57/11/74 56/29/69
f 5/7/70 6/5/2 54/5/2 53/7/70
f 12/33/71 2/32/72 50/32/72 60/33/71
f 1/69/73 3/2/65 51/2/65 49/69/73
f 9/11/74 10/10/67 58/10/67 57/11/74
f 82/84/75 84/85/76 81/86/77 79/87/78
f 69/84/79 71/85/80 68/86/80 66/87/81
f 71/85/80 72/88/82 67/89/82 68/86/80
f 72/88/82 70/90/83 65/91/83 67/89/82
f 61/92/84 65/91/83 70/90/83 62/93/84
f 66/87/81 74/87/85 77/84/86 69/84/79
f 76/94/87 77/84/86 74/87/85 75/87/88
f 75/87/88 73/87/89 76/94/87
f 84/85/76 85/88/90 80/89/91 81/86/77
f 85/88/90 83/90/92 78/91/93 80/89/91
f 64/92/94 78/91/93 83/90/92 63/93/94
f 79/87/78 87/87/95 90/84/96 82/84/75
f 89/94/97 90/84/96 87/87/95 88/87/97
f 88/87/97 86/87/98 89/94/97
f 97/84/99 99/85/100 96/86/100 94/87/101
f 99/85/100 100/88/102 95/89/102 96/86/100
f 100/88/102 98/90/103 93/91/103 95/89/102
f 92/92/104 93/91/103 98/90/103 91/93/104
f 94/87/101 102/87/105 105/84/106 97/84/99
f 104/94/107 105/84/106 102/87/105 103/87/108
f 103/87/108 101/87/109 104/94/107
f 112/84/110 114/85/111 111/86/112 109/87/113
f 114/85/111 115/88/114 110/89/115 111/86/112
f 115/88/114 113/90/116 108/91/117 110/89/115
f 107/92/118 108/91/117 113/90/116 106/93/118
f 109/87/113 117/87/119 120/84/120 112/84/110
f 119/94/121 120/84/120 117/87/119 118/87/122
f 118/87/122 116/87/123 119/94/121
f 127/84/124 129/85/125 126/86/126 124/87/127
f 129/85/125 130/88/128 125/89/129 126/86/126
f 130/88/128 128/90/130 123/91/131 125/89/129
f 122/92/132 123/91/131 128/90/130 121/93/132
f 124/87/127 132/87/133 135/84/134 127/84/124
f 134/94/135 135/84/134 132/87/133 133/87/136
f 133/87/136 131/87/137 134/94/135
f 142/95/138 144/96/139 141/97/140 139/98/141
f 144/96/139 145/99/142 140/100/143 141/97/140
f 145/99/142 143/101/144 138/102/145 140/100/143
f 136/103/146 138/102/145 143/101/144 137/104/146
f 139/98/141 147/98/147 150/95/148 142/95/138
f 149/105/149 150/95/148 147/98/147 148/98/150
f 148/98/150 146/98/151 149/105/149
f 157/95/152 159/96/153 156/97/154 154/98/155
f 159/96/153 160/99/156 155/100/157 156/97/154
f 160/99/156 158/101/158 153/102/158 155/100/157
f 151/103/159 153/102/158 158/101/158 152/104/159
f 154/98/155 162/98/160 165/95/161 157/95/152
f 164/105/162 165/95/161 162/98/160 163/98/163
f 163/98/163 161/98/164 164/105/162
f 172/95/165 174/96/166 171/97/167 169/98/168
f 174/96/166 175/99/169 170/100/170 171/97/167
f 175/99/169 173/101/171 168/102/172 170/100/170
f 166/103/173 168/102/172 173/101/171 167/104/173
f 169/98/168 177/98/174 180/95/175 172/95/165
f 179/105/176 180/95/175 177/98/174 178/98/177
f 178/98/177 176/98/178 179/105/176
f 187/95/179 189/96/180 186/97/181 184/98/182
f 189/96/180 190/99/183 185/100/183 186/97/181
f 190/99/183 188/101/184 183/102/184 185/100/183
f 181/103/185 183/102/184 188/101/184 182/104/185
f 184/98/182 192/98/186 195/95/187 187/95/179
f 194/105/188 195/95/187 192/98/186 193/98/189
f 193/98/189 191/98/190 194/105/188
f 202/95/191 204/96/192 201/97/193 199/98/194
f 204/96/192 205/99/195 200/100/196 201/97/193
f 205/99/195 203/101/197 198/102/197 200/100/196
f 196/103/198 198/102/197 203/101/197 197/104/198
f 199/98/194 207/98/199 210/95/200 202/95/191
f 209/105/201 210/95/200 207/98/199 208/98/202
f 208/98/202 206/98/203 209/105/201
f 212/70/204 213/35/205 214/40/205 211/39/204
f 216/71/206 212/70/204 211/73/204 215/72/206
f 218/4/207 216/3/206 215/74/206 217/46/207
f 220/8/208 218/36/207 217/76/207 219/75/208
f 222/9/209 220/8/208 219/75/208 221/50/209
f 224/14/210 222/9/209 221/50/209 223/53/210
f 226/31/211 224/30/210 223/53/210 225/55/211
f 228/12/212 226/38/211 225/77/211 227/61/212
f 230/13/213 228/12/212 227/78/212 229/64/213
f 232/28/214 230/13/213 229/79/213 231/63/214
f 234/34/215 232/37/214 231/80/214 233/66/215
f 213/35/205 234/34/215 233/81/215 214/40/205
f 1/69/1 2/32/1 213/35/1 212/70/1
f 235/106/1 237/107/1 238/108/1 239/109/1 240/110/1 241/111/1 242/112/1 243/113/1 244/114/1 245/115/1 246/116/1 236/117/1
f 51/118/216 52/119/216 238/119/216 237/118/216
f 58/120/217 59/121/217 245/121/217 244/120/217
f 55/83/218 56/122/218 242/122/218 241/83/218
f 52/119/219 53/123/219 239/123/219 238/119/219
f 59/121/220 60/124/220 246/124/220 245/121/220
f 50/125/221 49/126/221 235/126/221 236/125/221
f 56/122/222 57/127/222 243/127/222 242/122/222
f 53/123/223 54/82/223 240/82/223 239/123/223
f 60/124/224 50/125/224 236/125/224 246/124/224
f 49/126/225 51/118/225 237/118/225 235/126/225
f 57/127/226 58/120/226 244/120/226 243/127/226
