# Blender 3.6.2
# www.blender.org
mtllib Plant_4.mtl
o Plant_4
v -0.054866 0.287903 -0.095031
v -0.000000 0.287903 -0.109733
v -0.095031 0.287903 -0.054866
v -0.109733 0.287903 -0.000000
v -0.095031 0.287903 0.054866
v -0.054866 0.287903 0.095031
v -0.000000 0.287903 0.109733
v 0.054866 0.287903 0.095031
v 0.095031 0.287903 0.054866
v 0.109733 0.287903 -0.000000
v 0.095031 0.287903 -0.054866
v 0.054866 0.287903 -0.095031
v 0.000000 0.000000 -0.049898
v -0.024949 0.000000 -0.043213
v -0.043213 0.000000 -0.024949
v -0.049898 0.000000 -0.000000
v -0.043213 0.000000 0.024949
v -0.024949 0.000000 0.043213
v -0.000000 0.000000 0.049898
v 0.024949 0.000000 0.043213
v 0.043213 0.000000 0.024949
v 0.049898 0.000000 -0.000000
v 0.043213 0.000000 -0.024949
v 0.024949 0.000000 -0.043213
v -0.050487 0.259304 -0.087445
v -0.000000 0.259304 -0.100973
v -0.087445 0.259304 -0.050487
v -0.100973 0.259304 -0.000000
v -0.087445 0.259304 0.050487
v -0.050487 0.259304 0.087445
v -0.000000 0.259304 0.100973
v 0.050487 0.259304 0.087445
v 0.087445 0.259304 0.050487
v 0.100973 0.259304 -0.000000
v 0.087445 0.259304 -0.050487
v 0.050486 0.259304 -0.087445
v -0.101133 0.361829 0.229677
v 0.099521 0.361829 0.229677
v 0.099521 0.273853 0.378571
v -0.101133 0.273853 0.378571
v -0.087895 0.272439 -0.152239
v -0.081852 0.287903 -0.141772
v 0.000000 0.287903 -0.163705
v 0.000000 0.272439 -0.175791
v -0.152239 0.272439 -0.087895
v -0.141772 0.287903 -0.081852
v -0.175791 0.272439 -0.000000
v -0.163704 0.287903 -0.000000
v -0.152239 0.272439 0.087895
v -0.141772 0.287903 0.081852
v -0.087895 0.272439 0.152239
v -0.081852 0.287903 0.141772
v 0.000000 0.272439 0.175791
v 0.000000 0.287903 0.163705
v 0.087895 0.272439 0.152239
v 0.081852 0.287903 0.141772
v 0.152239 0.272439 0.087895
v 0.141772 0.287903 0.081852
v 0.175791 0.272439 -0.000000
v 0.163705 0.287903 -0.000000
v 0.152239 0.272439 -0.087895
v 0.141772 0.287903 -0.081852
v 0.087895 0.272439 -0.152239
v 0.081852 0.287903 -0.141772
v 0.099521 0.232045 0.024493
v -0.101133 0.232045 0.024493
v 0.099521 0.167540 0.437082
v -0.101133 0.167540 0.437082
v 0.099521 0.343103 0.293009
v 0.099521 0.338795 0.140489
v -0.101133 0.338795 0.140489
v -0.101133 0.343103 0.293009
v 0.100314 0.361829 -0.234072
v -0.100341 0.361829 -0.234072
v -0.100341 0.273853 -0.382966
v 0.100314 0.273853 -0.382966
v -0.100340 0.232045 -0.028888
v 0.100314 0.232045 -0.028888
v -0.100341 0.167540 -0.441477
v 0.100314 0.167540 -0.441477
v -0.100341 0.343103 -0.297404
v -0.100341 0.338795 -0.144884
v 0.100314 0.338795 -0.144885
v 0.100314 0.343103 -0.297404
v 0.231467 0.361829 0.098530
v 0.231467 0.361829 -0.102125
v 0.380360 0.273853 -0.102125
v 0.380360 0.273853 0.098530
v 0.026283 0.232045 -0.102125
v 0.026283 0.232045 0.098530
v 0.438872 0.167540 -0.102125
v 0.438872 0.167540 0.098530
v 0.294798 0.343103 -0.102125
v 0.142279 0.338795 -0.102125
v 0.142279 0.338795 0.098530
v 0.294798 0.343103 0.098530
v -0.232283 0.361829 -0.102918
v -0.232283 0.361829 0.097737
v -0.381176 0.273853 0.097737
v -0.381176 0.273853 -0.102918
v -0.027098 0.232045 0.097737
v -0.027098 0.232045 -0.102918
v -0.439687 0.167540 0.097737
v -0.439687 0.167540 -0.102918
v -0.295614 0.343103 0.097737
v -0.143095 0.338795 0.097737
v -0.143095 0.338795 -0.102918
v -0.295614 0.343103 -0.102918
v 0.049963 0.382614 0.210941
v 0.196370 0.382614 0.064533
v 0.305010 0.336807 0.173173
v 0.158603 0.336807 0.319580
v 0.046657 0.209279 -0.085179
v -0.099750 0.209279 0.061228
v 0.347703 0.219921 0.215866
v 0.201295 0.219921 0.362273
v 0.242580 0.383268 0.110743
v 0.096172 0.383268 0.257150
v -0.056683 0.382614 -0.216276
v -0.203090 0.382614 -0.069869
v -0.311730 0.336807 -0.178509
v -0.165322 0.336807 -0.324916
v -0.053377 0.209279 0.079843
v 0.093030 0.209279 -0.066564
v -0.354422 0.219921 -0.221202
v -0.208015 0.219921 -0.367609
v -0.249299 0.383268 -0.116079
v -0.102892 0.383268 -0.262486
v 0.203468 0.382614 -0.061510
v 0.057061 0.382614 -0.207917
v 0.165701 0.336807 -0.316557
v 0.312108 0.336807 -0.170150
v -0.092652 0.209280 -0.058204
v 0.053756 0.209280 0.088203
v 0.208394 0.219921 -0.359250
v 0.354801 0.219921 -0.212842
v 0.103271 0.383268 -0.254127
v 0.249678 0.383268 -0.107719
v -0.216715 0.382614 0.059437
v -0.070308 0.382614 0.205845
v -0.178948 0.336807 0.314485
v -0.325355 0.336807 0.168077
v 0.079404 0.209280 0.056132
v -0.067003 0.209280 -0.090275
v -0.221641 0.219921 0.357177
v -0.368048 0.219921 0.210770
v -0.116518 0.383268 0.252054
v -0.262925 0.383268 0.105647
v -0.000000 0.172575 -0.167579
v -0.000000 0.078416 -0.133293
v -0.066647 0.078416 -0.115435
v -0.083790 0.172575 -0.145128
v -0.115435 0.078416 -0.066647
v -0.145128 0.172575 -0.083790
v -0.133293 0.078416 -0.000000
v -0.167579 0.172575 -0.000000
v -0.115435 0.078416 0.066646
v -0.145128 0.172575 0.083790
v -0.066647 0.078416 0.115435
v -0.083790 0.172575 0.145128
v -0.000000 0.078416 0.133293
v -0.000000 0.172575 0.167579
v 0.066646 0.078416 0.115435
v 0.083790 0.172575 0.145128
v 0.115435 0.078416 0.066646
v 0.145128 0.172575 0.083790
v 0.133293 0.078416 -0.000000
v 0.167579 0.172575 -0.000000
v 0.115435 0.078416 -0.066647
v 0.145128 0.172575 -0.083790
v 0.066646 0.078416 -0.115435
v 0.083790 0.172575 -0.145128
v -0.000000 0.041802 -0.113143
v -0.000000 0.022451 -0.093192
v -0.046596 0.022451 -0.080707
v -0.056572 0.041802 -0.097985
v -0.080707 0.022451 -0.046596
v -0.097985 0.041802 -0.056572
v -0.093192 0.022451 -0.000000
v -0.113143 0.041802 -0.000000
v -0.080707 0.022451 0.046596
v -0.097985 0.041802 0.056571
v -0.046596 0.022451 0.080707
v -0.056572 0.041802 0.097985
v -0.000000 0.022451 0.093192
v -0.000000 0.041802 0.113143
v 0.046596 0.022451 0.080707
v 0.056571 0.041802 0.097985
v 0.080707 0.022451 0.046596
v 0.097985 0.041802 0.056571
v 0.093192 0.022451 -0.000000
v 0.113143 0.041802 -0.000000
v 0.080707 0.022451 -0.046596
v 0.097985 0.041802 -0.056572
v 0.046596 0.022451 -0.080707
v 0.056571 0.041802 -0.097985
v 0.116175 0.327522 -0.015662
v 0.153823 0.363408 0.021986
v 0.007416 0.363408 0.168394
v -0.030232 0.327522 0.130745
v -0.122895 0.327522 0.010326
v -0.160543 0.363408 -0.027322
v -0.014136 0.363408 -0.173729
v 0.023513 0.327522 -0.136081
v -0.023134 0.327522 -0.127722
v 0.014514 0.363408 -0.165370
v 0.160921 0.363408 -0.018963
v 0.123273 0.327522 0.018685
v 0.009887 0.327522 0.125650
v -0.027761 0.363408 0.163298
v -0.174168 0.363408 0.016891
v -0.136520 0.327522 -0.020758
vn -0.0000 1.0000 -0.0000
vn 0.4781 0.2929 -0.8281
vn -0.0000 0.2929 -0.9562
vn -0.1367 -0.9619 -0.2368
vn -0.0000 -0.9619 -0.2734
vn 0.1367 -0.9619 -0.2368
vn 0.2368 -0.9619 -0.1367
vn 0.2734 -0.9619 -0.0000
vn 0.2368 -0.9619 0.1367
vn 0.1367 -0.9619 0.2368
vn -0.0000 -0.9619 0.2734
vn -0.1367 -0.9619 0.2368
vn -0.2368 -0.9619 0.1367
vn -0.2734 -0.9619 -0.0000
vn -0.2368 -0.9619 -0.1367
vn -0.5196 -0.8000 -0.3000
vn -0.3000 -0.8000 -0.5196
vn -0.0000 -0.8000 -0.5999
vn 0.3000 -0.8000 -0.5196
vn -0.4889 -0.2095 -0.8468
vn -0.8468 -0.2095 -0.4889
vn -0.8631 -0.0819 -0.4983
vn -0.4983 -0.0819 -0.8631
vn -0.7904 -0.4087 -0.4563
vn -0.4563 -0.4087 -0.7904
vn -0.4018 -0.5951 -0.6960
vn -0.6960 -0.5951 -0.4018
vn -0.9778 -0.2095 -0.0000
vn -0.9966 -0.0819 -0.0000
vn -0.9127 -0.4087 -0.0000
vn -0.8036 -0.5951 -0.0000
vn -0.8468 -0.2095 0.4889
vn -0.8631 -0.0819 0.4983
vn -0.7904 -0.4087 0.4563
vn -0.6960 -0.5951 0.4018
vn -0.4889 -0.2095 0.8468
vn -0.4983 -0.0819 0.8631
vn -0.4563 -0.4087 0.7904
vn -0.4018 -0.5951 0.6960
vn -0.0000 -0.2095 0.9778
vn -0.0000 -0.0819 0.9966
vn -0.0000 -0.4087 0.9127
vn -0.0000 -0.5951 0.8036
vn 0.4889 -0.2095 0.8468
vn 0.4983 -0.0820 0.8631
vn 0.4563 -0.4087 0.7904
vn 0.4018 -0.5951 0.6960
vn 0.8468 -0.2095 0.4889
vn 0.8631 -0.0820 0.4983
vn 0.7904 -0.4087 0.4563
vn 0.6960 -0.5951 0.4018
vn 0.9778 -0.2095 -0.0000
vn 0.9966 -0.0820 -0.0000
vn 0.9127 -0.4087 -0.0000
vn 0.8036 -0.5951 -0.0000
vn 0.8468 -0.2095 -0.4889
vn 0.8631 -0.0820 -0.4983
vn 0.7904 -0.4087 -0.4563
vn 0.6960 -0.5951 -0.4018
vn 0.4889 -0.2095 -0.8468
vn 0.4983 -0.0820 -0.8631
vn 0.4563 -0.4087 -0.7904
vn 0.4018 -0.5951 -0.6960
vn -0.0000 -0.2095 -0.9778
vn -0.0000 -0.0819 -0.9966
vn -0.0000 -0.4087 -0.9127
vn -0.0000 -0.5951 -0.8036
vn -0.5196 -0.8000 0.3000
vn -0.5999 -0.8000 -0.0000
vn -0.3000 -0.8000 0.5196
vn -0.0000 -0.8000 0.5999
vn 0.3000 -0.8000 0.5196
vn 0.5196 -0.8000 0.3000
vn 0.5999 -0.8000 -0.0000
vn 0.5196 -0.8000 -0.3000
vn 0.8281 0.2929 0.4781
vn 0.9562 0.2929 -0.0000
vn -0.9562 0.2929 -0.0000
vn -0.8281 0.2929 0.4781
vn -0.4781 0.2929 -0.8281
vn 0.8281 0.2929 -0.4781
vn -0.4781 0.2929 0.8281
vn -0.0000 0.2929 0.9562
vn 0.4781 0.2929 0.8281
vn -0.8281 0.2929 -0.4781
vn -0.0000 0.8784 -0.4780
vn -0.0000 0.9998 0.0174
vn -0.0000 0.8852 0.4653
vn -0.0000 0.6417 0.7669
vn -0.3940 0.6158 -0.6823
vn -0.0000 0.6158 -0.7879
vn -0.6823 0.6158 -0.3940
vn -0.7879 0.6158 -0.0000
vn -0.6823 0.6158 0.3940
vn -0.3940 0.6158 0.6823
vn -0.0000 0.6158 0.7879
vn 0.3940 0.6158 0.6823
vn 0.6823 0.6158 0.3940
vn 0.7879 0.6158 -0.0000
vn 0.6823 0.6158 -0.3940
vn 0.3940 0.6158 -0.6823
vn -0.0000 0.4822 0.8761
vn -0.0000 0.7358 -0.6772
vn -0.0000 0.8784 0.4780
vn -0.0000 0.9998 -0.0174
vn -0.0000 0.8852 -0.4653
vn -0.0000 0.6417 -0.7669
vn -0.0000 0.4822 -0.8761
vn -0.0000 0.7358 0.6772
vn -0.4780 0.8784 -0.0000
vn 0.0174 0.9998 -0.0000
vn 0.4653 0.8852 -0.0000
vn 0.7669 0.6417 -0.0000
vn 0.8761 0.4822 -0.0000
vn -0.6772 0.7358 -0.0000
vn 0.4780 0.8784 -0.0000
vn -0.0174 0.9998 -0.0000
vn -0.4653 0.8852 -0.0000
vn -0.7669 0.6417 -0.0000
vn -0.8761 0.4822 -0.0000
vn 0.6772 0.7358 -0.0000
vn 0.5437 0.6393 0.5437
vn 0.4742 0.7417 0.4742
vn 0.1662 0.9720 0.1662
vn 0.5019 0.7044 0.5019
vn 0.6282 0.4589 0.6282
vn -0.3082 0.9000 -0.3082
vn -0.1123 0.9873 -0.1123
vn -0.5437 0.6393 0.5437
vn -0.4742 0.7417 0.4742
vn -0.1662 0.9720 -0.1662
vn -0.5019 0.7044 -0.5019
vn -0.6282 0.4589 -0.6282
vn 0.3082 0.9000 0.3082
vn 0.1123 0.9873 0.1123
vn 0.5437 0.6393 -0.5437
vn 0.4742 0.7417 -0.4742
vn 0.1662 0.9720 -0.1662
vn 0.5019 0.7044 -0.5019
vn 0.6282 0.4589 -0.6282
vn -0.3082 0.9000 0.3082
vn -0.1123 0.9873 0.1123
vn -0.1662 0.9720 0.1662
vn -0.5019 0.7044 0.5019
vn -0.6282 0.4589 0.6282
vn 0.3082 0.9000 -0.3082
vn 0.1123 0.9873 -0.1123
vn -0.4742 0.7417 -0.4742
vn -0.5437 0.6393 -0.5437
vt 0.472201 0.964712
vt 0.472201 0.962371
vt 0.472601 0.962264
vt 0.472601 0.964819
vt 0.469003 0.967910
vt 0.466662 0.967909
vt 0.471030 0.966739
vt 0.471323 0.967032
vt 0.469110 0.968310
vt 0.463465 0.962371
vt 0.463465 0.964712
vt 0.463065 0.964819
vt 0.463065 0.962264
vt 0.466555 0.968310
vt 0.469423 0.961952
vt 0.468415 0.961370
vt 0.467251 0.961370
vt 0.466243 0.961952
vt 0.465661 0.962960
vt 0.465661 0.964124
vt 0.466243 0.965131
vt 0.467251 0.965714
vt 0.468415 0.965714
vt 0.469423 0.965132
vt 0.470005 0.964124
vt 0.470005 0.962960
vt 0.464635 0.960344
vt 0.464343 0.960051
vt 0.464635 0.966739
vt 0.466555 0.968310
vt 0.464343 0.967032
vt 0.469003 0.959174
vt 0.466663 0.959174
vt 0.466555 0.958774
vt 0.469110 0.958774
vt 0.472601 0.964819
vt 0.464342 0.960051
vt 0.464343 0.967032
vt 0.472146 0.962386
vt 0.470990 0.960384
vt 0.468989 0.959229
vt 0.466677 0.959229
vt 0.471493 0.959881
vt 0.472833 0.962202
vt 0.472833 0.962202
vt 0.471493 0.959881
vt 0.472813 0.962207
vt 0.471478 0.959896
vt 0.471466 0.959909
vt 0.472796 0.962212
vt 0.472833 0.962202
vt 0.472833 0.964881
vt 0.472833 0.964881
vt 0.472833 0.962202
vt 0.472813 0.964876
vt 0.472813 0.962207
vt 0.472796 0.964871
vt 0.471493 0.967202
vt 0.472833 0.964881
vt 0.471478 0.967187
vt 0.472796 0.964871
vt 0.471466 0.967174
vt 0.471493 0.967202
vt 0.469173 0.968542
vt 0.469167 0.968522
vt 0.471466 0.967175
vt 0.469163 0.968504
vt 0.466493 0.968542
vt 0.466493 0.968542
vt 0.466499 0.968522
vt 0.469163 0.968504
vt 0.466503 0.968504
vt 0.464173 0.967202
vt 0.464173 0.967202
vt 0.464187 0.967187
vt 0.466499 0.968522
vt 0.466503 0.968504
vt 0.464200 0.967175
vt 0.462833 0.964881
vt 0.462833 0.964881
vt 0.464173 0.967202
vt 0.462853 0.964876
vt 0.462870 0.964871
vt 0.462833 0.962202
vt 0.462833 0.962202
vt 0.462833 0.964881
vt 0.462853 0.962207
vt 0.462870 0.964871
vt 0.462870 0.962212
vt 0.464173 0.959881
vt 0.464187 0.959896
vt 0.462870 0.962212
vt 0.464200 0.959909
vt 0.464173 0.959881
vt 0.466493 0.958542
vt 0.466493 0.958542
vt 0.464173 0.959881
vt 0.466498 0.958562
vt 0.464200 0.959909
vt 0.466503 0.958579
vt 0.466493 0.958542
vt 0.469173 0.958542
vt 0.466493 0.958542
vt 0.469167 0.958562
vt 0.469163 0.958579
vt 0.471030 0.960344
vt 0.471323 0.960051
vt 0.472601 0.962264
vt 0.470990 0.960384
vt 0.470990 0.966699
vt 0.472146 0.964697
vt 0.468989 0.967855
vt 0.466677 0.967855
vt 0.464676 0.966699
vt 0.463520 0.964697
vt 0.463520 0.962386
vt 0.464675 0.960384
vt 0.464675 0.960384
vt 0.472146 0.962386
vt 0.834258 0.205403
vt 0.996991 0.205403
vt 0.996991 0.266052
vt 0.834258 0.266052
vt 0.834258 0.326700
vt 0.996991 0.326700
vt 0.996991 0.387349
vt 0.834258 0.387349
vt 0.471493 0.959881
vt 0.210822 0.704470
vt 0.212849 0.705640
vt 0.214020 0.707667
vt 0.214020 0.710008
vt 0.212849 0.712035
vt 0.210822 0.713206
vt 0.208482 0.713205
vt 0.206454 0.712035
vt 0.205284 0.710008
vt 0.205284 0.707667
vt 0.206454 0.705640
vt 0.208482 0.704470
vt 0.996991 0.447998
vt 0.834258 0.447998
vt 0.834258 0.084105
vt 0.996991 0.084105
vt 0.996991 0.183734
vt 0.834258 0.183734
vt 0.834258 0.226399
vt 0.996991 0.226399
vt 0.996991 0.183734
vt 0.834258 0.226399
vt 0.996991 0.183734
vt 0.471493 0.959881
vt 0.469167 0.958562
vt 0.471466 0.959909
vt 0.469163 0.958579
s 1
usemtl palette
f 4/1/1 3/2/1 46/3/1 48/4/1
f 6/5/2 7/6/3 31/6/3 30/5/2
f 6/5/1 5/7/1 50/8/1 52/9/1
f 10/10/1 9/11/1 58/12/1 60/13/1
f 7/6/1 6/5/1 52/9/1 54/14/1
f 14/15/4 13/16/5 24/17/6 23/18/7 22/19/8 21/20/9 20/21/10 19/22/11 18/23/12 17/24/13 16/25/14 15/26/15
f 11/27/1 10/10/1 60/13/1 62/28/1
f 8/29/1 7/6/1 54/30/1 56/31/1
f 2/32/1 12/33/1 64/34/1 43/35/1
f 5/7/1 4/1/1 48/36/1 50/8/1
f 12/33/1 11/27/1 62/37/1 64/34/1
f 9/11/1 8/29/1 56/38/1 58/12/1
f 177/39/16 175/40/17 14/15/4 15/26/15
f 174/41/18 195/42/19 24/17/6 13/16/5
f 152/43/20 154/44/21 45/45/22 41/46/23
f 153/47/24 151/48/25 176/49/26 178/50/27
f 154/51/21 156/52/28 47/53/29 45/54/22
f 155/55/30 153/56/24 178/50/27 180/57/31
f 156/52/28 158/58/32 49/58/33 47/59/29
f 157/60/34 155/55/30 180/61/31 182/62/35
f 158/63/32 160/64/36 51/64/37 49/58/33
f 159/65/38 157/60/34 182/66/35 184/67/39
f 160/64/36 162/68/40 53/69/41 51/64/37
f 161/70/42 159/65/38 184/71/39 186/72/43
f 162/68/40 164/73/44 55/74/45 53/69/41
f 163/75/46 161/76/42 186/77/43 188/78/47
f 164/73/44 166/79/48 57/80/49 55/81/45
f 165/82/50 163/75/46 188/78/47 190/83/51
f 166/80/48 168/84/52 59/85/53 57/86/49
f 167/87/54 165/82/50 190/88/51 192/89/55
f 168/84/52 170/90/56 61/90/57 59/84/53
f 169/91/58 167/87/54 192/92/55 194/93/59
f 170/94/56 172/95/60 63/96/61 61/97/57
f 171/98/62 169/91/58 194/99/59 196/100/63
f 172/101/60 149/102/64 44/102/65 63/103/61
f 150/104/66 171/98/62 196/100/63 173/105/67
f 3/2/1 1/106/1 42/107/1 46/108/1
f 175/109/17 174/41/18 13/16/5 14/15/4
f 181/110/68 179/111/69 16/25/14 17/24/13
f 183/112/70 181/110/68 17/24/13 18/23/12
f 185/113/71 183/112/70 18/23/12 19/22/11
f 187/114/72 185/113/71 19/22/11 20/21/10
f 189/115/73 187/114/72 20/21/10 21/20/9
f 191/116/74 189/115/73 21/20/9 22/19/8
f 193/117/75 191/116/74 22/19/8 23/18/7
f 195/42/19 193/118/75 23/18/7 24/17/6
f 179/111/69 177/119/16 15/26/15 16/25/14
f 3/2/76 4/1/77 28/1/77 27/2/76
f 10/10/78 11/27/79 35/27/79 34/10/78
f 7/6/3 8/29/80 32/29/80 31/6/3
f 4/1/77 5/7/81 29/7/81 28/1/77
f 11/27/79 12/33/82 36/33/82 35/27/79
f 2/32/83 1/106/84 25/106/84 26/32/83
f 8/29/80 9/11/85 33/11/85 32/29/80
f 5/7/81 6/5/2 30/5/2 29/7/81
f 12/33/82 2/32/83 26/32/83 36/33/82
f 1/106/84 3/2/76 27/2/76 25/106/84
f 9/11/85 10/10/78 34/10/78 33/11/85
f 42/107/90 43/35/91 44/102/91 41/128/90
f 46/108/92 42/107/90 41/46/90 45/45/92
f 48/4/93 46/3/92 45/54/92 47/53/93
f 50/8/94 48/36/93 47/59/93 49/58/94
f 52/9/95 50/8/94 49/58/94 51/64/95
f 54/14/96 52/9/95 51/64/95 53/69/96
f 56/31/97 54/30/96 53/69/96 55/74/97
f 58/12/98 56/38/97 55/81/97 57/80/98
f 60/13/99 58/12/98 57/86/98 59/85/99
f 62/28/100 60/13/99 59/84/99 61/90/100
f 64/34/101 62/37/100 61/97/100 63/96/101
f 43/35/91 64/34/101 63/103/101 44/102/91
f 1/106/1 2/32/1 43/35/1 42/107/1
f 26/129/1 25/130/1 27/131/1 28/132/1 29/133/1 30/134/1 31/135/1 32/136/1 33/137/1 34/138/1 35/139/1 36/140/1
f 152/152/20 149/102/64 150/153/66 151/48/25
f 154/44/21 152/43/20 151/48/25 153/47/24
f 156/52/28 154/51/21 153/56/24 155/55/30
f 158/58/32 156/52/28 155/55/30 157/60/34
f 160/64/36 158/63/32 157/60/34 159/65/38
f 162/68/40 160/64/36 159/65/38 161/70/42
f 164/73/44 162/68/40 161/76/42 163/75/46
f 166/79/48 164/73/44 163/75/46 165/82/50
f 168/84/52 166/80/48 165/82/50 167/87/54
f 170/90/56 168/84/52 167/87/54 169/91/58
f 172/95/60 170/94/56 169/91/58 171/98/62
f 149/102/64 172/101/60 171/98/62 150/104/66
f 149/102/64 152/152/20 41/128/23 44/102/65
f 174/41/18 175/109/17 176/154/26 173/155/67
f 175/40/17 177/39/16 178/50/27 176/49/26
f 177/119/16 179/111/69 180/57/31 178/50/27
f 179/111/69 181/110/68 182/62/35 180/61/31
f 181/110/68 183/112/70 184/67/39 182/66/35
f 183/112/70 185/113/71 186/72/43 184/71/39
f 185/113/71 187/114/72 188/78/47 186/77/43
f 187/114/72 189/115/73 190/83/51 188/78/47
f 189/115/73 191/116/74 192/89/55 190/88/51
f 191/116/74 193/117/75 194/93/59 192/92/55
f 193/118/75 195/42/19 196/100/63 194/99/59
f 195/42/19 174/41/18 173/105/67 196/100/63
f 151/48/25 150/153/66 173/155/67 176/154/26
usemtl acc_textures
f 70/120/86 71/121/86 37/122/87 38/123/87
f 69/124/88 72/125/88 40/126/89 39/127/89
f 39/127/89 40/126/89 68/141/102 67/142/102
f 65/143/103 66/144/103 71/121/86 70/120/86
f 38/123/87 37/122/87 72/125/88 69/124/88
f 82/120/104 83/121/104 73/122/105 74/123/105
f 81/124/106 84/125/106 76/126/107 75/127/107
f 75/127/107 76/126/107 80/141/108 79/142/108
f 77/143/109 78/144/109 83/121/104 82/120/104
f 74/123/105 73/122/105 84/125/106 81/124/106
f 94/120/110 95/121/110 85/122/111 86/123/111
f 93/124/112 96/125/112 88/126/113 87/127/113
f 87/127/113 88/126/113 92/141/114 91/142/114
f 89/143/115 90/144/115 95/121/110 94/120/110
f 86/123/111 85/122/111 96/125/112 93/124/112
f 106/120/116 107/121/116 97/122/117 98/123/117
f 105/124/118 108/125/118 100/126/119 99/127/119
f 99/127/119 100/126/119 104/141/120 103/142/120
f 101/143/121 102/144/121 107/121/116 106/120/116
f 98/123/117 97/122/117 108/125/118 105/124/118
f 123/143/122 124/144/122 204/145/123 201/146/123
f 117/124/124 118/125/124 112/126/125 111/127/125
f 111/127/125 112/126/125 116/141/126 115/142/126
f 198/147/127 199/148/127 109/122/128 110/123/128
f 110/123/128 109/122/128 118/125/124 117/124/124
f 133/143/129 134/144/129 208/149/130 205/146/130
f 127/124/131 128/125/131 122/126/132 121/127/132
f 121/127/132 122/126/132 126/141/133 125/142/133
f 202/150/134 203/148/134 119/122/135 120/123/135
f 120/123/135 119/122/135 128/125/131 127/124/131
f 143/143/136 144/144/136 212/151/137 209/146/137
f 137/124/138 138/125/138 132/126/139 131/127/139
f 131/127/139 132/126/139 136/141/140 135/142/140
f 206/150/141 207/148/141 129/122/142 130/123/142
f 130/123/142 129/122/142 138/125/138 137/124/138
f 147/124/143 148/125/143 142/126/144 141/127/144
f 141/127/144 142/126/144 146/141/145 145/142/145
f 210/147/146 211/148/146 139/122/147 140/123/147
f 140/123/147 139/122/147 148/125/143 147/124/143
f 199/148/127 198/147/127 197/146/148 200/145/148
f 203/148/134 202/150/134 201/146/123 204/145/123
f 207/148/141 206/150/141 205/146/130 208/149/130
f 211/148/146 210/147/146 209/146/137 212/151/137
f 113/143/149 114/144/149 200/145/148 197/146/148
