# Blender 3.6.2
# www.blender.org
mtllib Speaker_4.mtl
o Speaker_4
v -0.038403 0.000000 0.019849
v 0.038403 0.000000 0.019849
v -0.038403 0.000000 -0.019456
v 0.038403 0.000000 -0.019456
v -0.038403 0.027335 -0.025209
v -0.038403 0.027335 0.025602
v 0.038403 0.027335 0.025602
v 0.038403 0.027335 -0.025209
v -0.045321 0.033655 0.032520
v -0.039001 0.027335 0.032520
v -0.043470 0.029186 0.032520
v 0.039001 0.027335 0.032520
v 0.045321 0.033655 0.032520
v 0.043470 0.029186 0.032520
v -0.037458 0.027335 -0.032127
v -0.043529 0.033405 -0.032127
v -0.041751 0.029113 -0.032127
v 0.043529 0.033405 -0.032127
v 0.037458 0.027335 -0.032127
v 0.041751 0.029113 -0.032127
v 0.000000 0.101212 0.036101
v -0.010801 0.098747 0.036101
v -0.019462 0.091839 0.036101
v -0.024269 0.081858 0.036101
v -0.024269 0.070779 0.036101
v -0.019462 0.060798 0.036101
v -0.010801 0.053891 0.036101
v 0.000000 0.051425 0.036101
v 0.010801 0.053891 0.036101
v 0.019462 0.060798 0.036101
v 0.024269 0.070779 0.036101
v 0.024269 0.081858 0.036101
v 0.019462 0.091839 0.036101
v 0.010801 0.098747 0.036101
v -0.011938 0.101107 0.032835
v 0.000000 0.103832 0.032835
v -0.021511 0.093473 0.032835
v -0.026824 0.082441 0.032835
v -0.026824 0.070196 0.032835
v -0.021511 0.059164 0.032835
v -0.011938 0.051530 0.032835
v 0.000000 0.048805 0.032835
v 0.011938 0.051530 0.032835
v 0.021511 0.059164 0.032835
v 0.026824 0.070196 0.032835
v 0.026824 0.082441 0.032835
v 0.021511 0.093473 0.032835
v 0.011938 0.101107 0.032835
v 0.000000 0.175418 0.036101
v -0.010801 0.172953 0.036101
v -0.019462 0.166046 0.036101
v -0.024269 0.156064 0.036101
v -0.024269 0.144986 0.036101
v -0.019462 0.135004 0.036101
v -0.010801 0.128097 0.036101
v 0.000000 0.125632 0.036101
v 0.010801 0.128097 0.036101
v 0.019462 0.135004 0.036101
v 0.024269 0.144986 0.036101
v 0.024269 0.156064 0.036101
v 0.019462 0.166046 0.036101
v 0.010801 0.172953 0.036101
v -0.011938 0.175314 0.032835
v 0.000000 0.178039 0.032835
v -0.021511 0.167679 0.032835
v -0.026824 0.156647 0.032835
v -0.026824 0.144403 0.032835
v -0.021511 0.133371 0.032835
v -0.011938 0.125736 0.032835
v 0.000000 0.123012 0.032835
v 0.011938 0.125736 0.032835
v 0.021511 0.133371 0.032835
v 0.026824 0.144403 0.032835
v 0.026824 0.156647 0.032835
v 0.021511 0.167679 0.032835
v 0.011938 0.175314 0.032835
v 0.000000 0.250132 0.036101
v -0.010801 0.247667 0.036101
v -0.019462 0.240759 0.036101
v -0.024269 0.230778 0.036101
v -0.024269 0.219699 0.036101
v -0.019462 0.209718 0.036101
v -0.010801 0.202810 0.036101
v 0.000000 0.200345 0.036101
v 0.010801 0.202810 0.036101
v 0.019462 0.209718 0.036101
v 0.024269 0.219699 0.036101
v 0.024269 0.230778 0.036101
v 0.019462 0.240759 0.036101
v 0.010801 0.247667 0.036101
v -0.011938 0.250027 0.032835
v 0.000000 0.252752 0.032835
v -0.021511 0.242393 0.032835
v -0.026824 0.231361 0.032835
v -0.026824 0.219116 0.032835
v -0.021511 0.208084 0.032835
v -0.011938 0.200450 0.032835
v 0.000000 0.197725 0.032835
v 0.011938 0.200450 0.032835
v 0.021511 0.208084 0.032835
v 0.026824 0.219116 0.032835
v 0.026824 0.231361 0.032835
v 0.021511 0.242393 0.032835
v 0.011938 0.250027 0.032835
v -0.038159 0.251877 -0.018894
v -0.023101 0.266545 -0.018894
v -0.023851 0.274313 0.032520
v -0.039398 0.259169 0.032520
v 0.039398 0.259169 0.032520
v 0.023851 0.274313 0.032520
v 0.023101 0.266545 -0.018894
v 0.038159 0.251877 -0.018894
v -0.038389 0.027335 0.006880
v -0.042788 0.029157 0.006880
v -0.044610 0.033556 0.006880
v 0.038389 0.027335 0.006880
v 0.042788 0.029157 0.006880
v 0.044610 0.033556 0.006880
v -0.023554 0.271232 0.012129
v -0.038907 0.256277 0.012129
v 0.023554 0.271232 0.012129
v 0.038907 0.256277 0.012129
v -0.042415 0.029141 -0.007161
v -0.044221 0.033501 -0.007161
v 0.038054 0.027335 -0.007161
v -0.023391 0.269545 0.000961
v 0.038638 0.254693 0.000961
v -0.038054 0.027335 -0.007161
v 0.042415 0.029141 -0.007161
v 0.044221 0.033501 -0.007161
v -0.038638 0.254693 0.000961
v 0.023391 0.269545 0.000961
v -0.011938 0.101107 0.036101
v 0.000000 0.103832 0.036101
v -0.021511 0.093473 0.036101
v -0.026824 0.082441 0.036101
v -0.026824 0.070196 0.036101
v -0.021511 0.059164 0.036101
v -0.011938 0.051530 0.036101
v 0.000000 0.048805 0.036101
v 0.011938 0.051530 0.036101
v 0.021511 0.059164 0.036101
v 0.026824 0.070196 0.036101
v 0.026824 0.082441 0.036101
v 0.021511 0.093473 0.036101
v 0.011938 0.101107 0.036101
v -0.011938 0.175314 0.036101
v 0.000000 0.178039 0.036101
v -0.021511 0.167679 0.036101
v -0.026824 0.156647 0.036101
v -0.026824 0.144403 0.036101
v -0.021511 0.133371 0.036101
v -0.011938 0.125736 0.036101
v 0.000000 0.123012 0.036101
v 0.011938 0.125736 0.036101
v 0.021511 0.133371 0.036101
v 0.026824 0.144403 0.036101
v 0.026824 0.156647 0.036101
v 0.021511 0.167679 0.036101
v 0.011938 0.175314 0.036101
v -0.011938 0.250027 0.036101
v 0.000000 0.252752 0.036101
v -0.021511 0.242393 0.036101
v -0.026824 0.231361 0.036101
v -0.026824 0.219116 0.036101
v -0.021511 0.208084 0.036101
v -0.011938 0.200450 0.036101
v 0.000000 0.197725 0.036101
v 0.011938 0.200450 0.036101
v 0.021511 0.208084 0.036101
v 0.026824 0.219116 0.036101
v 0.026824 0.231361 0.036101
v 0.021511 0.242393 0.036101
v 0.011938 0.250027 0.036101
vn 0.9829 -0.1821 -0.0265
vn 0.9993 0.0262 -0.0278
vn 0.9831 -0.1810 -0.0266
vn -0.0000 0.0561 -0.9984
vn -0.0000 -0.0000 1.0000
vn -0.1951 -0.9808 -0.0047
vn -0.1922 -0.9813 -0.0046
vn 0.1922 -0.9813 -0.0046
vn 0.1951 -0.9808 -0.0047
vn -0.0000 -1.0000 -0.0000
vn -0.0000 -0.2059 -0.9786
vn -0.0000 -0.2059 0.9786
vn 1.0000 -0.0000 -0.0000
vn -1.0000 -0.0000 -0.0000
vn -0.1979 -0.9802 -0.0047
vn -0.3827 -0.9238 -0.0091
vn -0.9236 -0.3826 -0.0241
vn -0.9831 -0.1810 -0.0266
vn -0.9829 -0.1821 -0.0265
vn 0.3827 -0.9238 -0.0091
vn 0.9236 -0.3826 -0.0241
vn 0.9819 -0.1874 -0.0265
vn -0.0000 0.9888 -0.1494
vn 0.7818 0.6235 -0.0000
vn 0.9749 0.2225 -0.0000
vn -0.7818 -0.6235 -0.0000
vn -0.9749 -0.2225 -0.0000
vn 0.4339 0.9010 -0.0000
vn -0.4339 -0.9010 -0.0000
vn -0.0000 1.0000 -0.0000
vn 0.4339 -0.9010 -0.0000
vn -0.4339 0.9010 -0.0000
vn 0.7818 -0.6235 -0.0000
vn -0.7818 0.6235 -0.0000
vn 0.9749 -0.2225 -0.0000
vn -0.9749 0.2225 -0.0000
vn -0.6929 0.7114 -0.1176
vn 0.6929 0.7114 -0.1176
vn -0.9993 0.0262 -0.0278
vn -0.9819 -0.1874 -0.0265
vn 0.1979 -0.9802 -0.0047
vt 0.716672 0.796836
vt 0.716134 0.796024
vt 0.716134 0.792870
vt 0.716672 0.792870
vt 0.716672 0.802870
vt 0.716616 0.802870
vt 0.716097 0.802870
vt 0.707247 0.802870
vt 0.706728 0.802870
vt 0.706672 0.802870
vt 0.707210 0.800823
vt 0.708966 0.800823
vt 0.714378 0.800823
vt 0.716134 0.800823
vt 0.706672 0.792870
vt 0.706728 0.792870
vt 0.707247 0.792870
vt 0.716097 0.792870
vt 0.716616 0.792870
vt 0.714378 0.792870
vt 0.708966 0.792870
vt 0.707210 0.792870
vt 0.707247 0.799008
vt 0.707247 0.802870
vt 0.716097 0.802870
vt 0.716097 0.799008
vt 0.716672 0.802870
vt 0.707247 0.796836
vt 0.706728 0.796836
vt 0.706672 0.796836
vt 0.716616 0.799008
vt 0.716672 0.799008
vt 0.708966 0.797752
vt 0.714378 0.797752
vt 0.128834 0.959257
vt 0.127260 0.960513
vt 0.126387 0.962327
vt 0.126387 0.964340
vt 0.127260 0.966154
vt 0.128834 0.967409
vt 0.130797 0.967857
vt 0.132760 0.967409
vt 0.134334 0.966154
vt 0.135208 0.964340
vt 0.135208 0.962327
vt 0.134334 0.960513
vt 0.132760 0.959257
vt 0.130797 0.958809
vt 0.134706 0.960216
vt 0.135672 0.962221
vt 0.126888 0.966451
vt 0.125923 0.964446
vt 0.132967 0.958828
vt 0.128628 0.967838
vt 0.130797 0.958333
vt 0.130797 0.968333
vt 0.132967 0.967838
vt 0.128628 0.958828
vt 0.134706 0.966451
vt 0.126888 0.960216
vt 0.135672 0.964446
vt 0.125923 0.962221
vt 0.127260 0.960513
vt 0.126387 0.962327
vt 0.126387 0.964340
vt 0.127260 0.966154
vt 0.128834 0.967409
vt 0.130797 0.967857
vt 0.132760 0.967409
vt 0.134334 0.966154
vt 0.135208 0.964340
vt 0.134334 0.960513
vt 0.132760 0.959257
vt 0.130797 0.958809
vt 0.127260 0.966154
vt 0.130797 0.967857
vt 0.132760 0.967409
vt 0.134334 0.966154
vt 0.132760 0.959258
vt 0.707210 0.797752
vt 0.714378 0.796024
vt 0.714378 0.792870
vt 0.706672 0.799008
vt 0.706672 0.802870
vt 0.707210 0.792870
vt 0.707210 0.796024
vt 0.716134 0.797751
vt 0.708966 0.792870
vt 0.708966 0.796024
vt 0.716616 0.796836
vt 0.716097 0.796836
vt 0.706728 0.799008
s 1
usemtl palette
f 118/1/1 122/2/2 109/3/2 13/4/3
f 18/5/4 20/6/4 19/7/4 15/8/4 17/9/4 16/10/4 105/11/4 106/12/4 111/13/4 112/14/4
f 9/15/5 11/16/5 10/17/5 12/18/5 14/19/5 13/4/5 109/3/5 110/20/5 107/21/5 108/22/5
f 128/23/6 15/24/7 19/25/8 125/26/9
f 1/15/10 3/10/10 4/27/10 2/4/10
f 3/10/11 5/10/11 8/27/11 4/27/11
f 2/4/12 7/4/12 6/15/12 1/15/12
f 4/27/13 8/27/13 7/4/13 2/4/13
f 1/15/14 6/15/14 5/10/14 3/10/14
f 113/28/6 10/17/15 11/16/16 114/29/16
f 114/29/17 11/16/17 9/15/18 115/30/19
f 125/26/9 19/25/8 20/6/20 129/31/20
f 129/31/21 20/6/21 18/27/22 130/32/1
f 126/33/23 132/34/23 111/13/23 106/12/23
f 22/35/5 23/36/5 24/37/5 25/38/5 26/39/5 27/40/5 28/41/5 29/42/5 30/43/5 31/44/5 32/45/5 33/46/5 34/47/5 21/48/5
f 145/49/24 144/50/25 46/50/25 47/49/24
f 138/51/26 137/52/27 39/52/27 40/51/26
f 146/53/28 145/49/24 47/49/24 48/53/28
f 139/54/29 138/51/26 40/51/26 41/54/29
f 134/55/30 146/53/28 48/53/28 36/55/30
f 140/56/10 139/54/29 41/54/29 42/56/10
f 141/57/31 140/56/10 42/56/10 43/57/31
f 133/58/32 134/55/30 36/55/30 35/58/32
f 142/59/33 141/57/31 43/57/31 44/59/33
f 135/60/34 133/58/32 35/58/32 37/60/34
f 143/61/35 142/59/33 44/59/33 45/61/35
f 136/62/36 135/60/34 37/60/34 38/62/36
f 144/50/25 143/61/35 45/61/35 46/50/25
f 137/52/27 136/62/36 38/62/36 39/52/27
f 50/35/5 51/63/5 52/64/5 53/65/5 54/66/5 55/67/5 56/68/5 57/69/5 58/70/5 59/71/5 60/45/5 61/72/5 62/73/5 49/74/5
f 159/49/24 158/50/25 74/50/25 75/49/24
f 152/51/26 151/52/27 67/52/27 68/51/26
f 160/53/28 159/49/24 75/49/24 76/53/28
f 153/54/29 152/51/26 68/51/26 69/54/29
f 148/55/30 160/53/28 76/53/28 64/55/30
f 154/56/10 153/54/29 69/54/29 70/56/10
f 155/57/31 154/56/10 70/56/10 71/57/31
f 147/58/32 148/55/30 64/55/30 63/58/32
f 156/59/33 155/57/31 71/57/31 72/59/33
f 149/60/34 147/58/32 63/58/32 65/60/34
f 157/61/35 156/59/33 72/59/33 73/61/35
f 150/62/36 149/60/34 65/60/34 66/62/36
f 158/50/25 157/61/35 73/61/35 74/50/25
f 151/52/27 150/62/36 66/62/36 67/52/27
f 78/35/5 79/63/5 80/64/5 81/38/5 82/75/5 83/67/5 84/76/5 85/77/5 86/78/5 87/44/5 88/45/5 89/72/5 90/79/5 77/74/5
f 173/49/24 172/50/25 102/50/25 103/49/24
f 166/51/26 165/52/27 95/52/27 96/51/26
f 174/53/28 173/49/24 103/49/24 104/53/28
f 167/54/29 166/51/26 96/51/26 97/54/29
f 162/55/30 174/53/28 104/53/28 92/55/30
f 168/56/10 167/54/29 97/54/29 98/56/10
f 169/57/31 168/56/10 98/56/10 99/57/31
f 161/58/32 162/55/30 92/55/30 91/58/32
f 170/59/33 169/57/31 99/57/31 100/59/33
f 163/60/34 161/58/32 91/58/32 93/60/34
f 171/61/35 170/59/33 100/59/33 101/61/35
f 164/62/36 163/60/34 93/60/34 94/62/36
f 172/50/25 171/61/35 101/61/35 102/50/25
f 165/52/27 164/62/36 94/62/36 95/52/27
f 126/33/37 106/12/37 105/11/37 131/80/37
f 121/81/38 110/82/38 109/3/38 122/2/38
f 124/83/19 131/80/39 105/11/39 16/84/40
f 9/15/18 108/85/39 120/86/39 115/30/19
f 107/88/37 119/89/37 120/86/37 108/85/37
f 107/88/23 110/82/23 121/81/23 119/89/23
f 14/19/21 117/90/21 118/1/1 13/4/3
f 12/18/41 116/91/9 117/90/20 14/19/20
f 10/17/15 113/28/6 116/91/9 12/18/41
f 18/27/22 112/14/2 127/87/2 130/32/1
f 15/24/7 128/23/6 123/92/16 17/9/16
f 17/9/17 123/92/17 124/83/19 16/84/40
f 111/13/38 132/34/38 127/87/38 112/14/38
usemtl RGB
f 132/34/38 121/81/38 122/2/38 127/87/38
f 123/92/17 114/29/17 115/30/19 124/83/19
f 128/23/6 113/28/6 114/29/16 123/92/16
f 130/32/1 127/87/2 122/2/2 118/1/1
f 115/30/19 120/86/39 131/80/39 124/83/19
f 119/89/37 126/33/37 131/80/37 120/86/37
f 119/89/23 121/81/23 132/34/23 126/33/23
f 117/90/21 129/31/21 130/32/1 118/1/1
f 116/91/9 125/26/9 129/31/20 117/90/20
f 113/28/6 128/23/6 125/26/9 116/91/9
f 22/35/5 21/48/5 134/55/5 133/58/5
f 23/36/5 22/35/5 133/58/5 135/60/5
f 24/37/5 23/36/5 135/60/5 136/62/5
f 25/38/5 24/37/5 136/62/5 137/52/5
f 26/39/5 25/38/5 137/52/5 138/51/5
f 27/40/5 26/39/5 138/51/5 139/54/5
f 28/41/5 27/40/5 139/54/5 140/56/5
f 29/42/5 28/41/5 140/56/5 141/57/5
f 30/43/5 29/42/5 141/57/5 142/59/5
f 31/44/5 30/43/5 142/59/5 143/61/5
f 32/45/5 31/44/5 143/61/5 144/50/5
f 33/46/5 32/45/5 144/50/5 145/49/5
f 34/47/5 33/46/5 145/49/5 146/53/5
f 21/48/5 34/47/5 146/53/5 134/55/5
f 50/35/5 49/74/5 148/55/5 147/58/5
f 51/63/5 50/35/5 147/58/5 149/60/5
f 52/64/5 51/63/5 149/60/5 150/62/5
f 53/65/5 52/64/5 150/62/5 151/52/5
f 54/66/5 53/65/5 151/52/5 152/51/5
f 55/67/5 54/66/5 152/51/5 153/54/5
f 56/68/5 55/67/5 153/54/5 154/56/5
f 57/69/5 56/68/5 154/56/5 155/57/5
f 58/70/5 57/69/5 155/57/5 156/59/5
f 59/71/5 58/70/5 156/59/5 157/61/5
f 60/45/5 59/71/5 157/61/5 158/50/5
f 61/72/5 60/45/5 158/50/5 159/49/5
f 62/73/5 61/72/5 159/49/5 160/53/5
f 49/74/5 62/73/5 160/53/5 148/55/5
f 78/35/5 77/74/5 162/55/5 161/58/5
f 79/63/5 78/35/5 161/58/5 163/60/5
f 80/64/5 79/63/5 163/60/5 164/62/5
f 81/38/5 80/64/5 164/62/5 165/52/5
f 82/75/5 81/38/5 165/52/5 166/51/5
f 83/67/5 82/75/5 166/51/5 167/54/5
f 84/76/5 83/67/5 167/54/5 168/56/5
f 85/77/5 84/76/5 168/56/5 169/57/5
f 86/78/5 85/77/5 169/57/5 170/59/5
f 87/44/5 86/78/5 170/59/5 171/61/5
f 88/45/5 87/44/5 171/61/5 172/50/5
f 89/72/5 88/45/5 172/50/5 173/49/5
f 90/79/5 89/72/5 173/49/5 174/53/5
f 77/74/5 90/79/5 174/53/5 162/55/5
