# Blender 3.6.2
# www.blender.org
mtllib Tripod_Support_Base_1.mtl
o Tripod_Support_Base_1
v -0.000000 0.658272 0.036191
v 0.025591 0.658272 0.025591
v 0.036190 0.658272 0.000000
v 0.025590 0.658272 -0.025590
v -0.000000 0.658272 -0.036190
v -0.025590 0.658272 -0.025590
v -0.036191 0.658272 0.000001
v -0.025590 0.658272 0.025591
v 0.025591 0.700580 0.025591
v -0.000000 0.700580 0.036191
v 0.036190 0.700580 0.000000
v 0.025590 0.700580 -0.025590
v -0.000000 0.700580 -0.036190
v -0.025590 0.700580 -0.025590
v -0.036191 0.700580 0.000001
v -0.025590 0.700580 0.025591
v 0.012096 0.664946 0.006984
v -0.000000 -0.000000 -0.223137
v 0.011975 -0.000000 -0.230050
v 0.011975 -0.000000 -0.243878
v -0.000000 -0.000000 -0.250791
v -0.011975 -0.000000 -0.243878
v -0.011975 -0.000000 -0.230050
v 0.000000 0.664946 0.013967
v 0.012096 0.664946 -0.006984
v -0.000000 0.664946 -0.013967
v -0.012096 0.664946 -0.006984
v -0.012096 0.664946 0.006984
v -0.012095 0.664946 0.006982
v 0.193243 0.000000 0.111567
v 0.193243 0.000000 0.125394
v 0.205218 0.000000 0.132308
v 0.217193 0.000000 0.125394
v 0.217193 0.000000 0.111567
v 0.205218 0.000000 0.104653
v -0.012095 0.664946 -0.006985
v 0.000001 0.664946 0.013966
v 0.012097 0.664946 0.006982
v 0.012097 0.664946 -0.006985
v 0.000001 0.664946 -0.013968
v 0.000002 0.664946 -0.013967
v -0.193240 0.000000 0.111569
v -0.205215 0.000000 0.104655
v -0.217190 0.000000 0.111568
v -0.217190 0.000000 0.125396
v -0.205215 0.000000 0.132310
v -0.193240 0.000000 0.125396
v 0.012097 0.664946 -0.006983
v -0.012094 0.664946 -0.006983
v -0.012094 0.664946 0.006984
v 0.000002 0.664946 0.013967
v 0.012097 0.664946 0.006984
v -0.009056 0.205304 -0.165667
v 0.009056 0.205304 -0.165667
v -0.009272 0.205433 -0.033658
v 0.009272 0.205433 -0.033658
v 0.009272 0.194345 -0.033658
v -0.009272 0.194345 -0.033658
v -0.009056 0.194474 -0.165667
v 0.009056 0.194474 -0.165667
v 0.148001 0.205304 0.074989
v 0.138944 0.205304 0.090675
v 0.033785 0.205433 0.008798
v 0.024513 0.205433 0.024857
v 0.024513 0.194345 0.024857
v 0.033785 0.194345 0.008798
v 0.148001 0.194474 0.074989
v 0.138944 0.194474 0.090675
v -0.138942 0.205304 0.090677
v -0.147998 0.205304 0.074990
v -0.024511 0.205433 0.024859
v -0.033783 0.205433 0.008799
v -0.033783 0.194345 0.008799
v -0.024511 0.194345 0.024859
v -0.138942 0.194474 0.090677
v -0.147998 0.194474 0.074990
v 0.017482 0.194345 -0.010080
v 0.017482 0.205433 -0.010080
v -0.017476 0.194345 -0.010105
v -0.017476 0.205433 -0.010105
v 0.000012 0.205433 0.020185
v 0.000012 0.194345 0.020185
vn -0.0000 -1.0000 -0.0000
vn -0.0000 1.0000 -0.0000
vn -0.3827 -0.0000 0.9239
vn -0.9239 -0.0000 -0.3827
vn 0.3827 -0.0000 -0.9239
vn 0.9239 -0.0000 0.3827
vn -0.9239 -0.0000 0.3827
vn -0.3827 -0.0000 -0.9239
vn 0.9239 -0.0000 -0.3827
vn 0.3827 -0.0000 0.9239
vn -0.4778 0.2947 -0.8276
vn 0.4778 0.2947 -0.8276
vn 0.4777 -0.2951 0.8275
vn -0.4777 -0.2951 0.8275
vn -1.0000 -0.0002 -0.0000
vn 1.0000 -0.0002 -0.0000
vn 0.9556 0.2947 -0.0000
vn 0.4778 0.2947 0.8276
vn -0.9555 -0.2951 -0.0000
vn -0.4777 -0.2951 -0.8275
vn 0.5000 -0.0002 -0.8660
vn -0.5000 -0.0002 0.8660
vn -0.4778 0.2947 0.8276
vn -0.9556 0.2947 -0.0000
vn 0.4777 -0.2951 -0.8275
vn 0.9555 -0.2951 -0.0000
vn 0.5000 -0.0002 0.8660
vn -0.5000 -0.0002 -0.8660
vn 1.0000 -0.0000 -0.0016
vn -0.0000 1.0000 -0.0010
vn -0.0000 -1.0000 -0.0010
vn -1.0000 -0.0000 -0.0016
vn -0.4986 -0.0000 0.8668
vn 0.0008 1.0000 0.0005
vn 0.0008 -1.0000 0.0005
vn 0.5014 -0.0000 -0.8652
vn -0.5014 -0.0000 -0.8652
vn -0.0008 1.0000 0.0005
vn -0.0008 -1.0000 0.0005
vn 0.4986 -0.0000 0.8668
vn -0.9444 -0.0000 -0.3289
vn 0.1872 -0.0000 0.9823
vn 0.9444 -0.0000 -0.3288
vn -0.7572 -0.0000 -0.6532
vn 0.7568 -0.0000 -0.6536
vn -0.1873 -0.0000 0.9823
vt 0.129242 0.966490
vt 0.131973 0.965358
vt 0.133105 0.962627
vt 0.131973 0.959896
vt 0.129242 0.958765
vt 0.126511 0.959896
vt 0.125380 0.962627
vt 0.126511 0.965358
vt 0.131242 0.961346
s 0
usemtl palette
f 1/1/1 8/2/1 7/3/1 6/4/1 5/5/1 4/6/1 3/7/1 2/8/1
f 10/1/2 9/8/2 11/7/2 12/6/2 13/5/2 14/4/2 15/3/2 16/2/2
f 8/2/3 1/1/3 10/1/3 16/2/3
f 6/4/4 7/3/4 15/3/4 14/4/4
f 4/6/5 5/5/5 13/5/5 12/6/5
f 2/8/6 3/7/6 11/7/6 9/8/6
f 7/3/7 8/2/7 16/2/7 15/3/7
f 5/5/8 6/4/8 14/4/8 13/5/8
f 3/7/9 4/6/9 12/6/9 11/7/9
f 1/1/10 2/8/10 9/8/10 10/1/10
f 21/9/11 22/9/11 27/9/11 26/9/11
f 20/9/12 21/9/12 26/9/12 25/9/12
f 18/9/13 19/9/13 17/9/13 24/9/13
f 23/9/14 18/9/14 24/9/14 28/9/14
f 22/9/15 23/9/15 28/9/15 27/9/15
f 19/9/16 20/9/16 25/9/16 17/9/16
f 33/9/17 34/9/17 39/9/17 38/9/17
f 32/9/18 33/9/18 38/9/18 37/9/18
f 30/9/19 31/9/19 29/9/19 36/9/19
f 35/9/20 30/9/20 36/9/20 40/9/20
f 34/9/21 35/9/21 40/9/21 39/9/21
f 31/9/22 32/9/22 37/9/22 29/9/22
f 43/9/1 42/9/1 47/9/1 46/9/1 45/9/1 44/9/1
f 31/9/1 30/9/1 35/9/1 34/9/1 33/9/1 32/9/1
f 19/9/1 18/9/1 23/9/1 22/9/1 21/9/1 20/9/1
f 45/9/23 46/9/23 51/9/23 50/9/23
f 44/9/24 45/9/24 50/9/24 49/9/24
f 42/9/25 43/9/25 41/9/25 48/9/25
f 47/9/26 42/9/26 48/9/26 52/9/26
f 46/9/27 47/9/27 52/9/27 51/9/27
f 43/9/28 44/9/28 49/9/28 41/9/28
f 60/9/29 54/9/29 56/9/29 57/9/29
f 53/9/30 55/9/30 56/9/30 54/9/30
f 59/9/31 60/9/31 57/9/31 58/9/31
f 58/9/32 55/9/32 53/9/32 59/9/32
f 72/9/2 71/9/2 81/9/2 80/9/2
f 68/9/33 62/9/33 64/9/33 65/9/33
f 61/9/34 63/9/34 64/9/34 62/9/34
f 67/9/35 68/9/35 65/9/35 66/9/35
f 66/9/36 63/9/36 61/9/36 67/9/36
f 56/9/2 55/9/2 80/9/2 78/9/2
f 76/9/37 70/9/37 72/9/37 73/9/37
f 69/9/38 71/9/38 72/9/38 70/9/38
f 75/9/39 76/9/39 73/9/39 74/9/39
f 74/9/40 71/9/40 69/9/40 75/9/40
f 66/9/1 65/9/1 82/9/1 77/9/1
f 79/9/1 77/9/1 82/9/1
f 80/9/2 81/9/2 78/9/2
f 55/9/41 58/9/41 79/9/41 80/9/41
f 71/9/42 74/9/42 82/9/42 81/9/42
f 57/9/43 56/9/43 78/9/43 77/9/43
f 73/9/44 72/9/44 80/9/44 79/9/44
f 58/9/1 57/9/1 77/9/1 79/9/1
f 74/9/1 73/9/1 79/9/1 82/9/1
f 64/9/2 63/9/2 78/9/2 81/9/2
f 63/9/45 66/9/45 77/9/45 78/9/45
f 65/9/46 64/9/46 81/9/46 82/9/46
