# Blender 3.6.2
# www.blender.org
mtllib Tripod_Light_A_1.mtl
o Tripod_Light_A_1
v 0.168751 0.140470 0.028149
v -0.168757 0.140470 0.028149
v -0.168757 -0.146355 0.020484
v 0.168751 -0.146355 0.020484
v -0.168757 -0.146355 -0.024110
v 0.168751 -0.146355 -0.024110
v -0.168757 0.140470 0.014280
v 0.168751 0.140470 0.014280
v 0.168751 -0.131460 0.028149
v -0.168757 -0.131460 0.028149
v 0.168751 -0.131460 0.014280
v -0.168757 -0.131460 0.014280
v 0.168751 0.140470 -0.011869
v 0.168751 0.117880 -0.024110
v -0.168757 0.117880 -0.024110
v -0.168757 0.140470 -0.011869
vn -0.0000 -0.4576 0.8892
vn -1.0000 -0.0000 -0.0000
vn -0.0000 -1.0000 -0.0000
vn 1.0000 -0.0000 -0.0000
vn -0.0000 1.0000 -0.0000
vn -0.0000 -0.0000 1.0000
vn -0.0000 0.4765 -0.8792
vn -0.0000 -0.0000 -1.0000
vt 0.131242 0.961346
vt 0.131242 0.961346
vt 0.131242 0.961346
s 0
usemtl palette
f 9/1/1 10/2/1 3/1/1 4/1/1
f 12/2/2 5/3/2 3/2/2
f 3/2/3 5/1/3 6/1/3 4/1/3
f 7/3/2 16/3/2 15/1/2 5/3/2 12/2/2
f 11/1/4 6/1/4 14/1/4 13/2/4 8/2/4
f 10/2/2 12/2/2 3/2/2
f 4/1/4 11/1/4 9/1/4
f 4/1/4 6/1/4 11/1/4
f 8/2/5 13/2/5 16/3/5 7/3/5
f 13/2/7 14/1/7 15/1/7 16/3/7
f 14/1/8 6/1/8 5/3/8 15/1/8
usemtl light
f 1/1/5 8/2/5 7/3/5 2/1/5
f 9/1/4 11/1/4 8/2/4 1/1/4
f 2/1/2 7/3/2 12/2/2 10/2/2
f 1/1/6 2/1/6 10/2/6 9/1/6
