# Blender 3.6.2
# www.blender.org
mtllib TV_2.mtl
o TV_2
v 0.646093 0.741946 0.007394
v -0.646092 0.741946 0.007394
v 0.646093 0.099632 0.007394
v -0.646092 0.099632 0.007394
v 0.659096 0.750805 0.007394
v 0.652293 0.742349 -0.010499
v -0.659095 0.750805 0.007394
v -0.652292 0.742349 -0.010499
v 0.659096 0.049882 0.007394
v 0.652293 0.049882 -0.010499
v -0.659095 0.049882 0.007394
v -0.652292 0.049882 -0.010499
v 0.172329 0.362646 -0.027948
v -0.172329 0.362646 -0.027948
v 0.172329 0.223475 -0.027948
v -0.172329 0.223475 -0.027948
v -0.172329 0.374179 -0.010499
v 0.172329 0.374179 -0.010499
v -0.172329 0.213976 -0.010499
v 0.172329 0.213976 -0.010499
v -0.654300 0.055596 0.019739
v -0.646092 0.099632 0.019739
v -0.646092 0.741946 0.019739
v 0.646093 0.741946 0.019739
v 0.646093 0.099632 0.019739
v 0.654300 0.055596 0.019739
v -0.654300 0.747345 0.019739
v 0.654300 0.747345 0.019739
v -0.000001 0.000000 -0.082740
v -0.063373 0.000000 -0.075953
v -0.117097 0.000000 -0.056625
v -0.152994 0.000000 -0.027699
v -0.165600 0.000000 0.006421
v -0.152994 0.000000 0.040541
v -0.117097 0.000000 0.069467
v -0.063373 0.000000 0.088795
v -0.000001 0.000000 0.095582
v 0.063371 0.000000 0.088795
v 0.117096 0.000000 0.069467
v 0.152993 0.000000 0.040541
v 0.165598 0.000000 0.006421
v 0.152993 0.000000 -0.027699
v 0.117096 0.000000 -0.056625
v 0.063371 0.000000 -0.075953
v -0.056792 0.000000 -0.053121
v -0.000001 0.000000 -0.059203
v -0.102975 0.000000 -0.036506
v -0.130272 0.000000 -0.014511
v -0.138005 0.000000 0.006421
v -0.130272 0.000000 0.027353
v -0.102975 0.000000 0.049349
v -0.056792 0.000000 0.065963
v -0.000001 0.000000 0.072046
v 0.056791 0.000000 0.065963
v 0.102974 0.000000 0.049349
v 0.130271 0.000000 0.027353
v 0.138004 0.000000 0.006421
v 0.130271 0.000000 -0.014511
v 0.102974 0.000000 -0.036506
v 0.056791 0.000000 -0.053121
v -0.056792 0.014085 -0.053121
v -0.000001 0.014085 -0.059203
v -0.102975 0.014085 -0.036506
v -0.130272 0.014085 -0.014511
v -0.138005 0.014085 0.006421
v -0.130272 0.014085 0.027353
v -0.102975 0.014085 0.049349
v -0.056792 0.014085 0.065963
v -0.000001 0.014085 0.072046
v 0.056791 0.014085 0.065963
v 0.102974 0.014085 0.049349
v 0.130271 0.014085 0.027353
v 0.138004 0.014085 0.006421
v 0.130271 0.014085 -0.014511
v 0.102974 0.014085 -0.036506
v 0.056791 0.014085 -0.053121
v -0.005522 0.010954 -0.076100
v -0.005648 0.022862 -0.000059
v 0.005522 0.010954 -0.076100
v 0.005648 0.022862 -0.000059
v -0.005648 0.002734 -0.000059
v -0.005522 0.002734 -0.076100
v 0.005648 0.002734 -0.000059
v 0.005522 0.002734 -0.076100
v 0.000000 0.010954 -0.076100
v 0.000000 0.022862 0.004295
v 0.000000 0.002734 -0.076100
v 0.000000 0.002734 0.004295
v 0.074736 0.010954 0.073292
v 0.085264 0.010954 0.073292
v 0.074736 0.002734 0.073292
v 0.085264 0.002734 0.073292
v -0.085264 0.002734 0.073292
v -0.085264 0.010954 0.073292
v -0.074736 0.010954 0.073292
v -0.074736 0.002734 0.073292
v -0.005522 0.015789 -0.006924
v 0.005522 0.015789 -0.006924
v -0.005522 0.002734 -0.008785
v 0.005522 0.002734 -0.008785
v 0.000000 0.002734 -0.002480
v -0.005522 0.051109 -0.002480
v -0.005522 0.022513 -0.066200
v 0.005522 0.051109 -0.002480
v 0.005522 0.022513 -0.066200
v 0.000000 0.022513 -0.066200
v 0.000000 0.051109 0.004295
v 0.005648 0.051109 -0.000059
v -0.005648 0.051109 -0.000059
v 0.000000 0.051109 -0.002480
v -0.063373 0.015641 -0.075893
v -0.062013 0.019429 -0.071174
v -0.000001 0.019698 -0.077820
v -0.000001 0.015976 -0.082675
v -0.117097 0.014687 -0.056580
v -0.114166 0.018667 -0.052402
v -0.152994 0.013260 -0.027676
v -0.148257 0.017532 -0.024924
v -0.165600 0.011576 0.006421
v -0.159823 0.016197 0.006421
v -0.152994 0.009892 0.040520
v -0.148210 0.014865 0.037739
v -0.117097 0.008465 0.069430
v -0.114105 0.013739 0.065157
v -0.063373 0.007512 0.088748
v -0.061973 0.012989 0.083877
v -0.000001 0.007177 0.095532
v -0.000001 0.012725 0.090504
v 0.063371 0.007512 0.088748
v 0.061972 0.012989 0.083877
v 0.117096 0.008465 0.069430
v 0.114104 0.013739 0.065157
v 0.152993 0.009892 0.040520
v 0.148209 0.014865 0.037739
v 0.165598 0.011576 0.006421
v 0.159822 0.016197 0.006421
v 0.152993 0.013260 -0.027676
v 0.148255 0.017532 -0.024924
v 0.117096 0.014687 -0.056580
v 0.114165 0.018667 -0.052402
v 0.063371 0.015641 -0.075893
v 0.062012 0.019429 -0.071174
vn -0.0000 0.9629 0.2699
vn -0.0000 -0.9761 0.2172
vn -0.0000 -0.9075 0.4200
vn -0.0000 -0.0000 -1.0000
vn -0.0000 0.9041 -0.4273
vn -0.0000 -1.0000 -0.0000
vn -0.9347 -0.0000 -0.3554
vn 0.9347 -0.0000 -0.3554
vn -1.0000 -0.0000 -0.0000
vn -0.9321 -0.0000 0.3621
vn -0.0000 -0.0000 1.0000
vn -0.0000 0.8342 -0.5514
vn 1.0000 -0.0000 -0.0000
vn -0.0000 -0.8783 -0.4781
vn 0.9321 -0.0000 0.3621
vn -0.0000 1.0000 -0.0000
vn -0.2240 0.0036 -0.9746
vn -0.4895 0.0026 -0.8720
vn -0.4875 0.0026 -0.8731
vn -0.2233 0.0036 -0.9747
vn 0.0534 0.9631 0.2639
vn -0.0000 0.9592 0.2826
vn 0.0551 0.9633 0.2626
vn -0.8118 0.0012 -0.5839
vn -0.9380 0.0003 -0.3466
vn -0.8081 0.0012 -0.5891
vn -0.9380 0.0003 0.3467
vn -0.8117 0.0015 0.5840
vn -0.8160 0.0015 0.5780
vn -0.4894 0.0038 0.8720
vn -0.4920 0.0038 0.8706
vn -0.2239 0.0058 0.9746
vn -0.2249 0.0058 0.9744
vn -0.0000 0.0066 1.0000
vn 0.2239 0.0058 0.9746
vn 0.2249 0.0058 0.9744
vn 0.4894 0.0038 0.8720
vn 0.4920 0.0038 0.8706
vn 0.8117 0.0015 0.5840
vn 0.8160 0.0015 0.5780
vn 0.9380 0.0003 0.3467
vn 0.9380 0.0003 -0.3466
vn 0.8118 0.0012 -0.5839
vn 0.8081 0.0012 -0.5891
vn 0.4895 0.0026 -0.8720
vn 0.4875 0.0026 -0.8731
vn 0.2240 0.0036 -0.9746
vn 0.2233 0.0036 -0.9747
vn 0.2241 -0.0000 -0.9746
vn 0.4897 -0.0000 -0.8719
vn 0.0430 0.9991 0.0004
vn 0.0962 0.9948 0.0342
vn 0.0963 0.9948 0.0343
vn 0.0466 0.9989 0.0002
vn 0.0044 0.9998 0.0219
vn 0.0059 0.9998 0.0194
vn -0.2241 -0.0000 -0.9746
vn -0.0057 0.9985 0.0536
vn -0.0058 0.9986 0.0526
vn -0.4897 -0.0000 -0.8719
vn -0.0000 0.9978 0.0667
vn -0.8120 -0.0000 -0.5836
vn 0.0057 0.9985 0.0536
vn 0.0058 0.9986 0.0526
vn -0.9380 -0.0000 -0.3465
vn -0.0044 0.9998 0.0219
vn -0.0059 0.9998 0.0194
vn -0.8120 -0.0000 0.5836
vn -0.9380 -0.0000 0.3465
vn -0.0430 0.9991 0.0004
vn -0.0466 0.9989 0.0002
vn -0.4897 -0.0000 0.8719
vn 0.2241 -0.0000 0.9746
vn -0.0962 0.9948 0.0342
vn -0.0963 0.9948 0.0343
vn -0.2241 -0.0000 0.9746
vn 0.4897 -0.0000 0.8719
vn -0.1189 0.9854 0.1217
vn -0.1191 0.9861 0.1157
vn 0.8120 -0.0000 0.5836
vn -0.0979 0.9731 0.2084
vn -0.1002 0.9739 0.2037
vn 0.0979 0.9731 0.2084
vn 0.1002 0.9739 0.2037
vn 0.9380 -0.0000 0.3465
vn -0.0534 0.9631 0.2639
vn -0.0551 0.9633 0.2626
vn -0.0000 0.0040 -1.0000
vn 0.8120 -0.0000 -0.5836
vn 0.9380 -0.0000 -0.3465
vn 0.1189 0.9854 0.1217
vn 0.1191 0.9861 0.1157
vn -0.6105 -0.0000 0.7920
vn 1.0000 0.0006 -0.0096
vn 1.0000 0.0004 -0.0075
vn -0.6776 -0.0000 -0.7355
vn -1.0000 0.0006 -0.0096
vn -1.0000 0.0004 -0.0075
vn -0.9999 0.0009 -0.0166
vn -0.9997 0.0017 -0.0257
vn -0.9996 0.0020 -0.0286
vn -0.9998 0.0012 -0.0179
vn -0.6783 -0.0000 0.7348
vn 0.0345 0.9911 0.1284
vn 0.6776 -0.0000 -0.7355
vn 0.6783 -0.0000 0.7348
vn -0.0345 0.9911 0.1284
vn 0.9998 0.0012 -0.0179
vn 0.9997 0.0017 -0.0257
vn 0.9999 0.0009 -0.0166
vn -0.0000 0.6505 -0.7595
vn -0.0000 0.8008 -0.5989
vn -0.0000 0.9123 -0.4094
vn 0.9996 0.0020 -0.0286
vn 0.6105 -0.0000 0.7920
vn -0.1432 0.7898 -0.5965
vn -0.0000 0.7916 -0.6111
vn -0.1480 0.7896 -0.5955
vn -0.3124 0.7869 -0.5322
vn -0.3236 0.7865 -0.5260
vn -0.5101 0.7884 -0.3437
vn -0.5227 0.7880 -0.3253
vn -0.6238 0.7808 0.0342
vn -0.6239 0.7803 0.0426
vn -0.5240 0.7399 0.4218
vn -0.5297 0.7411 0.4126
vn -0.3305 0.7009 0.6321
vn -0.3370 0.7018 0.6276
vn -0.1554 0.6799 0.7166
vn -0.1584 0.6801 0.7158
vn -0.0000 0.6734 0.7393
vn 0.1554 0.6799 0.7166
vn 0.1584 0.6801 0.7158
vn 0.3305 0.7009 0.6321
vn 0.3370 0.7018 0.6276
vn 0.5240 0.7399 0.4218
vn 0.5297 0.7411 0.4126
vn 0.6238 0.7808 0.0342
vn 0.6239 0.7803 0.0426
vn 0.5101 0.7884 -0.3437
vn 0.5227 0.7880 -0.3253
vn 0.3124 0.7869 -0.5322
vn 0.3236 0.7865 -0.5260
vn 0.1432 0.7898 -0.5965
vn 0.1480 0.7896 -0.5955
vt 0.122196 0.955531
vt 0.122196 0.952627
vt 0.128259 0.978143
vt 0.142537 0.978143
vt 0.497076 0.000071
vt 0.497076 0.999929
vt 0.000070 0.999929
vt 0.000071 0.000070
vt 0.142537 0.949419
vt 0.128259 0.949419
vt 0.132959 0.956821
vt 0.134325 0.958187
vt 0.132519 0.958026
vt 0.131174 0.956082
vt 0.130919 0.957364
vt 0.133693 0.959200
vt 0.134255 0.960557
vt 0.135064 0.959972
vt 0.134255 0.961742
vt 0.135064 0.961903
vt 0.133801 0.962837
vt 0.134325 0.963688
vt 0.132763 0.963876
vt 0.132959 0.965054
vt 0.131229 0.964511
vt 0.131174 0.965793
vt 0.129497 0.964511
vt 0.129242 0.965793
vt 0.127898 0.963849
vt 0.127458 0.965054
vt 0.126724 0.962675
vt 0.126092 0.963688
vt 0.126162 0.961318
vt 0.125353 0.961903
vt 0.126162 0.960133
vt 0.125353 0.959972
vt 0.126615 0.959038
vt 0.126092 0.958187
vt 0.127654 0.957999
vt 0.127458 0.956821
vt 0.129188 0.957364
vt 0.129242 0.956082
vt 0.131122 0.956346
vt 0.132868 0.957070
vt 0.134325 0.963688
vt 0.126092 0.958187
vt 0.127458 0.956821
vt 0.134325 0.958187
vt 0.134895 0.961870
vt 0.134215 0.963509
vt 0.132917 0.964804
vt 0.132917 0.964804
vt 0.131186 0.965521
vt 0.131186 0.965521
vt 0.129297 0.965520
vt 0.129297 0.965520
vt 0.127551 0.964798
vt 0.126226 0.963473
vt 0.125523 0.961780
vt 0.125522 0.960005
vt 0.125522 0.960005
vt 0.126201 0.958364
vt 0.127499 0.957066
vt 0.132868 0.957070
vt 0.134194 0.958397
vt 0.127499 0.957066
vt 0.129231 0.956347
vt 0.129242 0.956082
vt 0.134895 0.960094
vt 0.000000 0.000000
s 1
usemtl palette
f 5/1/1 7/1/1 27/1/1 28/1/1
f 11/1/2 9/1/2 26/1/3 21/1/3
f 6/2/4 10/2/4 12/2/4 8/2/4
f 6/2/5 8/2/5 7/1/5 5/1/5
f 10/2/6 9/1/2 11/1/2 12/2/6
f 8/2/7 12/2/7 11/1/7 7/1/7
f 5/1/8 9/1/8 10/2/8 6/2/8
f 1/3/9 3/4/9 25/4/9 24/3/9
f 7/1/10 11/1/10 21/1/10 27/1/10
f 13/2/4 15/2/4 16/2/4 14/2/4
f 14/2/9 16/2/9 19/2/9 17/2/9
f 13/2/12 14/2/12 17/2/12 18/2/12
f 15/2/13 13/2/13 18/2/13 20/2/13
f 16/2/14 15/2/14 20/2/14 19/2/14
f 24/1/11 28/1/11 27/1/11 23/1/11
f 22/1/11 21/1/11 26/1/11 25/1/11
f 25/1/11 26/1/11 28/1/11 24/1/11
f 23/1/11 27/1/11 21/1/11 22/1/11
f 9/1/15 5/1/15 28/1/15 26/1/15
f 4/9/13 2/10/13 23/10/13 22/9/13
f 3/4/16 4/9/16 22/9/16 25/4/16
f 2/10/6 1/3/6 24/3/6 23/10/6
f 30/11/17 31/12/18 115/12/19 111/11/20
f 45/13/6 30/11/6 29/14/6 46/15/6
f 47/16/6 31/12/6 30/11/6 45/13/6
f 48/17/6 32/18/6 31/12/6 47/16/6
f 49/19/6 33/20/6 32/18/6 48/17/6
f 50/21/6 34/22/6 33/20/6 49/19/6
f 51/23/6 35/24/6 34/22/6 50/21/6
f 52/25/6 36/26/6 35/24/6 51/23/6
f 53/27/6 37/28/6 36/26/6 52/25/6
f 54/29/6 38/30/6 37/28/6 53/27/6
f 55/31/6 39/32/6 38/30/6 54/29/6
f 56/33/6 40/34/6 39/32/6 55/31/6
f 57/35/6 41/36/6 40/34/6 56/33/6
f 58/37/6 42/38/6 41/36/6 57/35/6
f 59/39/6 43/40/6 42/38/6 58/37/6
f 60/41/6 44/42/6 43/40/6 59/39/6
f 46/15/6 29/14/6 44/42/6 60/41/6
f 61/13/21 62/15/22 113/43/22 112/44/23
f 32/18/24 33/20/25 119/20/25 117/18/26
f 33/20/27 34/22/28 121/22/29 119/20/27
f 34/22/28 35/24/30 123/24/31 121/45/29
f 35/24/30 36/26/32 125/26/33 123/24/31
f 36/26/32 37/28/34 127/28/34 125/26/33
f 37/28/34 38/30/35 129/30/36 127/28/34
f 38/30/35 39/32/37 131/32/38 129/30/36
f 39/32/37 40/34/39 133/34/40 131/32/38
f 40/34/39 41/36/41 135/36/41 133/34/40
f 41/36/42 42/38/43 137/38/44 135/36/42
f 42/38/43 43/40/45 139/40/46 137/46/44
f 43/40/45 44/42/47 141/42/48 139/47/46
f 31/12/18 32/18/24 117/18/26 115/48/19
f 52/25/49 51/23/50 67/23/50 68/25/49
f 66/21/51 65/19/52 120/49/53 122/50/54
f 53/27/4 52/25/49 68/25/49 69/27/4
f 67/23/55 66/21/51 122/50/54 124/51/56
f 54/29/57 53/27/4 69/27/4 70/29/57
f 68/25/58 67/23/55 124/52/56 126/53/59
f 55/31/60 54/29/57 70/29/57 71/31/60
f 69/27/61 68/25/58 126/54/59 128/55/61
f 56/33/62 55/31/60 71/31/60 72/33/62
f 70/29/63 69/27/61 128/56/61 130/57/64
f 57/35/65 56/33/62 72/33/62 73/35/65
f 71/31/66 70/29/63 130/57/64 132/58/67
f 58/37/68 57/35/69 73/35/69 74/37/68
f 72/33/70 71/31/66 132/58/67 134/59/71
f 59/39/72 58/37/68 74/37/68 75/39/72
f 45/13/73 46/15/11 62/15/11 61/13/73
f 73/35/74 72/33/70 134/59/71 136/60/75
f 60/41/76 59/39/72 75/39/72 76/41/76
f 47/16/77 45/13/73 61/13/73 63/16/77
f 74/37/78 73/35/74 136/61/75 138/62/79
f 46/15/11 60/41/76 76/41/76 62/15/11
f 48/17/80 47/16/77 63/16/77 64/17/80
f 75/39/81 74/37/78 138/62/79 140/63/82
f 63/16/83 61/13/21 112/64/23 116/65/84
f 49/19/85 48/17/80 64/17/80 65/19/85
f 76/41/86 75/39/81 140/66/82 142/67/87
f 44/42/47 29/14/88 114/14/88 141/68/48
f 50/21/89 49/19/90 65/19/90 66/21/89
f 62/15/22 76/41/86 142/67/87 113/43/22
f 64/17/91 63/16/83 116/65/84 118/69/92
f 51/23/50 50/21/89 66/21/89 67/23/50
f 65/19/52 64/17/91 118/69/92 120/49/53
f 78/70/93 86/70/93 107/70/93 109/70/93
f 101/70/6 100/70/6 83/70/6 88/70/6
f 83/70/6 92/70/6 91/70/6 88/70/6
f 98/70/94 100/70/95 84/70/13 79/70/13
f 81/70/96 93/70/96 94/70/96 78/70/96
f 97/70/97 99/70/98 81/70/99 78/70/100
f 99/70/6 101/70/6 88/70/6 81/70/6
f 97/70/97 78/70/100 109/70/101 102/70/102
f 88/70/103 91/70/103 89/70/103 86/70/103
f 86/70/104 89/70/104 90/70/104 80/70/104
f 80/70/105 90/70/105 92/70/105 83/70/105
f 86/70/106 95/70/106 96/70/106 88/70/106
f 88/70/6 96/70/6 93/70/6 81/70/6
f 78/70/107 94/70/107 95/70/107 86/70/107
f 98/70/94 79/70/13 105/70/13 104/70/108
f 82/70/6 87/70/6 101/70/6 99/70/6
f 77/70/9 82/70/9 99/70/98 97/70/97
f 80/70/109 83/70/110 100/70/95 98/70/94
f 87/70/6 84/70/6 100/70/6 101/70/6
f 79/70/111 85/70/111 106/70/112 105/70/112
f 103/70/112 102/70/113 110/70/113 106/70/112
f 106/70/112 110/70/113 104/70/113 105/70/112
f 85/70/111 77/70/111 103/70/112 106/70/112
f 77/70/9 97/70/97 102/70/102 103/70/9
f 80/70/109 98/70/94 104/70/108 108/70/114
f 86/70/115 80/70/115 108/70/115 107/70/115
f 112/44/116 113/43/117 114/14/117 111/11/118
f 116/65/119 112/64/116 111/11/118 115/12/120
f 118/69/121 116/65/119 115/48/120 117/18/122
f 120/49/123 118/69/121 117/18/122 119/20/124
f 122/50/125 120/49/123 119/20/124 121/22/126
f 124/51/127 122/50/125 121/45/126 123/24/128
f 126/53/129 124/52/127 123/24/128 125/26/130
f 128/55/131 126/54/129 125/26/130 127/28/131
f 130/57/132 128/56/131 127/28/131 129/30/133
f 132/58/134 130/57/132 129/30/133 131/32/135
f 134/59/136 132/58/134 131/32/135 133/34/137
f 136/60/138 134/59/136 133/34/137 135/36/139
f 138/62/140 136/61/138 135/36/139 137/38/141
f 140/63/142 138/62/140 137/46/141 139/40/143
f 142/67/144 140/66/142 139/47/143 141/42/145
f 113/43/117 142/67/144 141/68/145 114/14/117
f 29/14/88 30/11/17 111/11/20 114/14/88
usemtl tv
f 4/5/11 3/6/11 1/7/11 2/8/11
