# Blender 3.6.2
# www.blender.org
mtllib TV_4_Mounted.mtl
o TV_4_Mounted
v 0.641046 0.319109 0.010808
v -0.641046 0.319109 0.010808
v 0.641046 -0.318188 0.010808
v -0.641046 -0.318188 0.010808
v -0.641046 -0.318188 0.023153
v -0.641046 0.319109 0.023153
v 0.641046 0.319109 0.023153
v 0.641046 -0.318188 0.023153
v 0.654300 -0.328460 -0.004126
v 0.624536 -0.358224 -0.004126
v 0.650313 -0.343342 -0.004126
v 0.639418 -0.354237 -0.004126
v -0.624536 -0.358224 -0.004126
v -0.654300 -0.328460 -0.004126
v -0.639418 -0.354237 -0.004126
v -0.650312 -0.343342 -0.004126
v -0.654300 -0.328460 0.023153
v -0.624536 -0.358224 0.023153
v -0.644946 -0.329968 0.023153
v -0.650312 -0.343342 0.023153
v -0.639418 -0.354237 0.023153
v 0.624536 -0.358224 0.023153
v 0.654300 -0.328460 0.023153
v 0.644946 -0.329968 0.023153
v 0.639418 -0.354237 0.023153
v 0.650313 -0.343342 0.023153
v 0.649392 0.333525 -0.004126
v 0.654300 0.328616 -0.004126
v -0.654300 0.328616 -0.004126
v -0.649391 0.333525 -0.004126
v -0.649391 0.333525 0.023153
v -0.654300 0.328616 0.023153
v -0.650978 0.329911 0.023153
v 0.654300 0.328616 0.023153
v 0.649392 0.333525 0.023153
v 0.650978 0.329911 0.023153
v -0.116504 0.106119 0.001802
v -0.116504 -0.085176 0.001802
v 0.116505 0.106119 -0.033028
v 0.116505 -0.085176 0.001802
v -0.116504 0.106119 -0.033028
v -0.116504 -0.085176 -0.033028
v 0.116505 -0.085176 -0.033028
v 0.116505 0.106119 0.001802
v 0.621031 -0.163903 -0.013497
v 0.592780 -0.192154 -0.013497
v 0.617246 -0.178028 -0.013497
v 0.606906 -0.188369 -0.013497
v -0.592780 -0.192154 -0.013497
v -0.621031 -0.163903 -0.013497
v -0.606905 -0.188369 -0.013497
v -0.617246 -0.178028 -0.013497
v 0.616372 0.213773 -0.013497
v 0.621031 0.209114 -0.013497
v -0.621031 0.209114 -0.013497
v -0.616372 0.213773 -0.013497
v 0.592780 -0.346129 0.002035
v 0.606906 -0.342344 0.002035
v 0.617246 -0.332004 0.002035
v 0.621031 -0.317878 0.002035
v -0.606905 -0.342344 0.002035
v -0.592780 -0.346129 0.002035
v -0.617246 -0.332004 0.002035
v -0.621031 -0.317878 0.002035
v -0.616372 0.233374 0.002035
v -0.621031 0.228715 0.002035
v 0.621031 0.228715 0.002035
v 0.616372 0.233374 0.002035
vn -1.0000 -0.0000 -0.0000
vn 1.0000 -0.0000 -0.0000
vn -0.0000 -0.0000 1.0000
vn -0.0000 -1.0000 -0.0000
vn -0.0000 1.0000 -0.0000
vn 0.2588 -0.9659 -0.0000
vn 0.7071 -0.7071 -0.0000
vn 0.9659 -0.2588 -0.0000
vn -0.2588 -0.9659 -0.0000
vn -0.7071 -0.7071 -0.0000
vn -0.9659 -0.2588 -0.0000
vn -0.0000 -0.0000 -1.0000
vn -0.7071 0.7071 -0.0000
vn 0.7071 0.7071 -0.0000
vn -0.0000 -0.0121 -0.9999
vn -0.0000 0.0121 -0.9999
vn 0.0999 -0.0999 -0.9900
vn 0.5276 0.5276 -0.6658
vn -0.3508 -0.0940 -0.9317
vn 0.3508 -0.0940 -0.9317
vn -0.0000 0.6211 -0.7838
vn -0.0000 -0.1004 -0.9950
vn -0.0269 -0.1003 -0.9946
vn 0.0269 -0.1003 -0.9946
vn -0.5276 0.5276 -0.6658
vn -0.0999 -0.0999 -0.9900
vt 0.122196 0.955531
vt 0.122196 0.955531
vt 0.122196 0.955531
vt 0.122196 0.955531
vt 0.128259 0.978143
vt 0.142537 0.978143
vt 0.497076 0.000071
vt 0.497076 0.999929
vt 0.000070 0.999929
vt 0.000071 0.000070
vt 0.142537 0.949419
vt 0.128259 0.949419
vt 0.122196 0.955531
vt 0.122196 0.955531
vt 0.044071 0.957835
s 0
usemtl palette
f 17/1/1 32/2/1 29/3/1 14/2/1
f 34/3/2 23/2/2 9/1/2 28/2/2
f 7/2/3 36/2/3 35/4/3 31/2/3 33/4/3 6/2/3
f 1/5/1 3/6/1 8/6/1 7/5/1
f 5/2/3 19/2/3 18/3/3 22/2/3 24/2/3 8/2/3
f 6/2/3 33/2/3 32/3/3 17/2/3 19/2/3 5/2/3
f 8/2/3 24/4/3 23/1/3 34/2/3 36/3/3 7/2/3
f 22/3/4 18/2/4 13/3/4 10/2/4
f 4/11/2 2/12/2 6/12/2 5/11/2
f 3/6/5 4/11/5 5/11/5 8/6/5
f 2/12/4 1/5/4 7/5/4 6/12/4
f 17/1/3 20/13/3 19/2/3
f 20/13/3 21/1/3 19/2/3
f 21/1/3 18/2/3 19/2/3
f 22/3/3 25/14/3 24/4/3
f 25/14/3 26/4/3 24/4/3
f 26/4/3 23/2/3 24/4/3
f 22/3/6 10/2/6 12/2/6 25/14/6
f 25/14/7 12/2/7 11/2/7 26/2/7
f 26/2/8 11/2/8 9/1/8 23/2/8
f 13/3/9 18/2/9 21/2/9 15/2/9
f 15/2/10 21/2/10 20/13/10 16/2/10
f 16/2/11 20/13/11 17/1/11 14/2/11
f 29/2/12 30/4/12 27/2/12 28/3/12 9/2/12 11/2/12 12/2/12 10/3/12 13/2/12 15/2/12 16/2/12 14/1/12
f 31/4/3 32/2/3 33/2/3
f 34/3/3 35/2/3 36/2/3
f 29/3/13 32/2/13 31/4/13 30/2/13
f 34/3/14 28/2/14 27/4/14 35/2/14
f 31/4/5 35/2/5 27/4/5 30/2/5
f 39/15/15 43/15/16 42/15/16 41/15/15
f 39/15/5 41/15/5 37/15/5 44/15/5
f 39/15/2 44/15/2 40/15/2 43/15/2
f 42/15/1 38/15/1 37/15/1 41/15/1
f 43/15/4 40/15/4 38/15/4 42/15/4
f 55/2/12 56/4/12 53/2/12 54/3/12 45/2/12 47/2/12 48/2/12 46/3/12 49/2/12 51/2/12 52/2/12 50/1/12
f 50/1/1 64/1/1 66/2/1 55/2/1
f 47/2/17 59/2/17 58/2/17 48/2/17
f 53/2/18 68/2/18 67/3/18 54/3/18
f 52/2/19 63/2/19 64/1/19 50/1/19
f 45/2/20 60/2/20 59/2/20 47/2/20
f 56/4/21 65/4/21 68/2/21 53/2/21
f 46/3/22 57/3/22 62/2/22 49/2/22
f 49/2/23 62/2/23 61/2/23 51/2/23
f 54/3/2 67/3/2 60/2/2 45/2/2
f 48/2/24 58/2/24 57/3/24 46/3/24
f 55/2/25 66/2/25 65/4/25 56/4/25
f 51/2/26 61/2/26 63/2/26 52/2/26
usemtl tv
f 4/7/3 3/8/3 1/9/3 2/10/3
