# Blender 3.6.2
# www.blender.org
mtllib Wall_Shelf_3.mtl
o Wall_Shelf_3
v 0.411921 -0.042967 -0.212128
v 0.411921 0.015321 0.212128
v 0.411921 -0.015321 0.212128
v 0.411921 0.015321 -0.212128
v 0.000000 0.015321 0.212128
v 0.000000 -0.042967 -0.212128
v 0.000000 -0.015321 0.212128
v 0.000000 0.015321 -0.212128
v -0.411921 -0.042967 -0.212128
v -0.411921 0.015321 0.212128
v -0.411921 -0.015321 0.212128
v -0.411921 0.015321 -0.212128
vn -0.0000 -0.0000 -1.0000
vn -0.0000 -0.9979 0.0650
vn -0.0000 1.0000 -0.0000
vn 1.0000 -0.0000 -0.0000
vn -0.0000 -0.0000 1.0000
vn -1.0000 -0.0000 -0.0000
vt 0.701871 0.881564
vt 0.705189 0.881564
vt 0.705093 0.873448
vt 0.701184 0.873448
vt 0.705093 0.881564
vt 0.701184 0.881564
s 0
usemtl palette
f 8/1/1 4/2/1 1/3/1 6/4/1
f 6/4/2 1/3/2 3/5/2 7/6/2
f 5/1/3 2/2/3 4/2/3 8/1/3
f 3/5/4 1/3/4 4/2/4 2/2/4
f 5/1/5 7/6/5 3/5/5 2/2/5
f 8/1/1 6/4/1 9/3/1 12/2/1
f 6/4/2 7/6/2 11/5/2 9/3/2
f 5/1/3 8/1/3 12/2/3 10/2/3
f 11/5/6 10/2/6 12/2/6 9/3/6
f 5/1/5 10/2/5 11/5/5 7/6/5
