# Blender 3.6.2
# www.blender.org
mtllib Wall_Light_4.mtl
o Wall_Light_4
v 0.494541 -0.037002 0.057830
v -0.494541 -0.037002 0.057830
v 0.494541 -0.037002 -0.057830
v -0.494541 -0.037002 -0.057830
v 0.494541 0.015251 -0.057830
v -0.494541 0.015251 -0.057830
v -0.494541 0.015251 0.057830
v 0.494541 0.015251 0.057830
v 0.470983 -0.071722 0.019086
v -0.470983 -0.071722 0.019086
v 0.470983 -0.071722 -0.019085
v -0.470983 -0.071722 -0.019085
v 0.470983 -0.037002 0.028606
v 0.470983 -0.037002 -0.028606
v -0.470983 -0.037002 -0.028606
v -0.470983 -0.037002 0.028606
v 0.362594 0.015251 -0.011253
v 0.337406 0.015251 -0.011253
v 0.337406 0.015251 0.011253
v 0.362594 0.015251 0.011253
v 0.337406 0.282576 -0.011253
v 0.362594 0.282576 -0.011253
v 0.337406 0.282576 0.011253
v 0.362594 0.282576 0.011253
v -0.337406 0.015251 -0.011253
v -0.362594 0.015251 -0.011253
v -0.362594 0.015251 0.011253
v -0.337406 0.015251 0.011253
v -0.362594 0.282576 -0.011253
v -0.337406 0.282576 -0.011253
v -0.362594 0.282576 0.011253
v -0.337406 0.282576 0.011253
vn 1.0000 -0.0000 -0.0000
vn -0.0000 -0.0000 1.0000
vn -1.0000 -0.0000 -0.0000
vn -0.0000 -1.0000 -0.0000
vn -0.0000 -0.0000 -1.0000
vn -0.0000 1.0000 -0.0000
vn -0.0000 -0.2645 -0.9644
vn -0.0000 -0.2644 0.9644
vt 0.882331 0.965487
vt 0.866070 0.965487
vt 0.882331 0.949226
vt 0.866070 0.949226
s 0
usemtl palette
f 8/1/1 1/1/1 3/2/1 5/2/1
f 7/3/2 2/3/2 1/1/2 8/1/2
f 6/4/3 4/4/3 2/3/3 7/3/3
f 4/4/4 3/2/4 1/1/4 2/3/4
f 5/2/5 3/2/5 4/4/5 6/4/5
f 6/4/6 7/3/6 8/1/6 5/2/6
f 27/3/2 28/1/2 32/1/2 31/3/2
f 25/2/5 26/4/5 29/4/5 30/2/5
f 19/3/2 20/1/2 24/1/2 23/3/2
f 17/2/5 18/4/5 21/4/5 22/2/5
f 20/1/1 17/2/1 22/2/1 24/1/1
f 18/4/3 19/3/3 23/3/3 21/4/3
f 28/1/1 25/2/1 30/2/1 32/1/1
f 26/4/3 27/3/3 31/3/3 29/4/3
usemtl light
f 12/4/4 11/2/4 9/1/4 10/3/4
f 11/2/7 12/4/7 15/4/7 14/2/7
f 12/4/3 10/3/3 16/3/3 15/4/3
f 9/1/1 11/2/1 14/2/1 13/1/1
f 10/3/8 9/1/8 13/1/8 16/3/8
