# Blender 3.6.2
# www.blender.org
mtllib Wall_Light_3.mtl
o Wall_Light_3
v 0.494541 -0.075611 0.057830
v -0.494541 -0.075611 0.057830
v 0.494541 -0.060839 -0.057830
v -0.494541 -0.060839 -0.057830
v 0.494541 0.015251 -0.057830
v -0.494541 0.015251 -0.057830
v -0.494541 0.015251 0.057830
v 0.494541 0.015251 0.057830
v 0.470983 -0.095477 0.028606
v -0.470983 -0.095477 0.028606
v 0.470983 -0.080705 -0.028606
v -0.470983 -0.080705 -0.028606
v 0.470983 -0.040992 0.028606
v 0.470983 -0.040992 -0.028606
v -0.470983 -0.040992 -0.028606
v -0.470983 -0.040992 0.028606
vn 1.0000 -0.0000 -0.0000
vn -0.0000 -0.0000 1.0000
vn -1.0000 -0.0000 -0.0000
vn -0.0000 -0.9919 -0.1267
vn -0.0000 -0.0000 -1.0000
vn -0.0000 1.0000 -0.0000
vn -0.0000 -0.9682 -0.2500
vt 0.882331 0.965487
vt 0.866070 0.965487
vt 0.882331 0.949226
vt 0.866070 0.949226
s 0
usemtl palette
f 8/1/1 1/1/1 3/2/1 5/2/1
f 7/3/2 2/3/2 1/1/2 8/1/2
f 6/4/3 4/4/3 2/3/3 7/3/3
f 4/4/4 3/2/4 1/1/4 2/3/4
f 5/2/5 3/2/5 4/4/5 6/4/5
f 6/4/6 7/3/6 8/1/6 5/2/6
usemtl light
f 12/4/7 11/2/7 9/1/7 10/3/7
f 11/2/5 12/4/5 15/4/5 14/2/5
f 12/4/3 10/3/3 16/3/3 15/4/3
f 9/1/1 11/2/1 14/2/1 13/1/1
f 10/3/2 9/1/2 13/1/2 16/3/2
