# Blender 3.6.2
# www.blender.org
mtllib Wall_Shelf_2.mtl
o Wall_Shelf_2
v 0.671240 -0.000000 -0.212128
v 0.646600 -0.024641 -0.212128
v 0.664023 -0.017423 -0.212128
v 0.671240 0.000000 0.212128
v 0.646600 0.024641 0.212128
v 0.664023 0.017423 0.212128
v 0.646600 -0.024641 0.212128
v 0.671240 -0.000000 0.212128
v 0.664023 -0.017423 0.212128
v 0.646600 0.024641 -0.212128
v 0.671240 0.000000 -0.212128
v 0.664023 0.017423 -0.212128
v 0.000000 0.024641 0.212128
v 0.000000 -0.024641 -0.212128
v 0.000000 -0.024641 0.212128
v 0.000000 0.024641 -0.212128
v -0.671240 -0.000000 -0.212128
v -0.646600 -0.024641 -0.212128
v -0.664023 -0.017423 -0.212128
v -0.671240 0.000000 0.212128
v -0.646600 0.024641 0.212128
v -0.664023 0.017423 0.212128
v -0.646600 -0.024641 0.212128
v -0.671240 -0.000000 0.212128
v -0.664023 -0.017423 0.212128
v -0.646600 0.024641 -0.212128
v -0.671240 0.000000 -0.212128
v -0.664023 0.017423 -0.212128
vn -0.0000 -0.0000 -1.0000
vn -0.0000 -0.0000 1.0000
vn -0.0000 -1.0000 -0.0000
vn -0.0000 1.0000 -0.0000
vn 0.3827 -0.9239 -0.0000
vn 0.9239 -0.3827 -0.0000
vn 0.3827 0.9239 -0.0000
vn 0.9239 0.3827 -0.0000
vn 0.0624 0.9981 -0.0000
vn -0.3827 -0.9239 -0.0000
vn -0.9239 -0.3827 -0.0000
vn -0.3827 0.9239 -0.0000
vn -0.9239 0.3827 -0.0000
vn -0.0624 0.9981 -0.0000
vt 0.705278 0.877506
vt 0.705231 0.873844
vt 0.705093 0.873448
vt 0.701184 0.873448
vt 0.701871 0.881564
vt 0.705189 0.881564
vt 0.705299 0.881167
vt 0.705278 0.881564
vt 0.705299 0.881564
vt 0.701184 0.881564
vt 0.705093 0.881564
vt 0.705231 0.881564
vt 0.705093 0.873448
s 0
usemtl palette
f 1/1/1 3/2/1 2/3/1 14/4/1 16/5/1 10/6/1 12/7/1 11/1/1
f 4/8/2 6/9/2 5/6/2 13/5/2 15/10/2 7/11/2 9/12/2 8/8/2
f 14/4/3 2/13/3 7/11/3 15/10/3
f 13/5/4 5/6/4 10/6/4 16/5/4
f 7/11/5 2/13/5 3/2/5 9/12/5
f 9/12/6 3/2/6 1/1/6 8/8/6
f 10/6/7 5/6/7 6/9/7 12/7/7
f 12/7/8 6/9/8 4/8/8 11/1/8
f 8/8/9 1/1/9 11/1/9 4/8/9
f 17/1/1 27/1/1 28/7/1 26/6/1 16/5/1 14/4/1 18/3/1 19/2/1
f 20/8/2 24/8/2 25/12/2 23/11/2 15/10/2 13/5/2 21/6/2 22/9/2
f 14/4/3 15/10/3 23/11/3 18/13/3
f 13/5/4 16/5/4 26/6/4 21/6/4
f 23/11/10 25/12/10 19/2/10 18/13/10
f 25/12/11 24/8/11 17/1/11 19/2/11
f 26/6/12 28/7/12 22/9/12 21/6/12
f 28/7/13 27/1/13 20/8/13 22/9/13
f 24/8/14 20/8/14 27/1/14 17/1/14
