# Blender 3.6.2
# www.blender.org
mtllib Wall_Light_1.mtl
o Wall_Light_1
v -0.494541 -0.137929 -0.047411
v -0.442511 -0.091810 0.113775
v 0.494541 -0.137929 -0.047411
v 0.442511 -0.091810 0.113775
v 0.494541 0.137929 -0.047411
v -0.494541 0.137929 -0.047411
v -0.442511 0.091810 0.113775
v 0.442511 0.091810 0.113775
v -0.494541 -0.137929 0.113775
v 0.494541 -0.137929 0.113775
v -0.494541 0.137929 0.113775
v 0.494541 0.137929 0.113775
v -0.442511 -0.091810 0.083492
v 0.442511 -0.091810 0.083492
v -0.442511 0.091810 0.083492
v 0.442511 0.091810 0.083492
vn -0.0000 -1.0000 -0.0000
vn -0.0000 1.0000 -0.0000
vn 1.0000 -0.0000 -0.0000
vn -1.0000 -0.0000 -0.0000
vn -0.0000 -0.0000 1.0000
vt 0.866070 0.949226
vt 0.866070 0.965487
vt 0.882331 0.965487
vt 0.882331 0.949226
vt 0.882331 0.949730
vt 0.882331 0.964982
vt 0.873376 0.959998
vt 0.873376 0.962343
s 0
usemtl palette
f 1/1/1 3/2/1 10/3/1 9/4/1
f 6/1/2 11/4/2 12/3/2 5/2/2
f 7/5/3 2/5/3 13/5/3 15/5/3
f 10/3/3 3/2/3 5/2/3 12/3/3
f 1/1/4 9/4/4 11/4/4 6/1/4
f 4/6/5 2/5/5 9/4/5 10/3/5
f 7/5/5 8/6/5 12/3/5 11/4/5
f 8/6/5 4/6/5 10/3/5 12/3/5
f 2/5/5 7/5/5 11/4/5 9/4/5
f 8/6/1 7/5/1 15/5/1 16/6/1
f 4/6/4 8/6/4 16/6/4 14/6/4
f 2/5/2 4/6/2 14/6/2 13/5/2
usemtl light
f 13/7/5 14/8/5 16/8/5 15/7/5
