# Blender 3.6.2
# www.blender.org
mtllib Web_Cam_3.mtl
o Web_Cam_3
v -0.015208 0.006508 -0.026964
v 0.015208 0.006508 -0.026964
v -0.000000 0.038352 0.017000
v -0.003916 0.037080 0.017000
v -0.006336 0.033749 0.017000
v -0.006336 0.029632 0.017000
v -0.003916 0.026301 0.017000
v -0.000000 0.025029 0.017000
v 0.003916 0.026301 0.017000
v 0.006336 0.029632 0.017000
v 0.006336 0.033749 0.017000
v 0.003916 0.037080 0.017000
v -0.005262 0.038933 0.011024
v 0.000000 0.040643 0.011024
v -0.008514 0.034457 0.011024
v -0.008514 0.028924 0.011024
v -0.005262 0.024448 0.011024
v 0.000000 0.022738 0.011024
v 0.005262 0.024448 0.011024
v 0.008514 0.028924 0.011024
v 0.008514 0.034457 0.011024
v 0.005262 0.038933 0.011024
v -0.005262 0.038933 0.017000
v 0.000000 0.040643 0.017000
v -0.008514 0.034457 0.017000
v -0.008514 0.028924 0.017000
v -0.005262 0.024448 0.017000
v 0.000000 0.022738 0.017000
v 0.005262 0.024448 0.017000
v 0.008514 0.028924 0.017000
v 0.008514 0.034457 0.017000
v 0.005262 0.038933 0.017000
v -0.003250 0.036164 0.017626
v 0.000000 0.037220 0.017626
v -0.005259 0.033399 0.017626
v -0.005259 0.029982 0.017626
v -0.003250 0.027217 0.017626
v 0.000000 0.026161 0.017626
v 0.003250 0.027217 0.017626
v 0.005259 0.029982 0.017626
v 0.005259 0.033399 0.017626
v 0.003250 0.036164 0.017626
v -0.015522 0.032839 0.010804
v -0.014001 0.033571 0.012347
v -0.015522 0.032839 0.012347
v -0.015897 0.031193 0.012347
v -0.014845 0.029874 0.012347
v -0.013157 0.029874 0.012347
v -0.012105 0.031193 0.012347
v -0.012481 0.032839 0.012347
v -0.014001 0.033571 0.010804
v -0.015897 0.031193 0.010804
v -0.014845 0.029874 0.010804
v -0.013157 0.029874 0.010804
v -0.012105 0.031193 0.010804
v -0.012481 0.032839 0.010804
v 0.007131 0.047379 0.014108
v 0.015035 0.039475 0.014108
v 0.011138 0.046306 0.014108
v 0.013962 0.043482 0.014108
v -0.015035 0.039475 0.014108
v -0.007131 0.047379 0.014108
v -0.013962 0.043482 0.014108
v -0.011138 0.046306 0.014108
v 0.015035 0.024030 0.014108
v 0.007131 0.016126 0.014108
v 0.013962 0.020023 0.014108
v 0.011138 0.017199 0.014108
v -0.007131 0.016126 0.014108
v -0.015035 0.024030 0.014108
v -0.011138 0.017199 0.014108
v -0.013962 0.020023 0.014108
v -0.016178 0.023879 -0.004247
v -0.007281 0.014982 -0.004247
v -0.014986 0.019431 -0.004247
v -0.011730 0.016174 -0.004247
v 0.007281 0.014982 -0.004247
v 0.016178 0.023879 -0.004247
v 0.011730 0.016174 -0.004247
v 0.014987 0.019431 -0.004247
v 0.016178 0.039626 -0.004247
v 0.007281 0.048523 -0.004247
v 0.014987 0.044074 -0.004247
v 0.011730 0.047331 -0.004247
v -0.007281 0.048523 -0.004247
v -0.016178 0.039626 -0.004247
v -0.011730 0.047331 -0.004247
v -0.014986 0.044074 -0.004247
v -0.023964 0.006508 0.014243
v 0.023964 0.006508 0.014243
v -0.005398 0.006508 0.009251
v 0.005398 0.006508 0.009251
v 0.005398 0.006508 0.002012
v -0.005398 0.006508 0.002012
v 0.005398 0.015566 0.009251
v -0.005398 0.015566 0.009251
v -0.005398 0.015566 0.002012
v 0.005398 0.015566 0.002012
v -0.014986 0.044074 0.014108
v -0.016178 0.039626 0.014108
v -0.011730 0.047331 0.014108
v -0.007281 0.048523 0.014108
v 0.016178 0.039626 0.014108
v 0.014987 0.044074 0.014108
v 0.011730 0.047331 0.014108
v 0.007281 0.048523 0.014108
v 0.014987 0.019431 0.014108
v 0.016178 0.023879 0.014108
v 0.011730 0.016174 0.014108
v 0.007281 0.014982 0.014108
v -0.016178 0.023879 0.014108
v -0.014986 0.019431 0.014108
v -0.011730 0.016174 0.014108
v -0.007281 0.014982 0.014108
v -0.013044 0.042712 0.014764
v -0.014048 0.038968 0.014764
v -0.010406 0.045350 0.014764
v -0.006662 0.046353 0.014764
v 0.014047 0.038968 0.014764
v 0.013044 0.042712 0.014764
v 0.010406 0.045350 0.014764
v 0.006662 0.046353 0.014764
v 0.013044 0.020793 0.014764
v 0.014047 0.024537 0.014764
v 0.010406 0.018155 0.014764
v 0.006662 0.017152 0.014764
v -0.014048 0.024537 0.014764
v -0.013044 0.020793 0.014764
v -0.010406 0.018155 0.014764
v -0.006662 0.017152 0.014764
v 0.015293 -0.009158 0.014243
v 0.023964 -0.000646 0.014243
v 0.021425 -0.006665 0.014243
v -0.023964 -0.000646 0.014243
v -0.015293 -0.009158 0.014243
v -0.021425 -0.006665 0.014243
v 0.015208 0.001938 -0.027545
v 0.006537 -0.006508 -0.028618
v 0.012668 -0.004034 -0.028304
v -0.006537 -0.006508 -0.028618
v -0.015208 0.001938 -0.027545
v -0.012668 -0.004034 -0.028304
vn -0.9574 -0.1955 -0.2126
vn -0.9594 -0.1857 -0.2125
vn -0.9785 0.0102 -0.2061
vn -0.0000 1.0000 -0.0000
vn 0.1305 0.9914 -0.0000
vn -0.1305 0.9914 -0.0000
vn -0.0000 -0.4833 0.8754
vn -0.0000 -0.2951 0.9555
vn -0.1734 -0.2387 0.9555
vn -0.2841 -0.3910 0.8754
vn -0.5878 -0.8090 -0.0000
vn -0.0000 -1.0000 -0.0000
vn -0.5878 0.8090 -0.0000
vn -0.9511 0.3090 -0.0000
vn 0.9511 0.3090 -0.0000
vn 0.5878 0.8090 -0.0000
vn 0.5878 -0.8090 -0.0000
vn -0.9511 -0.3090 -0.0000
vn 0.9511 -0.3090 -0.0000
vn -0.0000 -0.0000 1.0000
vn -0.1734 0.2387 0.9555
vn -0.2806 0.0912 0.9555
vn -0.2806 -0.0912 0.9555
vn 0.1734 -0.2387 0.9555
vn 0.2806 -0.0912 0.9555
vn 0.2806 0.0912 0.9555
vn 0.1735 0.2387 0.9555
vn -0.0000 0.2951 0.9555
vn -0.4597 0.1493 0.8755
vn -0.2841 0.3910 0.8754
vn 0.2841 0.3910 0.8754
vn 0.4597 0.1494 0.8754
vn 0.2841 -0.3910 0.8754
vn -0.4596 -0.1493 0.8755
vn -0.0000 0.4833 0.8754
vn 0.4597 -0.1494 0.8754
vn -0.7818 -0.6235 -0.0000
vn -0.4339 0.9010 -0.0000
vn 0.9749 0.2225 -0.0000
vn 0.4339 0.9010 -0.0000
vn 0.7818 -0.6235 -0.0000
vn -0.9749 0.2225 -0.0000
vn -0.9914 0.1305 -0.0000
vn -0.9914 -0.1305 -0.0000
vn -0.0000 -0.0000 -1.0000
vn -0.1305 -0.9914 -0.0000
vn 0.1305 -0.9914 -0.0000
vn 0.1801 0.1091 0.9776
vn 0.1072 0.1791 0.9780
vn 0.1378 0.2523 0.9578
vn 0.2565 0.1373 0.9568
vn -0.8660 0.5000 -0.0000
vn -0.5000 0.8660 -0.0000
vn 0.9914 0.1305 -0.0000
vn 0.8660 0.5000 -0.0000
vn 0.5000 0.8660 -0.0000
vn 0.9914 -0.1305 -0.0000
vn 0.8660 -0.5000 -0.0000
vn 0.5000 -0.8660 -0.0000
vn -0.8660 -0.5000 -0.0000
vn -0.5000 -0.8660 -0.0000
vn 0.9785 0.0102 -0.2061
vn 0.9594 -0.1857 -0.2125
vn 0.9574 -0.1955 -0.2126
vn -0.2135 -0.9714 -0.1039
vn -0.1660 -0.9816 -0.0947
vn 0.1660 -0.9816 -0.0947
vn 0.2135 -0.9714 -0.1039
vn -0.0000 0.1261 -0.9920
vn 1.0000 -0.0000 -0.0000
vn -1.0000 -0.0000 -0.0000
vn -0.2506 0.0387 0.9673
vn -0.1801 0.1091 0.9776
vn -0.1072 0.1791 0.9780
vn -0.0370 0.2448 0.9689
vn 0.2506 0.0387 0.9673
vn 0.0370 0.2448 0.9689
vn 0.2506 -0.0387 0.9673
vn 0.1801 -0.1091 0.9776
vn 0.1072 -0.1791 0.9780
vn 0.0370 -0.2448 0.9689
vn -0.1801 -0.1091 0.9776
vn -0.2506 -0.0387 0.9673
vn -0.1072 -0.1791 0.9780
vn -0.0370 -0.2448 0.9689
vn -0.0313 -0.2905 0.9564
vn 0.0313 -0.2905 0.9564
vn 0.1378 -0.2523 0.9578
vn 0.2565 -0.1373 0.9568
vn 0.2983 -0.0310 0.9540
vn 0.2983 0.0310 0.9540
vn 0.0313 0.2905 0.9564
vn -0.0313 0.2905 0.9564
vn -0.1378 0.2523 0.9578
vn -0.2565 0.1373 0.9567
vn -0.2984 0.0310 0.9539
vn -0.2984 -0.0310 0.9539
vn -0.2565 -0.1373 0.9567
vn -0.1378 -0.2523 0.9578
vn 0.3750 -0.9174 -0.1336
vn 0.9048 -0.3700 -0.2108
vn -0.9048 -0.3700 -0.2108
vn -0.3750 -0.9174 -0.1336
vt 0.125462 0.955968
vt 0.127066 0.959820
vt 0.126868 0.959896
vt 0.125248 0.955953
vt 0.134740 0.954223
vt 0.134740 0.956258
vt 0.129352 0.954223
vt 0.131387 0.954223
vt 0.129352 0.961194
vt 0.129352 0.961194
vt 0.129352 0.958853
vt 0.205843 0.423980
vt 0.211553 0.425836
vt 0.215037 0.886134
vt 0.212098 0.885179
vt 0.219793 0.879589
vt 0.219793 0.882679
vt 0.212098 0.877089
vt 0.215037 0.876134
vt 0.210282 0.882679
vt 0.217976 0.885179
vt 0.217976 0.877089
vt 0.210282 0.879589
vt 0.131878 0.873195
vt 0.132694 0.872072
vt 0.134510 0.874572
vt 0.133190 0.875001
vt 0.134510 0.877662
vt 0.133190 0.877233
vt 0.132694 0.880162
vt 0.131878 0.879040
vt 0.129755 0.881117
vt 0.129755 0.879730
vt 0.126816 0.880162
vt 0.127631 0.879040
vt 0.124999 0.877662
vt 0.126319 0.877233
vt 0.124999 0.874572
vt 0.126319 0.875001
vt 0.126816 0.872072
vt 0.127631 0.873194
vt 0.129755 0.871117
vt 0.129755 0.872505
vt 0.220526 0.413368
vt 0.220526 0.419138
vt 0.217134 0.423807
vt 0.211646 0.425590
vt 0.206157 0.423807
vt 0.202765 0.419138
vt 0.202765 0.413367
vt 0.206157 0.408699
vt 0.211646 0.406916
vt 0.217134 0.408699
vt 0.220792 0.419123
vt 0.220792 0.413119
vt 0.211553 0.406406
vt 0.205843 0.408261
vt 0.202314 0.419123
vt 0.217263 0.423980
vt 0.217263 0.408262
vt 0.202314 0.413119
vt 0.211883 0.871168
vt 0.216222 0.871168
vt 0.209178 0.874561
vt 0.214053 0.880673
vt 0.210144 0.878791
vt 0.218927 0.874561
vt 0.217962 0.878791
vt 0.129964 0.958502
vt 0.130408 0.958502
vt 0.129658 0.958517
vt 0.129380 0.958677
vt 0.129380 0.961369
vt 0.129658 0.961529
vt 0.129964 0.961545
vt 0.130408 0.961545
vt 0.130715 0.961529
vt 0.130993 0.961369
vt 0.131020 0.961194
vt 0.131020 0.958853
vt 0.130993 0.958677
vt 0.130715 0.958518
vt 0.131020 0.961194
vt 0.209959 0.961480
vt 0.209732 0.961349
vt 0.129380 0.958677
vt 0.129380 0.961369
vt 0.130993 0.961369
vt 0.130715 0.958517
vt 0.130993 0.958677
vt 0.127300 0.958199
vt 0.128920 0.954256
vt 0.129118 0.954332
vt 0.127514 0.958184
vt 0.131755 0.958242
vt 0.131967 0.954223
vt 0.132841 0.954223
vt 0.133053 0.958242
vt 0.127944 0.957879
vt 0.128900 0.957035
vt 0.130395 0.955345
vt 0.130070 0.954838
vt 0.127404 0.955346
vt 0.129256 0.958211
vt 0.129032 0.957533
vt 0.131387 0.957754
vt 0.131387 0.958277
vt 0.129974 0.958543
vt 0.129693 0.958567
vt 0.129466 0.958697
vt 0.129425 0.958858
vt 0.129693 0.961480
vt 0.129974 0.961503
vt 0.129466 0.961349
vt 0.129425 0.961189
vt 0.130399 0.961503
vt 0.130680 0.961480
vt 0.130907 0.961350
vt 0.130948 0.961189
vt 0.130680 0.958567
vt 0.130399 0.958543
vt 0.130907 0.958697
vt 0.130948 0.958858
vt 0.211214 0.958858
vt 0.211214 0.961189
vt 0.211173 0.961350
vt 0.210946 0.961480
vt 0.210665 0.961503
vt 0.210240 0.961503
vt 0.209959 0.961480
vt 0.209691 0.961189
vt 0.209691 0.958858
vt 0.209732 0.958697
vt 0.209959 0.958567
vt 0.210240 0.958543
vt 0.210665 0.958543
vt 0.210946 0.958567
vt 0.211173 0.958697
vt 0.210240 0.961503
vt 0.209691 0.961189
vt 0.210946 0.961480
vt 0.211173 0.961350
vt 0.133421 0.954223
vt 0.133421 0.958182
vt 0.129331 0.954479
vt 0.127909 0.958157
vt 0.125857 0.955995
vt 0.127279 0.959673
vt 0.131387 0.958182
vt 0.134951 0.954223
vt 0.135129 0.954331
vt 0.135202 0.954592
vt 0.135202 0.955890
vt 0.135129 0.956150
vt 0.134951 0.956258
s 1
usemtl palette
f 141/1/1 134/2/2 89/3/3 1/4/3
f 89/5/4 90/6/4 2/7/4 1/8/4
f 106/9/5 82/10/5 85/11/6 102/11/6
f 8/12/7 38/12/8 37/13/9 7/13/10
f 27/14/11 17/14/11 18/15/12 28/15/12
f 23/16/13 13/16/13 15/17/14 25/17/14
f 31/18/15 21/18/15 22/19/16 32/19/16
f 28/15/12 18/15/12 19/20/17 29/20/17
f 25/17/14 15/17/14 16/21/18 26/21/18
f 32/19/16 22/19/16 14/22/4 24/22/4
f 29/20/17 19/20/17 20/23/19 30/23/19
f 26/21/18 16/21/18 17/14/11 27/14/11
f 24/22/4 14/22/4 13/16/13 23/16/13
f 30/23/19 20/23/19 21/18/15 31/18/15
f 3/24/20 24/25/20 23/26/20 4/27/20
f 4/27/20 23/26/20 25/28/20 5/29/20
f 5/29/20 25/28/20 26/30/20 6/31/20
f 6/31/20 26/30/20 27/32/20 7/33/20
f 7/33/20 27/32/20 28/34/20 8/35/20
f 8/35/20 28/34/20 29/36/20 9/37/20
f 9/37/20 29/36/20 30/38/20 10/39/20
f 10/39/20 30/38/20 31/40/20 11/41/20
f 11/41/20 31/40/20 32/42/20 12/43/20
f 12/43/20 32/42/20 24/25/20 3/24/20
f 33/44/21 35/45/22 36/46/23 37/47/9 38/48/8 39/49/24 40/50/25 41/51/26 42/52/27 34/53/28
f 5/54/29 35/54/22 33/55/21 4/55/30
f 12/56/31 42/56/27 41/57/26 11/57/32
f 9/58/33 39/58/24 38/12/8 8/12/7
f 6/59/34 36/59/23 35/54/22 5/54/29
f 3/60/35 34/60/28 42/56/27 12/56/31
f 10/61/36 40/61/25 39/58/24 9/58/33
f 7/13/10 37/13/9 36/59/23 6/59/34
f 4/55/30 33/55/21 34/60/28 3/60/35
f 11/57/32 41/57/26 40/61/25 10/61/36
s 0
f 47/62/12 53/62/12 54/63/12 48/63/12
f 46/64/37 52/64/37 53/62/37 47/62/37
f 44/65/38 51/65/38 43/66/38 45/66/38
f 49/67/39 55/67/39 56/68/39 50/68/39
f 50/68/40 56/68/40 51/65/40 44/65/40
f 48/63/41 54/63/41 55/67/41 49/67/41
f 44/65/20 45/66/20 46/64/20 47/62/20 48/63/20 49/67/20 50/68/20
f 45/66/42 43/66/42 52/64/42 46/64/42
s 1
f 100/69/43 86/69/43 73/70/44 111/70/44
f 73/70/45 86/69/45 88/71/45 87/72/45 85/11/45 82/9/45 84/73/45 83/74/45 81/75/45 78/76/45 80/77/45 79/78/45 77/79/45 74/80/45 76/81/45 75/82/45
f 114/80/46 74/80/46 77/83/47 110/79/47
f 60/84/48 59/85/49 121/85/50 120/84/51
f 100/69/43 99/71/52 88/71/52 86/69/43
f 99/71/52 101/86/53 87/72/53 88/71/52
f 101/86/53 102/11/6 85/11/6 87/72/53
f 81/75/54 83/74/55 104/74/55 103/75/54
f 83/74/55 84/73/56 105/87/56 104/74/55
f 84/73/56 82/10/5 106/9/5 105/87/56
f 108/76/57 107/77/58 80/77/58 78/76/57
f 107/77/58 109/88/59 79/78/59 80/77/58
f 109/88/59 110/79/47 77/83/47 79/78/59
f 73/70/44 75/82/60 112/89/60 111/70/44
f 75/82/60 76/81/61 113/90/61 112/89/60
f 76/81/61 74/80/46 114/80/46 113/90/61
f 108/76/57 78/76/57 81/75/54 103/75/54
f 2/91/62 90/92/62 132/93/63 137/94/64
f 135/95/65 140/96/66 138/97/67 131/98/68
f 2/91/69 137/94/69 139/99/69 138/100/69 140/101/69 142/102/69 141/103/69 1/4/69
f 92/104/70 93/105/70 98/105/70 95/104/70
f 93/105/45 94/106/45 97/106/45 98/105/45
f 94/106/71 91/107/71 96/107/71 97/106/71
f 91/107/20 92/104/20 95/104/20 96/107/20
f 61/108/72 63/109/73 99/71/20 100/69/20
f 63/109/73 64/110/74 101/86/20 99/71/20
f 64/110/74 62/111/75 102/11/20 101/86/20
f 60/112/48 58/113/76 103/75/20 104/74/20
f 59/114/49 60/112/48 104/74/20 105/87/20
f 57/115/77 59/114/49 105/87/20 106/10/20
f 65/116/78 67/117/79 107/77/20 108/76/20
f 67/117/79 68/118/80 109/88/20 107/77/20
f 68/118/80 66/119/81 110/83/20 109/88/20
f 72/120/82 70/121/83 111/70/20 112/89/20
f 71/122/84 72/120/82 112/89/20 113/90/20
f 69/123/85 71/122/84 113/90/20 114/80/20
f 58/113/76 65/116/78 108/76/20 103/75/20
f 66/119/81 69/123/85 114/80/20 110/83/20
f 70/121/83 61/108/72 100/69/20 111/70/20
f 62/111/75 57/115/77 106/10/20 102/11/20
f 130/124/86 126/125/87 125/126/88 123/127/89 124/128/90 119/129/91 120/130/51 121/85/50 122/131/92 118/132/93 117/133/94 115/134/95 116/135/96 127/136/97 128/137/98 129/138/99
f 65/128/78 58/139/76 119/139/91 124/128/90
f 59/85/49 57/140/77 122/140/92 121/85/50
f 69/124/85 66/125/81 126/125/87 130/124/86
f 67/141/79 65/128/78 124/128/90 123/141/89
f 61/135/72 70/136/83 127/136/97 116/135/96
f 68/142/80 67/141/79 123/141/89 125/142/88
f 63/134/73 61/135/72 116/135/96 115/134/95
f 57/140/77 62/132/75 118/132/93 122/140/92
f 66/125/81 68/142/80 125/142/88 126/125/87
f 64/133/74 63/134/73 115/134/95 117/133/94
f 70/136/83 72/137/82 128/137/98 127/136/97
f 62/132/75 64/133/74 117/133/94 118/132/93
f 72/137/82 71/138/84 129/138/99 128/137/98
f 58/139/76 60/84/48 120/84/51 119/139/91
f 71/138/84 69/124/85 130/124/86 129/138/99
f 131/98/68 138/97/67 139/143/100 133/144/100
f 133/145/101 139/146/101 137/94/64 132/93/63
f 134/2/2 141/1/1 142/147/102 136/148/102
f 136/149/103 142/8/103 140/96/66 135/95/65
f 134/150/20 136/151/20 135/152/20 131/153/20 133/154/20 132/155/20 90/6/20 89/5/20
