# Blender 3.6.2
# www.blender.org
mtllib Web_Cam_1.mtl
o Web_Cam_1
v -0.021456 0.005827 -0.033735
v -0.021456 0.005827 0.012906
v 0.021456 0.005827 -0.033735
v 0.021456 0.005827 0.012906
v 0.021456 -0.008200 0.012906
v -0.021456 -0.008200 0.012906
v 0.021456 -0.005827 -0.024588
v -0.021456 -0.005827 -0.024588
v -0.032089 0.005827 0.010593
v 0.032089 0.005827 0.010593
v -0.032089 0.041022 0.010593
v 0.032089 0.041022 0.010593
v 0.000000 0.009354 0.000522
v 0.000000 0.009354 0.007711
v 0.000000 0.038037 0.000522
v 0.000000 0.038037 0.007711
v -0.049666 0.010636 0.000522
v -0.051194 0.012204 0.000522
v -0.048862 0.012475 0.007711
v 0.051194 0.012204 0.000522
v 0.049666 0.010636 0.000522
v 0.048862 0.012475 0.007711
v 0.049669 0.034632 0.000522
v 0.051194 0.032999 0.000522
v -0.051194 0.032999 0.000522
v -0.049669 0.034632 0.000522
v -0.049335 0.032265 0.007711
v 0.048810 0.032827 0.007711
v 0.051194 0.012204 0.007711
v 0.049666 0.010636 0.007711
v -0.049666 0.010636 0.007711
v -0.051194 0.012204 0.007711
v 0.049669 0.034632 0.007711
v 0.051194 0.032999 0.007711
v -0.051194 0.032999 0.007711
v -0.049669 0.034632 0.007711
v 0.000000 0.011214 0.007711
v 0.000000 0.036174 0.007711
v -0.000000 0.032248 0.015847
v -0.004905 0.030654 0.015847
v -0.007937 0.026482 0.015847
v -0.007937 0.021325 0.015847
v -0.004905 0.017152 0.015847
v -0.000000 0.015558 0.015847
v 0.004905 0.017152 0.015847
v 0.007937 0.021325 0.015847
v 0.007937 0.026482 0.015847
v 0.004905 0.030654 0.015847
v -0.006789 0.033247 0.010593
v -0.000000 0.035453 0.010593
v -0.010985 0.027472 0.010593
v -0.010985 0.020334 0.010593
v -0.006789 0.014559 0.010593
v -0.000000 0.012353 0.010593
v 0.006789 0.014559 0.010593
v 0.010985 0.020334 0.010593
v 0.010985 0.027472 0.010593
v 0.006789 0.033247 0.010593
v -0.006789 0.033247 0.016206
v -0.000000 0.035453 0.016206
v -0.010985 0.027472 0.016206
v -0.010985 0.020334 0.016206
v -0.006789 0.014559 0.016206
v -0.000000 0.012353 0.016206
v 0.006789 0.014559 0.016206
v 0.010985 0.020334 0.016206
v 0.010985 0.027472 0.016206
v 0.006789 0.033247 0.016206
v -0.004071 0.029507 0.017059
v 0.000000 0.030830 0.017059
v -0.006588 0.026044 0.017059
v -0.006588 0.021763 0.017059
v -0.004071 0.018299 0.017059
v 0.000000 0.016977 0.017059
v 0.004071 0.018299 0.017059
v 0.006588 0.021763 0.017059
v 0.006588 0.026044 0.017059
v 0.004071 0.029507 0.017059
v 0.013719 0.034148 0.010593
v 0.016028 0.035260 0.011974
v 0.013719 0.034148 0.011974
v 0.013149 0.031649 0.011974
v 0.014747 0.029645 0.011974
v 0.017309 0.029645 0.011974
v 0.018907 0.031649 0.011974
v 0.018337 0.034148 0.011974
v 0.016028 0.035260 0.010593
v 0.013149 0.031649 0.010593
v 0.014747 0.029645 0.010593
v 0.017309 0.029645 0.010593
v 0.018907 0.031649 0.010593
v 0.018337 0.034148 0.010593
v 0.021846 0.034148 0.010593
v 0.024155 0.035260 0.011974
v 0.021846 0.034148 0.011974
v 0.021275 0.031649 0.011974
v 0.022873 0.029645 0.011974
v 0.025436 0.029645 0.011974
v 0.027034 0.031649 0.011974
v 0.026464 0.034148 0.011974
v 0.024155 0.035260 0.010593
v 0.021275 0.031649 0.010593
v 0.022873 0.029645 0.010593
v 0.025436 0.029645 0.010593
v 0.027034 0.031649 0.010593
v 0.026464 0.034148 0.010593
v -0.026889 0.005827 -0.000259
v -0.023551 0.005827 -0.002361
v -0.025494 0.005827 -0.001745
v 0.023551 0.005827 -0.002361
v 0.026889 0.005827 -0.000259
v 0.025494 0.005827 -0.001745
v 0.026889 0.041022 -0.000259
v 0.023551 0.041022 -0.002361
v 0.025494 0.041022 -0.001745
v -0.023551 0.041022 -0.002361
v -0.026889 0.041022 -0.000259
v -0.025494 0.041022 -0.001745
vn -1.0000 -0.0000 -0.0000
vn -0.0000 -0.0000 1.0000
vn -0.0000 -0.9980 -0.0632
vn -0.0000 1.0000 -0.0000
vn 1.0000 -0.0000 -0.0000
vn -0.0000 -0.6174 -0.7866
vn -0.4296 0.9030 -0.0000
vn -0.0000 -0.0000 -1.0000
vn 0.4296 0.9030 -0.0000
vn -0.8252 -0.0000 -0.5649
vn -0.9018 -0.0000 -0.4321
vn -0.0000 -1.0000 -0.0000
vn 0.9018 -0.0000 -0.4321
vn 0.8252 -0.0000 -0.5649
vn 0.9263 -0.3767 -0.0000
vn 0.9303 0.3668 -0.0000
vn 0.4005 -0.9163 -0.0000
vn -0.9263 -0.3767 -0.0000
vn -0.9303 0.3668 -0.0000
vn -0.4005 -0.9163 -0.0000
vn -0.0000 -0.6495 0.7604
vn -0.0000 -0.4040 0.9148
vn -0.2374 -0.3268 0.9148
vn -0.3818 -0.5254 0.7604
vn -0.5878 -0.8090 -0.0000
vn -0.5878 0.8090 -0.0000
vn -0.9511 0.3090 -0.0000
vn 0.9511 0.3090 -0.0000
vn 0.5878 0.8090 -0.0000
vn 0.5878 -0.8090 -0.0000
vn -0.9511 -0.3090 -0.0000
vn 0.9511 -0.3090 -0.0000
vn -0.0000 -0.1111 0.9938
vn 0.0653 -0.0899 0.9938
vn 0.1056 -0.0343 0.9938
vn 0.1056 0.0343 0.9938
vn 0.0653 0.0899 0.9938
vn -0.0000 0.1111 0.9938
vn -0.0653 0.0899 0.9938
vn -0.1056 0.0343 0.9938
vn -0.1056 -0.0343 0.9938
vn -0.0653 -0.0899 0.9938
vn -0.2374 0.3268 0.9148
vn -0.3842 0.1248 0.9148
vn -0.3842 -0.1248 0.9148
vn 0.2375 -0.3268 0.9148
vn 0.3842 -0.1248 0.9148
vn 0.3842 0.1248 0.9148
vn 0.2375 0.3268 0.9148
vn -0.0000 0.4040 0.9148
vn -0.6177 0.2007 0.7604
vn -0.3818 0.5255 0.7604
vn 0.3818 0.5255 0.7603
vn 0.6177 0.2007 0.7603
vn 0.3818 -0.5255 0.7603
vn -0.6177 -0.2007 0.7604
vn -0.0000 0.6495 0.7604
vn 0.6177 -0.2007 0.7603
vn -0.7818 -0.6235 -0.0000
vn -0.4339 0.9010 -0.0000
vn 0.9749 0.2225 -0.0000
vn 0.4339 0.9010 -0.0000
vn 0.7818 -0.6235 -0.0000
vn -0.9749 0.2225 -0.0000
vn 0.1528 -0.0000 -0.9883
vn 0.5329 -0.0000 -0.8462
vn -0.5329 -0.0000 -0.8462
vn -0.1528 -0.0000 -0.9883
vt 0.125857 0.955995
vt 0.127300 0.959729
vt 0.126785 0.959929
vt 0.125248 0.955953
vt 0.135202 0.954223
vt 0.135202 0.956258
vt 0.134650 0.956258
vt 0.134650 0.954223
vt 0.131387 0.958242
vt 0.131387 0.954223
vt 0.133421 0.954223
vt 0.133421 0.958242
vt 0.131387 0.958502
vt 0.129352 0.958502
vt 0.129352 0.954223
vt 0.129352 0.954423
vt 0.127909 0.958157
vt 0.127300 0.958199
vt 0.128837 0.954223
vt 0.208505 0.960670
vt 0.208445 0.962986
vt 0.207480 0.962984
vt 0.207322 0.960670
vt 0.134091 0.962952
vt 0.134091 0.960597
vt 0.134432 0.960597
vt 0.134432 0.962952
vt 0.132880 0.963097
vt 0.132806 0.963024
vt 0.132746 0.960670
vt 0.134091 0.960670
vt 0.133932 0.963025
vt 0.133855 0.963097
vt 0.208445 0.958353
vt 0.207507 0.958330
vt 0.132806 0.958315
vt 0.132880 0.958242
vt 0.133855 0.958242
vt 0.133932 0.958315
vt 0.134091 0.958242
vt 0.134432 0.958242
vt 0.127386 0.962383
vt 0.127921 0.962383
vt 0.127921 0.964052
vt 0.127386 0.964052
vt 0.134036 0.957266
vt 0.134036 0.954223
vt 0.134550 0.954470
vt 0.134621 0.954536
vt 0.134650 0.954628
vt 0.134650 0.956861
vt 0.134621 0.956954
vt 0.134550 0.957020
vt 0.133936 0.954470
vt 0.134007 0.954536
vt 0.134036 0.954628
vt 0.134036 0.956861
vt 0.134007 0.956954
vt 0.133936 0.957020
vt 0.133421 0.957266
vt 0.128455 0.962383
vt 0.128455 0.964052
vt 0.131020 0.958502
vt 0.131020 0.961545
vt 0.129352 0.961545
vt 0.131020 0.958576
vt 0.131360 0.958576
vt 0.131360 0.959562
vt 0.131020 0.959562
vt 0.134432 0.960597
vt 0.134773 0.960597
vt 0.134773 0.962952
vt 0.134432 0.962952
vt 0.131027 0.959714
vt 0.131366 0.959714
vt 0.131366 0.960700
vt 0.131027 0.960700
vt 0.131027 0.958502
vt 0.131366 0.958502
vt 0.131020 0.959640
vt 0.131360 0.959640
vt 0.131366 0.959640
vt 0.131027 0.959640
vt 0.131360 0.960777
vt 0.131020 0.960777
vt 0.134773 0.958242
vt 0.132598 0.962986
vt 0.132686 0.963024
vt 0.132611 0.963097
vt 0.132598 0.958353
vt 0.132611 0.958242
vt 0.132686 0.958315
vt 0.131634 0.962984
vt 0.131626 0.963097
vt 0.131548 0.963025
vt 0.131660 0.958330
vt 0.131548 0.958315
vt 0.131626 0.958242
vt 0.132658 0.960670
vt 0.131475 0.960670
vt 0.131387 0.960670
vt 0.205843 0.423980
vt 0.211553 0.425836
vt 0.124738 0.966400
vt 0.121799 0.965445
vt 0.129493 0.959854
vt 0.129493 0.962945
vt 0.121799 0.957354
vt 0.124738 0.956400
vt 0.119983 0.962945
vt 0.127677 0.965445
vt 0.127677 0.957354
vt 0.119983 0.959854
vt 0.131878 0.868178
vt 0.132694 0.867055
vt 0.134510 0.869555
vt 0.133190 0.869984
vt 0.134510 0.872646
vt 0.133190 0.872217
vt 0.132694 0.875146
vt 0.131878 0.874023
vt 0.129755 0.876100
vt 0.129755 0.874713
vt 0.126816 0.875146
vt 0.127631 0.874023
vt 0.124999 0.872646
vt 0.126319 0.872217
vt 0.124999 0.869555
vt 0.126319 0.869984
vt 0.126816 0.867055
vt 0.127631 0.868178
vt 0.129755 0.866100
vt 0.129755 0.867488
vt 0.220526 0.413368
vt 0.220526 0.419138
vt 0.217134 0.423807
vt 0.211646 0.425590
vt 0.206157 0.423807
vt 0.202765 0.419138
vt 0.202765 0.413367
vt 0.206157 0.408699
vt 0.211646 0.406916
vt 0.217134 0.408699
vt 0.220792 0.419123
vt 0.220792 0.413119
vt 0.211553 0.406406
vt 0.205843 0.408261
vt 0.202314 0.419123
vt 0.217263 0.423980
vt 0.217263 0.408262
vt 0.202314 0.413119
vt 0.126601 0.454789
vt 0.130940 0.454789
vt 0.123896 0.458182
vt 0.128770 0.464294
vt 0.124861 0.462412
vt 0.133645 0.458182
vt 0.132679 0.462412
vt 0.126601 0.710637
vt 0.130940 0.710637
vt 0.123896 0.714029
vt 0.128770 0.720142
vt 0.124861 0.718259
vt 0.133645 0.714029
vt 0.132679 0.718259
vt 0.128933 0.960039
vt 0.127283 0.960039
vt 0.127283 0.959929
vt 0.128933 0.959929
vt 0.128558 0.962383
vt 0.128558 0.964052
vt 0.127283 0.963217
vt 0.128108 0.962383
vt 0.127283 0.962272
vt 0.128933 0.962272
s 1
usemtl palette
f 8/1/1 6/2/1 2/3/1 1/4/1
f 6/5/2 5/6/2 4/7/2 2/8/2
f 6/9/3 8/10/3 7/11/3 5/12/3
f 2/13/4 4/14/4 3/15/4 1/10/4
f 5/16/5 7/17/5 3/18/5 4/19/5
f 3/18/6 7/17/6 8/10/6 1/4/6
f 37/20/2 22/21/2 28/22/2 38/23/2
f 36/24/7 16/25/4 15/26/4 26/27/7
f 20/28/8 21/29/8 13/30/8 15/31/8 23/32/8 24/33/8
f 19/34/2 37/20/2 38/23/2 27/35/2
f 13/30/8 17/36/8 18/37/8 25/38/8 26/39/8 15/31/8
f 16/25/4 33/40/9 23/41/9 15/26/4
f 107/42/10 9/43/11 11/44/11 117/45/10
f 11/46/4 12/47/4 113/48/4 115/49/4 114/50/4 116/51/4 118/52/4 117/53/4
f 9/11/12 107/54/12 109/55/12 108/56/12 110/57/12 112/58/12 111/59/12 10/60/12
f 10/43/13 111/61/14 113/62/14 12/44/13
f 9/63/2 10/64/2 12/65/2 11/14/2
f 29/66/15 20/67/15 24/68/16 34/69/16
f 14/70/12 13/71/12 21/72/17 30/73/17
f 18/74/18 32/75/18 35/76/19 25/77/19
f 30/78/17 21/79/17 20/67/15 29/66/15
f 32/75/18 18/74/18 17/80/20 31/81/20
f 34/69/16 24/68/16 23/82/9 33/83/9
f 36/84/7 26/85/7 25/77/19 35/76/19
f 31/41/20 17/86/20 13/71/12 14/70/12
f 22/87/2 30/88/2 29/89/2
f 19/90/2 32/91/2 31/92/2
f 28/93/2 34/94/2 33/95/2
f 27/96/2 36/97/2 35/98/2
f 37/99/2 19/90/2 31/92/2 14/30/2
f 19/90/2 27/96/2 35/98/2 32/91/2
f 27/96/2 38/100/2 16/101/2 36/97/2
f 28/93/2 22/87/2 29/89/2 34/94/2
f 22/87/2 37/99/2 14/30/2 30/88/2
f 38/100/2 28/93/2 33/95/2 16/101/2
f 44/102/21 74/102/22 73/103/23 43/103/24
f 63/104/25 53/104/25 54/105/12 64/105/12
f 59/106/26 49/106/26 51/107/27 61/107/27
f 67/108/28 57/108/28 58/109/29 68/109/29
f 64/105/12 54/105/12 55/110/30 65/110/30
f 61/107/27 51/107/27 52/111/31 62/111/31
f 68/109/29 58/109/29 50/112/4 60/112/4
f 65/110/30 55/110/30 56/113/32 66/113/32
f 62/111/31 52/111/31 53/104/25 63/104/25
f 60/112/4 50/112/4 49/106/26 59/106/26
f 66/113/32 56/113/32 57/108/28 67/108/28
f 39/114/33 60/115/33 59/116/34 40/117/34
f 40/117/34 59/116/34 61/118/35 41/119/35
f 41/119/35 61/118/35 62/120/36 42/121/36
f 42/121/36 62/120/36 63/122/37 43/123/37
f 43/123/37 63/122/37 64/124/38 44/125/38
f 44/125/38 64/124/38 65/126/39 45/127/39
f 45/127/39 65/126/39 66/128/40 46/129/40
f 46/129/40 66/128/40 67/130/41 47/131/41
f 47/131/41 67/130/41 68/132/42 48/133/42
f 48/133/42 68/132/42 60/115/33 39/114/33
f 69/134/43 71/135/44 72/136/45 73/137/23 74/138/22 75/139/46 76/140/47 77/141/48 78/142/49 70/143/50
f 41/144/51 71/144/44 69/145/43 40/145/52
f 48/146/53 78/146/49 77/147/48 47/147/54
f 45/148/55 75/148/46 74/102/22 44/102/21
f 42/149/56 72/149/45 71/144/44 41/144/51
f 39/150/57 70/150/50 78/146/49 48/146/53
f 46/151/58 76/151/47 75/148/46 45/148/55
f 43/103/24 73/103/23 72/149/45 42/149/56
f 40/145/52 69/145/43 70/150/50 39/150/57
f 47/147/54 77/147/48 76/151/47 46/151/58
s 0
f 83/152/12 89/152/12 90/153/12 84/153/12
f 82/154/59 88/154/59 89/152/59 83/152/59
f 80/155/60 87/155/60 79/156/60 81/156/60
f 85/157/61 91/157/61 92/158/61 86/158/61
f 86/158/62 92/158/62 87/155/62 80/155/62
f 97/159/12 103/159/12 104/160/12 98/160/12
f 84/153/63 90/153/63 91/157/63 85/157/63
f 80/155/2 81/156/2 82/154/2 83/152/2 84/153/2 85/157/2 86/158/2
f 81/156/64 79/156/64 88/154/64 82/154/64
f 96/161/59 102/161/59 103/159/59 97/159/59
f 94/162/60 101/162/60 93/163/60 95/163/60
f 99/164/61 105/164/61 106/165/61 100/165/61
f 100/165/62 106/165/62 101/162/62 94/162/62
f 98/160/63 104/160/63 105/164/63 99/164/63
f 94/162/2 95/163/2 96/161/2 97/159/2 98/160/2 99/164/2 100/165/2
f 95/163/64 93/163/64 102/161/64 96/161/64
s 1
f 110/166/65 114/167/65 115/168/66 112/169/66
f 112/170/66 115/171/66 113/62/14 111/61/14
f 107/42/10 117/45/10 118/172/67 109/173/67
f 109/173/67 118/172/67 116/174/68 108/175/68
f 110/166/65 108/175/68 116/174/68 114/167/65
